%TF.GenerationSoftware,KiCad,Pcbnew,(6.0.6-0)*%
%TF.CreationDate,2023-03-25T11:09:11-07:00*%
%TF.ProjectId,le2-daq-new,6c65322d-6461-4712-9d6e-65772e6b6963,rev?*%
%TF.SameCoordinates,Original*%
%TF.FileFunction,Soldermask,Bot*%
%TF.FilePolarity,Negative*%
%FSLAX46Y46*%
G04 Gerber Fmt 4.6, Leading zero omitted, Abs format (unit mm)*
G04 Created by KiCad (PCBNEW (6.0.6-0)) date 2023-03-25 11:09:11*
%MOMM*%
%LPD*%
G01*
G04 APERTURE LIST*
%ADD10R,1.700000X1.700000*%
%ADD11O,1.700000X1.700000*%
%ADD12C,2.350000*%
%ADD13R,1.208000X1.208000*%
%ADD14C,1.208000*%
%ADD15C,1.560000*%
%ADD16R,1.560000X1.560000*%
%ADD17C,1.700000*%
G04 APERTURE END LIST*
D10*
%TO.C,J9*%
X157226000Y-101605000D03*
D11*
X157226000Y-104145000D03*
X157226000Y-106685000D03*
X157226000Y-109225000D03*
X157226000Y-111765000D03*
%TD*%
D12*
%TO.C,J2*%
X200126000Y-71262000D03*
X190976000Y-71262000D03*
D13*
X179326000Y-70012000D03*
D14*
X180326000Y-68012000D03*
X181326000Y-70012000D03*
X182326000Y-68012000D03*
X183326000Y-70012000D03*
X184326000Y-68012000D03*
X185326000Y-70012000D03*
X186326000Y-68012000D03*
X187326000Y-70012000D03*
X188326000Y-68012000D03*
X189326000Y-70012000D03*
X192326000Y-68012000D03*
X193326000Y-70012000D03*
X194326000Y-68012000D03*
X195326000Y-70012000D03*
X196326000Y-68012000D03*
X197326000Y-70012000D03*
X198326000Y-68012000D03*
D13*
X179326000Y-72512000D03*
D14*
X180326000Y-74512000D03*
X181326000Y-72512000D03*
X182326000Y-74512000D03*
X183326000Y-72512000D03*
X184326000Y-74512000D03*
X185326000Y-72512000D03*
X186326000Y-74512000D03*
X187326000Y-72512000D03*
X188326000Y-74512000D03*
X189326000Y-72512000D03*
X192326000Y-74512000D03*
X193326000Y-72512000D03*
X194326000Y-74512000D03*
X195326000Y-72512000D03*
X196326000Y-74512000D03*
X197326000Y-72512000D03*
X198326000Y-74512000D03*
%TD*%
D12*
%TO.C,J1*%
X190246000Y-45466000D03*
X199396000Y-45466000D03*
D13*
X178596000Y-44216000D03*
D14*
X179596000Y-42216000D03*
X180596000Y-44216000D03*
X181596000Y-42216000D03*
X182596000Y-44216000D03*
X183596000Y-42216000D03*
X184596000Y-44216000D03*
X185596000Y-42216000D03*
X186596000Y-44216000D03*
X187596000Y-42216000D03*
X188596000Y-44216000D03*
X191596000Y-42216000D03*
X192596000Y-44216000D03*
X193596000Y-42216000D03*
X194596000Y-44216000D03*
X195596000Y-42216000D03*
X196596000Y-44216000D03*
X197596000Y-42216000D03*
D13*
X178596000Y-46716000D03*
D14*
X179596000Y-48716000D03*
X180596000Y-46716000D03*
X181596000Y-48716000D03*
X182596000Y-46716000D03*
X183596000Y-48716000D03*
X184596000Y-46716000D03*
X185596000Y-48716000D03*
X186596000Y-46716000D03*
X187596000Y-48716000D03*
X188596000Y-46716000D03*
X191596000Y-48716000D03*
X192596000Y-46716000D03*
X193596000Y-48716000D03*
X194596000Y-46716000D03*
X195596000Y-48716000D03*
X196596000Y-46716000D03*
X197596000Y-48716000D03*
%TD*%
D15*
%TO.C,U1*%
X102769000Y-53646000D03*
X102769000Y-56186000D03*
X102769000Y-58726000D03*
X102769000Y-61266000D03*
X102769000Y-63806000D03*
X102769000Y-66346000D03*
X102769000Y-68886000D03*
X102769000Y-71426000D03*
X102769000Y-73966000D03*
X102769000Y-76506000D03*
X102769000Y-79046000D03*
X102769000Y-81586000D03*
X102769000Y-84126000D03*
X102769000Y-86666000D03*
X102769000Y-89206000D03*
X102769000Y-91746000D03*
X102769000Y-94286000D03*
X102769000Y-96826000D03*
X102769000Y-99366000D03*
D16*
X128169000Y-53646000D03*
D15*
X128169000Y-56186000D03*
X128169000Y-58726000D03*
X128169000Y-61266000D03*
X128169000Y-63806000D03*
X128169000Y-66346000D03*
X128169000Y-68886000D03*
X128169000Y-71426000D03*
X128169000Y-73966000D03*
X128169000Y-76506000D03*
X128169000Y-79046000D03*
X128169000Y-81586000D03*
X128169000Y-84126000D03*
X128169000Y-86666000D03*
X128169000Y-89206000D03*
X128169000Y-91746000D03*
X128169000Y-94286000D03*
X128169000Y-96826000D03*
X128169000Y-99366000D03*
%TD*%
D12*
%TO.C,J4*%
X191516000Y-121158000D03*
X200666000Y-121158000D03*
D13*
X179866000Y-119908000D03*
D14*
X180866000Y-117908000D03*
X181866000Y-119908000D03*
X182866000Y-117908000D03*
X183866000Y-119908000D03*
X184866000Y-117908000D03*
X185866000Y-119908000D03*
X186866000Y-117908000D03*
X187866000Y-119908000D03*
X188866000Y-117908000D03*
X189866000Y-119908000D03*
X192866000Y-117908000D03*
X193866000Y-119908000D03*
X194866000Y-117908000D03*
X195866000Y-119908000D03*
X196866000Y-117908000D03*
X197866000Y-119908000D03*
X198866000Y-117908000D03*
D13*
X179866000Y-122408000D03*
D14*
X180866000Y-124408000D03*
X181866000Y-122408000D03*
X182866000Y-124408000D03*
X183866000Y-122408000D03*
X184866000Y-124408000D03*
X185866000Y-122408000D03*
X186866000Y-124408000D03*
X187866000Y-122408000D03*
X188866000Y-124408000D03*
X189866000Y-122408000D03*
X192866000Y-124408000D03*
X193866000Y-122408000D03*
X194866000Y-124408000D03*
X195866000Y-122408000D03*
X196866000Y-124408000D03*
X197866000Y-122408000D03*
X198866000Y-124408000D03*
%TD*%
D17*
%TO.C,J5*%
X90678000Y-46233000D03*
D10*
X90678000Y-43693000D03*
%TD*%
%TO.C,J6*%
X139034000Y-53604000D03*
D11*
X139034000Y-56144000D03*
X139034000Y-58684000D03*
X139034000Y-61224000D03*
X139034000Y-63764000D03*
X139034000Y-66304000D03*
X139034000Y-68844000D03*
X139034000Y-71384000D03*
X139034000Y-73924000D03*
X139034000Y-76464000D03*
X139034000Y-79004000D03*
X139034000Y-81544000D03*
X139034000Y-84084000D03*
X139034000Y-86624000D03*
X139034000Y-89164000D03*
X139034000Y-91704000D03*
X139034000Y-94244000D03*
X139034000Y-96784000D03*
X139034000Y-99324000D03*
%TD*%
D17*
%TO.C,J8*%
X156972000Y-89393000D03*
D11*
X156972000Y-86853000D03*
D10*
X156972000Y-84313000D03*
%TD*%
%TO.C,J7*%
X90634000Y-99304000D03*
D11*
X90634000Y-96764000D03*
X90634000Y-94224000D03*
X90634000Y-91684000D03*
X90634000Y-89144000D03*
X90634000Y-86604000D03*
X90634000Y-84064000D03*
X90634000Y-81524000D03*
X90634000Y-78984000D03*
X90634000Y-76444000D03*
X90634000Y-73904000D03*
X90634000Y-71364000D03*
X90634000Y-68824000D03*
X90634000Y-66284000D03*
X90634000Y-63744000D03*
X90634000Y-61204000D03*
X90634000Y-58664000D03*
X90634000Y-56124000D03*
X90634000Y-53584000D03*
%TD*%
D12*
%TO.C,J3*%
X200126000Y-94376000D03*
X190976000Y-94376000D03*
D13*
X179326000Y-93126000D03*
D14*
X180326000Y-91126000D03*
X181326000Y-93126000D03*
X182326000Y-91126000D03*
X183326000Y-93126000D03*
X184326000Y-91126000D03*
X185326000Y-93126000D03*
X186326000Y-91126000D03*
X187326000Y-93126000D03*
X188326000Y-91126000D03*
X189326000Y-93126000D03*
X192326000Y-91126000D03*
X193326000Y-93126000D03*
X194326000Y-91126000D03*
X195326000Y-93126000D03*
X196326000Y-91126000D03*
X197326000Y-93126000D03*
X198326000Y-91126000D03*
D13*
X179326000Y-95626000D03*
D14*
X180326000Y-97626000D03*
X181326000Y-95626000D03*
X182326000Y-97626000D03*
X183326000Y-95626000D03*
X184326000Y-97626000D03*
X185326000Y-95626000D03*
X186326000Y-97626000D03*
X187326000Y-95626000D03*
X188326000Y-97626000D03*
X189326000Y-95626000D03*
X192326000Y-97626000D03*
X193326000Y-95626000D03*
X194326000Y-97626000D03*
X195326000Y-95626000D03*
X196326000Y-97626000D03*
X197326000Y-95626000D03*
X198326000Y-97626000D03*
%TD*%
M02*
