%TF.GenerationSoftware,KiCad,Pcbnew,(6.0.6-0)*%
%TF.CreationDate,2023-03-25T11:09:11-07:00*%
%TF.ProjectId,le2-daq-new,6c65322d-6461-4712-9d6e-65772e6b6963,rev?*%
%TF.SameCoordinates,Original*%
%TF.FileFunction,Legend,Top*%
%TF.FilePolarity,Positive*%
%FSLAX46Y46*%
G04 Gerber Fmt 4.6, Leading zero omitted, Abs format (unit mm)*
G04 Created by KiCad (PCBNEW (6.0.6-0)) date 2023-03-25 11:09:11*
%MOMM*%
%LPD*%
G01*
G04 APERTURE LIST*
%ADD10C,0.150000*%
%ADD11C,0.120000*%
%ADD12C,0.127000*%
%ADD13C,0.010000*%
G04 APERTURE END LIST*
D10*
X148590000Y-50800000D02*
X162306000Y-50800000D01*
X162306000Y-50800000D02*
X162306000Y-69088000D01*
X162306000Y-69088000D02*
X148590000Y-69088000D01*
X148590000Y-69088000D02*
X148590000Y-50800000D01*
X173482000Y-106680000D02*
X165608000Y-106680000D01*
X165608000Y-106680000D02*
X165608000Y-52832000D01*
X165608000Y-52832000D02*
X173482000Y-52832000D01*
X173482000Y-52832000D02*
X173482000Y-106680000D01*
X95758095Y-97131142D02*
X95710476Y-97178761D01*
X95567619Y-97226380D01*
X95472380Y-97226380D01*
X95329523Y-97178761D01*
X95234285Y-97083523D01*
X95186666Y-96988285D01*
X95139047Y-96797809D01*
X95139047Y-96654952D01*
X95186666Y-96464476D01*
X95234285Y-96369238D01*
X95329523Y-96274000D01*
X95472380Y-96226380D01*
X95567619Y-96226380D01*
X95710476Y-96274000D01*
X95758095Y-96321619D01*
X96186666Y-97226380D02*
X96186666Y-96226380D01*
X96520000Y-96940666D01*
X96853333Y-96226380D01*
X96853333Y-97226380D01*
X97329523Y-97226380D02*
X97329523Y-96226380D01*
X97567619Y-96226380D01*
X97710476Y-96274000D01*
X97805714Y-96369238D01*
X97853333Y-96464476D01*
X97900952Y-96654952D01*
X97900952Y-96797809D01*
X97853333Y-96988285D01*
X97805714Y-97083523D01*
X97710476Y-97178761D01*
X97567619Y-97226380D01*
X97329523Y-97226380D01*
X132842095Y-53094000D02*
X132746857Y-53046380D01*
X132604000Y-53046380D01*
X132461142Y-53094000D01*
X132365904Y-53189238D01*
X132318285Y-53284476D01*
X132270666Y-53474952D01*
X132270666Y-53617809D01*
X132318285Y-53808285D01*
X132365904Y-53903523D01*
X132461142Y-53998761D01*
X132604000Y-54046380D01*
X132699238Y-54046380D01*
X132842095Y-53998761D01*
X132889714Y-53951142D01*
X132889714Y-53617809D01*
X132699238Y-53617809D01*
X133318285Y-54046380D02*
X133318285Y-53046380D01*
X133889714Y-54046380D01*
X133889714Y-53046380D01*
X134365904Y-54046380D02*
X134365904Y-53046380D01*
X134604000Y-53046380D01*
X134746857Y-53094000D01*
X134842095Y-53189238D01*
X134889714Y-53284476D01*
X134937333Y-53474952D01*
X134937333Y-53617809D01*
X134889714Y-53808285D01*
X134842095Y-53903523D01*
X134746857Y-53998761D01*
X134604000Y-54046380D01*
X134365904Y-54046380D01*
X131016666Y-73668000D02*
X130921428Y-73620380D01*
X130778571Y-73620380D01*
X130635714Y-73668000D01*
X130540476Y-73763238D01*
X130492857Y-73858476D01*
X130445238Y-74048952D01*
X130445238Y-74191809D01*
X130492857Y-74382285D01*
X130540476Y-74477523D01*
X130635714Y-74572761D01*
X130778571Y-74620380D01*
X130873809Y-74620380D01*
X131016666Y-74572761D01*
X131064285Y-74525142D01*
X131064285Y-74191809D01*
X130873809Y-74191809D01*
X131492857Y-74620380D02*
X131492857Y-73620380D01*
X131873809Y-73620380D01*
X131969047Y-73668000D01*
X132016666Y-73715619D01*
X132064285Y-73810857D01*
X132064285Y-73953714D01*
X132016666Y-74048952D01*
X131969047Y-74096571D01*
X131873809Y-74144190D01*
X131492857Y-74144190D01*
X132492857Y-74620380D02*
X132492857Y-73620380D01*
X133159523Y-73620380D02*
X133350000Y-73620380D01*
X133445238Y-73668000D01*
X133540476Y-73763238D01*
X133588095Y-73953714D01*
X133588095Y-74287047D01*
X133540476Y-74477523D01*
X133445238Y-74572761D01*
X133350000Y-74620380D01*
X133159523Y-74620380D01*
X133064285Y-74572761D01*
X132969047Y-74477523D01*
X132921428Y-74287047D01*
X132921428Y-73953714D01*
X132969047Y-73763238D01*
X133064285Y-73668000D01*
X133159523Y-73620380D01*
X135302380Y-74620380D02*
X134730952Y-74620380D01*
X135016666Y-74620380D02*
X135016666Y-73620380D01*
X134921428Y-73763238D01*
X134826190Y-73858476D01*
X134730952Y-73906095D01*
X135873809Y-74048952D02*
X135778571Y-74001333D01*
X135730952Y-73953714D01*
X135683333Y-73858476D01*
X135683333Y-73810857D01*
X135730952Y-73715619D01*
X135778571Y-73668000D01*
X135873809Y-73620380D01*
X136064285Y-73620380D01*
X136159523Y-73668000D01*
X136207142Y-73715619D01*
X136254761Y-73810857D01*
X136254761Y-73858476D01*
X136207142Y-73953714D01*
X136159523Y-74001333D01*
X136064285Y-74048952D01*
X135873809Y-74048952D01*
X135778571Y-74096571D01*
X135730952Y-74144190D01*
X135683333Y-74239428D01*
X135683333Y-74429904D01*
X135730952Y-74525142D01*
X135778571Y-74572761D01*
X135873809Y-74620380D01*
X136064285Y-74620380D01*
X136159523Y-74572761D01*
X136207142Y-74525142D01*
X136254761Y-74429904D01*
X136254761Y-74239428D01*
X136207142Y-74144190D01*
X136159523Y-74096571D01*
X136064285Y-74048952D01*
X88336380Y-47267523D02*
X87336380Y-47267523D01*
X87336380Y-46886571D01*
X87384000Y-46791333D01*
X87431619Y-46743714D01*
X87526857Y-46696095D01*
X87669714Y-46696095D01*
X87764952Y-46743714D01*
X87812571Y-46791333D01*
X87860190Y-46886571D01*
X87860190Y-47267523D01*
X87336380Y-46077047D02*
X87336380Y-45886571D01*
X87384000Y-45791333D01*
X87479238Y-45696095D01*
X87669714Y-45648476D01*
X88003047Y-45648476D01*
X88193523Y-45696095D01*
X88288761Y-45791333D01*
X88336380Y-45886571D01*
X88336380Y-46077047D01*
X88288761Y-46172285D01*
X88193523Y-46267523D01*
X88003047Y-46315142D01*
X87669714Y-46315142D01*
X87479238Y-46267523D01*
X87384000Y-46172285D01*
X87336380Y-46077047D01*
X87336380Y-45315142D02*
X88336380Y-45077047D01*
X87622095Y-44886571D01*
X88336380Y-44696095D01*
X87336380Y-44458000D01*
X87812571Y-44077047D02*
X87812571Y-43743714D01*
X88336380Y-43600857D02*
X88336380Y-44077047D01*
X87336380Y-44077047D01*
X87336380Y-43600857D01*
X88336380Y-42600857D02*
X87860190Y-42934190D01*
X88336380Y-43172285D02*
X87336380Y-43172285D01*
X87336380Y-42791333D01*
X87384000Y-42696095D01*
X87431619Y-42648476D01*
X87526857Y-42600857D01*
X87669714Y-42600857D01*
X87764952Y-42648476D01*
X87812571Y-42696095D01*
X87860190Y-42791333D01*
X87860190Y-43172285D01*
X93472095Y-43188000D02*
X93376857Y-43140380D01*
X93234000Y-43140380D01*
X93091142Y-43188000D01*
X92995904Y-43283238D01*
X92948285Y-43378476D01*
X92900666Y-43568952D01*
X92900666Y-43711809D01*
X92948285Y-43902285D01*
X92995904Y-43997523D01*
X93091142Y-44092761D01*
X93234000Y-44140380D01*
X93329238Y-44140380D01*
X93472095Y-44092761D01*
X93519714Y-44045142D01*
X93519714Y-43711809D01*
X93329238Y-43711809D01*
X93948285Y-44140380D02*
X93948285Y-43140380D01*
X94519714Y-44140380D01*
X94519714Y-43140380D01*
X94995904Y-44140380D02*
X94995904Y-43140380D01*
X95234000Y-43140380D01*
X95376857Y-43188000D01*
X95472095Y-43283238D01*
X95519714Y-43378476D01*
X95567333Y-43568952D01*
X95567333Y-43711809D01*
X95519714Y-43902285D01*
X95472095Y-43997523D01*
X95376857Y-44092761D01*
X95234000Y-44140380D01*
X94995904Y-44140380D01*
X150507095Y-61582300D02*
X150386142Y-61521823D01*
X150204714Y-61521823D01*
X150023285Y-61582300D01*
X149902333Y-61703252D01*
X149841857Y-61824204D01*
X149781380Y-62066109D01*
X149781380Y-62247538D01*
X149841857Y-62489442D01*
X149902333Y-62610395D01*
X150023285Y-62731347D01*
X150204714Y-62791823D01*
X150325666Y-62791823D01*
X150507095Y-62731347D01*
X150567571Y-62670871D01*
X150567571Y-62247538D01*
X150325666Y-62247538D01*
X151111857Y-62791823D02*
X151111857Y-61945157D01*
X151111857Y-62187061D02*
X151172333Y-62066109D01*
X151232809Y-62005633D01*
X151353761Y-61945157D01*
X151474714Y-61945157D01*
X152079476Y-62791823D02*
X151958523Y-62731347D01*
X151898047Y-62670871D01*
X151837571Y-62549919D01*
X151837571Y-62187061D01*
X151898047Y-62066109D01*
X151958523Y-62005633D01*
X152079476Y-61945157D01*
X152260904Y-61945157D01*
X152381857Y-62005633D01*
X152442333Y-62066109D01*
X152502809Y-62187061D01*
X152502809Y-62549919D01*
X152442333Y-62670871D01*
X152381857Y-62731347D01*
X152260904Y-62791823D01*
X152079476Y-62791823D01*
X153591380Y-61945157D02*
X153591380Y-62791823D01*
X153047095Y-61945157D02*
X153047095Y-62610395D01*
X153107571Y-62731347D01*
X153228523Y-62791823D01*
X153409952Y-62791823D01*
X153530904Y-62731347D01*
X153591380Y-62670871D01*
X154196142Y-61945157D02*
X154196142Y-62791823D01*
X154196142Y-62066109D02*
X154256619Y-62005633D01*
X154377571Y-61945157D01*
X154559000Y-61945157D01*
X154679952Y-62005633D01*
X154740428Y-62126585D01*
X154740428Y-62791823D01*
X155889476Y-62791823D02*
X155889476Y-61521823D01*
X155889476Y-62731347D02*
X155768523Y-62791823D01*
X155526619Y-62791823D01*
X155405666Y-62731347D01*
X155345190Y-62670871D01*
X155284714Y-62549919D01*
X155284714Y-62187061D01*
X155345190Y-62066109D01*
X155405666Y-62005633D01*
X155526619Y-61945157D01*
X155768523Y-61945157D01*
X155889476Y-62005633D01*
X157461857Y-62791823D02*
X157461857Y-61521823D01*
X157764238Y-61521823D01*
X157945666Y-61582300D01*
X158066619Y-61703252D01*
X158127095Y-61824204D01*
X158187571Y-62066109D01*
X158187571Y-62247538D01*
X158127095Y-62489442D01*
X158066619Y-62610395D01*
X157945666Y-62731347D01*
X157764238Y-62791823D01*
X157461857Y-62791823D01*
X158671380Y-62428966D02*
X159276142Y-62428966D01*
X158550428Y-62791823D02*
X158973761Y-61521823D01*
X159397095Y-62791823D01*
X160667095Y-62912776D02*
X160546142Y-62852300D01*
X160425190Y-62731347D01*
X160243761Y-62549919D01*
X160122809Y-62489442D01*
X160001857Y-62489442D01*
X160062333Y-62791823D02*
X159941380Y-62731347D01*
X159820428Y-62610395D01*
X159759952Y-62368490D01*
X159759952Y-61945157D01*
X159820428Y-61703252D01*
X159941380Y-61582300D01*
X160062333Y-61521823D01*
X160304238Y-61521823D01*
X160425190Y-61582300D01*
X160546142Y-61703252D01*
X160606619Y-61945157D01*
X160606619Y-62368490D01*
X160546142Y-62610395D01*
X160425190Y-62731347D01*
X160304238Y-62791823D01*
X160062333Y-62791823D01*
X150718761Y-64836523D02*
X150114000Y-64836523D01*
X150114000Y-63566523D01*
X151142095Y-64171285D02*
X151565428Y-64171285D01*
X151746857Y-64836523D02*
X151142095Y-64836523D01*
X151142095Y-63566523D01*
X151746857Y-63566523D01*
X152230666Y-63687476D02*
X152291142Y-63627000D01*
X152412095Y-63566523D01*
X152714476Y-63566523D01*
X152835428Y-63627000D01*
X152895904Y-63687476D01*
X152956380Y-63808428D01*
X152956380Y-63929380D01*
X152895904Y-64110809D01*
X152170190Y-64836523D01*
X152956380Y-64836523D01*
X154468285Y-64836523D02*
X154468285Y-63566523D01*
X154468285Y-64171285D02*
X155194000Y-64171285D01*
X155194000Y-64836523D02*
X155194000Y-63566523D01*
X155980190Y-64836523D02*
X155859238Y-64776047D01*
X155798761Y-64715571D01*
X155738285Y-64594619D01*
X155738285Y-64231761D01*
X155798761Y-64110809D01*
X155859238Y-64050333D01*
X155980190Y-63989857D01*
X156161619Y-63989857D01*
X156282571Y-64050333D01*
X156343047Y-64110809D01*
X156403523Y-64231761D01*
X156403523Y-64594619D01*
X156343047Y-64715571D01*
X156282571Y-64776047D01*
X156161619Y-64836523D01*
X155980190Y-64836523D01*
X156766380Y-63989857D02*
X157250190Y-63989857D01*
X156947809Y-63566523D02*
X156947809Y-64655095D01*
X157008285Y-64776047D01*
X157129238Y-64836523D01*
X157250190Y-64836523D01*
X157492095Y-63989857D02*
X157975904Y-63989857D01*
X157673523Y-64836523D02*
X157673523Y-63747952D01*
X157734000Y-63627000D01*
X157854952Y-63566523D01*
X157975904Y-63566523D01*
X158399238Y-64836523D02*
X158399238Y-63989857D01*
X158399238Y-63566523D02*
X158338761Y-63627000D01*
X158399238Y-63687476D01*
X158459714Y-63627000D01*
X158399238Y-63566523D01*
X158399238Y-63687476D01*
X159004000Y-64836523D02*
X159004000Y-63989857D01*
X159004000Y-64231761D02*
X159064476Y-64110809D01*
X159124952Y-64050333D01*
X159245904Y-63989857D01*
X159366857Y-63989857D01*
X160274000Y-64776047D02*
X160153047Y-64836523D01*
X159911142Y-64836523D01*
X159790190Y-64776047D01*
X159729714Y-64655095D01*
X159729714Y-64171285D01*
X159790190Y-64050333D01*
X159911142Y-63989857D01*
X160153047Y-63989857D01*
X160274000Y-64050333D01*
X160334476Y-64171285D01*
X160334476Y-64292238D01*
X159729714Y-64413190D01*
X153016857Y-65732176D02*
X153077333Y-65671700D01*
X153198285Y-65611223D01*
X153500666Y-65611223D01*
X153621619Y-65671700D01*
X153682095Y-65732176D01*
X153742571Y-65853128D01*
X153742571Y-65974080D01*
X153682095Y-66155509D01*
X152956380Y-66881223D01*
X153742571Y-66881223D01*
X154528761Y-65611223D02*
X154649714Y-65611223D01*
X154770666Y-65671700D01*
X154831142Y-65732176D01*
X154891619Y-65853128D01*
X154952095Y-66095033D01*
X154952095Y-66397414D01*
X154891619Y-66639319D01*
X154831142Y-66760271D01*
X154770666Y-66820747D01*
X154649714Y-66881223D01*
X154528761Y-66881223D01*
X154407809Y-66820747D01*
X154347333Y-66760271D01*
X154286857Y-66639319D01*
X154226380Y-66397414D01*
X154226380Y-66095033D01*
X154286857Y-65853128D01*
X154347333Y-65732176D01*
X154407809Y-65671700D01*
X154528761Y-65611223D01*
X155435904Y-65732176D02*
X155496380Y-65671700D01*
X155617333Y-65611223D01*
X155919714Y-65611223D01*
X156040666Y-65671700D01*
X156101142Y-65732176D01*
X156161619Y-65853128D01*
X156161619Y-65974080D01*
X156101142Y-66155509D01*
X155375428Y-66881223D01*
X156161619Y-66881223D01*
X156584952Y-65611223D02*
X157371142Y-65611223D01*
X156947809Y-66095033D01*
X157129238Y-66095033D01*
X157250190Y-66155509D01*
X157310666Y-66215985D01*
X157371142Y-66336938D01*
X157371142Y-66639319D01*
X157310666Y-66760271D01*
X157250190Y-66820747D01*
X157129238Y-66881223D01*
X156766380Y-66881223D01*
X156645428Y-66820747D01*
X156584952Y-66760271D01*
X94440666Y-83828000D02*
X94345428Y-83780380D01*
X94202571Y-83780380D01*
X94059714Y-83828000D01*
X93964476Y-83923238D01*
X93916857Y-84018476D01*
X93869238Y-84208952D01*
X93869238Y-84351809D01*
X93916857Y-84542285D01*
X93964476Y-84637523D01*
X94059714Y-84732761D01*
X94202571Y-84780380D01*
X94297809Y-84780380D01*
X94440666Y-84732761D01*
X94488285Y-84685142D01*
X94488285Y-84351809D01*
X94297809Y-84351809D01*
X94916857Y-84780380D02*
X94916857Y-83780380D01*
X95297809Y-83780380D01*
X95393047Y-83828000D01*
X95440666Y-83875619D01*
X95488285Y-83970857D01*
X95488285Y-84113714D01*
X95440666Y-84208952D01*
X95393047Y-84256571D01*
X95297809Y-84304190D01*
X94916857Y-84304190D01*
X95916857Y-84780380D02*
X95916857Y-83780380D01*
X96583523Y-83780380D02*
X96774000Y-83780380D01*
X96869238Y-83828000D01*
X96964476Y-83923238D01*
X97012095Y-84113714D01*
X97012095Y-84447047D01*
X96964476Y-84637523D01*
X96869238Y-84732761D01*
X96774000Y-84780380D01*
X96583523Y-84780380D01*
X96488285Y-84732761D01*
X96393047Y-84637523D01*
X96345428Y-84447047D01*
X96345428Y-84113714D01*
X96393047Y-83923238D01*
X96488285Y-83828000D01*
X96583523Y-83780380D01*
X98726380Y-84780380D02*
X98154952Y-84780380D01*
X98440666Y-84780380D02*
X98440666Y-83780380D01*
X98345428Y-83923238D01*
X98250190Y-84018476D01*
X98154952Y-84066095D01*
X99107333Y-83875619D02*
X99154952Y-83828000D01*
X99250190Y-83780380D01*
X99488285Y-83780380D01*
X99583523Y-83828000D01*
X99631142Y-83875619D01*
X99678761Y-83970857D01*
X99678761Y-84066095D01*
X99631142Y-84208952D01*
X99059714Y-84780380D01*
X99678761Y-84780380D01*
X92757809Y-52792380D02*
X93376857Y-52792380D01*
X93043523Y-53173333D01*
X93186380Y-53173333D01*
X93281619Y-53220952D01*
X93329238Y-53268571D01*
X93376857Y-53363809D01*
X93376857Y-53601904D01*
X93329238Y-53697142D01*
X93281619Y-53744761D01*
X93186380Y-53792380D01*
X92900666Y-53792380D01*
X92805428Y-53744761D01*
X92757809Y-53697142D01*
X93805428Y-53697142D02*
X93853047Y-53744761D01*
X93805428Y-53792380D01*
X93757809Y-53744761D01*
X93805428Y-53697142D01*
X93805428Y-53792380D01*
X94186380Y-52792380D02*
X94805428Y-52792380D01*
X94472095Y-53173333D01*
X94614952Y-53173333D01*
X94710190Y-53220952D01*
X94757809Y-53268571D01*
X94805428Y-53363809D01*
X94805428Y-53601904D01*
X94757809Y-53697142D01*
X94710190Y-53744761D01*
X94614952Y-53792380D01*
X94329238Y-53792380D01*
X94234000Y-53744761D01*
X94186380Y-53697142D01*
X95091142Y-52792380D02*
X95424476Y-53792380D01*
X95757809Y-52792380D01*
X94440666Y-73414000D02*
X94345428Y-73366380D01*
X94202571Y-73366380D01*
X94059714Y-73414000D01*
X93964476Y-73509238D01*
X93916857Y-73604476D01*
X93869238Y-73794952D01*
X93869238Y-73937809D01*
X93916857Y-74128285D01*
X93964476Y-74223523D01*
X94059714Y-74318761D01*
X94202571Y-74366380D01*
X94297809Y-74366380D01*
X94440666Y-74318761D01*
X94488285Y-74271142D01*
X94488285Y-73937809D01*
X94297809Y-73937809D01*
X94916857Y-74366380D02*
X94916857Y-73366380D01*
X95297809Y-73366380D01*
X95393047Y-73414000D01*
X95440666Y-73461619D01*
X95488285Y-73556857D01*
X95488285Y-73699714D01*
X95440666Y-73794952D01*
X95393047Y-73842571D01*
X95297809Y-73890190D01*
X94916857Y-73890190D01*
X95916857Y-74366380D02*
X95916857Y-73366380D01*
X96583523Y-73366380D02*
X96774000Y-73366380D01*
X96869238Y-73414000D01*
X96964476Y-73509238D01*
X97012095Y-73699714D01*
X97012095Y-74033047D01*
X96964476Y-74223523D01*
X96869238Y-74318761D01*
X96774000Y-74366380D01*
X96583523Y-74366380D01*
X96488285Y-74318761D01*
X96393047Y-74223523D01*
X96345428Y-74033047D01*
X96345428Y-73699714D01*
X96393047Y-73509238D01*
X96488285Y-73414000D01*
X96583523Y-73366380D01*
X98154952Y-73461619D02*
X98202571Y-73414000D01*
X98297809Y-73366380D01*
X98535904Y-73366380D01*
X98631142Y-73414000D01*
X98678761Y-73461619D01*
X98726380Y-73556857D01*
X98726380Y-73652095D01*
X98678761Y-73794952D01*
X98107333Y-74366380D01*
X98726380Y-74366380D01*
X99631142Y-73366380D02*
X99154952Y-73366380D01*
X99107333Y-73842571D01*
X99154952Y-73794952D01*
X99250190Y-73747333D01*
X99488285Y-73747333D01*
X99583523Y-73794952D01*
X99631142Y-73842571D01*
X99678761Y-73937809D01*
X99678761Y-74175904D01*
X99631142Y-74271142D01*
X99583523Y-74318761D01*
X99488285Y-74366380D01*
X99250190Y-74366380D01*
X99154952Y-74318761D01*
X99107333Y-74271142D01*
X170068761Y-103994095D02*
X168068761Y-103994095D01*
X168068761Y-103517904D01*
X168164000Y-103232190D01*
X168354476Y-103041714D01*
X168544952Y-102946476D01*
X168925904Y-102851238D01*
X169211619Y-102851238D01*
X169592571Y-102946476D01*
X169783047Y-103041714D01*
X169973523Y-103232190D01*
X170068761Y-103517904D01*
X170068761Y-103994095D01*
X168068761Y-101613142D02*
X168068761Y-101232190D01*
X168164000Y-101041714D01*
X168354476Y-100851238D01*
X168735428Y-100756000D01*
X169402095Y-100756000D01*
X169783047Y-100851238D01*
X169973523Y-101041714D01*
X170068761Y-101232190D01*
X170068761Y-101613142D01*
X169973523Y-101803619D01*
X169783047Y-101994095D01*
X169402095Y-102089333D01*
X168735428Y-102089333D01*
X168354476Y-101994095D01*
X168164000Y-101803619D01*
X168068761Y-101613142D01*
X170068761Y-98375047D02*
X168068761Y-98375047D01*
X170068761Y-97232190D01*
X168068761Y-97232190D01*
X168068761Y-95898857D02*
X168068761Y-95517904D01*
X168164000Y-95327428D01*
X168354476Y-95136952D01*
X168735428Y-95041714D01*
X169402095Y-95041714D01*
X169783047Y-95136952D01*
X169973523Y-95327428D01*
X170068761Y-95517904D01*
X170068761Y-95898857D01*
X169973523Y-96089333D01*
X169783047Y-96279809D01*
X169402095Y-96375047D01*
X168735428Y-96375047D01*
X168354476Y-96279809D01*
X168164000Y-96089333D01*
X168068761Y-95898857D01*
X168068761Y-94470285D02*
X168068761Y-93327428D01*
X170068761Y-93898857D02*
X168068761Y-93898857D01*
X169973523Y-91232190D02*
X170068761Y-90946476D01*
X170068761Y-90470285D01*
X169973523Y-90279809D01*
X169878285Y-90184571D01*
X169687809Y-90089333D01*
X169497333Y-90089333D01*
X169306857Y-90184571D01*
X169211619Y-90279809D01*
X169116380Y-90470285D01*
X169021142Y-90851238D01*
X168925904Y-91041714D01*
X168830666Y-91136952D01*
X168640190Y-91232190D01*
X168449714Y-91232190D01*
X168259238Y-91136952D01*
X168164000Y-91041714D01*
X168068761Y-90851238D01*
X168068761Y-90375047D01*
X168164000Y-90089333D01*
X168068761Y-88851238D02*
X168068761Y-88470285D01*
X168164000Y-88279809D01*
X168354476Y-88089333D01*
X168735428Y-87994095D01*
X169402095Y-87994095D01*
X169783047Y-88089333D01*
X169973523Y-88279809D01*
X170068761Y-88470285D01*
X170068761Y-88851238D01*
X169973523Y-89041714D01*
X169783047Y-89232190D01*
X169402095Y-89327428D01*
X168735428Y-89327428D01*
X168354476Y-89232190D01*
X168164000Y-89041714D01*
X168068761Y-88851238D01*
X170068761Y-86184571D02*
X170068761Y-87136952D01*
X168068761Y-87136952D01*
X170068761Y-85517904D02*
X168068761Y-85517904D01*
X168068761Y-85041714D01*
X168164000Y-84756000D01*
X168354476Y-84565523D01*
X168544952Y-84470285D01*
X168925904Y-84375047D01*
X169211619Y-84375047D01*
X169592571Y-84470285D01*
X169783047Y-84565523D01*
X169973523Y-84756000D01*
X170068761Y-85041714D01*
X170068761Y-85517904D01*
X169021142Y-83517904D02*
X169021142Y-82851238D01*
X170068761Y-82565523D02*
X170068761Y-83517904D01*
X168068761Y-83517904D01*
X168068761Y-82565523D01*
X170068761Y-80565523D02*
X169116380Y-81232190D01*
X170068761Y-81708380D02*
X168068761Y-81708380D01*
X168068761Y-80946476D01*
X168164000Y-80756000D01*
X168259238Y-80660761D01*
X168449714Y-80565523D01*
X168735428Y-80565523D01*
X168925904Y-80660761D01*
X169021142Y-80756000D01*
X169116380Y-80946476D01*
X169116380Y-81708380D01*
X170068761Y-78184571D02*
X168068761Y-78184571D01*
X168068761Y-77422666D01*
X168164000Y-77232190D01*
X168259238Y-77136952D01*
X168449714Y-77041714D01*
X168735428Y-77041714D01*
X168925904Y-77136952D01*
X169021142Y-77232190D01*
X169116380Y-77422666D01*
X169116380Y-78184571D01*
X169878285Y-75041714D02*
X169973523Y-75136952D01*
X170068761Y-75422666D01*
X170068761Y-75613142D01*
X169973523Y-75898857D01*
X169783047Y-76089333D01*
X169592571Y-76184571D01*
X169211619Y-76279809D01*
X168925904Y-76279809D01*
X168544952Y-76184571D01*
X168354476Y-76089333D01*
X168164000Y-75898857D01*
X168068761Y-75613142D01*
X168068761Y-75422666D01*
X168164000Y-75136952D01*
X168259238Y-75041714D01*
X170068761Y-74184571D02*
X168068761Y-74184571D01*
X169021142Y-73232190D02*
X169021142Y-72565523D01*
X170068761Y-72279809D02*
X170068761Y-73232190D01*
X168068761Y-73232190D01*
X168068761Y-72279809D01*
X169973523Y-71517904D02*
X170068761Y-71327428D01*
X170068761Y-70946476D01*
X169973523Y-70756000D01*
X169783047Y-70660761D01*
X169687809Y-70660761D01*
X169497333Y-70756000D01*
X169402095Y-70946476D01*
X169402095Y-71232190D01*
X169306857Y-71422666D01*
X169116380Y-71517904D01*
X169021142Y-71517904D01*
X168830666Y-71422666D01*
X168735428Y-71232190D01*
X168735428Y-70946476D01*
X168830666Y-70756000D01*
X168068761Y-68565523D02*
X168068761Y-67422666D01*
X170068761Y-67994095D02*
X168068761Y-67994095D01*
X170068761Y-66756000D02*
X168068761Y-66756000D01*
X169021142Y-66756000D02*
X169021142Y-65613142D01*
X170068761Y-65613142D02*
X168068761Y-65613142D01*
X170068761Y-64660761D02*
X168068761Y-64660761D01*
X169973523Y-63803619D02*
X170068761Y-63517904D01*
X170068761Y-63041714D01*
X169973523Y-62851238D01*
X169878285Y-62756000D01*
X169687809Y-62660761D01*
X169497333Y-62660761D01*
X169306857Y-62756000D01*
X169211619Y-62851238D01*
X169116380Y-63041714D01*
X169021142Y-63422666D01*
X168925904Y-63613142D01*
X168830666Y-63708380D01*
X168640190Y-63803619D01*
X168449714Y-63803619D01*
X168259238Y-63708380D01*
X168164000Y-63613142D01*
X168068761Y-63422666D01*
X168068761Y-62946476D01*
X168164000Y-62660761D01*
X168068761Y-60470285D02*
X170068761Y-59994095D01*
X168640190Y-59613142D01*
X170068761Y-59232190D01*
X168068761Y-58756000D01*
X169497333Y-58089333D02*
X169497333Y-57136952D01*
X170068761Y-58279809D02*
X168068761Y-57613142D01*
X170068761Y-56946476D01*
X169116380Y-55898857D02*
X170068761Y-55898857D01*
X168068761Y-56565523D02*
X169116380Y-55898857D01*
X168068761Y-55232190D01*
X133183333Y-64206380D02*
X132850000Y-63730190D01*
X132611904Y-64206380D02*
X132611904Y-63206380D01*
X132992857Y-63206380D01*
X133088095Y-63254000D01*
X133135714Y-63301619D01*
X133183333Y-63396857D01*
X133183333Y-63539714D01*
X133135714Y-63634952D01*
X133088095Y-63682571D01*
X132992857Y-63730190D01*
X132611904Y-63730190D01*
X133516666Y-63206380D02*
X134183333Y-64206380D01*
X134183333Y-63206380D02*
X133516666Y-64206380D01*
X94440666Y-88908000D02*
X94345428Y-88860380D01*
X94202571Y-88860380D01*
X94059714Y-88908000D01*
X93964476Y-89003238D01*
X93916857Y-89098476D01*
X93869238Y-89288952D01*
X93869238Y-89431809D01*
X93916857Y-89622285D01*
X93964476Y-89717523D01*
X94059714Y-89812761D01*
X94202571Y-89860380D01*
X94297809Y-89860380D01*
X94440666Y-89812761D01*
X94488285Y-89765142D01*
X94488285Y-89431809D01*
X94297809Y-89431809D01*
X94916857Y-89860380D02*
X94916857Y-88860380D01*
X95297809Y-88860380D01*
X95393047Y-88908000D01*
X95440666Y-88955619D01*
X95488285Y-89050857D01*
X95488285Y-89193714D01*
X95440666Y-89288952D01*
X95393047Y-89336571D01*
X95297809Y-89384190D01*
X94916857Y-89384190D01*
X95916857Y-89860380D02*
X95916857Y-88860380D01*
X96583523Y-88860380D02*
X96774000Y-88860380D01*
X96869238Y-88908000D01*
X96964476Y-89003238D01*
X97012095Y-89193714D01*
X97012095Y-89527047D01*
X96964476Y-89717523D01*
X96869238Y-89812761D01*
X96774000Y-89860380D01*
X96583523Y-89860380D01*
X96488285Y-89812761D01*
X96393047Y-89717523D01*
X96345428Y-89527047D01*
X96345428Y-89193714D01*
X96393047Y-89003238D01*
X96488285Y-88908000D01*
X96583523Y-88860380D01*
X98726380Y-89860380D02*
X98154952Y-89860380D01*
X98440666Y-89860380D02*
X98440666Y-88860380D01*
X98345428Y-89003238D01*
X98250190Y-89098476D01*
X98154952Y-89146095D01*
X99059714Y-88860380D02*
X99678761Y-88860380D01*
X99345428Y-89241333D01*
X99488285Y-89241333D01*
X99583523Y-89288952D01*
X99631142Y-89336571D01*
X99678761Y-89431809D01*
X99678761Y-89669904D01*
X99631142Y-89765142D01*
X99583523Y-89812761D01*
X99488285Y-89860380D01*
X99202571Y-89860380D01*
X99107333Y-89812761D01*
X99059714Y-89765142D01*
X131270666Y-55453500D02*
X131175428Y-55401119D01*
X131032571Y-55401119D01*
X130889714Y-55453500D01*
X130794476Y-55558261D01*
X130746857Y-55663023D01*
X130699238Y-55872547D01*
X130699238Y-56029690D01*
X130746857Y-56239214D01*
X130794476Y-56343976D01*
X130889714Y-56448738D01*
X131032571Y-56501119D01*
X131127809Y-56501119D01*
X131270666Y-56448738D01*
X131318285Y-56396357D01*
X131318285Y-56029690D01*
X131127809Y-56029690D01*
X131746857Y-56501119D02*
X131746857Y-55401119D01*
X132127809Y-55401119D01*
X132223047Y-55453500D01*
X132270666Y-55505880D01*
X132318285Y-55610642D01*
X132318285Y-55767785D01*
X132270666Y-55872547D01*
X132223047Y-55924928D01*
X132127809Y-55977309D01*
X131746857Y-55977309D01*
X132746857Y-56501119D02*
X132746857Y-55401119D01*
X133413523Y-55401119D02*
X133604000Y-55401119D01*
X133699238Y-55453500D01*
X133794476Y-55558261D01*
X133842095Y-55767785D01*
X133842095Y-56134452D01*
X133794476Y-56343976D01*
X133699238Y-56448738D01*
X133604000Y-56501119D01*
X133413523Y-56501119D01*
X133318285Y-56448738D01*
X133223047Y-56343976D01*
X133175428Y-56134452D01*
X133175428Y-55767785D01*
X133223047Y-55558261D01*
X133318285Y-55453500D01*
X133413523Y-55401119D01*
X134984952Y-55505880D02*
X135032571Y-55453500D01*
X135127809Y-55401119D01*
X135365904Y-55401119D01*
X135461142Y-55453500D01*
X135508761Y-55505880D01*
X135556380Y-55610642D01*
X135556380Y-55715404D01*
X135508761Y-55872547D01*
X134937333Y-56501119D01*
X135556380Y-56501119D01*
X135889714Y-55401119D02*
X136508761Y-55401119D01*
X136175428Y-55820166D01*
X136318285Y-55820166D01*
X136413523Y-55872547D01*
X136461142Y-55924928D01*
X136508761Y-56029690D01*
X136508761Y-56291595D01*
X136461142Y-56396357D01*
X136413523Y-56448738D01*
X136318285Y-56501119D01*
X136032571Y-56501119D01*
X135937333Y-56448738D01*
X135889714Y-56396357D01*
X94440666Y-70874000D02*
X94345428Y-70826380D01*
X94202571Y-70826380D01*
X94059714Y-70874000D01*
X93964476Y-70969238D01*
X93916857Y-71064476D01*
X93869238Y-71254952D01*
X93869238Y-71397809D01*
X93916857Y-71588285D01*
X93964476Y-71683523D01*
X94059714Y-71778761D01*
X94202571Y-71826380D01*
X94297809Y-71826380D01*
X94440666Y-71778761D01*
X94488285Y-71731142D01*
X94488285Y-71397809D01*
X94297809Y-71397809D01*
X94916857Y-71826380D02*
X94916857Y-70826380D01*
X95297809Y-70826380D01*
X95393047Y-70874000D01*
X95440666Y-70921619D01*
X95488285Y-71016857D01*
X95488285Y-71159714D01*
X95440666Y-71254952D01*
X95393047Y-71302571D01*
X95297809Y-71350190D01*
X94916857Y-71350190D01*
X95916857Y-71826380D02*
X95916857Y-70826380D01*
X96583523Y-70826380D02*
X96774000Y-70826380D01*
X96869238Y-70874000D01*
X96964476Y-70969238D01*
X97012095Y-71159714D01*
X97012095Y-71493047D01*
X96964476Y-71683523D01*
X96869238Y-71778761D01*
X96774000Y-71826380D01*
X96583523Y-71826380D01*
X96488285Y-71778761D01*
X96393047Y-71683523D01*
X96345428Y-71493047D01*
X96345428Y-71159714D01*
X96393047Y-70969238D01*
X96488285Y-70874000D01*
X96583523Y-70826380D01*
X98107333Y-70826380D02*
X98726380Y-70826380D01*
X98393047Y-71207333D01*
X98535904Y-71207333D01*
X98631142Y-71254952D01*
X98678761Y-71302571D01*
X98726380Y-71397809D01*
X98726380Y-71635904D01*
X98678761Y-71731142D01*
X98631142Y-71778761D01*
X98535904Y-71826380D01*
X98250190Y-71826380D01*
X98154952Y-71778761D01*
X98107333Y-71731142D01*
X99059714Y-70826380D02*
X99678761Y-70826380D01*
X99345428Y-71207333D01*
X99488285Y-71207333D01*
X99583523Y-71254952D01*
X99631142Y-71302571D01*
X99678761Y-71397809D01*
X99678761Y-71635904D01*
X99631142Y-71731142D01*
X99583523Y-71778761D01*
X99488285Y-71826380D01*
X99202571Y-71826380D01*
X99107333Y-71778761D01*
X99059714Y-71731142D01*
X94440666Y-81034000D02*
X94345428Y-80986380D01*
X94202571Y-80986380D01*
X94059714Y-81034000D01*
X93964476Y-81129238D01*
X93916857Y-81224476D01*
X93869238Y-81414952D01*
X93869238Y-81557809D01*
X93916857Y-81748285D01*
X93964476Y-81843523D01*
X94059714Y-81938761D01*
X94202571Y-81986380D01*
X94297809Y-81986380D01*
X94440666Y-81938761D01*
X94488285Y-81891142D01*
X94488285Y-81557809D01*
X94297809Y-81557809D01*
X94916857Y-81986380D02*
X94916857Y-80986380D01*
X95297809Y-80986380D01*
X95393047Y-81034000D01*
X95440666Y-81081619D01*
X95488285Y-81176857D01*
X95488285Y-81319714D01*
X95440666Y-81414952D01*
X95393047Y-81462571D01*
X95297809Y-81510190D01*
X94916857Y-81510190D01*
X95916857Y-81986380D02*
X95916857Y-80986380D01*
X96583523Y-80986380D02*
X96774000Y-80986380D01*
X96869238Y-81034000D01*
X96964476Y-81129238D01*
X97012095Y-81319714D01*
X97012095Y-81653047D01*
X96964476Y-81843523D01*
X96869238Y-81938761D01*
X96774000Y-81986380D01*
X96583523Y-81986380D01*
X96488285Y-81938761D01*
X96393047Y-81843523D01*
X96345428Y-81653047D01*
X96345428Y-81319714D01*
X96393047Y-81129238D01*
X96488285Y-81034000D01*
X96583523Y-80986380D01*
X98726380Y-81986380D02*
X98154952Y-81986380D01*
X98440666Y-81986380D02*
X98440666Y-80986380D01*
X98345428Y-81129238D01*
X98250190Y-81224476D01*
X98154952Y-81272095D01*
X99583523Y-81319714D02*
X99583523Y-81986380D01*
X99345428Y-80938761D02*
X99107333Y-81653047D01*
X99726380Y-81653047D01*
X93011809Y-45934380D02*
X93630857Y-45934380D01*
X93297523Y-46315333D01*
X93440380Y-46315333D01*
X93535619Y-46362952D01*
X93583238Y-46410571D01*
X93630857Y-46505809D01*
X93630857Y-46743904D01*
X93583238Y-46839142D01*
X93535619Y-46886761D01*
X93440380Y-46934380D01*
X93154666Y-46934380D01*
X93059428Y-46886761D01*
X93011809Y-46839142D01*
X94059428Y-46839142D02*
X94107047Y-46886761D01*
X94059428Y-46934380D01*
X94011809Y-46886761D01*
X94059428Y-46839142D01*
X94059428Y-46934380D01*
X94440380Y-45934380D02*
X95059428Y-45934380D01*
X94726095Y-46315333D01*
X94868952Y-46315333D01*
X94964190Y-46362952D01*
X95011809Y-46410571D01*
X95059428Y-46505809D01*
X95059428Y-46743904D01*
X95011809Y-46839142D01*
X94964190Y-46886761D01*
X94868952Y-46934380D01*
X94583238Y-46934380D01*
X94488000Y-46886761D01*
X94440380Y-46839142D01*
X95345142Y-45934380D02*
X95678476Y-46934380D01*
X96011809Y-45934380D01*
X131492857Y-83828000D02*
X131397619Y-83780380D01*
X131254761Y-83780380D01*
X131111904Y-83828000D01*
X131016666Y-83923238D01*
X130969047Y-84018476D01*
X130921428Y-84208952D01*
X130921428Y-84351809D01*
X130969047Y-84542285D01*
X131016666Y-84637523D01*
X131111904Y-84732761D01*
X131254761Y-84780380D01*
X131350000Y-84780380D01*
X131492857Y-84732761D01*
X131540476Y-84685142D01*
X131540476Y-84351809D01*
X131350000Y-84351809D01*
X131969047Y-84780380D02*
X131969047Y-83780380D01*
X132350000Y-83780380D01*
X132445238Y-83828000D01*
X132492857Y-83875619D01*
X132540476Y-83970857D01*
X132540476Y-84113714D01*
X132492857Y-84208952D01*
X132445238Y-84256571D01*
X132350000Y-84304190D01*
X131969047Y-84304190D01*
X132969047Y-84780380D02*
X132969047Y-83780380D01*
X133635714Y-83780380D02*
X133826190Y-83780380D01*
X133921428Y-83828000D01*
X134016666Y-83923238D01*
X134064285Y-84113714D01*
X134064285Y-84447047D01*
X134016666Y-84637523D01*
X133921428Y-84732761D01*
X133826190Y-84780380D01*
X133635714Y-84780380D01*
X133540476Y-84732761D01*
X133445238Y-84637523D01*
X133397619Y-84447047D01*
X133397619Y-84113714D01*
X133445238Y-83923238D01*
X133540476Y-83828000D01*
X133635714Y-83780380D01*
X135683333Y-84113714D02*
X135683333Y-84780380D01*
X135445238Y-83732761D02*
X135207142Y-84447047D01*
X135826190Y-84447047D01*
X131016666Y-70874000D02*
X130921428Y-70826380D01*
X130778571Y-70826380D01*
X130635714Y-70874000D01*
X130540476Y-70969238D01*
X130492857Y-71064476D01*
X130445238Y-71254952D01*
X130445238Y-71397809D01*
X130492857Y-71588285D01*
X130540476Y-71683523D01*
X130635714Y-71778761D01*
X130778571Y-71826380D01*
X130873809Y-71826380D01*
X131016666Y-71778761D01*
X131064285Y-71731142D01*
X131064285Y-71397809D01*
X130873809Y-71397809D01*
X131492857Y-71826380D02*
X131492857Y-70826380D01*
X131873809Y-70826380D01*
X131969047Y-70874000D01*
X132016666Y-70921619D01*
X132064285Y-71016857D01*
X132064285Y-71159714D01*
X132016666Y-71254952D01*
X131969047Y-71302571D01*
X131873809Y-71350190D01*
X131492857Y-71350190D01*
X132492857Y-71826380D02*
X132492857Y-70826380D01*
X133159523Y-70826380D02*
X133350000Y-70826380D01*
X133445238Y-70874000D01*
X133540476Y-70969238D01*
X133588095Y-71159714D01*
X133588095Y-71493047D01*
X133540476Y-71683523D01*
X133445238Y-71778761D01*
X133350000Y-71826380D01*
X133159523Y-71826380D01*
X133064285Y-71778761D01*
X132969047Y-71683523D01*
X132921428Y-71493047D01*
X132921428Y-71159714D01*
X132969047Y-70969238D01*
X133064285Y-70874000D01*
X133159523Y-70826380D01*
X135302380Y-71826380D02*
X134730952Y-71826380D01*
X135016666Y-71826380D02*
X135016666Y-70826380D01*
X134921428Y-70969238D01*
X134826190Y-71064476D01*
X134730952Y-71112095D01*
X135778571Y-71826380D02*
X135969047Y-71826380D01*
X136064285Y-71778761D01*
X136111904Y-71731142D01*
X136207142Y-71588285D01*
X136254761Y-71397809D01*
X136254761Y-71016857D01*
X136207142Y-70921619D01*
X136159523Y-70874000D01*
X136064285Y-70826380D01*
X135873809Y-70826380D01*
X135778571Y-70874000D01*
X135730952Y-70921619D01*
X135683333Y-71016857D01*
X135683333Y-71254952D01*
X135730952Y-71350190D01*
X135778571Y-71397809D01*
X135873809Y-71445428D01*
X136064285Y-71445428D01*
X136159523Y-71397809D01*
X136207142Y-71350190D01*
X136254761Y-71254952D01*
X159718666Y-89162000D02*
X159623428Y-89114380D01*
X159480571Y-89114380D01*
X159337714Y-89162000D01*
X159242476Y-89257238D01*
X159194857Y-89352476D01*
X159147238Y-89542952D01*
X159147238Y-89685809D01*
X159194857Y-89876285D01*
X159242476Y-89971523D01*
X159337714Y-90066761D01*
X159480571Y-90114380D01*
X159575809Y-90114380D01*
X159718666Y-90066761D01*
X159766285Y-90019142D01*
X159766285Y-89685809D01*
X159575809Y-89685809D01*
X160194857Y-90114380D02*
X160194857Y-89114380D01*
X160575809Y-89114380D01*
X160671047Y-89162000D01*
X160718666Y-89209619D01*
X160766285Y-89304857D01*
X160766285Y-89447714D01*
X160718666Y-89542952D01*
X160671047Y-89590571D01*
X160575809Y-89638190D01*
X160194857Y-89638190D01*
X161194857Y-90114380D02*
X161194857Y-89114380D01*
X161861523Y-89114380D02*
X162052000Y-89114380D01*
X162147238Y-89162000D01*
X162242476Y-89257238D01*
X162290095Y-89447714D01*
X162290095Y-89781047D01*
X162242476Y-89971523D01*
X162147238Y-90066761D01*
X162052000Y-90114380D01*
X161861523Y-90114380D01*
X161766285Y-90066761D01*
X161671047Y-89971523D01*
X161623428Y-89781047D01*
X161623428Y-89447714D01*
X161671047Y-89257238D01*
X161766285Y-89162000D01*
X161861523Y-89114380D01*
X164004380Y-90114380D02*
X163432952Y-90114380D01*
X163718666Y-90114380D02*
X163718666Y-89114380D01*
X163623428Y-89257238D01*
X163528190Y-89352476D01*
X163432952Y-89400095D01*
X164480571Y-90114380D02*
X164671047Y-90114380D01*
X164766285Y-90066761D01*
X164813904Y-90019142D01*
X164909142Y-89876285D01*
X164956761Y-89685809D01*
X164956761Y-89304857D01*
X164909142Y-89209619D01*
X164861523Y-89162000D01*
X164766285Y-89114380D01*
X164575809Y-89114380D01*
X164480571Y-89162000D01*
X164432952Y-89209619D01*
X164385333Y-89304857D01*
X164385333Y-89542952D01*
X164432952Y-89638190D01*
X164480571Y-89685809D01*
X164575809Y-89733428D01*
X164766285Y-89733428D01*
X164861523Y-89685809D01*
X164909142Y-89638190D01*
X164956761Y-89542952D01*
X131707142Y-97178761D02*
X131850000Y-97226380D01*
X132088095Y-97226380D01*
X132183333Y-97178761D01*
X132230952Y-97131142D01*
X132278571Y-97035904D01*
X132278571Y-96940666D01*
X132230952Y-96845428D01*
X132183333Y-96797809D01*
X132088095Y-96750190D01*
X131897619Y-96702571D01*
X131802380Y-96654952D01*
X131754761Y-96607333D01*
X131707142Y-96512095D01*
X131707142Y-96416857D01*
X131754761Y-96321619D01*
X131802380Y-96274000D01*
X131897619Y-96226380D01*
X132135714Y-96226380D01*
X132278571Y-96274000D01*
X132707142Y-97226380D02*
X132707142Y-96226380D01*
X132945238Y-96226380D01*
X133088095Y-96274000D01*
X133183333Y-96369238D01*
X133230952Y-96464476D01*
X133278571Y-96654952D01*
X133278571Y-96797809D01*
X133230952Y-96988285D01*
X133183333Y-97083523D01*
X133088095Y-97178761D01*
X132945238Y-97226380D01*
X132707142Y-97226380D01*
X134659523Y-96226380D02*
X134754761Y-96226380D01*
X134850000Y-96274000D01*
X134897619Y-96321619D01*
X134945238Y-96416857D01*
X134992857Y-96607333D01*
X134992857Y-96845428D01*
X134945238Y-97035904D01*
X134897619Y-97131142D01*
X134850000Y-97178761D01*
X134754761Y-97226380D01*
X134659523Y-97226380D01*
X134564285Y-97178761D01*
X134516666Y-97131142D01*
X134469047Y-97035904D01*
X134421428Y-96845428D01*
X134421428Y-96607333D01*
X134469047Y-96416857D01*
X134516666Y-96321619D01*
X134564285Y-96274000D01*
X134659523Y-96226380D01*
X96329523Y-98766380D02*
X95853333Y-98766380D01*
X95805714Y-99242571D01*
X95853333Y-99194952D01*
X95948571Y-99147333D01*
X96186666Y-99147333D01*
X96281904Y-99194952D01*
X96329523Y-99242571D01*
X96377142Y-99337809D01*
X96377142Y-99575904D01*
X96329523Y-99671142D01*
X96281904Y-99718761D01*
X96186666Y-99766380D01*
X95948571Y-99766380D01*
X95853333Y-99718761D01*
X95805714Y-99671142D01*
X96662857Y-98766380D02*
X96996190Y-99766380D01*
X97329523Y-98766380D01*
X131270666Y-81034000D02*
X131175428Y-80986380D01*
X131032571Y-80986380D01*
X130889714Y-81034000D01*
X130794476Y-81129238D01*
X130746857Y-81224476D01*
X130699238Y-81414952D01*
X130699238Y-81557809D01*
X130746857Y-81748285D01*
X130794476Y-81843523D01*
X130889714Y-81938761D01*
X131032571Y-81986380D01*
X131127809Y-81986380D01*
X131270666Y-81938761D01*
X131318285Y-81891142D01*
X131318285Y-81557809D01*
X131127809Y-81557809D01*
X131746857Y-81986380D02*
X131746857Y-80986380D01*
X132127809Y-80986380D01*
X132223047Y-81034000D01*
X132270666Y-81081619D01*
X132318285Y-81176857D01*
X132318285Y-81319714D01*
X132270666Y-81414952D01*
X132223047Y-81462571D01*
X132127809Y-81510190D01*
X131746857Y-81510190D01*
X132746857Y-81986380D02*
X132746857Y-80986380D01*
X133413523Y-80986380D02*
X133604000Y-80986380D01*
X133699238Y-81034000D01*
X133794476Y-81129238D01*
X133842095Y-81319714D01*
X133842095Y-81653047D01*
X133794476Y-81843523D01*
X133699238Y-81938761D01*
X133604000Y-81986380D01*
X133413523Y-81986380D01*
X133318285Y-81938761D01*
X133223047Y-81843523D01*
X133175428Y-81653047D01*
X133175428Y-81319714D01*
X133223047Y-81129238D01*
X133318285Y-81034000D01*
X133413523Y-80986380D01*
X135556380Y-81986380D02*
X134984952Y-81986380D01*
X135270666Y-81986380D02*
X135270666Y-80986380D01*
X135175428Y-81129238D01*
X135080190Y-81224476D01*
X134984952Y-81272095D01*
X136413523Y-80986380D02*
X136223047Y-80986380D01*
X136127809Y-81034000D01*
X136080190Y-81081619D01*
X135984952Y-81224476D01*
X135937333Y-81414952D01*
X135937333Y-81795904D01*
X135984952Y-81891142D01*
X136032571Y-81938761D01*
X136127809Y-81986380D01*
X136318285Y-81986380D01*
X136413523Y-81938761D01*
X136461142Y-81891142D01*
X136508761Y-81795904D01*
X136508761Y-81557809D01*
X136461142Y-81462571D01*
X136413523Y-81414952D01*
X136318285Y-81367333D01*
X136127809Y-81367333D01*
X136032571Y-81414952D01*
X135984952Y-81462571D01*
X135937333Y-81557809D01*
X131016666Y-65794000D02*
X130921428Y-65746380D01*
X130778571Y-65746380D01*
X130635714Y-65794000D01*
X130540476Y-65889238D01*
X130492857Y-65984476D01*
X130445238Y-66174952D01*
X130445238Y-66317809D01*
X130492857Y-66508285D01*
X130540476Y-66603523D01*
X130635714Y-66698761D01*
X130778571Y-66746380D01*
X130873809Y-66746380D01*
X131016666Y-66698761D01*
X131064285Y-66651142D01*
X131064285Y-66317809D01*
X130873809Y-66317809D01*
X131492857Y-66746380D02*
X131492857Y-65746380D01*
X131873809Y-65746380D01*
X131969047Y-65794000D01*
X132016666Y-65841619D01*
X132064285Y-65936857D01*
X132064285Y-66079714D01*
X132016666Y-66174952D01*
X131969047Y-66222571D01*
X131873809Y-66270190D01*
X131492857Y-66270190D01*
X132492857Y-66746380D02*
X132492857Y-65746380D01*
X133159523Y-65746380D02*
X133350000Y-65746380D01*
X133445238Y-65794000D01*
X133540476Y-65889238D01*
X133588095Y-66079714D01*
X133588095Y-66413047D01*
X133540476Y-66603523D01*
X133445238Y-66698761D01*
X133350000Y-66746380D01*
X133159523Y-66746380D01*
X133064285Y-66698761D01*
X132969047Y-66603523D01*
X132921428Y-66413047D01*
X132921428Y-66079714D01*
X132969047Y-65889238D01*
X133064285Y-65794000D01*
X133159523Y-65746380D01*
X134730952Y-65841619D02*
X134778571Y-65794000D01*
X134873809Y-65746380D01*
X135111904Y-65746380D01*
X135207142Y-65794000D01*
X135254761Y-65841619D01*
X135302380Y-65936857D01*
X135302380Y-66032095D01*
X135254761Y-66174952D01*
X134683333Y-66746380D01*
X135302380Y-66746380D01*
X136254761Y-66746380D02*
X135683333Y-66746380D01*
X135969047Y-66746380D02*
X135969047Y-65746380D01*
X135873809Y-65889238D01*
X135778571Y-65984476D01*
X135683333Y-66032095D01*
X108792285Y-103052571D02*
X109125619Y-103052571D01*
X109268476Y-103576380D02*
X108792285Y-103576380D01*
X108792285Y-102576380D01*
X109268476Y-102576380D01*
X109649428Y-103528761D02*
X109792285Y-103576380D01*
X110030380Y-103576380D01*
X110125619Y-103528761D01*
X110173238Y-103481142D01*
X110220857Y-103385904D01*
X110220857Y-103290666D01*
X110173238Y-103195428D01*
X110125619Y-103147809D01*
X110030380Y-103100190D01*
X109839904Y-103052571D01*
X109744666Y-103004952D01*
X109697047Y-102957333D01*
X109649428Y-102862095D01*
X109649428Y-102766857D01*
X109697047Y-102671619D01*
X109744666Y-102624000D01*
X109839904Y-102576380D01*
X110078000Y-102576380D01*
X110220857Y-102624000D01*
X110649428Y-103576380D02*
X110649428Y-102576380D01*
X111030380Y-102576380D01*
X111125619Y-102624000D01*
X111173238Y-102671619D01*
X111220857Y-102766857D01*
X111220857Y-102909714D01*
X111173238Y-103004952D01*
X111125619Y-103052571D01*
X111030380Y-103100190D01*
X110649428Y-103100190D01*
X111554190Y-102576380D02*
X112173238Y-102576380D01*
X111839904Y-102957333D01*
X111982761Y-102957333D01*
X112078000Y-103004952D01*
X112125619Y-103052571D01*
X112173238Y-103147809D01*
X112173238Y-103385904D01*
X112125619Y-103481142D01*
X112078000Y-103528761D01*
X111982761Y-103576380D01*
X111697047Y-103576380D01*
X111601809Y-103528761D01*
X111554190Y-103481142D01*
X112554190Y-102671619D02*
X112601809Y-102624000D01*
X112697047Y-102576380D01*
X112935142Y-102576380D01*
X113030380Y-102624000D01*
X113078000Y-102671619D01*
X113125619Y-102766857D01*
X113125619Y-102862095D01*
X113078000Y-103004952D01*
X112506571Y-103576380D01*
X113125619Y-103576380D01*
X113554190Y-103195428D02*
X114316095Y-103195428D01*
X114792285Y-103576380D02*
X114792285Y-102576380D01*
X115030380Y-102576380D01*
X115173238Y-102624000D01*
X115268476Y-102719238D01*
X115316095Y-102814476D01*
X115363714Y-103004952D01*
X115363714Y-103147809D01*
X115316095Y-103338285D01*
X115268476Y-103433523D01*
X115173238Y-103528761D01*
X115030380Y-103576380D01*
X114792285Y-103576380D01*
X115792285Y-103052571D02*
X116125619Y-103052571D01*
X116268476Y-103576380D02*
X115792285Y-103576380D01*
X115792285Y-102576380D01*
X116268476Y-102576380D01*
X116554190Y-102576380D02*
X116887523Y-103576380D01*
X117220857Y-102576380D01*
X117554190Y-103576380D02*
X117554190Y-102576380D01*
X118125619Y-103576380D02*
X117697047Y-103004952D01*
X118125619Y-102576380D02*
X117554190Y-103147809D01*
X118554190Y-103576380D02*
X118554190Y-102576380D01*
X118887523Y-102576380D02*
X119458952Y-102576380D01*
X119173238Y-103576380D02*
X119173238Y-102576380D01*
X120363714Y-103481142D02*
X120316095Y-103528761D01*
X120173238Y-103576380D01*
X120078000Y-103576380D01*
X119935142Y-103528761D01*
X119839904Y-103433523D01*
X119792285Y-103338285D01*
X119744666Y-103147809D01*
X119744666Y-103004952D01*
X119792285Y-102814476D01*
X119839904Y-102719238D01*
X119935142Y-102624000D01*
X120078000Y-102576380D01*
X120173238Y-102576380D01*
X120316095Y-102624000D01*
X120363714Y-102671619D01*
X120792285Y-103195428D02*
X121554190Y-103195428D01*
X121887523Y-102576380D02*
X122220857Y-103576380D01*
X122554190Y-102576380D01*
X123316095Y-102909714D02*
X123316095Y-103576380D01*
X123078000Y-102528761D02*
X122839904Y-103243047D01*
X123458952Y-103243047D01*
X159559809Y-103592380D02*
X160178857Y-103592380D01*
X159845523Y-103973333D01*
X159988380Y-103973333D01*
X160083619Y-104020952D01*
X160131238Y-104068571D01*
X160178857Y-104163809D01*
X160178857Y-104401904D01*
X160131238Y-104497142D01*
X160083619Y-104544761D01*
X159988380Y-104592380D01*
X159702666Y-104592380D01*
X159607428Y-104544761D01*
X159559809Y-104497142D01*
X160607428Y-104497142D02*
X160655047Y-104544761D01*
X160607428Y-104592380D01*
X160559809Y-104544761D01*
X160607428Y-104497142D01*
X160607428Y-104592380D01*
X160988380Y-103592380D02*
X161607428Y-103592380D01*
X161274095Y-103973333D01*
X161416952Y-103973333D01*
X161512190Y-104020952D01*
X161559809Y-104068571D01*
X161607428Y-104163809D01*
X161607428Y-104401904D01*
X161559809Y-104497142D01*
X161512190Y-104544761D01*
X161416952Y-104592380D01*
X161131238Y-104592380D01*
X161036000Y-104544761D01*
X160988380Y-104497142D01*
X161893142Y-103592380D02*
X162226476Y-104592380D01*
X162559809Y-103592380D01*
X131270666Y-58174000D02*
X131175428Y-58126380D01*
X131032571Y-58126380D01*
X130889714Y-58174000D01*
X130794476Y-58269238D01*
X130746857Y-58364476D01*
X130699238Y-58554952D01*
X130699238Y-58697809D01*
X130746857Y-58888285D01*
X130794476Y-58983523D01*
X130889714Y-59078761D01*
X131032571Y-59126380D01*
X131127809Y-59126380D01*
X131270666Y-59078761D01*
X131318285Y-59031142D01*
X131318285Y-58697809D01*
X131127809Y-58697809D01*
X131746857Y-59126380D02*
X131746857Y-58126380D01*
X132127809Y-58126380D01*
X132223047Y-58174000D01*
X132270666Y-58221619D01*
X132318285Y-58316857D01*
X132318285Y-58459714D01*
X132270666Y-58554952D01*
X132223047Y-58602571D01*
X132127809Y-58650190D01*
X131746857Y-58650190D01*
X132746857Y-59126380D02*
X132746857Y-58126380D01*
X133413523Y-58126380D02*
X133604000Y-58126380D01*
X133699238Y-58174000D01*
X133794476Y-58269238D01*
X133842095Y-58459714D01*
X133842095Y-58793047D01*
X133794476Y-58983523D01*
X133699238Y-59078761D01*
X133604000Y-59126380D01*
X133413523Y-59126380D01*
X133318285Y-59078761D01*
X133223047Y-58983523D01*
X133175428Y-58793047D01*
X133175428Y-58459714D01*
X133223047Y-58269238D01*
X133318285Y-58174000D01*
X133413523Y-58126380D01*
X134984952Y-58221619D02*
X135032571Y-58174000D01*
X135127809Y-58126380D01*
X135365904Y-58126380D01*
X135461142Y-58174000D01*
X135508761Y-58221619D01*
X135556380Y-58316857D01*
X135556380Y-58412095D01*
X135508761Y-58554952D01*
X134937333Y-59126380D01*
X135556380Y-59126380D01*
X135937333Y-58221619D02*
X135984952Y-58174000D01*
X136080190Y-58126380D01*
X136318285Y-58126380D01*
X136413523Y-58174000D01*
X136461142Y-58221619D01*
X136508761Y-58316857D01*
X136508761Y-58412095D01*
X136461142Y-58554952D01*
X135889714Y-59126380D01*
X136508761Y-59126380D01*
X132588095Y-68588000D02*
X132492857Y-68540380D01*
X132350000Y-68540380D01*
X132207142Y-68588000D01*
X132111904Y-68683238D01*
X132064285Y-68778476D01*
X132016666Y-68968952D01*
X132016666Y-69111809D01*
X132064285Y-69302285D01*
X132111904Y-69397523D01*
X132207142Y-69492761D01*
X132350000Y-69540380D01*
X132445238Y-69540380D01*
X132588095Y-69492761D01*
X132635714Y-69445142D01*
X132635714Y-69111809D01*
X132445238Y-69111809D01*
X133064285Y-69540380D02*
X133064285Y-68540380D01*
X133635714Y-69540380D01*
X133635714Y-68540380D01*
X134111904Y-69540380D02*
X134111904Y-68540380D01*
X134350000Y-68540380D01*
X134492857Y-68588000D01*
X134588095Y-68683238D01*
X134635714Y-68778476D01*
X134683333Y-68968952D01*
X134683333Y-69111809D01*
X134635714Y-69302285D01*
X134588095Y-69397523D01*
X134492857Y-69492761D01*
X134350000Y-69540380D01*
X134111904Y-69540380D01*
X159647142Y-109878761D02*
X159790000Y-109926380D01*
X160028095Y-109926380D01*
X160123333Y-109878761D01*
X160170952Y-109831142D01*
X160218571Y-109735904D01*
X160218571Y-109640666D01*
X160170952Y-109545428D01*
X160123333Y-109497809D01*
X160028095Y-109450190D01*
X159837619Y-109402571D01*
X159742380Y-109354952D01*
X159694761Y-109307333D01*
X159647142Y-109212095D01*
X159647142Y-109116857D01*
X159694761Y-109021619D01*
X159742380Y-108974000D01*
X159837619Y-108926380D01*
X160075714Y-108926380D01*
X160218571Y-108974000D01*
X160647142Y-109926380D02*
X160647142Y-108926380D01*
X160885238Y-108926380D01*
X161028095Y-108974000D01*
X161123333Y-109069238D01*
X161170952Y-109164476D01*
X161218571Y-109354952D01*
X161218571Y-109497809D01*
X161170952Y-109688285D01*
X161123333Y-109783523D01*
X161028095Y-109878761D01*
X160885238Y-109926380D01*
X160647142Y-109926380D01*
X162361428Y-109021619D02*
X162409047Y-108974000D01*
X162504285Y-108926380D01*
X162742380Y-108926380D01*
X162837619Y-108974000D01*
X162885238Y-109021619D01*
X162932857Y-109116857D01*
X162932857Y-109212095D01*
X162885238Y-109354952D01*
X162313809Y-109926380D01*
X162932857Y-109926380D01*
X94877142Y-92098761D02*
X95020000Y-92146380D01*
X95258095Y-92146380D01*
X95353333Y-92098761D01*
X95400952Y-92051142D01*
X95448571Y-91955904D01*
X95448571Y-91860666D01*
X95400952Y-91765428D01*
X95353333Y-91717809D01*
X95258095Y-91670190D01*
X95067619Y-91622571D01*
X94972380Y-91574952D01*
X94924761Y-91527333D01*
X94877142Y-91432095D01*
X94877142Y-91336857D01*
X94924761Y-91241619D01*
X94972380Y-91194000D01*
X95067619Y-91146380D01*
X95305714Y-91146380D01*
X95448571Y-91194000D01*
X95877142Y-92146380D02*
X95877142Y-91146380D01*
X96115238Y-91146380D01*
X96258095Y-91194000D01*
X96353333Y-91289238D01*
X96400952Y-91384476D01*
X96448571Y-91574952D01*
X96448571Y-91717809D01*
X96400952Y-91908285D01*
X96353333Y-92003523D01*
X96258095Y-92098761D01*
X96115238Y-92146380D01*
X95877142Y-92146380D01*
X97591428Y-91241619D02*
X97639047Y-91194000D01*
X97734285Y-91146380D01*
X97972380Y-91146380D01*
X98067619Y-91194000D01*
X98115238Y-91241619D01*
X98162857Y-91336857D01*
X98162857Y-91432095D01*
X98115238Y-91574952D01*
X97543809Y-92146380D01*
X98162857Y-92146380D01*
X94440666Y-75954000D02*
X94345428Y-75906380D01*
X94202571Y-75906380D01*
X94059714Y-75954000D01*
X93964476Y-76049238D01*
X93916857Y-76144476D01*
X93869238Y-76334952D01*
X93869238Y-76477809D01*
X93916857Y-76668285D01*
X93964476Y-76763523D01*
X94059714Y-76858761D01*
X94202571Y-76906380D01*
X94297809Y-76906380D01*
X94440666Y-76858761D01*
X94488285Y-76811142D01*
X94488285Y-76477809D01*
X94297809Y-76477809D01*
X94916857Y-76906380D02*
X94916857Y-75906380D01*
X95297809Y-75906380D01*
X95393047Y-75954000D01*
X95440666Y-76001619D01*
X95488285Y-76096857D01*
X95488285Y-76239714D01*
X95440666Y-76334952D01*
X95393047Y-76382571D01*
X95297809Y-76430190D01*
X94916857Y-76430190D01*
X95916857Y-76906380D02*
X95916857Y-75906380D01*
X96583523Y-75906380D02*
X96774000Y-75906380D01*
X96869238Y-75954000D01*
X96964476Y-76049238D01*
X97012095Y-76239714D01*
X97012095Y-76573047D01*
X96964476Y-76763523D01*
X96869238Y-76858761D01*
X96774000Y-76906380D01*
X96583523Y-76906380D01*
X96488285Y-76858761D01*
X96393047Y-76763523D01*
X96345428Y-76573047D01*
X96345428Y-76239714D01*
X96393047Y-76049238D01*
X96488285Y-75954000D01*
X96583523Y-75906380D01*
X98154952Y-76001619D02*
X98202571Y-75954000D01*
X98297809Y-75906380D01*
X98535904Y-75906380D01*
X98631142Y-75954000D01*
X98678761Y-76001619D01*
X98726380Y-76096857D01*
X98726380Y-76192095D01*
X98678761Y-76334952D01*
X98107333Y-76906380D01*
X98726380Y-76906380D01*
X99583523Y-75906380D02*
X99393047Y-75906380D01*
X99297809Y-75954000D01*
X99250190Y-76001619D01*
X99154952Y-76144476D01*
X99107333Y-76334952D01*
X99107333Y-76715904D01*
X99154952Y-76811142D01*
X99202571Y-76858761D01*
X99297809Y-76906380D01*
X99488285Y-76906380D01*
X99583523Y-76858761D01*
X99631142Y-76811142D01*
X99678761Y-76715904D01*
X99678761Y-76477809D01*
X99631142Y-76382571D01*
X99583523Y-76334952D01*
X99488285Y-76287333D01*
X99297809Y-76287333D01*
X99202571Y-76334952D01*
X99154952Y-76382571D01*
X99107333Y-76477809D01*
X94440666Y-63254000D02*
X94345428Y-63206380D01*
X94202571Y-63206380D01*
X94059714Y-63254000D01*
X93964476Y-63349238D01*
X93916857Y-63444476D01*
X93869238Y-63634952D01*
X93869238Y-63777809D01*
X93916857Y-63968285D01*
X93964476Y-64063523D01*
X94059714Y-64158761D01*
X94202571Y-64206380D01*
X94297809Y-64206380D01*
X94440666Y-64158761D01*
X94488285Y-64111142D01*
X94488285Y-63777809D01*
X94297809Y-63777809D01*
X94916857Y-64206380D02*
X94916857Y-63206380D01*
X95297809Y-63206380D01*
X95393047Y-63254000D01*
X95440666Y-63301619D01*
X95488285Y-63396857D01*
X95488285Y-63539714D01*
X95440666Y-63634952D01*
X95393047Y-63682571D01*
X95297809Y-63730190D01*
X94916857Y-63730190D01*
X95916857Y-64206380D02*
X95916857Y-63206380D01*
X96583523Y-63206380D02*
X96774000Y-63206380D01*
X96869238Y-63254000D01*
X96964476Y-63349238D01*
X97012095Y-63539714D01*
X97012095Y-63873047D01*
X96964476Y-64063523D01*
X96869238Y-64158761D01*
X96774000Y-64206380D01*
X96583523Y-64206380D01*
X96488285Y-64158761D01*
X96393047Y-64063523D01*
X96345428Y-63873047D01*
X96345428Y-63539714D01*
X96393047Y-63349238D01*
X96488285Y-63254000D01*
X96583523Y-63206380D01*
X98107333Y-63206380D02*
X98726380Y-63206380D01*
X98393047Y-63587333D01*
X98535904Y-63587333D01*
X98631142Y-63634952D01*
X98678761Y-63682571D01*
X98726380Y-63777809D01*
X98726380Y-64015904D01*
X98678761Y-64111142D01*
X98631142Y-64158761D01*
X98535904Y-64206380D01*
X98250190Y-64206380D01*
X98154952Y-64158761D01*
X98107333Y-64111142D01*
X99583523Y-63539714D02*
X99583523Y-64206380D01*
X99345428Y-63158761D02*
X99107333Y-63873047D01*
X99726380Y-63873047D01*
X160186761Y-107291142D02*
X160139142Y-107338761D01*
X159996285Y-107386380D01*
X159901047Y-107386380D01*
X159758190Y-107338761D01*
X159662952Y-107243523D01*
X159615333Y-107148285D01*
X159567714Y-106957809D01*
X159567714Y-106814952D01*
X159615333Y-106624476D01*
X159662952Y-106529238D01*
X159758190Y-106434000D01*
X159901047Y-106386380D01*
X159996285Y-106386380D01*
X160139142Y-106434000D01*
X160186761Y-106481619D01*
X161091523Y-107386380D02*
X160615333Y-107386380D01*
X160615333Y-106386380D01*
X161424857Y-107386380D02*
X161424857Y-106386380D01*
X161996285Y-107386380D02*
X161567714Y-106814952D01*
X161996285Y-106386380D02*
X161424857Y-106957809D01*
X159051809Y-86320380D02*
X159670857Y-86320380D01*
X159337523Y-86701333D01*
X159480380Y-86701333D01*
X159575619Y-86748952D01*
X159623238Y-86796571D01*
X159670857Y-86891809D01*
X159670857Y-87129904D01*
X159623238Y-87225142D01*
X159575619Y-87272761D01*
X159480380Y-87320380D01*
X159194666Y-87320380D01*
X159099428Y-87272761D01*
X159051809Y-87225142D01*
X160099428Y-87225142D02*
X160147047Y-87272761D01*
X160099428Y-87320380D01*
X160051809Y-87272761D01*
X160099428Y-87225142D01*
X160099428Y-87320380D01*
X160480380Y-86320380D02*
X161099428Y-86320380D01*
X160766095Y-86701333D01*
X160908952Y-86701333D01*
X161004190Y-86748952D01*
X161051809Y-86796571D01*
X161099428Y-86891809D01*
X161099428Y-87129904D01*
X161051809Y-87225142D01*
X161004190Y-87272761D01*
X160908952Y-87320380D01*
X160623238Y-87320380D01*
X160528000Y-87272761D01*
X160480380Y-87225142D01*
X161385142Y-86320380D02*
X161718476Y-87320380D01*
X162051809Y-86320380D01*
X160020095Y-100846000D02*
X159924857Y-100798380D01*
X159782000Y-100798380D01*
X159639142Y-100846000D01*
X159543904Y-100941238D01*
X159496285Y-101036476D01*
X159448666Y-101226952D01*
X159448666Y-101369809D01*
X159496285Y-101560285D01*
X159543904Y-101655523D01*
X159639142Y-101750761D01*
X159782000Y-101798380D01*
X159877238Y-101798380D01*
X160020095Y-101750761D01*
X160067714Y-101703142D01*
X160067714Y-101369809D01*
X159877238Y-101369809D01*
X160496285Y-101798380D02*
X160496285Y-100798380D01*
X161067714Y-101798380D01*
X161067714Y-100798380D01*
X161543904Y-101798380D02*
X161543904Y-100798380D01*
X161782000Y-100798380D01*
X161924857Y-100846000D01*
X162020095Y-100941238D01*
X162067714Y-101036476D01*
X162115333Y-101226952D01*
X162115333Y-101369809D01*
X162067714Y-101560285D01*
X162020095Y-101655523D01*
X161924857Y-101750761D01*
X161782000Y-101798380D01*
X161543904Y-101798380D01*
X110837895Y-44320666D02*
X111237895Y-44320666D01*
X110950395Y-45020666D02*
X111037895Y-44320666D01*
X111383729Y-45020666D02*
X111471229Y-44320666D01*
X111429562Y-44654000D02*
X111829562Y-44654000D01*
X111783729Y-45020666D02*
X111871229Y-44320666D01*
X112117062Y-45020666D02*
X112204562Y-44320666D01*
X112421229Y-44987333D02*
X112517062Y-45020666D01*
X112683729Y-45020666D01*
X112754562Y-44987333D01*
X112792062Y-44954000D01*
X112833729Y-44887333D01*
X112842062Y-44820666D01*
X112817062Y-44754000D01*
X112787895Y-44720666D01*
X112725395Y-44687333D01*
X112596229Y-44654000D01*
X112533729Y-44620666D01*
X112504562Y-44587333D01*
X112479562Y-44520666D01*
X112487895Y-44454000D01*
X112529562Y-44387333D01*
X112567062Y-44354000D01*
X112637895Y-44320666D01*
X112804562Y-44320666D01*
X112900395Y-44354000D01*
X113621229Y-44987333D02*
X113717062Y-45020666D01*
X113883729Y-45020666D01*
X113954562Y-44987333D01*
X113992062Y-44954000D01*
X114033729Y-44887333D01*
X114042062Y-44820666D01*
X114017062Y-44754000D01*
X113987895Y-44720666D01*
X113925395Y-44687333D01*
X113796229Y-44654000D01*
X113733729Y-44620666D01*
X113704562Y-44587333D01*
X113679562Y-44520666D01*
X113687895Y-44454000D01*
X113729562Y-44387333D01*
X113767062Y-44354000D01*
X113837895Y-44320666D01*
X114004562Y-44320666D01*
X114100395Y-44354000D01*
X114317062Y-45020666D02*
X114404562Y-44320666D01*
X114650395Y-45020666D02*
X114737895Y-44320666D01*
X114904562Y-44320666D01*
X115000395Y-44354000D01*
X115058729Y-44420666D01*
X115083729Y-44487333D01*
X115100395Y-44620666D01*
X115087895Y-44720666D01*
X115037895Y-44854000D01*
X114996229Y-44920666D01*
X114921229Y-44987333D01*
X114817062Y-45020666D01*
X114650395Y-45020666D01*
X115396229Y-44654000D02*
X115629562Y-44654000D01*
X115683729Y-45020666D02*
X115350395Y-45020666D01*
X115437895Y-44320666D01*
X115771229Y-44320666D01*
X116604562Y-44320666D02*
X116533729Y-44887333D01*
X116558729Y-44954000D01*
X116587895Y-44987333D01*
X116650395Y-45020666D01*
X116783729Y-45020666D01*
X116854562Y-44987333D01*
X116892062Y-44954000D01*
X116933729Y-44887333D01*
X117004562Y-44320666D01*
X117250395Y-45020666D02*
X117337895Y-44320666D01*
X117604562Y-44320666D01*
X117667062Y-44354000D01*
X117696229Y-44387333D01*
X117721229Y-44454000D01*
X117708729Y-44554000D01*
X117667062Y-44620666D01*
X117629562Y-44654000D01*
X117558729Y-44687333D01*
X117292062Y-44687333D01*
X95758095Y-86368000D02*
X95662857Y-86320380D01*
X95520000Y-86320380D01*
X95377142Y-86368000D01*
X95281904Y-86463238D01*
X95234285Y-86558476D01*
X95186666Y-86748952D01*
X95186666Y-86891809D01*
X95234285Y-87082285D01*
X95281904Y-87177523D01*
X95377142Y-87272761D01*
X95520000Y-87320380D01*
X95615238Y-87320380D01*
X95758095Y-87272761D01*
X95805714Y-87225142D01*
X95805714Y-86891809D01*
X95615238Y-86891809D01*
X96234285Y-87320380D02*
X96234285Y-86320380D01*
X96805714Y-87320380D01*
X96805714Y-86320380D01*
X97281904Y-87320380D02*
X97281904Y-86320380D01*
X97520000Y-86320380D01*
X97662857Y-86368000D01*
X97758095Y-86463238D01*
X97805714Y-86558476D01*
X97853333Y-86748952D01*
X97853333Y-86891809D01*
X97805714Y-87082285D01*
X97758095Y-87177523D01*
X97662857Y-87272761D01*
X97520000Y-87320380D01*
X97281904Y-87320380D01*
X94440666Y-68334000D02*
X94345428Y-68286380D01*
X94202571Y-68286380D01*
X94059714Y-68334000D01*
X93964476Y-68429238D01*
X93916857Y-68524476D01*
X93869238Y-68714952D01*
X93869238Y-68857809D01*
X93916857Y-69048285D01*
X93964476Y-69143523D01*
X94059714Y-69238761D01*
X94202571Y-69286380D01*
X94297809Y-69286380D01*
X94440666Y-69238761D01*
X94488285Y-69191142D01*
X94488285Y-68857809D01*
X94297809Y-68857809D01*
X94916857Y-69286380D02*
X94916857Y-68286380D01*
X95297809Y-68286380D01*
X95393047Y-68334000D01*
X95440666Y-68381619D01*
X95488285Y-68476857D01*
X95488285Y-68619714D01*
X95440666Y-68714952D01*
X95393047Y-68762571D01*
X95297809Y-68810190D01*
X94916857Y-68810190D01*
X95916857Y-69286380D02*
X95916857Y-68286380D01*
X96583523Y-68286380D02*
X96774000Y-68286380D01*
X96869238Y-68334000D01*
X96964476Y-68429238D01*
X97012095Y-68619714D01*
X97012095Y-68953047D01*
X96964476Y-69143523D01*
X96869238Y-69238761D01*
X96774000Y-69286380D01*
X96583523Y-69286380D01*
X96488285Y-69238761D01*
X96393047Y-69143523D01*
X96345428Y-68953047D01*
X96345428Y-68619714D01*
X96393047Y-68429238D01*
X96488285Y-68334000D01*
X96583523Y-68286380D01*
X98107333Y-68286380D02*
X98726380Y-68286380D01*
X98393047Y-68667333D01*
X98535904Y-68667333D01*
X98631142Y-68714952D01*
X98678761Y-68762571D01*
X98726380Y-68857809D01*
X98726380Y-69095904D01*
X98678761Y-69191142D01*
X98631142Y-69238761D01*
X98535904Y-69286380D01*
X98250190Y-69286380D01*
X98154952Y-69238761D01*
X98107333Y-69191142D01*
X99107333Y-68381619D02*
X99154952Y-68334000D01*
X99250190Y-68286380D01*
X99488285Y-68286380D01*
X99583523Y-68334000D01*
X99631142Y-68381619D01*
X99678761Y-68476857D01*
X99678761Y-68572095D01*
X99631142Y-68714952D01*
X99059714Y-69286380D01*
X99678761Y-69286380D01*
X94877142Y-94638761D02*
X95020000Y-94686380D01*
X95258095Y-94686380D01*
X95353333Y-94638761D01*
X95400952Y-94591142D01*
X95448571Y-94495904D01*
X95448571Y-94400666D01*
X95400952Y-94305428D01*
X95353333Y-94257809D01*
X95258095Y-94210190D01*
X95067619Y-94162571D01*
X94972380Y-94114952D01*
X94924761Y-94067333D01*
X94877142Y-93972095D01*
X94877142Y-93876857D01*
X94924761Y-93781619D01*
X94972380Y-93734000D01*
X95067619Y-93686380D01*
X95305714Y-93686380D01*
X95448571Y-93734000D01*
X95877142Y-94686380D02*
X95877142Y-93686380D01*
X96115238Y-93686380D01*
X96258095Y-93734000D01*
X96353333Y-93829238D01*
X96400952Y-93924476D01*
X96448571Y-94114952D01*
X96448571Y-94257809D01*
X96400952Y-94448285D01*
X96353333Y-94543523D01*
X96258095Y-94638761D01*
X96115238Y-94686380D01*
X95877142Y-94686380D01*
X97543809Y-93686380D02*
X98162857Y-93686380D01*
X97829523Y-94067333D01*
X97972380Y-94067333D01*
X98067619Y-94114952D01*
X98115238Y-94162571D01*
X98162857Y-94257809D01*
X98162857Y-94495904D01*
X98115238Y-94591142D01*
X98067619Y-94638761D01*
X97972380Y-94686380D01*
X97686666Y-94686380D01*
X97591428Y-94638761D01*
X97543809Y-94591142D01*
X172108761Y-105224285D02*
X172156380Y-105081428D01*
X172156380Y-104843333D01*
X172108761Y-104748095D01*
X172061142Y-104700476D01*
X171965904Y-104652857D01*
X171870666Y-104652857D01*
X171775428Y-104700476D01*
X171727809Y-104748095D01*
X171680190Y-104843333D01*
X171632571Y-105033809D01*
X171584952Y-105129047D01*
X171537333Y-105176666D01*
X171442095Y-105224285D01*
X171346857Y-105224285D01*
X171251619Y-105176666D01*
X171204000Y-105129047D01*
X171156380Y-105033809D01*
X171156380Y-104795714D01*
X171204000Y-104652857D01*
X171156380Y-104033809D02*
X171156380Y-103843333D01*
X171204000Y-103748095D01*
X171299238Y-103652857D01*
X171489714Y-103605238D01*
X171823047Y-103605238D01*
X172013523Y-103652857D01*
X172108761Y-103748095D01*
X172156380Y-103843333D01*
X172156380Y-104033809D01*
X172108761Y-104129047D01*
X172013523Y-104224285D01*
X171823047Y-104271904D01*
X171489714Y-104271904D01*
X171299238Y-104224285D01*
X171204000Y-104129047D01*
X171156380Y-104033809D01*
X172156380Y-102700476D02*
X172156380Y-103176666D01*
X171156380Y-103176666D01*
X172156380Y-102367142D02*
X171156380Y-102367142D01*
X171156380Y-102129047D01*
X171204000Y-101986190D01*
X171299238Y-101890952D01*
X171394476Y-101843333D01*
X171584952Y-101795714D01*
X171727809Y-101795714D01*
X171918285Y-101843333D01*
X172013523Y-101890952D01*
X172108761Y-101986190D01*
X172156380Y-102129047D01*
X172156380Y-102367142D01*
X171632571Y-101367142D02*
X171632571Y-101033809D01*
X172156380Y-100890952D02*
X172156380Y-101367142D01*
X171156380Y-101367142D01*
X171156380Y-100890952D01*
X172156380Y-99890952D02*
X171680190Y-100224285D01*
X172156380Y-100462380D02*
X171156380Y-100462380D01*
X171156380Y-100081428D01*
X171204000Y-99986190D01*
X171251619Y-99938571D01*
X171346857Y-99890952D01*
X171489714Y-99890952D01*
X171584952Y-99938571D01*
X171632571Y-99986190D01*
X171680190Y-100081428D01*
X171680190Y-100462380D01*
X172156380Y-98700476D02*
X171156380Y-98700476D01*
X171156380Y-98319523D01*
X171204000Y-98224285D01*
X171251619Y-98176666D01*
X171346857Y-98129047D01*
X171489714Y-98129047D01*
X171584952Y-98176666D01*
X171632571Y-98224285D01*
X171680190Y-98319523D01*
X171680190Y-98700476D01*
X172061142Y-97129047D02*
X172108761Y-97176666D01*
X172156380Y-97319523D01*
X172156380Y-97414761D01*
X172108761Y-97557619D01*
X172013523Y-97652857D01*
X171918285Y-97700476D01*
X171727809Y-97748095D01*
X171584952Y-97748095D01*
X171394476Y-97700476D01*
X171299238Y-97652857D01*
X171204000Y-97557619D01*
X171156380Y-97414761D01*
X171156380Y-97319523D01*
X171204000Y-97176666D01*
X171251619Y-97129047D01*
X172156380Y-96700476D02*
X171156380Y-96700476D01*
X171632571Y-96224285D02*
X171632571Y-95890952D01*
X172156380Y-95748095D02*
X172156380Y-96224285D01*
X171156380Y-96224285D01*
X171156380Y-95748095D01*
X172108761Y-95367142D02*
X172156380Y-95271904D01*
X172156380Y-95081428D01*
X172108761Y-94986190D01*
X172013523Y-94938571D01*
X171965904Y-94938571D01*
X171870666Y-94986190D01*
X171823047Y-95081428D01*
X171823047Y-95224285D01*
X171775428Y-95319523D01*
X171680190Y-95367142D01*
X171632571Y-95367142D01*
X171537333Y-95319523D01*
X171489714Y-95224285D01*
X171489714Y-95081428D01*
X171537333Y-94986190D01*
X172108761Y-93795714D02*
X172156380Y-93652857D01*
X172156380Y-93414761D01*
X172108761Y-93319523D01*
X172061142Y-93271904D01*
X171965904Y-93224285D01*
X171870666Y-93224285D01*
X171775428Y-93271904D01*
X171727809Y-93319523D01*
X171680190Y-93414761D01*
X171632571Y-93605238D01*
X171584952Y-93700476D01*
X171537333Y-93748095D01*
X171442095Y-93795714D01*
X171346857Y-93795714D01*
X171251619Y-93748095D01*
X171204000Y-93700476D01*
X171156380Y-93605238D01*
X171156380Y-93367142D01*
X171204000Y-93224285D01*
X171156380Y-92605238D02*
X171156380Y-92414761D01*
X171204000Y-92319523D01*
X171299238Y-92224285D01*
X171489714Y-92176666D01*
X171823047Y-92176666D01*
X172013523Y-92224285D01*
X172108761Y-92319523D01*
X172156380Y-92414761D01*
X172156380Y-92605238D01*
X172108761Y-92700476D01*
X172013523Y-92795714D01*
X171823047Y-92843333D01*
X171489714Y-92843333D01*
X171299238Y-92795714D01*
X171204000Y-92700476D01*
X171156380Y-92605238D01*
X171156380Y-91129047D02*
X171156380Y-90557619D01*
X172156380Y-90843333D02*
X171156380Y-90843333D01*
X172156380Y-90224285D02*
X171156380Y-90224285D01*
X171632571Y-90224285D02*
X171632571Y-89652857D01*
X172156380Y-89652857D02*
X171156380Y-89652857D01*
X171870666Y-89224285D02*
X171870666Y-88748095D01*
X172156380Y-89319523D02*
X171156380Y-88986190D01*
X172156380Y-88652857D01*
X171156380Y-88462380D02*
X171156380Y-87890952D01*
X172156380Y-88176666D02*
X171156380Y-88176666D01*
X172156380Y-86795714D02*
X171156380Y-86795714D01*
X171156380Y-86414761D01*
X171204000Y-86319523D01*
X171251619Y-86271904D01*
X171346857Y-86224285D01*
X171489714Y-86224285D01*
X171584952Y-86271904D01*
X171632571Y-86319523D01*
X171680190Y-86414761D01*
X171680190Y-86795714D01*
X171632571Y-85795714D02*
X171632571Y-85462380D01*
X172156380Y-85319523D02*
X172156380Y-85795714D01*
X171156380Y-85795714D01*
X171156380Y-85319523D01*
X172156380Y-84319523D02*
X171680190Y-84652857D01*
X172156380Y-84890952D02*
X171156380Y-84890952D01*
X171156380Y-84510000D01*
X171204000Y-84414761D01*
X171251619Y-84367142D01*
X171346857Y-84319523D01*
X171489714Y-84319523D01*
X171584952Y-84367142D01*
X171632571Y-84414761D01*
X171680190Y-84510000D01*
X171680190Y-84890952D01*
X172156380Y-83890952D02*
X171156380Y-83890952D01*
X172156380Y-83414761D02*
X171156380Y-83414761D01*
X171156380Y-83033809D01*
X171204000Y-82938571D01*
X171251619Y-82890952D01*
X171346857Y-82843333D01*
X171489714Y-82843333D01*
X171584952Y-82890952D01*
X171632571Y-82938571D01*
X171680190Y-83033809D01*
X171680190Y-83414761D01*
X172156380Y-82414761D02*
X171156380Y-82414761D01*
X171632571Y-82414761D02*
X171632571Y-81843333D01*
X172156380Y-81843333D02*
X171156380Y-81843333D01*
X171632571Y-81367142D02*
X171632571Y-81033809D01*
X172156380Y-80890952D02*
X172156380Y-81367142D01*
X171156380Y-81367142D01*
X171156380Y-80890952D01*
X172156380Y-79890952D02*
X171680190Y-80224285D01*
X172156380Y-80462380D02*
X171156380Y-80462380D01*
X171156380Y-80081428D01*
X171204000Y-79986190D01*
X171251619Y-79938571D01*
X171346857Y-79890952D01*
X171489714Y-79890952D01*
X171584952Y-79938571D01*
X171632571Y-79986190D01*
X171680190Y-80081428D01*
X171680190Y-80462380D01*
X171870666Y-79510000D02*
X171870666Y-79033809D01*
X172156380Y-79605238D02*
X171156380Y-79271904D01*
X172156380Y-78938571D01*
X172156380Y-78129047D02*
X172156380Y-78605238D01*
X171156380Y-78605238D01*
X172108761Y-77843333D02*
X172156380Y-77700476D01*
X172156380Y-77462380D01*
X172108761Y-77367142D01*
X172061142Y-77319523D01*
X171965904Y-77271904D01*
X171870666Y-77271904D01*
X171775428Y-77319523D01*
X171727809Y-77367142D01*
X171680190Y-77462380D01*
X171632571Y-77652857D01*
X171584952Y-77748095D01*
X171537333Y-77795714D01*
X171442095Y-77843333D01*
X171346857Y-77843333D01*
X171251619Y-77795714D01*
X171204000Y-77748095D01*
X171156380Y-77652857D01*
X171156380Y-77414761D01*
X171204000Y-77271904D01*
X171632571Y-75748095D02*
X171632571Y-76081428D01*
X172156380Y-76081428D02*
X171156380Y-76081428D01*
X171156380Y-75605238D01*
X172156380Y-75224285D02*
X171156380Y-75224285D01*
X171156380Y-74890952D02*
X171156380Y-74319523D01*
X172156380Y-74605238D02*
X171156380Y-74605238D01*
X171156380Y-73224285D02*
X171965904Y-73224285D01*
X172061142Y-73176666D01*
X172108761Y-73129047D01*
X172156380Y-73033809D01*
X172156380Y-72843333D01*
X172108761Y-72748095D01*
X172061142Y-72700476D01*
X171965904Y-72652857D01*
X171156380Y-72652857D01*
X172156380Y-72176666D02*
X171156380Y-72176666D01*
X172156380Y-71605238D01*
X171156380Y-71605238D01*
X172156380Y-71129047D02*
X171156380Y-71129047D01*
X171156380Y-70890952D01*
X171204000Y-70748095D01*
X171299238Y-70652857D01*
X171394476Y-70605238D01*
X171584952Y-70557619D01*
X171727809Y-70557619D01*
X171918285Y-70605238D01*
X172013523Y-70652857D01*
X172108761Y-70748095D01*
X172156380Y-70890952D01*
X172156380Y-71129047D01*
X171632571Y-70129047D02*
X171632571Y-69795714D01*
X172156380Y-69652857D02*
X172156380Y-70129047D01*
X171156380Y-70129047D01*
X171156380Y-69652857D01*
X172156380Y-68652857D02*
X171680190Y-68986190D01*
X172156380Y-69224285D02*
X171156380Y-69224285D01*
X171156380Y-68843333D01*
X171204000Y-68748095D01*
X171251619Y-68700476D01*
X171346857Y-68652857D01*
X171489714Y-68652857D01*
X171584952Y-68700476D01*
X171632571Y-68748095D01*
X171680190Y-68843333D01*
X171680190Y-69224285D01*
X171156380Y-67605238D02*
X171156380Y-67033809D01*
X172156380Y-67319523D02*
X171156380Y-67319523D01*
X172156380Y-66700476D02*
X171156380Y-66700476D01*
X171632571Y-66700476D02*
X171632571Y-66129047D01*
X172156380Y-66129047D02*
X171156380Y-66129047D01*
X171632571Y-65652857D02*
X171632571Y-65319523D01*
X172156380Y-65176666D02*
X172156380Y-65652857D01*
X171156380Y-65652857D01*
X171156380Y-65176666D01*
X172061142Y-63414761D02*
X172108761Y-63462380D01*
X172156380Y-63605238D01*
X172156380Y-63700476D01*
X172108761Y-63843333D01*
X172013523Y-63938571D01*
X171918285Y-63986190D01*
X171727809Y-64033809D01*
X171584952Y-64033809D01*
X171394476Y-63986190D01*
X171299238Y-63938571D01*
X171204000Y-63843333D01*
X171156380Y-63700476D01*
X171156380Y-63605238D01*
X171204000Y-63462380D01*
X171251619Y-63414761D01*
X171156380Y-62795714D02*
X171156380Y-62605238D01*
X171204000Y-62510000D01*
X171299238Y-62414761D01*
X171489714Y-62367142D01*
X171823047Y-62367142D01*
X172013523Y-62414761D01*
X172108761Y-62510000D01*
X172156380Y-62605238D01*
X172156380Y-62795714D01*
X172108761Y-62890952D01*
X172013523Y-62986190D01*
X171823047Y-63033809D01*
X171489714Y-63033809D01*
X171299238Y-62986190D01*
X171204000Y-62890952D01*
X171156380Y-62795714D01*
X172156380Y-61367142D02*
X171680190Y-61700476D01*
X172156380Y-61938571D02*
X171156380Y-61938571D01*
X171156380Y-61557619D01*
X171204000Y-61462380D01*
X171251619Y-61414761D01*
X171346857Y-61367142D01*
X171489714Y-61367142D01*
X171584952Y-61414761D01*
X171632571Y-61462380D01*
X171680190Y-61557619D01*
X171680190Y-61938571D01*
X171632571Y-60938571D02*
X171632571Y-60605238D01*
X172156380Y-60462380D02*
X172156380Y-60938571D01*
X171156380Y-60938571D01*
X171156380Y-60462380D01*
X171632571Y-58938571D02*
X171680190Y-58795714D01*
X171727809Y-58748095D01*
X171823047Y-58700476D01*
X171965904Y-58700476D01*
X172061142Y-58748095D01*
X172108761Y-58795714D01*
X172156380Y-58890952D01*
X172156380Y-59271904D01*
X171156380Y-59271904D01*
X171156380Y-58938571D01*
X171204000Y-58843333D01*
X171251619Y-58795714D01*
X171346857Y-58748095D01*
X171442095Y-58748095D01*
X171537333Y-58795714D01*
X171584952Y-58843333D01*
X171632571Y-58938571D01*
X171632571Y-59271904D01*
X171156380Y-58081428D02*
X171156380Y-57890952D01*
X171204000Y-57795714D01*
X171299238Y-57700476D01*
X171489714Y-57652857D01*
X171823047Y-57652857D01*
X172013523Y-57700476D01*
X172108761Y-57795714D01*
X172156380Y-57890952D01*
X172156380Y-58081428D01*
X172108761Y-58176666D01*
X172013523Y-58271904D01*
X171823047Y-58319523D01*
X171489714Y-58319523D01*
X171299238Y-58271904D01*
X171204000Y-58176666D01*
X171156380Y-58081428D01*
X171870666Y-57271904D02*
X171870666Y-56795714D01*
X172156380Y-57367142D02*
X171156380Y-57033809D01*
X172156380Y-56700476D01*
X172156380Y-55795714D02*
X171680190Y-56129047D01*
X172156380Y-56367142D02*
X171156380Y-56367142D01*
X171156380Y-55986190D01*
X171204000Y-55890952D01*
X171251619Y-55843333D01*
X171346857Y-55795714D01*
X171489714Y-55795714D01*
X171584952Y-55843333D01*
X171632571Y-55890952D01*
X171680190Y-55986190D01*
X171680190Y-56367142D01*
X172156380Y-55367142D02*
X171156380Y-55367142D01*
X171156380Y-55129047D01*
X171204000Y-54986190D01*
X171299238Y-54890952D01*
X171394476Y-54843333D01*
X171584952Y-54795714D01*
X171727809Y-54795714D01*
X171918285Y-54843333D01*
X172013523Y-54890952D01*
X172108761Y-54986190D01*
X172156380Y-55129047D01*
X172156380Y-55367142D01*
X154630380Y-90256857D02*
X153630380Y-90256857D01*
X153630380Y-89875904D01*
X153678000Y-89780666D01*
X153725619Y-89733047D01*
X153820857Y-89685428D01*
X153963714Y-89685428D01*
X154058952Y-89733047D01*
X154106571Y-89780666D01*
X154154190Y-89875904D01*
X154154190Y-90256857D01*
X154630380Y-89256857D02*
X153630380Y-89256857D01*
X154106571Y-89256857D02*
X154106571Y-88685428D01*
X154630380Y-88685428D02*
X153630380Y-88685428D01*
X153630380Y-88018761D02*
X153630380Y-87828285D01*
X153678000Y-87733047D01*
X153773238Y-87637809D01*
X153963714Y-87590190D01*
X154297047Y-87590190D01*
X154487523Y-87637809D01*
X154582761Y-87733047D01*
X154630380Y-87828285D01*
X154630380Y-88018761D01*
X154582761Y-88114000D01*
X154487523Y-88209238D01*
X154297047Y-88256857D01*
X153963714Y-88256857D01*
X153773238Y-88209238D01*
X153678000Y-88114000D01*
X153630380Y-88018761D01*
X153630380Y-87304476D02*
X153630380Y-86733047D01*
X154630380Y-87018761D02*
X153630380Y-87018761D01*
X153630380Y-86209238D02*
X153630380Y-86018761D01*
X153678000Y-85923523D01*
X153773238Y-85828285D01*
X153963714Y-85780666D01*
X154297047Y-85780666D01*
X154487523Y-85828285D01*
X154582761Y-85923523D01*
X154630380Y-86018761D01*
X154630380Y-86209238D01*
X154582761Y-86304476D01*
X154487523Y-86399714D01*
X154297047Y-86447333D01*
X153963714Y-86447333D01*
X153773238Y-86399714D01*
X153678000Y-86304476D01*
X153630380Y-86209238D01*
X154630380Y-84780666D02*
X154154190Y-85114000D01*
X154630380Y-85352095D02*
X153630380Y-85352095D01*
X153630380Y-84971142D01*
X153678000Y-84875904D01*
X153725619Y-84828285D01*
X153820857Y-84780666D01*
X153963714Y-84780666D01*
X154058952Y-84828285D01*
X154106571Y-84875904D01*
X154154190Y-84971142D01*
X154154190Y-85352095D01*
X154106571Y-84352095D02*
X154106571Y-84018761D01*
X154630380Y-83875904D02*
X154630380Y-84352095D01*
X153630380Y-84352095D01*
X153630380Y-83875904D01*
X154582761Y-83494952D02*
X154630380Y-83352095D01*
X154630380Y-83114000D01*
X154582761Y-83018761D01*
X154535142Y-82971142D01*
X154439904Y-82923523D01*
X154344666Y-82923523D01*
X154249428Y-82971142D01*
X154201809Y-83018761D01*
X154154190Y-83114000D01*
X154106571Y-83304476D01*
X154058952Y-83399714D01*
X154011333Y-83447333D01*
X153916095Y-83494952D01*
X153820857Y-83494952D01*
X153725619Y-83447333D01*
X153678000Y-83399714D01*
X153630380Y-83304476D01*
X153630380Y-83066380D01*
X153678000Y-82923523D01*
X131270666Y-78494000D02*
X131175428Y-78446380D01*
X131032571Y-78446380D01*
X130889714Y-78494000D01*
X130794476Y-78589238D01*
X130746857Y-78684476D01*
X130699238Y-78874952D01*
X130699238Y-79017809D01*
X130746857Y-79208285D01*
X130794476Y-79303523D01*
X130889714Y-79398761D01*
X131032571Y-79446380D01*
X131127809Y-79446380D01*
X131270666Y-79398761D01*
X131318285Y-79351142D01*
X131318285Y-79017809D01*
X131127809Y-79017809D01*
X131746857Y-79446380D02*
X131746857Y-78446380D01*
X132127809Y-78446380D01*
X132223047Y-78494000D01*
X132270666Y-78541619D01*
X132318285Y-78636857D01*
X132318285Y-78779714D01*
X132270666Y-78874952D01*
X132223047Y-78922571D01*
X132127809Y-78970190D01*
X131746857Y-78970190D01*
X132746857Y-79446380D02*
X132746857Y-78446380D01*
X133413523Y-78446380D02*
X133604000Y-78446380D01*
X133699238Y-78494000D01*
X133794476Y-78589238D01*
X133842095Y-78779714D01*
X133842095Y-79113047D01*
X133794476Y-79303523D01*
X133699238Y-79398761D01*
X133604000Y-79446380D01*
X133413523Y-79446380D01*
X133318285Y-79398761D01*
X133223047Y-79303523D01*
X133175428Y-79113047D01*
X133175428Y-78779714D01*
X133223047Y-78589238D01*
X133318285Y-78494000D01*
X133413523Y-78446380D01*
X135556380Y-79446380D02*
X134984952Y-79446380D01*
X135270666Y-79446380D02*
X135270666Y-78446380D01*
X135175428Y-78589238D01*
X135080190Y-78684476D01*
X134984952Y-78732095D01*
X135889714Y-78446380D02*
X136556380Y-78446380D01*
X136127809Y-79446380D01*
X95940666Y-58126380D02*
X96274000Y-59126380D01*
X96607333Y-58126380D01*
X96940666Y-59126380D02*
X96940666Y-58126380D01*
X97321619Y-58126380D01*
X97416857Y-58174000D01*
X97464476Y-58221619D01*
X97512095Y-58316857D01*
X97512095Y-58459714D01*
X97464476Y-58554952D01*
X97416857Y-58602571D01*
X97321619Y-58650190D01*
X96940666Y-58650190D01*
X154789142Y-110632380D02*
X154836761Y-110680000D01*
X154884380Y-110822857D01*
X154884380Y-110918095D01*
X154836761Y-111060952D01*
X154741523Y-111156190D01*
X154646285Y-111203809D01*
X154455809Y-111251428D01*
X154312952Y-111251428D01*
X154122476Y-111203809D01*
X154027238Y-111156190D01*
X153932000Y-111060952D01*
X153884380Y-110918095D01*
X153884380Y-110822857D01*
X153932000Y-110680000D01*
X153979619Y-110632380D01*
X154598666Y-110251428D02*
X154598666Y-109775238D01*
X154884380Y-110346666D02*
X153884380Y-110013333D01*
X154884380Y-109680000D01*
X154884380Y-109346666D02*
X153884380Y-109346666D01*
X153884380Y-108965714D01*
X153932000Y-108870476D01*
X153979619Y-108822857D01*
X154074857Y-108775238D01*
X154217714Y-108775238D01*
X154312952Y-108822857D01*
X154360571Y-108870476D01*
X154408190Y-108965714D01*
X154408190Y-109346666D01*
X154836761Y-107632380D02*
X154884380Y-107489523D01*
X154884380Y-107251428D01*
X154836761Y-107156190D01*
X154789142Y-107108571D01*
X154693904Y-107060952D01*
X154598666Y-107060952D01*
X154503428Y-107108571D01*
X154455809Y-107156190D01*
X154408190Y-107251428D01*
X154360571Y-107441904D01*
X154312952Y-107537142D01*
X154265333Y-107584761D01*
X154170095Y-107632380D01*
X154074857Y-107632380D01*
X153979619Y-107584761D01*
X153932000Y-107537142D01*
X153884380Y-107441904D01*
X153884380Y-107203809D01*
X153932000Y-107060952D01*
X154360571Y-106632380D02*
X154360571Y-106299047D01*
X154884380Y-106156190D02*
X154884380Y-106632380D01*
X153884380Y-106632380D01*
X153884380Y-106156190D01*
X154884380Y-105727619D02*
X153884380Y-105727619D01*
X154884380Y-105156190D01*
X153884380Y-105156190D01*
X154836761Y-104727619D02*
X154884380Y-104584761D01*
X154884380Y-104346666D01*
X154836761Y-104251428D01*
X154789142Y-104203809D01*
X154693904Y-104156190D01*
X154598666Y-104156190D01*
X154503428Y-104203809D01*
X154455809Y-104251428D01*
X154408190Y-104346666D01*
X154360571Y-104537142D01*
X154312952Y-104632380D01*
X154265333Y-104680000D01*
X154170095Y-104727619D01*
X154074857Y-104727619D01*
X153979619Y-104680000D01*
X153932000Y-104632380D01*
X153884380Y-104537142D01*
X153884380Y-104299047D01*
X153932000Y-104156190D01*
X153884380Y-103537142D02*
X153884380Y-103346666D01*
X153932000Y-103251428D01*
X154027238Y-103156190D01*
X154217714Y-103108571D01*
X154551047Y-103108571D01*
X154741523Y-103156190D01*
X154836761Y-103251428D01*
X154884380Y-103346666D01*
X154884380Y-103537142D01*
X154836761Y-103632380D01*
X154741523Y-103727619D01*
X154551047Y-103775238D01*
X154217714Y-103775238D01*
X154027238Y-103727619D01*
X153932000Y-103632380D01*
X153884380Y-103537142D01*
X154884380Y-102108571D02*
X154408190Y-102441904D01*
X154884380Y-102680000D02*
X153884380Y-102680000D01*
X153884380Y-102299047D01*
X153932000Y-102203809D01*
X153979619Y-102156190D01*
X154074857Y-102108571D01*
X154217714Y-102108571D01*
X154312952Y-102156190D01*
X154360571Y-102203809D01*
X154408190Y-102299047D01*
X154408190Y-102680000D01*
X131707142Y-94892761D02*
X131850000Y-94940380D01*
X132088095Y-94940380D01*
X132183333Y-94892761D01*
X132230952Y-94845142D01*
X132278571Y-94749904D01*
X132278571Y-94654666D01*
X132230952Y-94559428D01*
X132183333Y-94511809D01*
X132088095Y-94464190D01*
X131897619Y-94416571D01*
X131802380Y-94368952D01*
X131754761Y-94321333D01*
X131707142Y-94226095D01*
X131707142Y-94130857D01*
X131754761Y-94035619D01*
X131802380Y-93988000D01*
X131897619Y-93940380D01*
X132135714Y-93940380D01*
X132278571Y-93988000D01*
X132707142Y-94940380D02*
X132707142Y-93940380D01*
X132945238Y-93940380D01*
X133088095Y-93988000D01*
X133183333Y-94083238D01*
X133230952Y-94178476D01*
X133278571Y-94368952D01*
X133278571Y-94511809D01*
X133230952Y-94702285D01*
X133183333Y-94797523D01*
X133088095Y-94892761D01*
X132945238Y-94940380D01*
X132707142Y-94940380D01*
X134992857Y-94940380D02*
X134421428Y-94940380D01*
X134707142Y-94940380D02*
X134707142Y-93940380D01*
X134611904Y-94083238D01*
X134516666Y-94178476D01*
X134421428Y-94226095D01*
X159766095Y-83828000D02*
X159670857Y-83780380D01*
X159528000Y-83780380D01*
X159385142Y-83828000D01*
X159289904Y-83923238D01*
X159242285Y-84018476D01*
X159194666Y-84208952D01*
X159194666Y-84351809D01*
X159242285Y-84542285D01*
X159289904Y-84637523D01*
X159385142Y-84732761D01*
X159528000Y-84780380D01*
X159623238Y-84780380D01*
X159766095Y-84732761D01*
X159813714Y-84685142D01*
X159813714Y-84351809D01*
X159623238Y-84351809D01*
X160242285Y-84780380D02*
X160242285Y-83780380D01*
X160813714Y-84780380D01*
X160813714Y-83780380D01*
X161289904Y-84780380D02*
X161289904Y-83780380D01*
X161528000Y-83780380D01*
X161670857Y-83828000D01*
X161766095Y-83923238D01*
X161813714Y-84018476D01*
X161861333Y-84208952D01*
X161861333Y-84351809D01*
X161813714Y-84542285D01*
X161766095Y-84637523D01*
X161670857Y-84732761D01*
X161528000Y-84780380D01*
X161289904Y-84780380D01*
X95916857Y-60666380D02*
X96250190Y-61666380D01*
X96583523Y-60666380D01*
X96916857Y-61666380D02*
X96916857Y-60666380D01*
X97488285Y-61666380D01*
X97488285Y-60666380D01*
X132754761Y-99671142D02*
X132707142Y-99718761D01*
X132564285Y-99766380D01*
X132469047Y-99766380D01*
X132326190Y-99718761D01*
X132230952Y-99623523D01*
X132183333Y-99528285D01*
X132135714Y-99337809D01*
X132135714Y-99194952D01*
X132183333Y-99004476D01*
X132230952Y-98909238D01*
X132326190Y-98814000D01*
X132469047Y-98766380D01*
X132564285Y-98766380D01*
X132707142Y-98814000D01*
X132754761Y-98861619D01*
X133659523Y-99766380D02*
X133183333Y-99766380D01*
X133183333Y-98766380D01*
X133992857Y-99766380D02*
X133992857Y-98766380D01*
X134564285Y-99766380D02*
X134135714Y-99194952D01*
X134564285Y-98766380D02*
X133992857Y-99337809D01*
X131492857Y-88908000D02*
X131397619Y-88860380D01*
X131254761Y-88860380D01*
X131111904Y-88908000D01*
X131016666Y-89003238D01*
X130969047Y-89098476D01*
X130921428Y-89288952D01*
X130921428Y-89431809D01*
X130969047Y-89622285D01*
X131016666Y-89717523D01*
X131111904Y-89812761D01*
X131254761Y-89860380D01*
X131350000Y-89860380D01*
X131492857Y-89812761D01*
X131540476Y-89765142D01*
X131540476Y-89431809D01*
X131350000Y-89431809D01*
X131969047Y-89860380D02*
X131969047Y-88860380D01*
X132350000Y-88860380D01*
X132445238Y-88908000D01*
X132492857Y-88955619D01*
X132540476Y-89050857D01*
X132540476Y-89193714D01*
X132492857Y-89288952D01*
X132445238Y-89336571D01*
X132350000Y-89384190D01*
X131969047Y-89384190D01*
X132969047Y-89860380D02*
X132969047Y-88860380D01*
X133635714Y-88860380D02*
X133826190Y-88860380D01*
X133921428Y-88908000D01*
X134016666Y-89003238D01*
X134064285Y-89193714D01*
X134064285Y-89527047D01*
X134016666Y-89717523D01*
X133921428Y-89812761D01*
X133826190Y-89860380D01*
X133635714Y-89860380D01*
X133540476Y-89812761D01*
X133445238Y-89717523D01*
X133397619Y-89527047D01*
X133397619Y-89193714D01*
X133445238Y-89003238D01*
X133540476Y-88908000D01*
X133635714Y-88860380D01*
X135207142Y-88955619D02*
X135254761Y-88908000D01*
X135350000Y-88860380D01*
X135588095Y-88860380D01*
X135683333Y-88908000D01*
X135730952Y-88955619D01*
X135778571Y-89050857D01*
X135778571Y-89146095D01*
X135730952Y-89288952D01*
X135159523Y-89860380D01*
X135778571Y-89860380D01*
X94440666Y-65794000D02*
X94345428Y-65746380D01*
X94202571Y-65746380D01*
X94059714Y-65794000D01*
X93964476Y-65889238D01*
X93916857Y-65984476D01*
X93869238Y-66174952D01*
X93869238Y-66317809D01*
X93916857Y-66508285D01*
X93964476Y-66603523D01*
X94059714Y-66698761D01*
X94202571Y-66746380D01*
X94297809Y-66746380D01*
X94440666Y-66698761D01*
X94488285Y-66651142D01*
X94488285Y-66317809D01*
X94297809Y-66317809D01*
X94916857Y-66746380D02*
X94916857Y-65746380D01*
X95297809Y-65746380D01*
X95393047Y-65794000D01*
X95440666Y-65841619D01*
X95488285Y-65936857D01*
X95488285Y-66079714D01*
X95440666Y-66174952D01*
X95393047Y-66222571D01*
X95297809Y-66270190D01*
X94916857Y-66270190D01*
X95916857Y-66746380D02*
X95916857Y-65746380D01*
X96583523Y-65746380D02*
X96774000Y-65746380D01*
X96869238Y-65794000D01*
X96964476Y-65889238D01*
X97012095Y-66079714D01*
X97012095Y-66413047D01*
X96964476Y-66603523D01*
X96869238Y-66698761D01*
X96774000Y-66746380D01*
X96583523Y-66746380D01*
X96488285Y-66698761D01*
X96393047Y-66603523D01*
X96345428Y-66413047D01*
X96345428Y-66079714D01*
X96393047Y-65889238D01*
X96488285Y-65794000D01*
X96583523Y-65746380D01*
X98107333Y-65746380D02*
X98726380Y-65746380D01*
X98393047Y-66127333D01*
X98535904Y-66127333D01*
X98631142Y-66174952D01*
X98678761Y-66222571D01*
X98726380Y-66317809D01*
X98726380Y-66555904D01*
X98678761Y-66651142D01*
X98631142Y-66698761D01*
X98535904Y-66746380D01*
X98250190Y-66746380D01*
X98154952Y-66698761D01*
X98107333Y-66651142D01*
X99631142Y-65746380D02*
X99154952Y-65746380D01*
X99107333Y-66222571D01*
X99154952Y-66174952D01*
X99250190Y-66127333D01*
X99488285Y-66127333D01*
X99583523Y-66174952D01*
X99631142Y-66222571D01*
X99678761Y-66317809D01*
X99678761Y-66555904D01*
X99631142Y-66651142D01*
X99583523Y-66698761D01*
X99488285Y-66746380D01*
X99250190Y-66746380D01*
X99154952Y-66698761D01*
X99107333Y-66651142D01*
X159647142Y-112418761D02*
X159790000Y-112466380D01*
X160028095Y-112466380D01*
X160123333Y-112418761D01*
X160170952Y-112371142D01*
X160218571Y-112275904D01*
X160218571Y-112180666D01*
X160170952Y-112085428D01*
X160123333Y-112037809D01*
X160028095Y-111990190D01*
X159837619Y-111942571D01*
X159742380Y-111894952D01*
X159694761Y-111847333D01*
X159647142Y-111752095D01*
X159647142Y-111656857D01*
X159694761Y-111561619D01*
X159742380Y-111514000D01*
X159837619Y-111466380D01*
X160075714Y-111466380D01*
X160218571Y-111514000D01*
X160647142Y-112466380D02*
X160647142Y-111466380D01*
X160885238Y-111466380D01*
X161028095Y-111514000D01*
X161123333Y-111609238D01*
X161170952Y-111704476D01*
X161218571Y-111894952D01*
X161218571Y-112037809D01*
X161170952Y-112228285D01*
X161123333Y-112323523D01*
X161028095Y-112418761D01*
X160885238Y-112466380D01*
X160647142Y-112466380D01*
X162313809Y-111466380D02*
X162932857Y-111466380D01*
X162599523Y-111847333D01*
X162742380Y-111847333D01*
X162837619Y-111894952D01*
X162885238Y-111942571D01*
X162932857Y-112037809D01*
X162932857Y-112275904D01*
X162885238Y-112371142D01*
X162837619Y-112418761D01*
X162742380Y-112466380D01*
X162456666Y-112466380D01*
X162361428Y-112418761D01*
X162313809Y-112371142D01*
X132588095Y-60920380D02*
X133159523Y-60920380D01*
X132873809Y-61920380D02*
X132873809Y-60920380D01*
X133397619Y-60920380D02*
X134064285Y-61920380D01*
X134064285Y-60920380D02*
X133397619Y-61920380D01*
X93495904Y-56062571D02*
X93829238Y-56062571D01*
X93972095Y-56586380D02*
X93495904Y-56586380D01*
X93495904Y-55586380D01*
X93972095Y-55586380D01*
X94400666Y-56586380D02*
X94400666Y-55586380D01*
X94972095Y-56586380D01*
X94972095Y-55586380D01*
X131016666Y-91448000D02*
X130921428Y-91400380D01*
X130778571Y-91400380D01*
X130635714Y-91448000D01*
X130540476Y-91543238D01*
X130492857Y-91638476D01*
X130445238Y-91828952D01*
X130445238Y-91971809D01*
X130492857Y-92162285D01*
X130540476Y-92257523D01*
X130635714Y-92352761D01*
X130778571Y-92400380D01*
X130873809Y-92400380D01*
X131016666Y-92352761D01*
X131064285Y-92305142D01*
X131064285Y-91971809D01*
X130873809Y-91971809D01*
X131492857Y-92400380D02*
X131492857Y-91400380D01*
X131873809Y-91400380D01*
X131969047Y-91448000D01*
X132016666Y-91495619D01*
X132064285Y-91590857D01*
X132064285Y-91733714D01*
X132016666Y-91828952D01*
X131969047Y-91876571D01*
X131873809Y-91924190D01*
X131492857Y-91924190D01*
X132492857Y-92400380D02*
X132492857Y-91400380D01*
X133159523Y-91400380D02*
X133350000Y-91400380D01*
X133445238Y-91448000D01*
X133540476Y-91543238D01*
X133588095Y-91733714D01*
X133588095Y-92067047D01*
X133540476Y-92257523D01*
X133445238Y-92352761D01*
X133350000Y-92400380D01*
X133159523Y-92400380D01*
X133064285Y-92352761D01*
X132969047Y-92257523D01*
X132921428Y-92067047D01*
X132921428Y-91733714D01*
X132969047Y-91543238D01*
X133064285Y-91448000D01*
X133159523Y-91400380D01*
X135302380Y-92400380D02*
X134730952Y-92400380D01*
X135016666Y-92400380D02*
X135016666Y-91400380D01*
X134921428Y-91543238D01*
X134826190Y-91638476D01*
X134730952Y-91686095D01*
X136207142Y-91400380D02*
X135730952Y-91400380D01*
X135683333Y-91876571D01*
X135730952Y-91828952D01*
X135826190Y-91781333D01*
X136064285Y-91781333D01*
X136159523Y-91828952D01*
X136207142Y-91876571D01*
X136254761Y-91971809D01*
X136254761Y-92209904D01*
X136207142Y-92305142D01*
X136159523Y-92352761D01*
X136064285Y-92400380D01*
X135826190Y-92400380D01*
X135730952Y-92352761D01*
X135683333Y-92305142D01*
X131492857Y-76208000D02*
X131397619Y-76160380D01*
X131254761Y-76160380D01*
X131111904Y-76208000D01*
X131016666Y-76303238D01*
X130969047Y-76398476D01*
X130921428Y-76588952D01*
X130921428Y-76731809D01*
X130969047Y-76922285D01*
X131016666Y-77017523D01*
X131111904Y-77112761D01*
X131254761Y-77160380D01*
X131350000Y-77160380D01*
X131492857Y-77112761D01*
X131540476Y-77065142D01*
X131540476Y-76731809D01*
X131350000Y-76731809D01*
X131969047Y-77160380D02*
X131969047Y-76160380D01*
X132350000Y-76160380D01*
X132445238Y-76208000D01*
X132492857Y-76255619D01*
X132540476Y-76350857D01*
X132540476Y-76493714D01*
X132492857Y-76588952D01*
X132445238Y-76636571D01*
X132350000Y-76684190D01*
X131969047Y-76684190D01*
X132969047Y-77160380D02*
X132969047Y-76160380D01*
X133635714Y-76160380D02*
X133826190Y-76160380D01*
X133921428Y-76208000D01*
X134016666Y-76303238D01*
X134064285Y-76493714D01*
X134064285Y-76827047D01*
X134016666Y-77017523D01*
X133921428Y-77112761D01*
X133826190Y-77160380D01*
X133635714Y-77160380D01*
X133540476Y-77112761D01*
X133445238Y-77017523D01*
X133397619Y-76827047D01*
X133397619Y-76493714D01*
X133445238Y-76303238D01*
X133540476Y-76208000D01*
X133635714Y-76160380D01*
X135730952Y-76160380D02*
X135254761Y-76160380D01*
X135207142Y-76636571D01*
X135254761Y-76588952D01*
X135350000Y-76541333D01*
X135588095Y-76541333D01*
X135683333Y-76588952D01*
X135730952Y-76636571D01*
X135778571Y-76731809D01*
X135778571Y-76969904D01*
X135730952Y-77065142D01*
X135683333Y-77112761D01*
X135588095Y-77160380D01*
X135350000Y-77160380D01*
X135254761Y-77112761D01*
X135207142Y-77065142D01*
X131492857Y-86368000D02*
X131397619Y-86320380D01*
X131254761Y-86320380D01*
X131111904Y-86368000D01*
X131016666Y-86463238D01*
X130969047Y-86558476D01*
X130921428Y-86748952D01*
X130921428Y-86891809D01*
X130969047Y-87082285D01*
X131016666Y-87177523D01*
X131111904Y-87272761D01*
X131254761Y-87320380D01*
X131350000Y-87320380D01*
X131492857Y-87272761D01*
X131540476Y-87225142D01*
X131540476Y-86891809D01*
X131350000Y-86891809D01*
X131969047Y-87320380D02*
X131969047Y-86320380D01*
X132350000Y-86320380D01*
X132445238Y-86368000D01*
X132492857Y-86415619D01*
X132540476Y-86510857D01*
X132540476Y-86653714D01*
X132492857Y-86748952D01*
X132445238Y-86796571D01*
X132350000Y-86844190D01*
X131969047Y-86844190D01*
X132969047Y-87320380D02*
X132969047Y-86320380D01*
X133635714Y-86320380D02*
X133826190Y-86320380D01*
X133921428Y-86368000D01*
X134016666Y-86463238D01*
X134064285Y-86653714D01*
X134064285Y-86987047D01*
X134016666Y-87177523D01*
X133921428Y-87272761D01*
X133826190Y-87320380D01*
X133635714Y-87320380D01*
X133540476Y-87272761D01*
X133445238Y-87177523D01*
X133397619Y-86987047D01*
X133397619Y-86653714D01*
X133445238Y-86463238D01*
X133540476Y-86368000D01*
X133635714Y-86320380D01*
X135445238Y-86320380D02*
X135540476Y-86320380D01*
X135635714Y-86368000D01*
X135683333Y-86415619D01*
X135730952Y-86510857D01*
X135778571Y-86701333D01*
X135778571Y-86939428D01*
X135730952Y-87129904D01*
X135683333Y-87225142D01*
X135635714Y-87272761D01*
X135540476Y-87320380D01*
X135445238Y-87320380D01*
X135350000Y-87272761D01*
X135302380Y-87225142D01*
X135254761Y-87129904D01*
X135207142Y-86939428D01*
X135207142Y-86701333D01*
X135254761Y-86510857D01*
X135302380Y-86415619D01*
X135350000Y-86368000D01*
X135445238Y-86320380D01*
X151101729Y-70166666D02*
X151189229Y-69466666D01*
X151355895Y-69466666D01*
X151451729Y-69500000D01*
X151510062Y-69566666D01*
X151535062Y-69633333D01*
X151551729Y-69766666D01*
X151539229Y-69866666D01*
X151489229Y-70000000D01*
X151447562Y-70066666D01*
X151372562Y-70133333D01*
X151268395Y-70166666D01*
X151101729Y-70166666D01*
X152160062Y-69700000D02*
X152101729Y-70166666D01*
X151860062Y-69700000D02*
X151814229Y-70066666D01*
X151839229Y-70133333D01*
X151901729Y-70166666D01*
X152001729Y-70166666D01*
X152072562Y-70133333D01*
X152110062Y-70100000D01*
X152535062Y-70166666D02*
X152472562Y-70133333D01*
X152447562Y-70066666D01*
X152522562Y-69466666D01*
X153101729Y-70166666D02*
X153147562Y-69800000D01*
X153122562Y-69733333D01*
X153060062Y-69700000D01*
X152926729Y-69700000D01*
X152855895Y-69733333D01*
X153105895Y-70133333D02*
X153035062Y-70166666D01*
X152868395Y-70166666D01*
X152805895Y-70133333D01*
X152780895Y-70066666D01*
X152789229Y-70000000D01*
X152830895Y-69933333D01*
X152901729Y-69900000D01*
X153068395Y-69900000D01*
X153139229Y-69866666D01*
X153493395Y-69700000D02*
X153435062Y-70166666D01*
X153485062Y-69766666D02*
X153522562Y-69733333D01*
X153593395Y-69700000D01*
X153693395Y-69700000D01*
X153755895Y-69733333D01*
X153780895Y-69800000D01*
X153735062Y-70166666D01*
X154060062Y-69700000D02*
X154168395Y-70166666D01*
X154393395Y-69700000D02*
X154168395Y-70166666D01*
X154080895Y-70333333D01*
X154043395Y-70366666D01*
X153972562Y-70400000D01*
X154901729Y-70166666D02*
X154947562Y-69800000D01*
X154922562Y-69733333D01*
X154860062Y-69700000D01*
X154726729Y-69700000D01*
X154655895Y-69733333D01*
X154905895Y-70133333D02*
X154835062Y-70166666D01*
X154668395Y-70166666D01*
X154605895Y-70133333D01*
X154580895Y-70066666D01*
X154589229Y-70000000D01*
X154630895Y-69933333D01*
X154701729Y-69900000D01*
X154868395Y-69900000D01*
X154939229Y-69866666D01*
X156176729Y-70100000D02*
X156139229Y-70133333D01*
X156035062Y-70166666D01*
X155968395Y-70166666D01*
X155872562Y-70133333D01*
X155814229Y-70066666D01*
X155789229Y-70000000D01*
X155772562Y-69866666D01*
X155785062Y-69766666D01*
X155835062Y-69633333D01*
X155876729Y-69566666D01*
X155951729Y-69500000D01*
X156055895Y-69466666D01*
X156122562Y-69466666D01*
X156218395Y-69500000D01*
X156247562Y-69533333D01*
X156568395Y-70166666D02*
X156505895Y-70133333D01*
X156476729Y-70100000D01*
X156451729Y-70033333D01*
X156476729Y-69833333D01*
X156518395Y-69766666D01*
X156555895Y-69733333D01*
X156626729Y-69700000D01*
X156726729Y-69700000D01*
X156789229Y-69733333D01*
X156818395Y-69766666D01*
X156843395Y-69833333D01*
X156818395Y-70033333D01*
X156776729Y-70100000D01*
X156739229Y-70133333D01*
X156668395Y-70166666D01*
X156568395Y-70166666D01*
X157201729Y-70166666D02*
X157139229Y-70133333D01*
X157110062Y-70100000D01*
X157085062Y-70033333D01*
X157110062Y-69833333D01*
X157151729Y-69766666D01*
X157189229Y-69733333D01*
X157260062Y-69700000D01*
X157360062Y-69700000D01*
X157422562Y-69733333D01*
X157451729Y-69766666D01*
X157476729Y-69833333D01*
X157451729Y-70033333D01*
X157410062Y-70100000D01*
X157372562Y-70133333D01*
X157301729Y-70166666D01*
X157201729Y-70166666D01*
X157735062Y-70166666D02*
X157793395Y-69700000D01*
X157776729Y-69833333D02*
X157818395Y-69766666D01*
X157855895Y-69733333D01*
X157926729Y-69700000D01*
X157993395Y-69700000D01*
X158468395Y-70166666D02*
X158514229Y-69800000D01*
X158489229Y-69733333D01*
X158426729Y-69700000D01*
X158293395Y-69700000D01*
X158222562Y-69733333D01*
X158472562Y-70133333D02*
X158401729Y-70166666D01*
X158235062Y-70166666D01*
X158172562Y-70133333D01*
X158147562Y-70066666D01*
X158155895Y-70000000D01*
X158197562Y-69933333D01*
X158268395Y-69900000D01*
X158435062Y-69900000D01*
X158505895Y-69866666D01*
X158793395Y-69700000D02*
X158901729Y-70166666D01*
X159126729Y-69700000D02*
X158901729Y-70166666D01*
X158814229Y-70333333D01*
X158776729Y-70366666D01*
X158705895Y-70400000D01*
X159914229Y-69533333D02*
X159951729Y-69500000D01*
X160022562Y-69466666D01*
X160189229Y-69466666D01*
X160251729Y-69500000D01*
X160280895Y-69533333D01*
X160305895Y-69600000D01*
X160297562Y-69666666D01*
X160251729Y-69766666D01*
X159801729Y-70166666D01*
X160235062Y-70166666D01*
X160755895Y-69466666D02*
X160822562Y-69466666D01*
X160885062Y-69500000D01*
X160914229Y-69533333D01*
X160939229Y-69600000D01*
X160955895Y-69733333D01*
X160935062Y-69900000D01*
X160885062Y-70033333D01*
X160843395Y-70100000D01*
X160805895Y-70133333D01*
X160735062Y-70166666D01*
X160668395Y-70166666D01*
X160605895Y-70133333D01*
X160576729Y-70100000D01*
X160551729Y-70033333D01*
X160535062Y-69900000D01*
X160555895Y-69733333D01*
X160605895Y-69600000D01*
X160647562Y-69533333D01*
X160685062Y-69500000D01*
X160755895Y-69466666D01*
X161247562Y-69533333D02*
X161285062Y-69500000D01*
X161355895Y-69466666D01*
X161522562Y-69466666D01*
X161585062Y-69500000D01*
X161614229Y-69533333D01*
X161639229Y-69600000D01*
X161630895Y-69666666D01*
X161585062Y-69766666D01*
X161135062Y-70166666D01*
X161568395Y-70166666D01*
X161889229Y-69466666D02*
X162322562Y-69466666D01*
X162055895Y-69733333D01*
X162155895Y-69733333D01*
X162218395Y-69766666D01*
X162247562Y-69800000D01*
X162272562Y-69866666D01*
X162251729Y-70033333D01*
X162210062Y-70100000D01*
X162172562Y-70133333D01*
X162101729Y-70166666D01*
X161901729Y-70166666D01*
X161839229Y-70133333D01*
X161810062Y-70100000D01*
X94440666Y-78494000D02*
X94345428Y-78446380D01*
X94202571Y-78446380D01*
X94059714Y-78494000D01*
X93964476Y-78589238D01*
X93916857Y-78684476D01*
X93869238Y-78874952D01*
X93869238Y-79017809D01*
X93916857Y-79208285D01*
X93964476Y-79303523D01*
X94059714Y-79398761D01*
X94202571Y-79446380D01*
X94297809Y-79446380D01*
X94440666Y-79398761D01*
X94488285Y-79351142D01*
X94488285Y-79017809D01*
X94297809Y-79017809D01*
X94916857Y-79446380D02*
X94916857Y-78446380D01*
X95297809Y-78446380D01*
X95393047Y-78494000D01*
X95440666Y-78541619D01*
X95488285Y-78636857D01*
X95488285Y-78779714D01*
X95440666Y-78874952D01*
X95393047Y-78922571D01*
X95297809Y-78970190D01*
X94916857Y-78970190D01*
X95916857Y-79446380D02*
X95916857Y-78446380D01*
X96583523Y-78446380D02*
X96774000Y-78446380D01*
X96869238Y-78494000D01*
X96964476Y-78589238D01*
X97012095Y-78779714D01*
X97012095Y-79113047D01*
X96964476Y-79303523D01*
X96869238Y-79398761D01*
X96774000Y-79446380D01*
X96583523Y-79446380D01*
X96488285Y-79398761D01*
X96393047Y-79303523D01*
X96345428Y-79113047D01*
X96345428Y-78779714D01*
X96393047Y-78589238D01*
X96488285Y-78494000D01*
X96583523Y-78446380D01*
X98154952Y-78541619D02*
X98202571Y-78494000D01*
X98297809Y-78446380D01*
X98535904Y-78446380D01*
X98631142Y-78494000D01*
X98678761Y-78541619D01*
X98726380Y-78636857D01*
X98726380Y-78732095D01*
X98678761Y-78874952D01*
X98107333Y-79446380D01*
X98726380Y-79446380D01*
X99059714Y-78446380D02*
X99726380Y-78446380D01*
X99297809Y-79446380D01*
%TO.C,J9*%
X156892666Y-98727380D02*
X156892666Y-99441666D01*
X156845047Y-99584523D01*
X156749809Y-99679761D01*
X156606952Y-99727380D01*
X156511714Y-99727380D01*
X157416476Y-99727380D02*
X157606952Y-99727380D01*
X157702190Y-99679761D01*
X157749809Y-99632142D01*
X157845047Y-99489285D01*
X157892666Y-99298809D01*
X157892666Y-98917857D01*
X157845047Y-98822619D01*
X157797428Y-98775000D01*
X157702190Y-98727380D01*
X157511714Y-98727380D01*
X157416476Y-98775000D01*
X157368857Y-98822619D01*
X157321238Y-98917857D01*
X157321238Y-99155952D01*
X157368857Y-99251190D01*
X157416476Y-99298809D01*
X157511714Y-99346428D01*
X157702190Y-99346428D01*
X157797428Y-99298809D01*
X157845047Y-99251190D01*
X157892666Y-99155952D01*
%TO.C,J2*%
X179317666Y-65639380D02*
X179317666Y-66353666D01*
X179270047Y-66496523D01*
X179174809Y-66591761D01*
X179031952Y-66639380D01*
X178936714Y-66639380D01*
X179746238Y-65734619D02*
X179793857Y-65687000D01*
X179889095Y-65639380D01*
X180127190Y-65639380D01*
X180222428Y-65687000D01*
X180270047Y-65734619D01*
X180317666Y-65829857D01*
X180317666Y-65925095D01*
X180270047Y-66067952D01*
X179698619Y-66639380D01*
X180317666Y-66639380D01*
X173721238Y-72940571D02*
X173864095Y-72988190D01*
X173911714Y-73035809D01*
X173959333Y-73131047D01*
X173959333Y-73273904D01*
X173911714Y-73369142D01*
X173864095Y-73416761D01*
X173768857Y-73464380D01*
X173387904Y-73464380D01*
X173387904Y-72464380D01*
X173721238Y-72464380D01*
X173816476Y-72512000D01*
X173864095Y-72559619D01*
X173911714Y-72654857D01*
X173911714Y-72750095D01*
X173864095Y-72845333D01*
X173816476Y-72892952D01*
X173721238Y-72940571D01*
X173387904Y-72940571D01*
X174911714Y-73464380D02*
X174340285Y-73464380D01*
X174626000Y-73464380D02*
X174626000Y-72464380D01*
X174530761Y-72607238D01*
X174435523Y-72702476D01*
X174340285Y-72750095D01*
X173411714Y-70778666D02*
X173887904Y-70778666D01*
X173316476Y-71064380D02*
X173649809Y-70064380D01*
X173983142Y-71064380D01*
X174840285Y-71064380D02*
X174268857Y-71064380D01*
X174554571Y-71064380D02*
X174554571Y-70064380D01*
X174459333Y-70207238D01*
X174364095Y-70302476D01*
X174268857Y-70350095D01*
%TO.C,SW1*%
X100734761Y-57467333D02*
X100782380Y-57324476D01*
X100782380Y-57086380D01*
X100734761Y-56991142D01*
X100687142Y-56943523D01*
X100591904Y-56895904D01*
X100496666Y-56895904D01*
X100401428Y-56943523D01*
X100353809Y-56991142D01*
X100306190Y-57086380D01*
X100258571Y-57276857D01*
X100210952Y-57372095D01*
X100163333Y-57419714D01*
X100068095Y-57467333D01*
X99972857Y-57467333D01*
X99877619Y-57419714D01*
X99830000Y-57372095D01*
X99782380Y-57276857D01*
X99782380Y-57038761D01*
X99830000Y-56895904D01*
X99782380Y-56562571D02*
X100782380Y-56324476D01*
X100068095Y-56134000D01*
X100782380Y-55943523D01*
X99782380Y-55705428D01*
X100782380Y-54800666D02*
X100782380Y-55372095D01*
X100782380Y-55086380D02*
X99782380Y-55086380D01*
X99925238Y-55181619D01*
X100020476Y-55276857D01*
X100068095Y-55372095D01*
%TO.C,J1*%
X178587666Y-39843380D02*
X178587666Y-40557666D01*
X178540047Y-40700523D01*
X178444809Y-40795761D01*
X178301952Y-40843380D01*
X178206714Y-40843380D01*
X179587666Y-40843380D02*
X179016238Y-40843380D01*
X179301952Y-40843380D02*
X179301952Y-39843380D01*
X179206714Y-39986238D01*
X179111476Y-40081476D01*
X179016238Y-40129095D01*
X172991238Y-47144571D02*
X173134095Y-47192190D01*
X173181714Y-47239809D01*
X173229333Y-47335047D01*
X173229333Y-47477904D01*
X173181714Y-47573142D01*
X173134095Y-47620761D01*
X173038857Y-47668380D01*
X172657904Y-47668380D01*
X172657904Y-46668380D01*
X172991238Y-46668380D01*
X173086476Y-46716000D01*
X173134095Y-46763619D01*
X173181714Y-46858857D01*
X173181714Y-46954095D01*
X173134095Y-47049333D01*
X173086476Y-47096952D01*
X172991238Y-47144571D01*
X172657904Y-47144571D01*
X174181714Y-47668380D02*
X173610285Y-47668380D01*
X173896000Y-47668380D02*
X173896000Y-46668380D01*
X173800761Y-46811238D01*
X173705523Y-46906476D01*
X173610285Y-46954095D01*
X172681714Y-44982666D02*
X173157904Y-44982666D01*
X172586476Y-45268380D02*
X172919809Y-44268380D01*
X173253142Y-45268380D01*
X174110285Y-45268380D02*
X173538857Y-45268380D01*
X173824571Y-45268380D02*
X173824571Y-44268380D01*
X173729333Y-44411238D01*
X173634095Y-44506476D01*
X173538857Y-44554095D01*
%TO.C,R1*%
X100782380Y-53506666D02*
X100306190Y-53840000D01*
X100782380Y-54078095D02*
X99782380Y-54078095D01*
X99782380Y-53697142D01*
X99830000Y-53601904D01*
X99877619Y-53554285D01*
X99972857Y-53506666D01*
X100115714Y-53506666D01*
X100210952Y-53554285D01*
X100258571Y-53601904D01*
X100306190Y-53697142D01*
X100306190Y-54078095D01*
X100782380Y-52554285D02*
X100782380Y-53125714D01*
X100782380Y-52840000D02*
X99782380Y-52840000D01*
X99925238Y-52935238D01*
X100020476Y-53030476D01*
X100068095Y-53125714D01*
%TO.C,U1*%
X103877626Y-44412124D02*
X103877626Y-45221960D01*
X103925263Y-45317235D01*
X103972901Y-45364873D01*
X104068175Y-45412510D01*
X104258725Y-45412510D01*
X104354000Y-45364873D01*
X104401637Y-45317235D01*
X104449275Y-45221960D01*
X104449275Y-44412124D01*
X105449661Y-45412510D02*
X104878012Y-45412510D01*
X105163836Y-45412510D02*
X105163836Y-44412124D01*
X105068561Y-44555036D01*
X104973287Y-44650311D01*
X104878012Y-44697949D01*
%TO.C,J4*%
X179857666Y-115535380D02*
X179857666Y-116249666D01*
X179810047Y-116392523D01*
X179714809Y-116487761D01*
X179571952Y-116535380D01*
X179476714Y-116535380D01*
X180762428Y-115868714D02*
X180762428Y-116535380D01*
X180524333Y-115487761D02*
X180286238Y-116202047D01*
X180905285Y-116202047D01*
X173951714Y-120674666D02*
X174427904Y-120674666D01*
X173856476Y-120960380D02*
X174189809Y-119960380D01*
X174523142Y-120960380D01*
X175380285Y-120960380D02*
X174808857Y-120960380D01*
X175094571Y-120960380D02*
X175094571Y-119960380D01*
X174999333Y-120103238D01*
X174904095Y-120198476D01*
X174808857Y-120246095D01*
%TO.C,J5*%
X90344666Y-48015380D02*
X90344666Y-48729666D01*
X90297047Y-48872523D01*
X90201809Y-48967761D01*
X90058952Y-49015380D01*
X89963714Y-49015380D01*
X91297047Y-48015380D02*
X90820857Y-48015380D01*
X90773238Y-48491571D01*
X90820857Y-48443952D01*
X90916095Y-48396333D01*
X91154190Y-48396333D01*
X91249428Y-48443952D01*
X91297047Y-48491571D01*
X91344666Y-48586809D01*
X91344666Y-48824904D01*
X91297047Y-48920142D01*
X91249428Y-48967761D01*
X91154190Y-49015380D01*
X90916095Y-49015380D01*
X90820857Y-48967761D01*
X90773238Y-48920142D01*
%TO.C,J6*%
X138700666Y-50726380D02*
X138700666Y-51440666D01*
X138653047Y-51583523D01*
X138557809Y-51678761D01*
X138414952Y-51726380D01*
X138319714Y-51726380D01*
X139605428Y-50726380D02*
X139414952Y-50726380D01*
X139319714Y-50774000D01*
X139272095Y-50821619D01*
X139176857Y-50964476D01*
X139129238Y-51154952D01*
X139129238Y-51535904D01*
X139176857Y-51631142D01*
X139224476Y-51678761D01*
X139319714Y-51726380D01*
X139510190Y-51726380D01*
X139605428Y-51678761D01*
X139653047Y-51631142D01*
X139700666Y-51535904D01*
X139700666Y-51297809D01*
X139653047Y-51202571D01*
X139605428Y-51154952D01*
X139510190Y-51107333D01*
X139319714Y-51107333D01*
X139224476Y-51154952D01*
X139176857Y-51202571D01*
X139129238Y-51297809D01*
%TO.C,J8*%
X156638666Y-91175380D02*
X156638666Y-91889666D01*
X156591047Y-92032523D01*
X156495809Y-92127761D01*
X156352952Y-92175380D01*
X156257714Y-92175380D01*
X157257714Y-91603952D02*
X157162476Y-91556333D01*
X157114857Y-91508714D01*
X157067238Y-91413476D01*
X157067238Y-91365857D01*
X157114857Y-91270619D01*
X157162476Y-91223000D01*
X157257714Y-91175380D01*
X157448190Y-91175380D01*
X157543428Y-91223000D01*
X157591047Y-91270619D01*
X157638666Y-91365857D01*
X157638666Y-91413476D01*
X157591047Y-91508714D01*
X157543428Y-91556333D01*
X157448190Y-91603952D01*
X157257714Y-91603952D01*
X157162476Y-91651571D01*
X157114857Y-91699190D01*
X157067238Y-91794428D01*
X157067238Y-91984904D01*
X157114857Y-92080142D01*
X157162476Y-92127761D01*
X157257714Y-92175380D01*
X157448190Y-92175380D01*
X157543428Y-92127761D01*
X157591047Y-92080142D01*
X157638666Y-91984904D01*
X157638666Y-91794428D01*
X157591047Y-91699190D01*
X157543428Y-91651571D01*
X157448190Y-91603952D01*
%TO.C,J7*%
X90300666Y-101086380D02*
X90300666Y-101800666D01*
X90253047Y-101943523D01*
X90157809Y-102038761D01*
X90014952Y-102086380D01*
X89919714Y-102086380D01*
X90681619Y-101086380D02*
X91348285Y-101086380D01*
X90919714Y-102086380D01*
%TO.C,J3*%
X179317666Y-88753380D02*
X179317666Y-89467666D01*
X179270047Y-89610523D01*
X179174809Y-89705761D01*
X179031952Y-89753380D01*
X178936714Y-89753380D01*
X179698619Y-88753380D02*
X180317666Y-88753380D01*
X179984333Y-89134333D01*
X180127190Y-89134333D01*
X180222428Y-89181952D01*
X180270047Y-89229571D01*
X180317666Y-89324809D01*
X180317666Y-89562904D01*
X180270047Y-89658142D01*
X180222428Y-89705761D01*
X180127190Y-89753380D01*
X179841476Y-89753380D01*
X179746238Y-89705761D01*
X179698619Y-89658142D01*
X173721238Y-96054571D02*
X173864095Y-96102190D01*
X173911714Y-96149809D01*
X173959333Y-96245047D01*
X173959333Y-96387904D01*
X173911714Y-96483142D01*
X173864095Y-96530761D01*
X173768857Y-96578380D01*
X173387904Y-96578380D01*
X173387904Y-95578380D01*
X173721238Y-95578380D01*
X173816476Y-95626000D01*
X173864095Y-95673619D01*
X173911714Y-95768857D01*
X173911714Y-95864095D01*
X173864095Y-95959333D01*
X173816476Y-96006952D01*
X173721238Y-96054571D01*
X173387904Y-96054571D01*
X174911714Y-96578380D02*
X174340285Y-96578380D01*
X174626000Y-96578380D02*
X174626000Y-95578380D01*
X174530761Y-95721238D01*
X174435523Y-95816476D01*
X174340285Y-95864095D01*
X173411714Y-93892666D02*
X173887904Y-93892666D01*
X173316476Y-94178380D02*
X173649809Y-93178380D01*
X173983142Y-94178380D01*
X174840285Y-94178380D02*
X174268857Y-94178380D01*
X174554571Y-94178380D02*
X174554571Y-93178380D01*
X174459333Y-93321238D01*
X174364095Y-93416476D01*
X174268857Y-93464095D01*
D11*
%TO.C,J9*%
X155896000Y-113095000D02*
X158556000Y-113095000D01*
X155896000Y-100275000D02*
X157226000Y-100275000D01*
X155896000Y-102875000D02*
X155896000Y-113095000D01*
X155896000Y-102875000D02*
X158556000Y-102875000D01*
X158556000Y-102875000D02*
X158556000Y-113095000D01*
X155896000Y-101605000D02*
X155896000Y-100275000D01*
D12*
%TO.C,J2*%
X176476000Y-67562000D02*
X179226000Y-67562000D01*
X176476000Y-76362000D02*
X176476000Y-67562000D01*
X201476000Y-67562000D02*
X199426000Y-67562000D01*
X201476000Y-76362000D02*
X176476000Y-76362000D01*
X201476000Y-67562000D02*
X201476000Y-76362000D01*
D11*
%TO.C,SW1*%
X99089000Y-55134000D02*
X99089000Y-57134000D01*
X99089000Y-57134000D02*
X96289000Y-57134000D01*
X96289000Y-57134000D02*
X96289000Y-55134000D01*
X96289000Y-55134000D02*
X99089000Y-55134000D01*
D12*
%TO.C,J1*%
X175746000Y-50566000D02*
X175746000Y-41766000D01*
X200746000Y-50566000D02*
X175746000Y-50566000D01*
X175746000Y-41766000D02*
X178496000Y-41766000D01*
X200746000Y-41766000D02*
X200746000Y-50566000D01*
X200746000Y-41766000D02*
X198696000Y-41766000D01*
D11*
%TO.C,R1*%
X97461936Y-52605000D02*
X97916064Y-52605000D01*
X97461936Y-54075000D02*
X97916064Y-54075000D01*
D12*
%TO.C,U1*%
X129419000Y-100656000D02*
X101519000Y-100656000D01*
X101519000Y-100656000D02*
X101519000Y-46256000D01*
X101519000Y-46256000D02*
X129419000Y-46256000D01*
X129419000Y-46256000D02*
X129419000Y-100656000D01*
%TO.C,J4*%
X202016000Y-117458000D02*
X199966000Y-117458000D01*
X202016000Y-117458000D02*
X202016000Y-126258000D01*
X177016000Y-117458000D02*
X179766000Y-117458000D01*
X202016000Y-126258000D02*
X177016000Y-126258000D01*
X177016000Y-126258000D02*
X177016000Y-117458000D01*
D11*
%TO.C,J5*%
X89348000Y-44963000D02*
X89348000Y-42363000D01*
X92008000Y-47563000D02*
X90678000Y-47563000D01*
X92008000Y-44963000D02*
X89348000Y-44963000D01*
X92008000Y-42363000D02*
X89348000Y-42363000D01*
X92008000Y-46233000D02*
X92008000Y-47563000D01*
X92008000Y-44963000D02*
X92008000Y-42363000D01*
%TO.C,G\u002A\u002A\u002A*%
G36*
X158502741Y-56471375D02*
G01*
X158521987Y-56354578D01*
X158536526Y-56238272D01*
X158546628Y-56120136D01*
X158552560Y-55997851D01*
X158554002Y-55937150D01*
X158553631Y-55792030D01*
X158547556Y-55651620D01*
X158535583Y-55514204D01*
X158517520Y-55378065D01*
X158493172Y-55241486D01*
X158462347Y-55102750D01*
X158458240Y-55086020D01*
X158414260Y-54926107D01*
X158362363Y-54769162D01*
X158302591Y-54615262D01*
X158234984Y-54464486D01*
X158159584Y-54316911D01*
X158076432Y-54172614D01*
X157985570Y-54031674D01*
X157887038Y-53894167D01*
X157780879Y-53760173D01*
X157711070Y-53678694D01*
X157685857Y-53650870D01*
X157655682Y-53618802D01*
X157621918Y-53583861D01*
X157585941Y-53547416D01*
X157549126Y-53510838D01*
X157512846Y-53475496D01*
X157478478Y-53442762D01*
X157447395Y-53414006D01*
X157429200Y-53397741D01*
X157296333Y-53286629D01*
X157159258Y-53182805D01*
X157018108Y-53086338D01*
X156873019Y-52997301D01*
X156724125Y-52915763D01*
X156571562Y-52841796D01*
X156415464Y-52775471D01*
X156255967Y-52716858D01*
X156093206Y-52666029D01*
X155979283Y-52635586D01*
X155812783Y-52598381D01*
X155645353Y-52569441D01*
X155477305Y-52548719D01*
X155308949Y-52536170D01*
X155140597Y-52531747D01*
X154972558Y-52535404D01*
X154805145Y-52547095D01*
X154638669Y-52566773D01*
X154473439Y-52594393D01*
X154309768Y-52629907D01*
X154147966Y-52673271D01*
X153988344Y-52724437D01*
X153831213Y-52783359D01*
X153676884Y-52849992D01*
X153525668Y-52924289D01*
X153377876Y-53006203D01*
X153341916Y-53027615D01*
X153205778Y-53114149D01*
X153074417Y-53206379D01*
X152948691Y-53303661D01*
X152829452Y-53405352D01*
X152779740Y-53450881D01*
X152762795Y-53466440D01*
X152747975Y-53479469D01*
X152736366Y-53489062D01*
X152729051Y-53494308D01*
X152727094Y-53494939D01*
X152729112Y-53491218D01*
X152736626Y-53482482D01*
X152748904Y-53469454D01*
X152765213Y-53452855D01*
X152784821Y-53433406D01*
X152806997Y-53411828D01*
X152831007Y-53388844D01*
X152856120Y-53365175D01*
X152881604Y-53341542D01*
X152897791Y-53326750D01*
X153027584Y-53214577D01*
X153162469Y-53109071D01*
X153302158Y-53010364D01*
X153446363Y-52918586D01*
X153594794Y-52833868D01*
X153747165Y-52756341D01*
X153903186Y-52686135D01*
X154062568Y-52623380D01*
X154225025Y-52568208D01*
X154390267Y-52520749D01*
X154558006Y-52481133D01*
X154727954Y-52449492D01*
X154881025Y-52428122D01*
X154921969Y-52423376D01*
X154958435Y-52419375D01*
X154991673Y-52416056D01*
X155022929Y-52413355D01*
X155053451Y-52411212D01*
X155084487Y-52409564D01*
X155117285Y-52408348D01*
X155153093Y-52407501D01*
X155193158Y-52406962D01*
X155238729Y-52406669D01*
X155291053Y-52406557D01*
X155312533Y-52406550D01*
X155365945Y-52406599D01*
X155412144Y-52406783D01*
X155452384Y-52407162D01*
X155487918Y-52407795D01*
X155520000Y-52408740D01*
X155549882Y-52410057D01*
X155578820Y-52411805D01*
X155608065Y-52414041D01*
X155638872Y-52416826D01*
X155672494Y-52420219D01*
X155710185Y-52424277D01*
X155725283Y-52425945D01*
X155896470Y-52449162D01*
X156065771Y-52480540D01*
X156232907Y-52519943D01*
X156397596Y-52567236D01*
X156559559Y-52622282D01*
X156718517Y-52684946D01*
X156874189Y-52755092D01*
X157026295Y-52832584D01*
X157174556Y-52917286D01*
X157318692Y-53009063D01*
X157458423Y-53107778D01*
X157593468Y-53213296D01*
X157723548Y-53325480D01*
X157848383Y-53444195D01*
X157871619Y-53467614D01*
X157985388Y-53588377D01*
X158091350Y-53711379D01*
X158190028Y-53837354D01*
X158281948Y-53967037D01*
X158367633Y-54101164D01*
X158447608Y-54240469D01*
X158513016Y-54366583D01*
X158582375Y-54515728D01*
X158644550Y-54667958D01*
X158699269Y-54822469D01*
X158746259Y-54978454D01*
X158785249Y-55135108D01*
X158805501Y-55233347D01*
X158819741Y-55308478D01*
X158847312Y-55317468D01*
X158879563Y-55328706D01*
X158916776Y-55342861D01*
X158956427Y-55358896D01*
X158995992Y-55375774D01*
X159032946Y-55392458D01*
X159052683Y-55401878D01*
X159113087Y-55432993D01*
X159166574Y-55464005D01*
X159214621Y-55495923D01*
X159258704Y-55529753D01*
X159300301Y-55566504D01*
X159315795Y-55581477D01*
X159355983Y-55624304D01*
X159388862Y-55666459D01*
X159415318Y-55709397D01*
X159436239Y-55754569D01*
X159452510Y-55803430D01*
X159453570Y-55807291D01*
X159458581Y-55832742D01*
X159461831Y-55863912D01*
X159463295Y-55898235D01*
X159462949Y-55933142D01*
X159460770Y-55966067D01*
X159456731Y-55994442D01*
X159455399Y-56000650D01*
X159436206Y-56065747D01*
X159409011Y-56130968D01*
X159373769Y-56196363D01*
X159330436Y-56261982D01*
X159278966Y-56327877D01*
X159219314Y-56394099D01*
X159151435Y-56460697D01*
X159075283Y-56527724D01*
X158990815Y-56595229D01*
X158897984Y-56663263D01*
X158817165Y-56718439D01*
X158752781Y-56761109D01*
X158730500Y-56838079D01*
X158680626Y-56995347D01*
X158622648Y-57150821D01*
X158556840Y-57303939D01*
X158483475Y-57454139D01*
X158402826Y-57600858D01*
X158315165Y-57743535D01*
X158229300Y-57869710D01*
X158125862Y-58007353D01*
X158016022Y-58139541D01*
X157900011Y-58266077D01*
X157778062Y-58386764D01*
X157650409Y-58501405D01*
X157517283Y-58609804D01*
X157378918Y-58711763D01*
X157235545Y-58807085D01*
X157087399Y-58895574D01*
X156934711Y-58977033D01*
X156900033Y-58994236D01*
X156744024Y-59065895D01*
X156584496Y-59129986D01*
X156421902Y-59186406D01*
X156256693Y-59235050D01*
X156089321Y-59275818D01*
X155920240Y-59308605D01*
X155749900Y-59333309D01*
X155578755Y-59349827D01*
X155407257Y-59358056D01*
X155297716Y-59358926D01*
X155267941Y-59358652D01*
X155239290Y-59358309D01*
X155213435Y-59357925D01*
X155192047Y-59357524D01*
X155176795Y-59357133D01*
X155172833Y-59356988D01*
X154993939Y-59345280D01*
X154817985Y-59325635D01*
X154644933Y-59298042D01*
X154474747Y-59262492D01*
X154307391Y-59218974D01*
X154142829Y-59167477D01*
X153981025Y-59107991D01*
X153821941Y-59040505D01*
X153665541Y-58965010D01*
X153513691Y-58882585D01*
X153368769Y-58794849D01*
X153228778Y-58700616D01*
X153093298Y-58599569D01*
X152961913Y-58491390D01*
X152834203Y-58375762D01*
X152792616Y-58335742D01*
X152770743Y-58314138D01*
X152753223Y-58296357D01*
X152740257Y-58282680D01*
X152732050Y-58273388D01*
X152728803Y-58268759D01*
X152730721Y-58269074D01*
X152738006Y-58274614D01*
X152750860Y-58285657D01*
X152766558Y-58299800D01*
X152874754Y-58395653D01*
X152981788Y-58484156D01*
X153088801Y-58566110D01*
X153196934Y-58642312D01*
X153307327Y-58713561D01*
X153421122Y-58780655D01*
X153539458Y-58844394D01*
X153557817Y-58853789D01*
X153701797Y-58923061D01*
X153846936Y-58984978D01*
X153993872Y-59039718D01*
X154143244Y-59087461D01*
X154295689Y-59128385D01*
X154451846Y-59162670D01*
X154612353Y-59190494D01*
X154777849Y-59212036D01*
X154868033Y-59220987D01*
X154893299Y-59222717D01*
X154925792Y-59224128D01*
X154964277Y-59225226D01*
X155007519Y-59226015D01*
X155054286Y-59226501D01*
X155103341Y-59226688D01*
X155153452Y-59226581D01*
X155203384Y-59226185D01*
X155251903Y-59225505D01*
X155297775Y-59224546D01*
X155339765Y-59223312D01*
X155376640Y-59221809D01*
X155407164Y-59220041D01*
X155422600Y-59218792D01*
X155590657Y-59199633D01*
X155753490Y-59174191D01*
X155911743Y-59142287D01*
X156066059Y-59103740D01*
X156217083Y-59058370D01*
X156365460Y-59005996D01*
X156511833Y-58946440D01*
X156656847Y-58879520D01*
X156684133Y-58866041D01*
X156834929Y-58786091D01*
X156981035Y-58699165D01*
X157122249Y-58605432D01*
X157258371Y-58505058D01*
X157389201Y-58398211D01*
X157514538Y-58285058D01*
X157634181Y-58165766D01*
X157747930Y-58040503D01*
X157855584Y-57909436D01*
X157898906Y-57852734D01*
X157994006Y-57718861D01*
X158081868Y-57581232D01*
X158162735Y-57439405D01*
X158236844Y-57292938D01*
X158304437Y-57141387D01*
X158356564Y-57009270D01*
X158368766Y-56976490D01*
X158313159Y-57004355D01*
X158204869Y-57056932D01*
X158088994Y-57109993D01*
X157966372Y-57163196D01*
X157837844Y-57216205D01*
X157704251Y-57268678D01*
X157566432Y-57320276D01*
X157425228Y-57370661D01*
X157302200Y-57412605D01*
X157201861Y-57445661D01*
X157105569Y-57476473D01*
X157011618Y-57505536D01*
X156918300Y-57533347D01*
X156823908Y-57560403D01*
X156726735Y-57587199D01*
X156625073Y-57614232D01*
X156517216Y-57641999D01*
X156487283Y-57649568D01*
X156288317Y-57699699D01*
X156285320Y-57720125D01*
X156283922Y-57731253D01*
X156281981Y-57748890D01*
X156279698Y-57771109D01*
X156277272Y-57795985D01*
X156275690Y-57812920D01*
X156261657Y-57934624D01*
X156242309Y-58052666D01*
X156241280Y-58058050D01*
X156237165Y-58078501D01*
X156231971Y-58102863D01*
X156226011Y-58129809D01*
X156219601Y-58158008D01*
X156213052Y-58186132D01*
X156206680Y-58212853D01*
X156200798Y-58236840D01*
X156195720Y-58256765D01*
X156191758Y-58271299D01*
X156189228Y-58279112D01*
X156188964Y-58279674D01*
X156187865Y-58277496D01*
X156186621Y-58268038D01*
X156185330Y-58252482D01*
X156184089Y-58232010D01*
X156182993Y-58207805D01*
X156182909Y-58205591D01*
X156175512Y-58082815D01*
X156162716Y-57963510D01*
X156144692Y-57849176D01*
X156139803Y-57823631D01*
X156134051Y-57794769D01*
X156129556Y-57773201D01*
X156125948Y-57757911D01*
X156122854Y-57747884D01*
X156119903Y-57742105D01*
X156116724Y-57739559D01*
X156112946Y-57739230D01*
X156109168Y-57739897D01*
X156078842Y-57746284D01*
X156044197Y-57753509D01*
X156006517Y-57761311D01*
X155967086Y-57769428D01*
X155927187Y-57777598D01*
X155888106Y-57785561D01*
X155851125Y-57793053D01*
X155817528Y-57799814D01*
X155788599Y-57805581D01*
X155765623Y-57810093D01*
X155752134Y-57812672D01*
X155690086Y-57824258D01*
X155653165Y-57900937D01*
X155641943Y-57923897D01*
X155631945Y-57943695D01*
X155623734Y-57959268D01*
X155617875Y-57969554D01*
X155614931Y-57973490D01*
X155614725Y-57973384D01*
X155615294Y-57968069D01*
X155617838Y-57956063D01*
X155622010Y-57938815D01*
X155627464Y-57917776D01*
X155631890Y-57901457D01*
X155638048Y-57878914D01*
X155643242Y-57859442D01*
X155647120Y-57844405D01*
X155649327Y-57835168D01*
X155649680Y-57832870D01*
X155645433Y-57833265D01*
X155634286Y-57834939D01*
X155617674Y-57837661D01*
X155597028Y-57841197D01*
X155583317Y-57843611D01*
X155517850Y-57855247D01*
X155505042Y-57916432D01*
X155492235Y-57977617D01*
X155414026Y-58140196D01*
X155397507Y-58174321D01*
X155382117Y-58205707D01*
X155368233Y-58233612D01*
X155356235Y-58257292D01*
X155346501Y-58276005D01*
X155339411Y-58289009D01*
X155335342Y-58295561D01*
X155334506Y-58296071D01*
X155334564Y-58290375D01*
X155335331Y-58277287D01*
X155336726Y-58257846D01*
X155338670Y-58233090D01*
X155341081Y-58204056D01*
X155343878Y-58171784D01*
X155345980Y-58148309D01*
X155351052Y-58092009D01*
X155355341Y-58043646D01*
X155358882Y-58002726D01*
X155361713Y-57968760D01*
X155363870Y-57941256D01*
X155365390Y-57919722D01*
X155366311Y-57903668D01*
X155366670Y-57892603D01*
X155366502Y-57886034D01*
X155365882Y-57883505D01*
X155361169Y-57883418D01*
X155349262Y-57884514D01*
X155331326Y-57886647D01*
X155308529Y-57889672D01*
X155282038Y-57893442D01*
X155260685Y-57896635D01*
X155229539Y-57901342D01*
X155198766Y-57905915D01*
X155170137Y-57910096D01*
X155145426Y-57913628D01*
X155126404Y-57916253D01*
X155119458Y-57917160D01*
X155100870Y-57919769D01*
X155089379Y-57922176D01*
X155083635Y-57924798D01*
X155082292Y-57928053D01*
X155082394Y-57928655D01*
X155083798Y-57934531D01*
X155086916Y-57947375D01*
X155091443Y-57965932D01*
X155097072Y-57988949D01*
X155103497Y-58015171D01*
X155107193Y-58030239D01*
X155113843Y-58057534D01*
X155119754Y-58082183D01*
X155124640Y-58102962D01*
X155128215Y-58118648D01*
X155130195Y-58128017D01*
X155130500Y-58130041D01*
X155128038Y-58135521D01*
X155121537Y-58145531D01*
X155112324Y-58158053D01*
X155110833Y-58159969D01*
X155082629Y-58198321D01*
X155053321Y-58242466D01*
X155024270Y-58290095D01*
X154996836Y-58338900D01*
X154972379Y-58386573D01*
X154955055Y-58424234D01*
X154943195Y-58451750D01*
X154920264Y-58384017D01*
X154901530Y-58327814D01*
X154881840Y-58267190D01*
X154862030Y-58204789D01*
X154842934Y-58143258D01*
X154825384Y-58085244D01*
X154814884Y-58049584D01*
X154807410Y-58024104D01*
X154800617Y-58001420D01*
X154794892Y-57982779D01*
X154790620Y-57969431D01*
X154788185Y-57962623D01*
X154787885Y-57962060D01*
X154783291Y-57961695D01*
X154772213Y-57962167D01*
X154756570Y-57963292D01*
X154738283Y-57964882D01*
X154719272Y-57966753D01*
X154701457Y-57968718D01*
X154686758Y-57970591D01*
X154677096Y-57972187D01*
X154674337Y-57973057D01*
X154672838Y-57977683D01*
X154669917Y-57989330D01*
X154665851Y-58006721D01*
X154660917Y-58028583D01*
X154655392Y-58053640D01*
X154649553Y-58080618D01*
X154643679Y-58108243D01*
X154638046Y-58135239D01*
X154632931Y-58160332D01*
X154628611Y-58182248D01*
X154627063Y-58190403D01*
X154621865Y-58219197D01*
X154616090Y-58252822D01*
X154610331Y-58287725D01*
X154605184Y-58320351D01*
X154603583Y-58330931D01*
X154592561Y-58404846D01*
X154568372Y-58425744D01*
X154547697Y-58444473D01*
X154523318Y-58467943D01*
X154496907Y-58494422D01*
X154470135Y-58522178D01*
X154444673Y-58549476D01*
X154422194Y-58574585D01*
X154404483Y-58595628D01*
X154390687Y-58613527D01*
X154374251Y-58635946D01*
X154356332Y-58661196D01*
X154338085Y-58687594D01*
X154320665Y-58713451D01*
X154305229Y-58737082D01*
X154292931Y-58756800D01*
X154286876Y-58767250D01*
X154281590Y-58775663D01*
X154277961Y-58779269D01*
X154277519Y-58779164D01*
X154276227Y-58773932D01*
X154274687Y-58761137D01*
X154272950Y-58741674D01*
X154271069Y-58716443D01*
X154269096Y-58686340D01*
X154267082Y-58652263D01*
X154265080Y-58615109D01*
X154263142Y-58575775D01*
X154261319Y-58535160D01*
X154259664Y-58494160D01*
X154258228Y-58453672D01*
X154257699Y-58436934D01*
X154255752Y-58358011D01*
X154254920Y-58285180D01*
X154255196Y-58216136D01*
X154256572Y-58148580D01*
X154256807Y-58140600D01*
X154257792Y-58107961D01*
X154258681Y-58078197D01*
X154259444Y-58052322D01*
X154260053Y-58031347D01*
X154260477Y-58016284D01*
X154260686Y-58008144D01*
X154260701Y-58006983D01*
X154256639Y-58007145D01*
X154245392Y-58007753D01*
X154228229Y-58008733D01*
X154206415Y-58010014D01*
X154181217Y-58011522D01*
X154175883Y-58011844D01*
X154032414Y-58019309D01*
X153886313Y-58024545D01*
X153739175Y-58027555D01*
X153592597Y-58028339D01*
X153448177Y-58026897D01*
X153307510Y-58023231D01*
X153172192Y-58017340D01*
X153073100Y-58011321D01*
X152928572Y-57999654D01*
X152788997Y-57984948D01*
X152654691Y-57967274D01*
X152525972Y-57946704D01*
X152403157Y-57923310D01*
X152286561Y-57897162D01*
X152176504Y-57868332D01*
X152073301Y-57836892D01*
X151977269Y-57802914D01*
X151888726Y-57766467D01*
X151807988Y-57727625D01*
X151803100Y-57725062D01*
X151730235Y-57683459D01*
X151665053Y-57639537D01*
X151607638Y-57593393D01*
X151558075Y-57545123D01*
X151516448Y-57494822D01*
X151482842Y-57442587D01*
X151457341Y-57388515D01*
X151440029Y-57332701D01*
X151434710Y-57305671D01*
X151431476Y-57273345D01*
X151430970Y-57236120D01*
X151433026Y-57197056D01*
X151437478Y-57159212D01*
X151444160Y-57125646D01*
X151444555Y-57124115D01*
X151465047Y-57061318D01*
X151493837Y-56997786D01*
X151530795Y-56933617D01*
X151575794Y-56868911D01*
X151628704Y-56803765D01*
X151689398Y-56738280D01*
X151757746Y-56672552D01*
X151833621Y-56606680D01*
X151916894Y-56540764D01*
X152007436Y-56474902D01*
X152105119Y-56409192D01*
X152209815Y-56343733D01*
X152321395Y-56278624D01*
X152439730Y-56213962D01*
X152564693Y-56149848D01*
X152696155Y-56086378D01*
X152833986Y-56023653D01*
X152936276Y-55979355D01*
X152961321Y-55968591D01*
X152979424Y-55960422D01*
X152991517Y-55954330D01*
X152998533Y-55949801D01*
X153001403Y-55946320D01*
X153001135Y-55943504D01*
X152998899Y-55941757D01*
X152993603Y-55939861D01*
X152984631Y-55937719D01*
X152971367Y-55935237D01*
X152953195Y-55932320D01*
X152929498Y-55928873D01*
X152899661Y-55924800D01*
X152863068Y-55920007D01*
X152819101Y-55914397D01*
X152784476Y-55910043D01*
X152742995Y-55904824D01*
X152704121Y-55899886D01*
X152668650Y-55895333D01*
X152637381Y-55891270D01*
X152611111Y-55887801D01*
X152590638Y-55885031D01*
X152576759Y-55883064D01*
X152570272Y-55882006D01*
X152569892Y-55881891D01*
X152569791Y-55881144D01*
X152571442Y-55880295D01*
X152575482Y-55879256D01*
X152582547Y-55877935D01*
X152593273Y-55876244D01*
X152608296Y-55874092D01*
X152628254Y-55871391D01*
X152653783Y-55868049D01*
X152685518Y-55863978D01*
X152724096Y-55859087D01*
X152770153Y-55853287D01*
X152793528Y-55850352D01*
X152834177Y-55845234D01*
X152872178Y-55840420D01*
X152906722Y-55836014D01*
X152937000Y-55832119D01*
X152962205Y-55828842D01*
X152981527Y-55826285D01*
X152994159Y-55824555D01*
X152999291Y-55823755D01*
X152999365Y-55823728D01*
X153001542Y-55819766D01*
X153005958Y-55811231D01*
X153006637Y-55809898D01*
X153016525Y-55795276D01*
X153031076Y-55779347D01*
X153047520Y-55764850D01*
X153062139Y-55755024D01*
X153074035Y-55746129D01*
X153079329Y-55734980D01*
X153079501Y-55734053D01*
X153080490Y-55727314D01*
X153082454Y-55713080D01*
X153085273Y-55692250D01*
X153088826Y-55665722D01*
X153092995Y-55634397D01*
X153097658Y-55599174D01*
X153102696Y-55560953D01*
X153107192Y-55526708D01*
X153112413Y-55487119D01*
X153117348Y-55450159D01*
X153121882Y-55416665D01*
X153125898Y-55387472D01*
X153129281Y-55363415D01*
X153131914Y-55345331D01*
X153133683Y-55334055D01*
X153134439Y-55330417D01*
X153135236Y-55330186D01*
X153136106Y-55331512D01*
X153137142Y-55335045D01*
X153138442Y-55341435D01*
X153140101Y-55351331D01*
X153142214Y-55365382D01*
X153144878Y-55384237D01*
X153148187Y-55408547D01*
X153152238Y-55438960D01*
X153157127Y-55476126D01*
X153162949Y-55520693D01*
X153166465Y-55547684D01*
X153171755Y-55587727D01*
X153176846Y-55625138D01*
X153181616Y-55659089D01*
X153185942Y-55688757D01*
X153189700Y-55713317D01*
X153192768Y-55731944D01*
X153195022Y-55743812D01*
X153196332Y-55748094D01*
X153212670Y-55756932D01*
X153230824Y-55771423D01*
X153248793Y-55789666D01*
X153264575Y-55809757D01*
X153269950Y-55818090D01*
X153272222Y-55819910D01*
X153277302Y-55821830D01*
X153285840Y-55823953D01*
X153298485Y-55826378D01*
X153315884Y-55829209D01*
X153338686Y-55832546D01*
X153367541Y-55836491D01*
X153403096Y-55841146D01*
X153446001Y-55846612D01*
X153477383Y-55850553D01*
X153526860Y-55856752D01*
X153568568Y-55862008D01*
X153603145Y-55866410D01*
X153631224Y-55870048D01*
X153653442Y-55873012D01*
X153670435Y-55875392D01*
X153682837Y-55877278D01*
X153691284Y-55878760D01*
X153696412Y-55879926D01*
X153698855Y-55880869D01*
X153699251Y-55881676D01*
X153699074Y-55881897D01*
X153694696Y-55882699D01*
X153682712Y-55884442D01*
X153663922Y-55887022D01*
X153639121Y-55890334D01*
X153609108Y-55894271D01*
X153574680Y-55898729D01*
X153536633Y-55903602D01*
X153495765Y-55908786D01*
X153484359Y-55910225D01*
X153271201Y-55937068D01*
X153263524Y-55952116D01*
X153254006Y-55966066D01*
X153239765Y-55981617D01*
X153223448Y-55996208D01*
X153207707Y-56007278D01*
X153204817Y-56008866D01*
X153196030Y-56014203D01*
X153191722Y-56018373D01*
X153191633Y-56018777D01*
X153191094Y-56023742D01*
X153189567Y-56036091D01*
X153187183Y-56054815D01*
X153184077Y-56078905D01*
X153180381Y-56107352D01*
X153176229Y-56139148D01*
X153171752Y-56173284D01*
X153167085Y-56208752D01*
X153162361Y-56244542D01*
X153157711Y-56279646D01*
X153153270Y-56313056D01*
X153149171Y-56343763D01*
X153145546Y-56370758D01*
X153142529Y-56393032D01*
X153140252Y-56409578D01*
X153138848Y-56419386D01*
X153138553Y-56421241D01*
X153136506Y-56430273D01*
X153134733Y-56433983D01*
X153134525Y-56433903D01*
X153133681Y-56429526D01*
X153131862Y-56417582D01*
X153129181Y-56398900D01*
X153125753Y-56374311D01*
X153121693Y-56344643D01*
X153117115Y-56310726D01*
X153112134Y-56273389D01*
X153107140Y-56235562D01*
X153101833Y-56195269D01*
X153096795Y-56157212D01*
X153092146Y-56122284D01*
X153088005Y-56091377D01*
X153084494Y-56065385D01*
X153081732Y-56045201D01*
X153079838Y-56031716D01*
X153078977Y-56026050D01*
X153073163Y-56013801D01*
X153063243Y-56006576D01*
X153057302Y-56003858D01*
X153051752Y-56002700D01*
X153044927Y-56003470D01*
X153035160Y-56006538D01*
X153020787Y-56012272D01*
X153002570Y-56020002D01*
X152881056Y-56073549D01*
X152762010Y-56129164D01*
X152646245Y-56186406D01*
X152534575Y-56244833D01*
X152427815Y-56304003D01*
X152326779Y-56363474D01*
X152232281Y-56422804D01*
X152145135Y-56481552D01*
X152122717Y-56497439D01*
X152070171Y-56536476D01*
X152017662Y-56578095D01*
X151966226Y-56621346D01*
X151916897Y-56665274D01*
X151870714Y-56708928D01*
X151828711Y-56751355D01*
X151791926Y-56791602D01*
X151761394Y-56828718D01*
X151759229Y-56831555D01*
X151715307Y-56894386D01*
X151679746Y-56955985D01*
X151652538Y-57016300D01*
X151633674Y-57075280D01*
X151623147Y-57132874D01*
X151620948Y-57189032D01*
X151627068Y-57243701D01*
X151641499Y-57296832D01*
X151664233Y-57348373D01*
X151695262Y-57398274D01*
X151734577Y-57446483D01*
X151782170Y-57492949D01*
X151838032Y-57537621D01*
X151879300Y-57566015D01*
X151942143Y-57603409D01*
X152012837Y-57639095D01*
X152090911Y-57672926D01*
X152175896Y-57704755D01*
X152267319Y-57734434D01*
X152364711Y-57761817D01*
X152467601Y-57786755D01*
X152575519Y-57809103D01*
X152687993Y-57828712D01*
X152747988Y-57837758D01*
X152824751Y-57848305D01*
X152898735Y-57857547D01*
X152971289Y-57865588D01*
X153043764Y-57872536D01*
X153117511Y-57878496D01*
X153193880Y-57883575D01*
X153274220Y-57887877D01*
X153359882Y-57891509D01*
X153452216Y-57894577D01*
X153483497Y-57895460D01*
X153553051Y-57896861D01*
X153628301Y-57897497D01*
X153707638Y-57897399D01*
X153789452Y-57896603D01*
X153872133Y-57895141D01*
X153954072Y-57893047D01*
X154033660Y-57890354D01*
X154109286Y-57887096D01*
X154179341Y-57883306D01*
X154229749Y-57879953D01*
X154266682Y-57877252D01*
X154268630Y-57863934D01*
X154269520Y-57856106D01*
X154270987Y-57841166D01*
X154271295Y-57837839D01*
X154711400Y-57837839D01*
X154715064Y-57838951D01*
X154724010Y-57838928D01*
X154735171Y-57838035D01*
X154745478Y-57836537D01*
X154751864Y-57834696D01*
X154752403Y-57834308D01*
X154752032Y-57829857D01*
X154749819Y-57819154D01*
X154746180Y-57804105D01*
X154744010Y-57795752D01*
X154734161Y-57758651D01*
X154722780Y-57796572D01*
X154717814Y-57813457D01*
X154713946Y-57827251D01*
X154711724Y-57835969D01*
X154711400Y-57837839D01*
X154271295Y-57837839D01*
X154272912Y-57820436D01*
X154275172Y-57795244D01*
X154277646Y-57766913D01*
X154279537Y-57744784D01*
X154300129Y-57547752D01*
X154328672Y-57348764D01*
X154365049Y-57148427D01*
X154409140Y-56947349D01*
X154460829Y-56746137D01*
X154498771Y-56614484D01*
X154515318Y-56559450D01*
X154509766Y-56508650D01*
X154499969Y-56412741D01*
X154491758Y-56318270D01*
X154485045Y-56223597D01*
X154479737Y-56127082D01*
X154475746Y-56027085D01*
X154473102Y-55926567D01*
X154817301Y-55926567D01*
X154817730Y-56009448D01*
X154819092Y-56088735D01*
X154821478Y-56165746D01*
X154824978Y-56241801D01*
X154829686Y-56318220D01*
X154835692Y-56396322D01*
X154843088Y-56477428D01*
X154851965Y-56562855D01*
X154862416Y-56653925D01*
X154874530Y-56751956D01*
X154874544Y-56752067D01*
X154892905Y-56891686D01*
X154911611Y-57024459D01*
X154930929Y-57152005D01*
X154951129Y-57275943D01*
X154972476Y-57397893D01*
X154995240Y-57519475D01*
X155019687Y-57642309D01*
X155029716Y-57690809D01*
X155052043Y-57797700D01*
X155063521Y-57797700D01*
X155070618Y-57797107D01*
X155084890Y-57795433D01*
X155105140Y-57792837D01*
X155130166Y-57789476D01*
X155158770Y-57785508D01*
X155189753Y-57781093D01*
X155192708Y-57780666D01*
X155237255Y-57774191D01*
X155274146Y-57768765D01*
X155304113Y-57764274D01*
X155327887Y-57760604D01*
X155346199Y-57757644D01*
X155359779Y-57755280D01*
X155369360Y-57753398D01*
X155369979Y-57753264D01*
X155371903Y-57752862D01*
X155373566Y-57752139D01*
X155375029Y-57750469D01*
X155376353Y-57747223D01*
X155377596Y-57741774D01*
X155378821Y-57733493D01*
X155380086Y-57721753D01*
X155381453Y-57705925D01*
X155382981Y-57685382D01*
X155384731Y-57659496D01*
X155386763Y-57627638D01*
X155389138Y-57589182D01*
X155391915Y-57543499D01*
X155394978Y-57492900D01*
X155402254Y-57364184D01*
X155408665Y-57233142D01*
X155414205Y-57100537D01*
X155418868Y-56967128D01*
X155422648Y-56833675D01*
X155425539Y-56700940D01*
X155427534Y-56569682D01*
X155428627Y-56440662D01*
X155428813Y-56314640D01*
X155428085Y-56192377D01*
X155426436Y-56074634D01*
X155423862Y-55962170D01*
X155420355Y-55855746D01*
X155415910Y-55756123D01*
X155410520Y-55664061D01*
X155409807Y-55653517D01*
X155391531Y-55446148D01*
X155365141Y-55238169D01*
X155330598Y-55029385D01*
X155287867Y-54819602D01*
X155236911Y-54608625D01*
X155194975Y-54458237D01*
X155524188Y-54458237D01*
X155524934Y-54463579D01*
X155525494Y-54466067D01*
X155527337Y-54475537D01*
X155530195Y-54492316D01*
X155533908Y-54515326D01*
X155538315Y-54543492D01*
X155543256Y-54575736D01*
X155548570Y-54610982D01*
X155554097Y-54648154D01*
X155559676Y-54686175D01*
X155565147Y-54723969D01*
X155570349Y-54760459D01*
X155575122Y-54794569D01*
X155579305Y-54825222D01*
X155581361Y-54840717D01*
X155609840Y-55074194D01*
X155633259Y-55301645D01*
X155651625Y-55523827D01*
X155664945Y-55741496D01*
X155673229Y-55955408D01*
X155676483Y-56166320D01*
X155674715Y-56374988D01*
X155667933Y-56582168D01*
X155656146Y-56788616D01*
X155639360Y-56995090D01*
X155617584Y-57202344D01*
X155606698Y-57291817D01*
X155601278Y-57333511D01*
X155595201Y-57378320D01*
X155588649Y-57425033D01*
X155581805Y-57472442D01*
X155574852Y-57519339D01*
X155567973Y-57564515D01*
X155561350Y-57606761D01*
X155555167Y-57644868D01*
X155549606Y-57677628D01*
X155544851Y-57703832D01*
X155542745Y-57714523D01*
X155541687Y-57722897D01*
X155544897Y-57725203D01*
X155552344Y-57724016D01*
X155560866Y-57722344D01*
X155575806Y-57719559D01*
X155595241Y-57716016D01*
X155617250Y-57712066D01*
X155623209Y-57711006D01*
X155644449Y-57707146D01*
X155662516Y-57703688D01*
X155675867Y-57700940D01*
X155682955Y-57699213D01*
X155683670Y-57698908D01*
X155685431Y-57693997D01*
X155687713Y-57685461D01*
X155757033Y-57685461D01*
X155761042Y-57685168D01*
X155772533Y-57683290D01*
X155790702Y-57679986D01*
X155814746Y-57675410D01*
X155843860Y-57669720D01*
X155877240Y-57663071D01*
X155914082Y-57655621D01*
X155953583Y-57647524D01*
X155974399Y-57643216D01*
X156003720Y-57637053D01*
X156030270Y-57631328D01*
X156052932Y-57626295D01*
X156070592Y-57622206D01*
X156082132Y-57619312D01*
X156086412Y-57617899D01*
X156086564Y-57612431D01*
X156083809Y-57600127D01*
X156078510Y-57581963D01*
X156071028Y-57558912D01*
X156061724Y-57531949D01*
X156050960Y-57502051D01*
X156039097Y-57470190D01*
X156026498Y-57437343D01*
X156013522Y-57404484D01*
X156000532Y-57372588D01*
X155987889Y-57342631D01*
X155975955Y-57315585D01*
X155967862Y-57298167D01*
X155942593Y-57245250D01*
X155925505Y-57289700D01*
X155911029Y-57326571D01*
X155893769Y-57369228D01*
X155874519Y-57415783D01*
X155854071Y-57464348D01*
X155833221Y-57513037D01*
X155812759Y-57559960D01*
X155797638Y-57593992D01*
X155786180Y-57619571D01*
X155775975Y-57642429D01*
X155767502Y-57661483D01*
X155761244Y-57675651D01*
X155757679Y-57683851D01*
X155757033Y-57685461D01*
X155687713Y-57685461D01*
X155688688Y-57681817D01*
X155693215Y-57663389D01*
X155698784Y-57639732D01*
X155705165Y-57611866D01*
X155712132Y-57580812D01*
X155719456Y-57547589D01*
X155726910Y-57513219D01*
X155734266Y-57478720D01*
X155741295Y-57445114D01*
X155747771Y-57413420D01*
X155750500Y-57399767D01*
X155775413Y-57270067D01*
X155797329Y-57146976D01*
X155816376Y-57029234D01*
X155832687Y-56915581D01*
X155846392Y-56804758D01*
X155857620Y-56695507D01*
X155866503Y-56586567D01*
X155873171Y-56476679D01*
X155877754Y-56364583D01*
X155880382Y-56249022D01*
X155881187Y-56138233D01*
X155881070Y-56077454D01*
X155880604Y-56023504D01*
X155879723Y-55974754D01*
X155878360Y-55929571D01*
X155876450Y-55886323D01*
X155873927Y-55843381D01*
X155870725Y-55799111D01*
X155866777Y-55751882D01*
X155864591Y-55727600D01*
X155843853Y-55547867D01*
X155814751Y-55369365D01*
X155777313Y-55192204D01*
X155731568Y-55016496D01*
X155677544Y-54842349D01*
X155615269Y-54669874D01*
X155556208Y-54525451D01*
X155544296Y-54498051D01*
X155535360Y-54478060D01*
X155529179Y-54465048D01*
X155525529Y-54458584D01*
X155524188Y-54458237D01*
X155194975Y-54458237D01*
X155177693Y-54396262D01*
X155161230Y-54341747D01*
X155153614Y-54316911D01*
X155114874Y-54396781D01*
X155052196Y-54535175D01*
X154996927Y-54676473D01*
X154949301Y-54819937D01*
X154909553Y-54964828D01*
X154877917Y-55110411D01*
X154865945Y-55178695D01*
X154854084Y-55260679D01*
X154843776Y-55350140D01*
X154835074Y-55446220D01*
X154828037Y-55548061D01*
X154822718Y-55654805D01*
X154819174Y-55765597D01*
X154817461Y-55879577D01*
X154817301Y-55926567D01*
X154473102Y-55926567D01*
X154472980Y-55921965D01*
X154471351Y-55810150D01*
X154470944Y-55688587D01*
X154472164Y-55574418D01*
X154475116Y-55466709D01*
X154479908Y-55364526D01*
X154486644Y-55266934D01*
X154495432Y-55173000D01*
X154506377Y-55081788D01*
X154519585Y-54992364D01*
X154535163Y-54903794D01*
X154553217Y-54815144D01*
X154573852Y-54725479D01*
X154597176Y-54633864D01*
X154610552Y-54584600D01*
X154664676Y-54404579D01*
X154726579Y-54227040D01*
X154796037Y-54052478D01*
X154872824Y-53881384D01*
X154956715Y-53714251D01*
X155047487Y-53551572D01*
X155144913Y-53393841D01*
X155174818Y-53348437D01*
X155195296Y-53318052D01*
X155216206Y-53287495D01*
X155236742Y-53257907D01*
X155256101Y-53230425D01*
X155273476Y-53206189D01*
X155288064Y-53186339D01*
X155299060Y-53172014D01*
X155301882Y-53168550D01*
X155312496Y-53155850D01*
X155322040Y-53168090D01*
X155334746Y-53184952D01*
X155351167Y-53207605D01*
X155370403Y-53234746D01*
X155391557Y-53265066D01*
X155413728Y-53297259D01*
X155436018Y-53330019D01*
X155457527Y-53362039D01*
X155477357Y-53392013D01*
X155494609Y-53418635D01*
X155496664Y-53421857D01*
X155594673Y-53583772D01*
X155685441Y-53749981D01*
X155768855Y-53920213D01*
X155844805Y-54094197D01*
X155913180Y-54271663D01*
X155973868Y-54452340D01*
X156026758Y-54635957D01*
X156071740Y-54822243D01*
X156072077Y-54823784D01*
X156087672Y-54900183D01*
X156101517Y-54978714D01*
X156113753Y-55060482D01*
X156124522Y-55146591D01*
X156133967Y-55238146D01*
X156142231Y-55336253D01*
X156147294Y-55407984D01*
X156148618Y-55433616D01*
X156149759Y-55466628D01*
X156150716Y-55505933D01*
X156151489Y-55550447D01*
X156152078Y-55599082D01*
X156152483Y-55650755D01*
X156152705Y-55704378D01*
X156152743Y-55758868D01*
X156152597Y-55813137D01*
X156152267Y-55866101D01*
X156151752Y-55916674D01*
X156151054Y-55963770D01*
X156150172Y-56006304D01*
X156149106Y-56043190D01*
X156147856Y-56073343D01*
X156147309Y-56083200D01*
X156142578Y-56158411D01*
X156137950Y-56226690D01*
X156133309Y-56289568D01*
X156128536Y-56348578D01*
X156123515Y-56405250D01*
X156118621Y-56456156D01*
X156107827Y-56564528D01*
X156131768Y-56631839D01*
X156177149Y-56771093D01*
X156214751Y-56911987D01*
X156244679Y-57055074D01*
X156267033Y-57200903D01*
X156281916Y-57350028D01*
X156288814Y-57481259D01*
X156289715Y-57508147D01*
X156290609Y-57531940D01*
X156291443Y-57551423D01*
X156292163Y-57565382D01*
X156292716Y-57572603D01*
X156292885Y-57573334D01*
X156298013Y-57572329D01*
X156310318Y-57569485D01*
X156328775Y-57565059D01*
X156352356Y-57559306D01*
X156380037Y-57552484D01*
X156410791Y-57544849D01*
X156443593Y-57536656D01*
X156477415Y-57528163D01*
X156511232Y-57519625D01*
X156544018Y-57511300D01*
X156574748Y-57503443D01*
X156602394Y-57496312D01*
X156625931Y-57490161D01*
X156629100Y-57489324D01*
X156842967Y-57430572D01*
X157051649Y-57368882D01*
X157254675Y-57304418D01*
X157451576Y-57237342D01*
X157641882Y-57167817D01*
X157825124Y-57096007D01*
X158000831Y-57022074D01*
X158092218Y-56981415D01*
X158110396Y-56973038D01*
X158133196Y-56962331D01*
X158159660Y-56949760D01*
X158188832Y-56935792D01*
X158219754Y-56920895D01*
X158251469Y-56905535D01*
X158283018Y-56890179D01*
X158313445Y-56875294D01*
X158341793Y-56861347D01*
X158367102Y-56848806D01*
X158388417Y-56838136D01*
X158404780Y-56829805D01*
X158415233Y-56824280D01*
X158418707Y-56822186D01*
X158420572Y-56817463D01*
X158424118Y-56805736D01*
X158429027Y-56788231D01*
X158434983Y-56766172D01*
X158441668Y-56740785D01*
X158448766Y-56713293D01*
X158455961Y-56684921D01*
X158462934Y-56656894D01*
X158469370Y-56630437D01*
X158474951Y-56606775D01*
X158477231Y-56596690D01*
X158791017Y-56596690D01*
X158804638Y-56588653D01*
X158812361Y-56583571D01*
X158825482Y-56574372D01*
X158842637Y-56562036D01*
X158862462Y-56547541D01*
X158881830Y-56533185D01*
X158965171Y-56468231D01*
X159040435Y-56403771D01*
X159107573Y-56339861D01*
X159166536Y-56276558D01*
X159217276Y-56213917D01*
X159259745Y-56151995D01*
X159293893Y-56090846D01*
X159319673Y-56030528D01*
X159320854Y-56027214D01*
X159337366Y-55969020D01*
X159345629Y-55911596D01*
X159345645Y-55855229D01*
X159337416Y-55800204D01*
X159320942Y-55746807D01*
X159319542Y-55743292D01*
X159305757Y-55712847D01*
X159289449Y-55684339D01*
X159269469Y-55656149D01*
X159244666Y-55626655D01*
X159213891Y-55594238D01*
X159213550Y-55593894D01*
X159173513Y-55556126D01*
X159131808Y-55522154D01*
X159086663Y-55490727D01*
X159036308Y-55460592D01*
X158990679Y-55436370D01*
X158968881Y-55425642D01*
X158945182Y-55414512D01*
X158920840Y-55403514D01*
X158897120Y-55393179D01*
X158875281Y-55384041D01*
X158856585Y-55376632D01*
X158842294Y-55371486D01*
X158833669Y-55369135D01*
X158831771Y-55369251D01*
X158831648Y-55373866D01*
X158832502Y-55385441D01*
X158834195Y-55402541D01*
X158836589Y-55423733D01*
X158838623Y-55440355D01*
X158855707Y-55608029D01*
X158864801Y-55776116D01*
X158865911Y-55943908D01*
X158859044Y-56110699D01*
X158844206Y-56275780D01*
X158830003Y-56383767D01*
X158826578Y-56405885D01*
X158822345Y-56431771D01*
X158817582Y-56459867D01*
X158812566Y-56488617D01*
X158807577Y-56516464D01*
X158802892Y-56541853D01*
X158798788Y-56563225D01*
X158795545Y-56579025D01*
X158793776Y-56586537D01*
X158791017Y-56596690D01*
X158477231Y-56596690D01*
X158478522Y-56590980D01*
X158502741Y-56471375D01*
G37*
D13*
X158502741Y-56471375D02*
X158521987Y-56354578D01*
X158536526Y-56238272D01*
X158546628Y-56120136D01*
X158552560Y-55997851D01*
X158554002Y-55937150D01*
X158553631Y-55792030D01*
X158547556Y-55651620D01*
X158535583Y-55514204D01*
X158517520Y-55378065D01*
X158493172Y-55241486D01*
X158462347Y-55102750D01*
X158458240Y-55086020D01*
X158414260Y-54926107D01*
X158362363Y-54769162D01*
X158302591Y-54615262D01*
X158234984Y-54464486D01*
X158159584Y-54316911D01*
X158076432Y-54172614D01*
X157985570Y-54031674D01*
X157887038Y-53894167D01*
X157780879Y-53760173D01*
X157711070Y-53678694D01*
X157685857Y-53650870D01*
X157655682Y-53618802D01*
X157621918Y-53583861D01*
X157585941Y-53547416D01*
X157549126Y-53510838D01*
X157512846Y-53475496D01*
X157478478Y-53442762D01*
X157447395Y-53414006D01*
X157429200Y-53397741D01*
X157296333Y-53286629D01*
X157159258Y-53182805D01*
X157018108Y-53086338D01*
X156873019Y-52997301D01*
X156724125Y-52915763D01*
X156571562Y-52841796D01*
X156415464Y-52775471D01*
X156255967Y-52716858D01*
X156093206Y-52666029D01*
X155979283Y-52635586D01*
X155812783Y-52598381D01*
X155645353Y-52569441D01*
X155477305Y-52548719D01*
X155308949Y-52536170D01*
X155140597Y-52531747D01*
X154972558Y-52535404D01*
X154805145Y-52547095D01*
X154638669Y-52566773D01*
X154473439Y-52594393D01*
X154309768Y-52629907D01*
X154147966Y-52673271D01*
X153988344Y-52724437D01*
X153831213Y-52783359D01*
X153676884Y-52849992D01*
X153525668Y-52924289D01*
X153377876Y-53006203D01*
X153341916Y-53027615D01*
X153205778Y-53114149D01*
X153074417Y-53206379D01*
X152948691Y-53303661D01*
X152829452Y-53405352D01*
X152779740Y-53450881D01*
X152762795Y-53466440D01*
X152747975Y-53479469D01*
X152736366Y-53489062D01*
X152729051Y-53494308D01*
X152727094Y-53494939D01*
X152729112Y-53491218D01*
X152736626Y-53482482D01*
X152748904Y-53469454D01*
X152765213Y-53452855D01*
X152784821Y-53433406D01*
X152806997Y-53411828D01*
X152831007Y-53388844D01*
X152856120Y-53365175D01*
X152881604Y-53341542D01*
X152897791Y-53326750D01*
X153027584Y-53214577D01*
X153162469Y-53109071D01*
X153302158Y-53010364D01*
X153446363Y-52918586D01*
X153594794Y-52833868D01*
X153747165Y-52756341D01*
X153903186Y-52686135D01*
X154062568Y-52623380D01*
X154225025Y-52568208D01*
X154390267Y-52520749D01*
X154558006Y-52481133D01*
X154727954Y-52449492D01*
X154881025Y-52428122D01*
X154921969Y-52423376D01*
X154958435Y-52419375D01*
X154991673Y-52416056D01*
X155022929Y-52413355D01*
X155053451Y-52411212D01*
X155084487Y-52409564D01*
X155117285Y-52408348D01*
X155153093Y-52407501D01*
X155193158Y-52406962D01*
X155238729Y-52406669D01*
X155291053Y-52406557D01*
X155312533Y-52406550D01*
X155365945Y-52406599D01*
X155412144Y-52406783D01*
X155452384Y-52407162D01*
X155487918Y-52407795D01*
X155520000Y-52408740D01*
X155549882Y-52410057D01*
X155578820Y-52411805D01*
X155608065Y-52414041D01*
X155638872Y-52416826D01*
X155672494Y-52420219D01*
X155710185Y-52424277D01*
X155725283Y-52425945D01*
X155896470Y-52449162D01*
X156065771Y-52480540D01*
X156232907Y-52519943D01*
X156397596Y-52567236D01*
X156559559Y-52622282D01*
X156718517Y-52684946D01*
X156874189Y-52755092D01*
X157026295Y-52832584D01*
X157174556Y-52917286D01*
X157318692Y-53009063D01*
X157458423Y-53107778D01*
X157593468Y-53213296D01*
X157723548Y-53325480D01*
X157848383Y-53444195D01*
X157871619Y-53467614D01*
X157985388Y-53588377D01*
X158091350Y-53711379D01*
X158190028Y-53837354D01*
X158281948Y-53967037D01*
X158367633Y-54101164D01*
X158447608Y-54240469D01*
X158513016Y-54366583D01*
X158582375Y-54515728D01*
X158644550Y-54667958D01*
X158699269Y-54822469D01*
X158746259Y-54978454D01*
X158785249Y-55135108D01*
X158805501Y-55233347D01*
X158819741Y-55308478D01*
X158847312Y-55317468D01*
X158879563Y-55328706D01*
X158916776Y-55342861D01*
X158956427Y-55358896D01*
X158995992Y-55375774D01*
X159032946Y-55392458D01*
X159052683Y-55401878D01*
X159113087Y-55432993D01*
X159166574Y-55464005D01*
X159214621Y-55495923D01*
X159258704Y-55529753D01*
X159300301Y-55566504D01*
X159315795Y-55581477D01*
X159355983Y-55624304D01*
X159388862Y-55666459D01*
X159415318Y-55709397D01*
X159436239Y-55754569D01*
X159452510Y-55803430D01*
X159453570Y-55807291D01*
X159458581Y-55832742D01*
X159461831Y-55863912D01*
X159463295Y-55898235D01*
X159462949Y-55933142D01*
X159460770Y-55966067D01*
X159456731Y-55994442D01*
X159455399Y-56000650D01*
X159436206Y-56065747D01*
X159409011Y-56130968D01*
X159373769Y-56196363D01*
X159330436Y-56261982D01*
X159278966Y-56327877D01*
X159219314Y-56394099D01*
X159151435Y-56460697D01*
X159075283Y-56527724D01*
X158990815Y-56595229D01*
X158897984Y-56663263D01*
X158817165Y-56718439D01*
X158752781Y-56761109D01*
X158730500Y-56838079D01*
X158680626Y-56995347D01*
X158622648Y-57150821D01*
X158556840Y-57303939D01*
X158483475Y-57454139D01*
X158402826Y-57600858D01*
X158315165Y-57743535D01*
X158229300Y-57869710D01*
X158125862Y-58007353D01*
X158016022Y-58139541D01*
X157900011Y-58266077D01*
X157778062Y-58386764D01*
X157650409Y-58501405D01*
X157517283Y-58609804D01*
X157378918Y-58711763D01*
X157235545Y-58807085D01*
X157087399Y-58895574D01*
X156934711Y-58977033D01*
X156900033Y-58994236D01*
X156744024Y-59065895D01*
X156584496Y-59129986D01*
X156421902Y-59186406D01*
X156256693Y-59235050D01*
X156089321Y-59275818D01*
X155920240Y-59308605D01*
X155749900Y-59333309D01*
X155578755Y-59349827D01*
X155407257Y-59358056D01*
X155297716Y-59358926D01*
X155267941Y-59358652D01*
X155239290Y-59358309D01*
X155213435Y-59357925D01*
X155192047Y-59357524D01*
X155176795Y-59357133D01*
X155172833Y-59356988D01*
X154993939Y-59345280D01*
X154817985Y-59325635D01*
X154644933Y-59298042D01*
X154474747Y-59262492D01*
X154307391Y-59218974D01*
X154142829Y-59167477D01*
X153981025Y-59107991D01*
X153821941Y-59040505D01*
X153665541Y-58965010D01*
X153513691Y-58882585D01*
X153368769Y-58794849D01*
X153228778Y-58700616D01*
X153093298Y-58599569D01*
X152961913Y-58491390D01*
X152834203Y-58375762D01*
X152792616Y-58335742D01*
X152770743Y-58314138D01*
X152753223Y-58296357D01*
X152740257Y-58282680D01*
X152732050Y-58273388D01*
X152728803Y-58268759D01*
X152730721Y-58269074D01*
X152738006Y-58274614D01*
X152750860Y-58285657D01*
X152766558Y-58299800D01*
X152874754Y-58395653D01*
X152981788Y-58484156D01*
X153088801Y-58566110D01*
X153196934Y-58642312D01*
X153307327Y-58713561D01*
X153421122Y-58780655D01*
X153539458Y-58844394D01*
X153557817Y-58853789D01*
X153701797Y-58923061D01*
X153846936Y-58984978D01*
X153993872Y-59039718D01*
X154143244Y-59087461D01*
X154295689Y-59128385D01*
X154451846Y-59162670D01*
X154612353Y-59190494D01*
X154777849Y-59212036D01*
X154868033Y-59220987D01*
X154893299Y-59222717D01*
X154925792Y-59224128D01*
X154964277Y-59225226D01*
X155007519Y-59226015D01*
X155054286Y-59226501D01*
X155103341Y-59226688D01*
X155153452Y-59226581D01*
X155203384Y-59226185D01*
X155251903Y-59225505D01*
X155297775Y-59224546D01*
X155339765Y-59223312D01*
X155376640Y-59221809D01*
X155407164Y-59220041D01*
X155422600Y-59218792D01*
X155590657Y-59199633D01*
X155753490Y-59174191D01*
X155911743Y-59142287D01*
X156066059Y-59103740D01*
X156217083Y-59058370D01*
X156365460Y-59005996D01*
X156511833Y-58946440D01*
X156656847Y-58879520D01*
X156684133Y-58866041D01*
X156834929Y-58786091D01*
X156981035Y-58699165D01*
X157122249Y-58605432D01*
X157258371Y-58505058D01*
X157389201Y-58398211D01*
X157514538Y-58285058D01*
X157634181Y-58165766D01*
X157747930Y-58040503D01*
X157855584Y-57909436D01*
X157898906Y-57852734D01*
X157994006Y-57718861D01*
X158081868Y-57581232D01*
X158162735Y-57439405D01*
X158236844Y-57292938D01*
X158304437Y-57141387D01*
X158356564Y-57009270D01*
X158368766Y-56976490D01*
X158313159Y-57004355D01*
X158204869Y-57056932D01*
X158088994Y-57109993D01*
X157966372Y-57163196D01*
X157837844Y-57216205D01*
X157704251Y-57268678D01*
X157566432Y-57320276D01*
X157425228Y-57370661D01*
X157302200Y-57412605D01*
X157201861Y-57445661D01*
X157105569Y-57476473D01*
X157011618Y-57505536D01*
X156918300Y-57533347D01*
X156823908Y-57560403D01*
X156726735Y-57587199D01*
X156625073Y-57614232D01*
X156517216Y-57641999D01*
X156487283Y-57649568D01*
X156288317Y-57699699D01*
X156285320Y-57720125D01*
X156283922Y-57731253D01*
X156281981Y-57748890D01*
X156279698Y-57771109D01*
X156277272Y-57795985D01*
X156275690Y-57812920D01*
X156261657Y-57934624D01*
X156242309Y-58052666D01*
X156241280Y-58058050D01*
X156237165Y-58078501D01*
X156231971Y-58102863D01*
X156226011Y-58129809D01*
X156219601Y-58158008D01*
X156213052Y-58186132D01*
X156206680Y-58212853D01*
X156200798Y-58236840D01*
X156195720Y-58256765D01*
X156191758Y-58271299D01*
X156189228Y-58279112D01*
X156188964Y-58279674D01*
X156187865Y-58277496D01*
X156186621Y-58268038D01*
X156185330Y-58252482D01*
X156184089Y-58232010D01*
X156182993Y-58207805D01*
X156182909Y-58205591D01*
X156175512Y-58082815D01*
X156162716Y-57963510D01*
X156144692Y-57849176D01*
X156139803Y-57823631D01*
X156134051Y-57794769D01*
X156129556Y-57773201D01*
X156125948Y-57757911D01*
X156122854Y-57747884D01*
X156119903Y-57742105D01*
X156116724Y-57739559D01*
X156112946Y-57739230D01*
X156109168Y-57739897D01*
X156078842Y-57746284D01*
X156044197Y-57753509D01*
X156006517Y-57761311D01*
X155967086Y-57769428D01*
X155927187Y-57777598D01*
X155888106Y-57785561D01*
X155851125Y-57793053D01*
X155817528Y-57799814D01*
X155788599Y-57805581D01*
X155765623Y-57810093D01*
X155752134Y-57812672D01*
X155690086Y-57824258D01*
X155653165Y-57900937D01*
X155641943Y-57923897D01*
X155631945Y-57943695D01*
X155623734Y-57959268D01*
X155617875Y-57969554D01*
X155614931Y-57973490D01*
X155614725Y-57973384D01*
X155615294Y-57968069D01*
X155617838Y-57956063D01*
X155622010Y-57938815D01*
X155627464Y-57917776D01*
X155631890Y-57901457D01*
X155638048Y-57878914D01*
X155643242Y-57859442D01*
X155647120Y-57844405D01*
X155649327Y-57835168D01*
X155649680Y-57832870D01*
X155645433Y-57833265D01*
X155634286Y-57834939D01*
X155617674Y-57837661D01*
X155597028Y-57841197D01*
X155583317Y-57843611D01*
X155517850Y-57855247D01*
X155505042Y-57916432D01*
X155492235Y-57977617D01*
X155414026Y-58140196D01*
X155397507Y-58174321D01*
X155382117Y-58205707D01*
X155368233Y-58233612D01*
X155356235Y-58257292D01*
X155346501Y-58276005D01*
X155339411Y-58289009D01*
X155335342Y-58295561D01*
X155334506Y-58296071D01*
X155334564Y-58290375D01*
X155335331Y-58277287D01*
X155336726Y-58257846D01*
X155338670Y-58233090D01*
X155341081Y-58204056D01*
X155343878Y-58171784D01*
X155345980Y-58148309D01*
X155351052Y-58092009D01*
X155355341Y-58043646D01*
X155358882Y-58002726D01*
X155361713Y-57968760D01*
X155363870Y-57941256D01*
X155365390Y-57919722D01*
X155366311Y-57903668D01*
X155366670Y-57892603D01*
X155366502Y-57886034D01*
X155365882Y-57883505D01*
X155361169Y-57883418D01*
X155349262Y-57884514D01*
X155331326Y-57886647D01*
X155308529Y-57889672D01*
X155282038Y-57893442D01*
X155260685Y-57896635D01*
X155229539Y-57901342D01*
X155198766Y-57905915D01*
X155170137Y-57910096D01*
X155145426Y-57913628D01*
X155126404Y-57916253D01*
X155119458Y-57917160D01*
X155100870Y-57919769D01*
X155089379Y-57922176D01*
X155083635Y-57924798D01*
X155082292Y-57928053D01*
X155082394Y-57928655D01*
X155083798Y-57934531D01*
X155086916Y-57947375D01*
X155091443Y-57965932D01*
X155097072Y-57988949D01*
X155103497Y-58015171D01*
X155107193Y-58030239D01*
X155113843Y-58057534D01*
X155119754Y-58082183D01*
X155124640Y-58102962D01*
X155128215Y-58118648D01*
X155130195Y-58128017D01*
X155130500Y-58130041D01*
X155128038Y-58135521D01*
X155121537Y-58145531D01*
X155112324Y-58158053D01*
X155110833Y-58159969D01*
X155082629Y-58198321D01*
X155053321Y-58242466D01*
X155024270Y-58290095D01*
X154996836Y-58338900D01*
X154972379Y-58386573D01*
X154955055Y-58424234D01*
X154943195Y-58451750D01*
X154920264Y-58384017D01*
X154901530Y-58327814D01*
X154881840Y-58267190D01*
X154862030Y-58204789D01*
X154842934Y-58143258D01*
X154825384Y-58085244D01*
X154814884Y-58049584D01*
X154807410Y-58024104D01*
X154800617Y-58001420D01*
X154794892Y-57982779D01*
X154790620Y-57969431D01*
X154788185Y-57962623D01*
X154787885Y-57962060D01*
X154783291Y-57961695D01*
X154772213Y-57962167D01*
X154756570Y-57963292D01*
X154738283Y-57964882D01*
X154719272Y-57966753D01*
X154701457Y-57968718D01*
X154686758Y-57970591D01*
X154677096Y-57972187D01*
X154674337Y-57973057D01*
X154672838Y-57977683D01*
X154669917Y-57989330D01*
X154665851Y-58006721D01*
X154660917Y-58028583D01*
X154655392Y-58053640D01*
X154649553Y-58080618D01*
X154643679Y-58108243D01*
X154638046Y-58135239D01*
X154632931Y-58160332D01*
X154628611Y-58182248D01*
X154627063Y-58190403D01*
X154621865Y-58219197D01*
X154616090Y-58252822D01*
X154610331Y-58287725D01*
X154605184Y-58320351D01*
X154603583Y-58330931D01*
X154592561Y-58404846D01*
X154568372Y-58425744D01*
X154547697Y-58444473D01*
X154523318Y-58467943D01*
X154496907Y-58494422D01*
X154470135Y-58522178D01*
X154444673Y-58549476D01*
X154422194Y-58574585D01*
X154404483Y-58595628D01*
X154390687Y-58613527D01*
X154374251Y-58635946D01*
X154356332Y-58661196D01*
X154338085Y-58687594D01*
X154320665Y-58713451D01*
X154305229Y-58737082D01*
X154292931Y-58756800D01*
X154286876Y-58767250D01*
X154281590Y-58775663D01*
X154277961Y-58779269D01*
X154277519Y-58779164D01*
X154276227Y-58773932D01*
X154274687Y-58761137D01*
X154272950Y-58741674D01*
X154271069Y-58716443D01*
X154269096Y-58686340D01*
X154267082Y-58652263D01*
X154265080Y-58615109D01*
X154263142Y-58575775D01*
X154261319Y-58535160D01*
X154259664Y-58494160D01*
X154258228Y-58453672D01*
X154257699Y-58436934D01*
X154255752Y-58358011D01*
X154254920Y-58285180D01*
X154255196Y-58216136D01*
X154256572Y-58148580D01*
X154256807Y-58140600D01*
X154257792Y-58107961D01*
X154258681Y-58078197D01*
X154259444Y-58052322D01*
X154260053Y-58031347D01*
X154260477Y-58016284D01*
X154260686Y-58008144D01*
X154260701Y-58006983D01*
X154256639Y-58007145D01*
X154245392Y-58007753D01*
X154228229Y-58008733D01*
X154206415Y-58010014D01*
X154181217Y-58011522D01*
X154175883Y-58011844D01*
X154032414Y-58019309D01*
X153886313Y-58024545D01*
X153739175Y-58027555D01*
X153592597Y-58028339D01*
X153448177Y-58026897D01*
X153307510Y-58023231D01*
X153172192Y-58017340D01*
X153073100Y-58011321D01*
X152928572Y-57999654D01*
X152788997Y-57984948D01*
X152654691Y-57967274D01*
X152525972Y-57946704D01*
X152403157Y-57923310D01*
X152286561Y-57897162D01*
X152176504Y-57868332D01*
X152073301Y-57836892D01*
X151977269Y-57802914D01*
X151888726Y-57766467D01*
X151807988Y-57727625D01*
X151803100Y-57725062D01*
X151730235Y-57683459D01*
X151665053Y-57639537D01*
X151607638Y-57593393D01*
X151558075Y-57545123D01*
X151516448Y-57494822D01*
X151482842Y-57442587D01*
X151457341Y-57388515D01*
X151440029Y-57332701D01*
X151434710Y-57305671D01*
X151431476Y-57273345D01*
X151430970Y-57236120D01*
X151433026Y-57197056D01*
X151437478Y-57159212D01*
X151444160Y-57125646D01*
X151444555Y-57124115D01*
X151465047Y-57061318D01*
X151493837Y-56997786D01*
X151530795Y-56933617D01*
X151575794Y-56868911D01*
X151628704Y-56803765D01*
X151689398Y-56738280D01*
X151757746Y-56672552D01*
X151833621Y-56606680D01*
X151916894Y-56540764D01*
X152007436Y-56474902D01*
X152105119Y-56409192D01*
X152209815Y-56343733D01*
X152321395Y-56278624D01*
X152439730Y-56213962D01*
X152564693Y-56149848D01*
X152696155Y-56086378D01*
X152833986Y-56023653D01*
X152936276Y-55979355D01*
X152961321Y-55968591D01*
X152979424Y-55960422D01*
X152991517Y-55954330D01*
X152998533Y-55949801D01*
X153001403Y-55946320D01*
X153001135Y-55943504D01*
X152998899Y-55941757D01*
X152993603Y-55939861D01*
X152984631Y-55937719D01*
X152971367Y-55935237D01*
X152953195Y-55932320D01*
X152929498Y-55928873D01*
X152899661Y-55924800D01*
X152863068Y-55920007D01*
X152819101Y-55914397D01*
X152784476Y-55910043D01*
X152742995Y-55904824D01*
X152704121Y-55899886D01*
X152668650Y-55895333D01*
X152637381Y-55891270D01*
X152611111Y-55887801D01*
X152590638Y-55885031D01*
X152576759Y-55883064D01*
X152570272Y-55882006D01*
X152569892Y-55881891D01*
X152569791Y-55881144D01*
X152571442Y-55880295D01*
X152575482Y-55879256D01*
X152582547Y-55877935D01*
X152593273Y-55876244D01*
X152608296Y-55874092D01*
X152628254Y-55871391D01*
X152653783Y-55868049D01*
X152685518Y-55863978D01*
X152724096Y-55859087D01*
X152770153Y-55853287D01*
X152793528Y-55850352D01*
X152834177Y-55845234D01*
X152872178Y-55840420D01*
X152906722Y-55836014D01*
X152937000Y-55832119D01*
X152962205Y-55828842D01*
X152981527Y-55826285D01*
X152994159Y-55824555D01*
X152999291Y-55823755D01*
X152999365Y-55823728D01*
X153001542Y-55819766D01*
X153005958Y-55811231D01*
X153006637Y-55809898D01*
X153016525Y-55795276D01*
X153031076Y-55779347D01*
X153047520Y-55764850D01*
X153062139Y-55755024D01*
X153074035Y-55746129D01*
X153079329Y-55734980D01*
X153079501Y-55734053D01*
X153080490Y-55727314D01*
X153082454Y-55713080D01*
X153085273Y-55692250D01*
X153088826Y-55665722D01*
X153092995Y-55634397D01*
X153097658Y-55599174D01*
X153102696Y-55560953D01*
X153107192Y-55526708D01*
X153112413Y-55487119D01*
X153117348Y-55450159D01*
X153121882Y-55416665D01*
X153125898Y-55387472D01*
X153129281Y-55363415D01*
X153131914Y-55345331D01*
X153133683Y-55334055D01*
X153134439Y-55330417D01*
X153135236Y-55330186D01*
X153136106Y-55331512D01*
X153137142Y-55335045D01*
X153138442Y-55341435D01*
X153140101Y-55351331D01*
X153142214Y-55365382D01*
X153144878Y-55384237D01*
X153148187Y-55408547D01*
X153152238Y-55438960D01*
X153157127Y-55476126D01*
X153162949Y-55520693D01*
X153166465Y-55547684D01*
X153171755Y-55587727D01*
X153176846Y-55625138D01*
X153181616Y-55659089D01*
X153185942Y-55688757D01*
X153189700Y-55713317D01*
X153192768Y-55731944D01*
X153195022Y-55743812D01*
X153196332Y-55748094D01*
X153212670Y-55756932D01*
X153230824Y-55771423D01*
X153248793Y-55789666D01*
X153264575Y-55809757D01*
X153269950Y-55818090D01*
X153272222Y-55819910D01*
X153277302Y-55821830D01*
X153285840Y-55823953D01*
X153298485Y-55826378D01*
X153315884Y-55829209D01*
X153338686Y-55832546D01*
X153367541Y-55836491D01*
X153403096Y-55841146D01*
X153446001Y-55846612D01*
X153477383Y-55850553D01*
X153526860Y-55856752D01*
X153568568Y-55862008D01*
X153603145Y-55866410D01*
X153631224Y-55870048D01*
X153653442Y-55873012D01*
X153670435Y-55875392D01*
X153682837Y-55877278D01*
X153691284Y-55878760D01*
X153696412Y-55879926D01*
X153698855Y-55880869D01*
X153699251Y-55881676D01*
X153699074Y-55881897D01*
X153694696Y-55882699D01*
X153682712Y-55884442D01*
X153663922Y-55887022D01*
X153639121Y-55890334D01*
X153609108Y-55894271D01*
X153574680Y-55898729D01*
X153536633Y-55903602D01*
X153495765Y-55908786D01*
X153484359Y-55910225D01*
X153271201Y-55937068D01*
X153263524Y-55952116D01*
X153254006Y-55966066D01*
X153239765Y-55981617D01*
X153223448Y-55996208D01*
X153207707Y-56007278D01*
X153204817Y-56008866D01*
X153196030Y-56014203D01*
X153191722Y-56018373D01*
X153191633Y-56018777D01*
X153191094Y-56023742D01*
X153189567Y-56036091D01*
X153187183Y-56054815D01*
X153184077Y-56078905D01*
X153180381Y-56107352D01*
X153176229Y-56139148D01*
X153171752Y-56173284D01*
X153167085Y-56208752D01*
X153162361Y-56244542D01*
X153157711Y-56279646D01*
X153153270Y-56313056D01*
X153149171Y-56343763D01*
X153145546Y-56370758D01*
X153142529Y-56393032D01*
X153140252Y-56409578D01*
X153138848Y-56419386D01*
X153138553Y-56421241D01*
X153136506Y-56430273D01*
X153134733Y-56433983D01*
X153134525Y-56433903D01*
X153133681Y-56429526D01*
X153131862Y-56417582D01*
X153129181Y-56398900D01*
X153125753Y-56374311D01*
X153121693Y-56344643D01*
X153117115Y-56310726D01*
X153112134Y-56273389D01*
X153107140Y-56235562D01*
X153101833Y-56195269D01*
X153096795Y-56157212D01*
X153092146Y-56122284D01*
X153088005Y-56091377D01*
X153084494Y-56065385D01*
X153081732Y-56045201D01*
X153079838Y-56031716D01*
X153078977Y-56026050D01*
X153073163Y-56013801D01*
X153063243Y-56006576D01*
X153057302Y-56003858D01*
X153051752Y-56002700D01*
X153044927Y-56003470D01*
X153035160Y-56006538D01*
X153020787Y-56012272D01*
X153002570Y-56020002D01*
X152881056Y-56073549D01*
X152762010Y-56129164D01*
X152646245Y-56186406D01*
X152534575Y-56244833D01*
X152427815Y-56304003D01*
X152326779Y-56363474D01*
X152232281Y-56422804D01*
X152145135Y-56481552D01*
X152122717Y-56497439D01*
X152070171Y-56536476D01*
X152017662Y-56578095D01*
X151966226Y-56621346D01*
X151916897Y-56665274D01*
X151870714Y-56708928D01*
X151828711Y-56751355D01*
X151791926Y-56791602D01*
X151761394Y-56828718D01*
X151759229Y-56831555D01*
X151715307Y-56894386D01*
X151679746Y-56955985D01*
X151652538Y-57016300D01*
X151633674Y-57075280D01*
X151623147Y-57132874D01*
X151620948Y-57189032D01*
X151627068Y-57243701D01*
X151641499Y-57296832D01*
X151664233Y-57348373D01*
X151695262Y-57398274D01*
X151734577Y-57446483D01*
X151782170Y-57492949D01*
X151838032Y-57537621D01*
X151879300Y-57566015D01*
X151942143Y-57603409D01*
X152012837Y-57639095D01*
X152090911Y-57672926D01*
X152175896Y-57704755D01*
X152267319Y-57734434D01*
X152364711Y-57761817D01*
X152467601Y-57786755D01*
X152575519Y-57809103D01*
X152687993Y-57828712D01*
X152747988Y-57837758D01*
X152824751Y-57848305D01*
X152898735Y-57857547D01*
X152971289Y-57865588D01*
X153043764Y-57872536D01*
X153117511Y-57878496D01*
X153193880Y-57883575D01*
X153274220Y-57887877D01*
X153359882Y-57891509D01*
X153452216Y-57894577D01*
X153483497Y-57895460D01*
X153553051Y-57896861D01*
X153628301Y-57897497D01*
X153707638Y-57897399D01*
X153789452Y-57896603D01*
X153872133Y-57895141D01*
X153954072Y-57893047D01*
X154033660Y-57890354D01*
X154109286Y-57887096D01*
X154179341Y-57883306D01*
X154229749Y-57879953D01*
X154266682Y-57877252D01*
X154268630Y-57863934D01*
X154269520Y-57856106D01*
X154270987Y-57841166D01*
X154271295Y-57837839D01*
X154711400Y-57837839D01*
X154715064Y-57838951D01*
X154724010Y-57838928D01*
X154735171Y-57838035D01*
X154745478Y-57836537D01*
X154751864Y-57834696D01*
X154752403Y-57834308D01*
X154752032Y-57829857D01*
X154749819Y-57819154D01*
X154746180Y-57804105D01*
X154744010Y-57795752D01*
X154734161Y-57758651D01*
X154722780Y-57796572D01*
X154717814Y-57813457D01*
X154713946Y-57827251D01*
X154711724Y-57835969D01*
X154711400Y-57837839D01*
X154271295Y-57837839D01*
X154272912Y-57820436D01*
X154275172Y-57795244D01*
X154277646Y-57766913D01*
X154279537Y-57744784D01*
X154300129Y-57547752D01*
X154328672Y-57348764D01*
X154365049Y-57148427D01*
X154409140Y-56947349D01*
X154460829Y-56746137D01*
X154498771Y-56614484D01*
X154515318Y-56559450D01*
X154509766Y-56508650D01*
X154499969Y-56412741D01*
X154491758Y-56318270D01*
X154485045Y-56223597D01*
X154479737Y-56127082D01*
X154475746Y-56027085D01*
X154473102Y-55926567D01*
X154817301Y-55926567D01*
X154817730Y-56009448D01*
X154819092Y-56088735D01*
X154821478Y-56165746D01*
X154824978Y-56241801D01*
X154829686Y-56318220D01*
X154835692Y-56396322D01*
X154843088Y-56477428D01*
X154851965Y-56562855D01*
X154862416Y-56653925D01*
X154874530Y-56751956D01*
X154874544Y-56752067D01*
X154892905Y-56891686D01*
X154911611Y-57024459D01*
X154930929Y-57152005D01*
X154951129Y-57275943D01*
X154972476Y-57397893D01*
X154995240Y-57519475D01*
X155019687Y-57642309D01*
X155029716Y-57690809D01*
X155052043Y-57797700D01*
X155063521Y-57797700D01*
X155070618Y-57797107D01*
X155084890Y-57795433D01*
X155105140Y-57792837D01*
X155130166Y-57789476D01*
X155158770Y-57785508D01*
X155189753Y-57781093D01*
X155192708Y-57780666D01*
X155237255Y-57774191D01*
X155274146Y-57768765D01*
X155304113Y-57764274D01*
X155327887Y-57760604D01*
X155346199Y-57757644D01*
X155359779Y-57755280D01*
X155369360Y-57753398D01*
X155369979Y-57753264D01*
X155371903Y-57752862D01*
X155373566Y-57752139D01*
X155375029Y-57750469D01*
X155376353Y-57747223D01*
X155377596Y-57741774D01*
X155378821Y-57733493D01*
X155380086Y-57721753D01*
X155381453Y-57705925D01*
X155382981Y-57685382D01*
X155384731Y-57659496D01*
X155386763Y-57627638D01*
X155389138Y-57589182D01*
X155391915Y-57543499D01*
X155394978Y-57492900D01*
X155402254Y-57364184D01*
X155408665Y-57233142D01*
X155414205Y-57100537D01*
X155418868Y-56967128D01*
X155422648Y-56833675D01*
X155425539Y-56700940D01*
X155427534Y-56569682D01*
X155428627Y-56440662D01*
X155428813Y-56314640D01*
X155428085Y-56192377D01*
X155426436Y-56074634D01*
X155423862Y-55962170D01*
X155420355Y-55855746D01*
X155415910Y-55756123D01*
X155410520Y-55664061D01*
X155409807Y-55653517D01*
X155391531Y-55446148D01*
X155365141Y-55238169D01*
X155330598Y-55029385D01*
X155287867Y-54819602D01*
X155236911Y-54608625D01*
X155194975Y-54458237D01*
X155524188Y-54458237D01*
X155524934Y-54463579D01*
X155525494Y-54466067D01*
X155527337Y-54475537D01*
X155530195Y-54492316D01*
X155533908Y-54515326D01*
X155538315Y-54543492D01*
X155543256Y-54575736D01*
X155548570Y-54610982D01*
X155554097Y-54648154D01*
X155559676Y-54686175D01*
X155565147Y-54723969D01*
X155570349Y-54760459D01*
X155575122Y-54794569D01*
X155579305Y-54825222D01*
X155581361Y-54840717D01*
X155609840Y-55074194D01*
X155633259Y-55301645D01*
X155651625Y-55523827D01*
X155664945Y-55741496D01*
X155673229Y-55955408D01*
X155676483Y-56166320D01*
X155674715Y-56374988D01*
X155667933Y-56582168D01*
X155656146Y-56788616D01*
X155639360Y-56995090D01*
X155617584Y-57202344D01*
X155606698Y-57291817D01*
X155601278Y-57333511D01*
X155595201Y-57378320D01*
X155588649Y-57425033D01*
X155581805Y-57472442D01*
X155574852Y-57519339D01*
X155567973Y-57564515D01*
X155561350Y-57606761D01*
X155555167Y-57644868D01*
X155549606Y-57677628D01*
X155544851Y-57703832D01*
X155542745Y-57714523D01*
X155541687Y-57722897D01*
X155544897Y-57725203D01*
X155552344Y-57724016D01*
X155560866Y-57722344D01*
X155575806Y-57719559D01*
X155595241Y-57716016D01*
X155617250Y-57712066D01*
X155623209Y-57711006D01*
X155644449Y-57707146D01*
X155662516Y-57703688D01*
X155675867Y-57700940D01*
X155682955Y-57699213D01*
X155683670Y-57698908D01*
X155685431Y-57693997D01*
X155687713Y-57685461D01*
X155757033Y-57685461D01*
X155761042Y-57685168D01*
X155772533Y-57683290D01*
X155790702Y-57679986D01*
X155814746Y-57675410D01*
X155843860Y-57669720D01*
X155877240Y-57663071D01*
X155914082Y-57655621D01*
X155953583Y-57647524D01*
X155974399Y-57643216D01*
X156003720Y-57637053D01*
X156030270Y-57631328D01*
X156052932Y-57626295D01*
X156070592Y-57622206D01*
X156082132Y-57619312D01*
X156086412Y-57617899D01*
X156086564Y-57612431D01*
X156083809Y-57600127D01*
X156078510Y-57581963D01*
X156071028Y-57558912D01*
X156061724Y-57531949D01*
X156050960Y-57502051D01*
X156039097Y-57470190D01*
X156026498Y-57437343D01*
X156013522Y-57404484D01*
X156000532Y-57372588D01*
X155987889Y-57342631D01*
X155975955Y-57315585D01*
X155967862Y-57298167D01*
X155942593Y-57245250D01*
X155925505Y-57289700D01*
X155911029Y-57326571D01*
X155893769Y-57369228D01*
X155874519Y-57415783D01*
X155854071Y-57464348D01*
X155833221Y-57513037D01*
X155812759Y-57559960D01*
X155797638Y-57593992D01*
X155786180Y-57619571D01*
X155775975Y-57642429D01*
X155767502Y-57661483D01*
X155761244Y-57675651D01*
X155757679Y-57683851D01*
X155757033Y-57685461D01*
X155687713Y-57685461D01*
X155688688Y-57681817D01*
X155693215Y-57663389D01*
X155698784Y-57639732D01*
X155705165Y-57611866D01*
X155712132Y-57580812D01*
X155719456Y-57547589D01*
X155726910Y-57513219D01*
X155734266Y-57478720D01*
X155741295Y-57445114D01*
X155747771Y-57413420D01*
X155750500Y-57399767D01*
X155775413Y-57270067D01*
X155797329Y-57146976D01*
X155816376Y-57029234D01*
X155832687Y-56915581D01*
X155846392Y-56804758D01*
X155857620Y-56695507D01*
X155866503Y-56586567D01*
X155873171Y-56476679D01*
X155877754Y-56364583D01*
X155880382Y-56249022D01*
X155881187Y-56138233D01*
X155881070Y-56077454D01*
X155880604Y-56023504D01*
X155879723Y-55974754D01*
X155878360Y-55929571D01*
X155876450Y-55886323D01*
X155873927Y-55843381D01*
X155870725Y-55799111D01*
X155866777Y-55751882D01*
X155864591Y-55727600D01*
X155843853Y-55547867D01*
X155814751Y-55369365D01*
X155777313Y-55192204D01*
X155731568Y-55016496D01*
X155677544Y-54842349D01*
X155615269Y-54669874D01*
X155556208Y-54525451D01*
X155544296Y-54498051D01*
X155535360Y-54478060D01*
X155529179Y-54465048D01*
X155525529Y-54458584D01*
X155524188Y-54458237D01*
X155194975Y-54458237D01*
X155177693Y-54396262D01*
X155161230Y-54341747D01*
X155153614Y-54316911D01*
X155114874Y-54396781D01*
X155052196Y-54535175D01*
X154996927Y-54676473D01*
X154949301Y-54819937D01*
X154909553Y-54964828D01*
X154877917Y-55110411D01*
X154865945Y-55178695D01*
X154854084Y-55260679D01*
X154843776Y-55350140D01*
X154835074Y-55446220D01*
X154828037Y-55548061D01*
X154822718Y-55654805D01*
X154819174Y-55765597D01*
X154817461Y-55879577D01*
X154817301Y-55926567D01*
X154473102Y-55926567D01*
X154472980Y-55921965D01*
X154471351Y-55810150D01*
X154470944Y-55688587D01*
X154472164Y-55574418D01*
X154475116Y-55466709D01*
X154479908Y-55364526D01*
X154486644Y-55266934D01*
X154495432Y-55173000D01*
X154506377Y-55081788D01*
X154519585Y-54992364D01*
X154535163Y-54903794D01*
X154553217Y-54815144D01*
X154573852Y-54725479D01*
X154597176Y-54633864D01*
X154610552Y-54584600D01*
X154664676Y-54404579D01*
X154726579Y-54227040D01*
X154796037Y-54052478D01*
X154872824Y-53881384D01*
X154956715Y-53714251D01*
X155047487Y-53551572D01*
X155144913Y-53393841D01*
X155174818Y-53348437D01*
X155195296Y-53318052D01*
X155216206Y-53287495D01*
X155236742Y-53257907D01*
X155256101Y-53230425D01*
X155273476Y-53206189D01*
X155288064Y-53186339D01*
X155299060Y-53172014D01*
X155301882Y-53168550D01*
X155312496Y-53155850D01*
X155322040Y-53168090D01*
X155334746Y-53184952D01*
X155351167Y-53207605D01*
X155370403Y-53234746D01*
X155391557Y-53265066D01*
X155413728Y-53297259D01*
X155436018Y-53330019D01*
X155457527Y-53362039D01*
X155477357Y-53392013D01*
X155494609Y-53418635D01*
X155496664Y-53421857D01*
X155594673Y-53583772D01*
X155685441Y-53749981D01*
X155768855Y-53920213D01*
X155844805Y-54094197D01*
X155913180Y-54271663D01*
X155973868Y-54452340D01*
X156026758Y-54635957D01*
X156071740Y-54822243D01*
X156072077Y-54823784D01*
X156087672Y-54900183D01*
X156101517Y-54978714D01*
X156113753Y-55060482D01*
X156124522Y-55146591D01*
X156133967Y-55238146D01*
X156142231Y-55336253D01*
X156147294Y-55407984D01*
X156148618Y-55433616D01*
X156149759Y-55466628D01*
X156150716Y-55505933D01*
X156151489Y-55550447D01*
X156152078Y-55599082D01*
X156152483Y-55650755D01*
X156152705Y-55704378D01*
X156152743Y-55758868D01*
X156152597Y-55813137D01*
X156152267Y-55866101D01*
X156151752Y-55916674D01*
X156151054Y-55963770D01*
X156150172Y-56006304D01*
X156149106Y-56043190D01*
X156147856Y-56073343D01*
X156147309Y-56083200D01*
X156142578Y-56158411D01*
X156137950Y-56226690D01*
X156133309Y-56289568D01*
X156128536Y-56348578D01*
X156123515Y-56405250D01*
X156118621Y-56456156D01*
X156107827Y-56564528D01*
X156131768Y-56631839D01*
X156177149Y-56771093D01*
X156214751Y-56911987D01*
X156244679Y-57055074D01*
X156267033Y-57200903D01*
X156281916Y-57350028D01*
X156288814Y-57481259D01*
X156289715Y-57508147D01*
X156290609Y-57531940D01*
X156291443Y-57551423D01*
X156292163Y-57565382D01*
X156292716Y-57572603D01*
X156292885Y-57573334D01*
X156298013Y-57572329D01*
X156310318Y-57569485D01*
X156328775Y-57565059D01*
X156352356Y-57559306D01*
X156380037Y-57552484D01*
X156410791Y-57544849D01*
X156443593Y-57536656D01*
X156477415Y-57528163D01*
X156511232Y-57519625D01*
X156544018Y-57511300D01*
X156574748Y-57503443D01*
X156602394Y-57496312D01*
X156625931Y-57490161D01*
X156629100Y-57489324D01*
X156842967Y-57430572D01*
X157051649Y-57368882D01*
X157254675Y-57304418D01*
X157451576Y-57237342D01*
X157641882Y-57167817D01*
X157825124Y-57096007D01*
X158000831Y-57022074D01*
X158092218Y-56981415D01*
X158110396Y-56973038D01*
X158133196Y-56962331D01*
X158159660Y-56949760D01*
X158188832Y-56935792D01*
X158219754Y-56920895D01*
X158251469Y-56905535D01*
X158283018Y-56890179D01*
X158313445Y-56875294D01*
X158341793Y-56861347D01*
X158367102Y-56848806D01*
X158388417Y-56838136D01*
X158404780Y-56829805D01*
X158415233Y-56824280D01*
X158418707Y-56822186D01*
X158420572Y-56817463D01*
X158424118Y-56805736D01*
X158429027Y-56788231D01*
X158434983Y-56766172D01*
X158441668Y-56740785D01*
X158448766Y-56713293D01*
X158455961Y-56684921D01*
X158462934Y-56656894D01*
X158469370Y-56630437D01*
X158474951Y-56606775D01*
X158477231Y-56596690D01*
X158791017Y-56596690D01*
X158804638Y-56588653D01*
X158812361Y-56583571D01*
X158825482Y-56574372D01*
X158842637Y-56562036D01*
X158862462Y-56547541D01*
X158881830Y-56533185D01*
X158965171Y-56468231D01*
X159040435Y-56403771D01*
X159107573Y-56339861D01*
X159166536Y-56276558D01*
X159217276Y-56213917D01*
X159259745Y-56151995D01*
X159293893Y-56090846D01*
X159319673Y-56030528D01*
X159320854Y-56027214D01*
X159337366Y-55969020D01*
X159345629Y-55911596D01*
X159345645Y-55855229D01*
X159337416Y-55800204D01*
X159320942Y-55746807D01*
X159319542Y-55743292D01*
X159305757Y-55712847D01*
X159289449Y-55684339D01*
X159269469Y-55656149D01*
X159244666Y-55626655D01*
X159213891Y-55594238D01*
X159213550Y-55593894D01*
X159173513Y-55556126D01*
X159131808Y-55522154D01*
X159086663Y-55490727D01*
X159036308Y-55460592D01*
X158990679Y-55436370D01*
X158968881Y-55425642D01*
X158945182Y-55414512D01*
X158920840Y-55403514D01*
X158897120Y-55393179D01*
X158875281Y-55384041D01*
X158856585Y-55376632D01*
X158842294Y-55371486D01*
X158833669Y-55369135D01*
X158831771Y-55369251D01*
X158831648Y-55373866D01*
X158832502Y-55385441D01*
X158834195Y-55402541D01*
X158836589Y-55423733D01*
X158838623Y-55440355D01*
X158855707Y-55608029D01*
X158864801Y-55776116D01*
X158865911Y-55943908D01*
X158859044Y-56110699D01*
X158844206Y-56275780D01*
X158830003Y-56383767D01*
X158826578Y-56405885D01*
X158822345Y-56431771D01*
X158817582Y-56459867D01*
X158812566Y-56488617D01*
X158807577Y-56516464D01*
X158802892Y-56541853D01*
X158798788Y-56563225D01*
X158795545Y-56579025D01*
X158793776Y-56586537D01*
X158791017Y-56596690D01*
X158477231Y-56596690D01*
X158478522Y-56590980D01*
X158502741Y-56471375D01*
D11*
%TO.C,J6*%
X137704000Y-53604000D02*
X137704000Y-52274000D01*
X140364000Y-54874000D02*
X140364000Y-100654000D01*
X137704000Y-52274000D02*
X139034000Y-52274000D01*
X137704000Y-54874000D02*
X137704000Y-100654000D01*
X137704000Y-100654000D02*
X140364000Y-100654000D01*
X137704000Y-54874000D02*
X140364000Y-54874000D01*
%TO.C,J8*%
X158302000Y-82983000D02*
X155642000Y-82983000D01*
X158302000Y-88123000D02*
X158302000Y-82983000D01*
X158302000Y-89393000D02*
X158302000Y-90723000D01*
X158302000Y-88123000D02*
X155642000Y-88123000D01*
X158302000Y-90723000D02*
X156972000Y-90723000D01*
X155642000Y-88123000D02*
X155642000Y-82983000D01*
%TO.C,J7*%
X91964000Y-98034000D02*
X91964000Y-52254000D01*
X91964000Y-52254000D02*
X89304000Y-52254000D01*
X91964000Y-98034000D02*
X89304000Y-98034000D01*
X91964000Y-99304000D02*
X91964000Y-100634000D01*
X89304000Y-98034000D02*
X89304000Y-52254000D01*
X91964000Y-100634000D02*
X90634000Y-100634000D01*
D12*
%TO.C,J3*%
X176476000Y-99476000D02*
X176476000Y-90676000D01*
X201476000Y-99476000D02*
X176476000Y-99476000D01*
X201476000Y-90676000D02*
X201476000Y-99476000D01*
X176476000Y-90676000D02*
X179226000Y-90676000D01*
X201476000Y-90676000D02*
X199426000Y-90676000D01*
%TD*%
M02*
