%TF.GenerationSoftware,KiCad,Pcbnew,(6.0.6-0)*%
%TF.CreationDate,2023-03-25T11:09:11-07:00*%
%TF.ProjectId,le2-daq-new,6c65322d-6461-4712-9d6e-65772e6b6963,rev?*%
%TF.SameCoordinates,Original*%
%TF.FileFunction,Legend,Bot*%
%TF.FilePolarity,Positive*%
%FSLAX46Y46*%
G04 Gerber Fmt 4.6, Leading zero omitted, Abs format (unit mm)*
G04 Created by KiCad (PCBNEW (6.0.6-0)) date 2023-03-25 11:09:11*
%MOMM*%
%LPD*%
G01*
G04 APERTURE LIST*
%ADD10C,0.150000*%
G04 APERTURE END LIST*
D10*
X203144380Y-66762952D02*
X202144380Y-66762952D01*
X202144380Y-67143904D01*
X202192000Y-67239142D01*
X202239619Y-67286761D01*
X202334857Y-67334380D01*
X202477714Y-67334380D01*
X202572952Y-67286761D01*
X202620571Y-67239142D01*
X202668190Y-67143904D01*
X202668190Y-66762952D01*
X202620571Y-67762952D02*
X202620571Y-68096285D01*
X203144380Y-68239142D02*
X203144380Y-67762952D01*
X202144380Y-67762952D01*
X202144380Y-68239142D01*
X203144380Y-69239142D02*
X202668190Y-68905809D01*
X203144380Y-68667714D02*
X202144380Y-68667714D01*
X202144380Y-69048666D01*
X202192000Y-69143904D01*
X202239619Y-69191523D01*
X202334857Y-69239142D01*
X202477714Y-69239142D01*
X202572952Y-69191523D01*
X202620571Y-69143904D01*
X202668190Y-69048666D01*
X202668190Y-68667714D01*
X203144380Y-69667714D02*
X202144380Y-69667714D01*
X203144380Y-70143904D02*
X202144380Y-70143904D01*
X202144380Y-70524857D01*
X202192000Y-70620095D01*
X202239619Y-70667714D01*
X202334857Y-70715333D01*
X202477714Y-70715333D01*
X202572952Y-70667714D01*
X202620571Y-70620095D01*
X202668190Y-70524857D01*
X202668190Y-70143904D01*
X203144380Y-71143904D02*
X202144380Y-71143904D01*
X202620571Y-71143904D02*
X202620571Y-71715333D01*
X203144380Y-71715333D02*
X202144380Y-71715333D01*
X202620571Y-72191523D02*
X202620571Y-72524857D01*
X203144380Y-72667714D02*
X203144380Y-72191523D01*
X202144380Y-72191523D01*
X202144380Y-72667714D01*
X203144380Y-73667714D02*
X202668190Y-73334380D01*
X203144380Y-73096285D02*
X202144380Y-73096285D01*
X202144380Y-73477238D01*
X202192000Y-73572476D01*
X202239619Y-73620095D01*
X202334857Y-73667714D01*
X202477714Y-73667714D01*
X202572952Y-73620095D01*
X202620571Y-73572476D01*
X202668190Y-73477238D01*
X202668190Y-73096285D01*
X202858666Y-74048666D02*
X202858666Y-74524857D01*
X203144380Y-73953428D02*
X202144380Y-74286761D01*
X203144380Y-74620095D01*
X203144380Y-75429619D02*
X203144380Y-74953428D01*
X202144380Y-74953428D01*
X202239619Y-76477238D02*
X202192000Y-76524857D01*
X202144380Y-76620095D01*
X202144380Y-76858190D01*
X202192000Y-76953428D01*
X202239619Y-77001047D01*
X202334857Y-77048666D01*
X202430095Y-77048666D01*
X202572952Y-77001047D01*
X203144380Y-76429619D01*
X203144380Y-77048666D01*
X203906380Y-116546952D02*
X202906380Y-116546952D01*
X202906380Y-116927904D01*
X202954000Y-117023142D01*
X203001619Y-117070761D01*
X203096857Y-117118380D01*
X203239714Y-117118380D01*
X203334952Y-117070761D01*
X203382571Y-117023142D01*
X203430190Y-116927904D01*
X203430190Y-116546952D01*
X203382571Y-117546952D02*
X203382571Y-117880285D01*
X203906380Y-118023142D02*
X203906380Y-117546952D01*
X202906380Y-117546952D01*
X202906380Y-118023142D01*
X203906380Y-119023142D02*
X203430190Y-118689809D01*
X203906380Y-118451714D02*
X202906380Y-118451714D01*
X202906380Y-118832666D01*
X202954000Y-118927904D01*
X203001619Y-118975523D01*
X203096857Y-119023142D01*
X203239714Y-119023142D01*
X203334952Y-118975523D01*
X203382571Y-118927904D01*
X203430190Y-118832666D01*
X203430190Y-118451714D01*
X203906380Y-119451714D02*
X202906380Y-119451714D01*
X203906380Y-119927904D02*
X202906380Y-119927904D01*
X202906380Y-120308857D01*
X202954000Y-120404095D01*
X203001619Y-120451714D01*
X203096857Y-120499333D01*
X203239714Y-120499333D01*
X203334952Y-120451714D01*
X203382571Y-120404095D01*
X203430190Y-120308857D01*
X203430190Y-119927904D01*
X203906380Y-120927904D02*
X202906380Y-120927904D01*
X203382571Y-120927904D02*
X203382571Y-121499333D01*
X203906380Y-121499333D02*
X202906380Y-121499333D01*
X203382571Y-121975523D02*
X203382571Y-122308857D01*
X203906380Y-122451714D02*
X203906380Y-121975523D01*
X202906380Y-121975523D01*
X202906380Y-122451714D01*
X203906380Y-123451714D02*
X203430190Y-123118380D01*
X203906380Y-122880285D02*
X202906380Y-122880285D01*
X202906380Y-123261238D01*
X202954000Y-123356476D01*
X203001619Y-123404095D01*
X203096857Y-123451714D01*
X203239714Y-123451714D01*
X203334952Y-123404095D01*
X203382571Y-123356476D01*
X203430190Y-123261238D01*
X203430190Y-122880285D01*
X203620666Y-123832666D02*
X203620666Y-124308857D01*
X203906380Y-123737428D02*
X202906380Y-124070761D01*
X203906380Y-124404095D01*
X203906380Y-125213619D02*
X203906380Y-124737428D01*
X202906380Y-124737428D01*
X203239714Y-126737428D02*
X203906380Y-126737428D01*
X202858761Y-126499333D02*
X203573047Y-126261238D01*
X203573047Y-126880285D01*
X202890380Y-89876952D02*
X201890380Y-89876952D01*
X201890380Y-90257904D01*
X201938000Y-90353142D01*
X201985619Y-90400761D01*
X202080857Y-90448380D01*
X202223714Y-90448380D01*
X202318952Y-90400761D01*
X202366571Y-90353142D01*
X202414190Y-90257904D01*
X202414190Y-89876952D01*
X202366571Y-90876952D02*
X202366571Y-91210285D01*
X202890380Y-91353142D02*
X202890380Y-90876952D01*
X201890380Y-90876952D01*
X201890380Y-91353142D01*
X202890380Y-92353142D02*
X202414190Y-92019809D01*
X202890380Y-91781714D02*
X201890380Y-91781714D01*
X201890380Y-92162666D01*
X201938000Y-92257904D01*
X201985619Y-92305523D01*
X202080857Y-92353142D01*
X202223714Y-92353142D01*
X202318952Y-92305523D01*
X202366571Y-92257904D01*
X202414190Y-92162666D01*
X202414190Y-91781714D01*
X202890380Y-92781714D02*
X201890380Y-92781714D01*
X202890380Y-93257904D02*
X201890380Y-93257904D01*
X201890380Y-93638857D01*
X201938000Y-93734095D01*
X201985619Y-93781714D01*
X202080857Y-93829333D01*
X202223714Y-93829333D01*
X202318952Y-93781714D01*
X202366571Y-93734095D01*
X202414190Y-93638857D01*
X202414190Y-93257904D01*
X202890380Y-94257904D02*
X201890380Y-94257904D01*
X202366571Y-94257904D02*
X202366571Y-94829333D01*
X202890380Y-94829333D02*
X201890380Y-94829333D01*
X202366571Y-95305523D02*
X202366571Y-95638857D01*
X202890380Y-95781714D02*
X202890380Y-95305523D01*
X201890380Y-95305523D01*
X201890380Y-95781714D01*
X202890380Y-96781714D02*
X202414190Y-96448380D01*
X202890380Y-96210285D02*
X201890380Y-96210285D01*
X201890380Y-96591238D01*
X201938000Y-96686476D01*
X201985619Y-96734095D01*
X202080857Y-96781714D01*
X202223714Y-96781714D01*
X202318952Y-96734095D01*
X202366571Y-96686476D01*
X202414190Y-96591238D01*
X202414190Y-96210285D01*
X202604666Y-97162666D02*
X202604666Y-97638857D01*
X202890380Y-97067428D02*
X201890380Y-97400761D01*
X202890380Y-97734095D01*
X202890380Y-98543619D02*
X202890380Y-98067428D01*
X201890380Y-98067428D01*
X201890380Y-99543619D02*
X201890380Y-100162666D01*
X202271333Y-99829333D01*
X202271333Y-99972190D01*
X202318952Y-100067428D01*
X202366571Y-100115047D01*
X202461809Y-100162666D01*
X202699904Y-100162666D01*
X202795142Y-100115047D01*
X202842761Y-100067428D01*
X202890380Y-99972190D01*
X202890380Y-99686476D01*
X202842761Y-99591238D01*
X202795142Y-99543619D01*
X203398380Y-41108952D02*
X202398380Y-41108952D01*
X202398380Y-41489904D01*
X202446000Y-41585142D01*
X202493619Y-41632761D01*
X202588857Y-41680380D01*
X202731714Y-41680380D01*
X202826952Y-41632761D01*
X202874571Y-41585142D01*
X202922190Y-41489904D01*
X202922190Y-41108952D01*
X202874571Y-42108952D02*
X202874571Y-42442285D01*
X203398380Y-42585142D02*
X203398380Y-42108952D01*
X202398380Y-42108952D01*
X202398380Y-42585142D01*
X203398380Y-43585142D02*
X202922190Y-43251809D01*
X203398380Y-43013714D02*
X202398380Y-43013714D01*
X202398380Y-43394666D01*
X202446000Y-43489904D01*
X202493619Y-43537523D01*
X202588857Y-43585142D01*
X202731714Y-43585142D01*
X202826952Y-43537523D01*
X202874571Y-43489904D01*
X202922190Y-43394666D01*
X202922190Y-43013714D01*
X203398380Y-44013714D02*
X202398380Y-44013714D01*
X203398380Y-44489904D02*
X202398380Y-44489904D01*
X202398380Y-44870857D01*
X202446000Y-44966095D01*
X202493619Y-45013714D01*
X202588857Y-45061333D01*
X202731714Y-45061333D01*
X202826952Y-45013714D01*
X202874571Y-44966095D01*
X202922190Y-44870857D01*
X202922190Y-44489904D01*
X203398380Y-45489904D02*
X202398380Y-45489904D01*
X202874571Y-45489904D02*
X202874571Y-46061333D01*
X203398380Y-46061333D02*
X202398380Y-46061333D01*
X202874571Y-46537523D02*
X202874571Y-46870857D01*
X203398380Y-47013714D02*
X203398380Y-46537523D01*
X202398380Y-46537523D01*
X202398380Y-47013714D01*
X203398380Y-48013714D02*
X202922190Y-47680380D01*
X203398380Y-47442285D02*
X202398380Y-47442285D01*
X202398380Y-47823238D01*
X202446000Y-47918476D01*
X202493619Y-47966095D01*
X202588857Y-48013714D01*
X202731714Y-48013714D01*
X202826952Y-47966095D01*
X202874571Y-47918476D01*
X202922190Y-47823238D01*
X202922190Y-47442285D01*
X203112666Y-48394666D02*
X203112666Y-48870857D01*
X203398380Y-48299428D02*
X202398380Y-48632761D01*
X203398380Y-48966095D01*
X203398380Y-49775619D02*
X203398380Y-49299428D01*
X202398380Y-49299428D01*
X203398380Y-51394666D02*
X203398380Y-50823238D01*
X203398380Y-51108952D02*
X202398380Y-51108952D01*
X202541238Y-51013714D01*
X202636476Y-50918476D01*
X202684095Y-50823238D01*
M02*
