M48
; DRILL file {KiCad (6.0.6-0)} date Tuesday, April 04, 2023 at 06:07:49 PM
; FORMAT={-:-/ absolute / inch / decimal}
; #@! TF.CreationDate,2023-04-04T18:07:49-07:00
; #@! TF.GenerationSoftware,Kicad,Pcbnew,(6.0.6-0)
; #@! TF.FileFunction,Plated,1,2,PTH
FMAT,2
INCH
; #@! TA.AperFunction,Plated,PTH,ViaDrill
T1C0.0100
; #@! TA.AperFunction,Plated,PTH,ComponentDrill
T2C0.0100
; #@! TA.AperFunction,Plated,PTH,ViaDrill
T3C0.0150
; #@! TA.AperFunction,Plated,PTH,ComponentDrill
T4C0.0354
; #@! TA.AperFunction,Plated,PTH,ComponentDrill
T5C0.0394
; #@! TA.AperFunction,Plated,PTH,ComponentDrill
T6C0.0409
; #@! TA.AperFunction,Plated,PTH,ComponentDrill
T7C0.0472
; #@! TA.AperFunction,Plated,PTH,ComponentDrill
T8C0.1260
%
G90
G05
T1
X3.85Y-3.99
X3.85Y-4.05
X3.85Y-4.1
X4.19Y-3.11
X4.2Y-3.35
X4.52Y-2.67
X4.53Y-3.11
X4.61Y-2.75
X5.39Y-1.76
X5.43Y-2.16
X5.51Y-4.22
X5.51Y-4.33
X5.56Y-4.14
X5.61Y-2.18
X5.78Y-2.99
X5.79Y-3.19
X5.82Y-2.08
X5.82Y-2.53
X5.86Y-2.74
X5.94Y-2.9
X5.96Y-2.69
X5.99Y-2.16
X6.19Y-2.0229
X6.3Y-2.21
X6.44Y-3.09
X6.5641Y-2.01
X6.6Y-3.36
X6.63Y-3.96
X6.66Y-3.47
X6.66Y-4.01
X6.7Y-2.2
X6.71Y-3.72
X6.88Y-3.55
X6.88Y-3.94
X6.8812Y-3.3588
X6.91Y-3.19
X6.92Y-2.81
X6.92Y-3.26
X7.17Y-4.4
X7.52Y-4.49
X7.77Y-4.29
X7.77Y-4.54
T2
X4.1518Y-3.2263
X4.1518Y-3.2619
X4.1902Y-3.2084
X4.1902Y-3.2441
X4.1902Y-3.2797
X4.2286Y-3.2263
X4.2286Y-3.2619
X4.5016Y-3.2263
X4.5016Y-3.2619
X4.54Y-3.2084
X4.54Y-3.2441
X4.54Y-3.2797
X4.5784Y-3.2263
X4.5784Y-3.2619
X5.48Y-2.0744
X5.48Y-2.11
X5.5184Y-2.0566
X5.5184Y-2.0922
X5.5184Y-2.1278
X5.5568Y-2.0744
X5.5568Y-2.11
X5.8616Y-2.0647
X5.8616Y-2.1004
X5.9Y-2.0469
X5.9Y-2.0826
X5.9Y-2.1182
X5.9384Y-2.0647
X5.9384Y-2.1004
X6.2216Y-2.0701
X6.2216Y-2.1057
X6.26Y-2.0523
X6.26Y-2.088
X6.26Y-2.1236
X6.2984Y-2.0701
X6.2984Y-2.1057
X6.5916Y-2.0547
X6.5916Y-2.0904
X6.63Y-2.0369
X6.63Y-2.0726
X6.63Y-2.1082
X6.6684Y-2.0547
X6.6684Y-2.0904
X6.9669Y-2.72
X6.9669Y-3.4784
X6.9684Y-3.12
X6.9715Y-3.8684
X6.9847Y-2.6816
X6.9847Y-2.7584
X6.9847Y-3.44
X6.9847Y-3.5168
X6.9863Y-3.0816
X6.9863Y-3.1584
X6.9893Y-3.83
X6.9893Y-3.9068
X7.0025Y-2.72
X7.0025Y-3.4784
X7.0041Y-3.12
X7.0071Y-3.8684
X7.0203Y-2.6816
X7.0203Y-2.7584
X7.0203Y-3.44
X7.0203Y-3.5168
X7.0219Y-3.0816
X7.0219Y-3.1584
X7.0249Y-3.83
X7.0249Y-3.9068
X7.0381Y-2.72
X7.0381Y-3.4784
X7.0397Y-3.12
X7.0427Y-3.8684
T3
X4.09Y-3.26
X4.12Y-1.8
X6.98Y-4.12
X7.0219Y-3.3319
X7.09Y-2.26
X7.77Y-2.21
X7.79Y-4.17
T4
X4.1404Y-3.0266
X4.2404Y-3.0266
X4.5102Y-3.0266
X4.6102Y-3.0266
X5.4698Y-2.29
X5.5698Y-2.29
X5.8498Y-2.29
X5.9498Y-2.29
X6.2098Y-2.29
X6.3098Y-2.29
X6.58Y-2.29
X6.68Y-2.29
X6.795Y-3.4182
X6.795Y-3.5182
X6.795Y-3.7982
X6.795Y-3.8982
X6.7966Y-3.0498
X6.7966Y-3.1498
X6.805Y-2.66
X6.805Y-2.76
T5
X3.4882Y-1.8004
X3.4882Y-1.9094
X3.4882Y-2.0185
X3.4882Y-2.1276
X3.4882Y-2.2366
X3.4882Y-2.3457
X3.4882Y-2.4547
X3.4882Y-2.5638
X3.4882Y-2.6728
X3.4882Y-2.7819
X3.4882Y-2.8909
X3.4882Y-3.0
X3.6Y-1.7459
X3.6Y-1.8549
X3.6Y-1.964
X3.6Y-2.073
X3.6Y-2.1821
X3.6Y-2.2911
X3.6Y-2.4002
X3.6Y-2.5093
X3.6Y-2.6183
X3.6Y-2.7274
X3.6Y-2.8364
X3.6Y-2.9455
X3.6Y-3.0545
X7.77Y-1.31
X7.77Y-1.41
T6
X4.9872Y-2.5926
X4.9872Y-2.6926
X4.9872Y-2.7926
X4.9872Y-2.8926
X4.9872Y-2.9926
X4.9872Y-3.0926
X4.9872Y-3.1926
X4.9872Y-3.2926
X4.9872Y-3.3926
X4.9872Y-3.4926
X5.1372Y-3.7326
X5.2372Y-3.7326
X5.3372Y-3.7326
X5.4372Y-3.7326
X5.5372Y-3.7326
X5.6872Y-2.5926
X5.6872Y-2.6926
X5.6872Y-2.7926
X5.6872Y-2.8926
X5.6872Y-2.9926
X5.6872Y-3.0926
X5.6872Y-3.1926
X5.6872Y-3.2926
X5.6872Y-3.3926
X5.6872Y-3.4926
T7
X4.2202Y-3.4466
X4.2202Y-3.5466
X4.55Y-3.44
X4.55Y-3.54
X5.51Y-1.7966
X5.51Y-1.8966
X5.8916Y-1.7904
X5.8916Y-1.8904
X6.25Y-1.7866
X6.25Y-1.8866
X6.63Y-1.79
X6.63Y-1.89
X7.21Y-3.11
X7.215Y-3.8684
X7.2184Y-2.68
X7.2184Y-3.45
X7.31Y-3.11
X7.315Y-3.8684
X7.3184Y-2.68
X7.3184Y-3.45
T8
X3.5441Y-1.473
X3.5441Y-3.3274
T0
M30
