%TF.GenerationSoftware,KiCad,Pcbnew,(6.0.6-0)*%
%TF.CreationDate,2023-04-04T18:07:55-07:00*%
%TF.ProjectId,relay-board,72656c61-792d-4626-9f61-72642e6b6963,rev?*%
%TF.SameCoordinates,Original*%
%TF.FileFunction,Legend,Top*%
%TF.FilePolarity,Positive*%
%FSLAX46Y46*%
G04 Gerber Fmt 4.6, Leading zero omitted, Abs format (unit mm)*
G04 Created by KiCad (PCBNEW (6.0.6-0)) date 2023-04-04 18:07:55*
%MOMM*%
%LPD*%
G01*
G04 APERTURE LIST*
%ADD10C,0.125000*%
%ADD11C,0.150000*%
%ADD12C,0.127000*%
%ADD13C,0.200000*%
%ADD14C,0.120000*%
G04 APERTURE END LIST*
D10*
X124364761Y-66012190D02*
X124079047Y-66012190D01*
X124221904Y-66012190D02*
X124221904Y-65512190D01*
X124174285Y-65583619D01*
X124126666Y-65631238D01*
X124079047Y-65655047D01*
X124674285Y-65512190D02*
X124721904Y-65512190D01*
X124769523Y-65536000D01*
X124793333Y-65559809D01*
X124817142Y-65607428D01*
X124840952Y-65702666D01*
X124840952Y-65821714D01*
X124817142Y-65916952D01*
X124793333Y-65964571D01*
X124769523Y-65988380D01*
X124721904Y-66012190D01*
X124674285Y-66012190D01*
X124626666Y-65988380D01*
X124602857Y-65964571D01*
X124579047Y-65916952D01*
X124555238Y-65821714D01*
X124555238Y-65702666D01*
X124579047Y-65607428D01*
X124602857Y-65559809D01*
X124626666Y-65536000D01*
X124674285Y-65512190D01*
D11*
X124269523Y-68778380D02*
X124460000Y-68778380D01*
X124555238Y-68730761D01*
X124602857Y-68683142D01*
X124698095Y-68540285D01*
X124745714Y-68349809D01*
X124745714Y-67968857D01*
X124698095Y-67873619D01*
X124650476Y-67826000D01*
X124555238Y-67778380D01*
X124364761Y-67778380D01*
X124269523Y-67826000D01*
X124221904Y-67873619D01*
X124174285Y-67968857D01*
X124174285Y-68206952D01*
X124221904Y-68302190D01*
X124269523Y-68349809D01*
X124364761Y-68397428D01*
X124555238Y-68397428D01*
X124650476Y-68349809D01*
X124698095Y-68302190D01*
X124745714Y-68206952D01*
X146716761Y-83446952D02*
X146621523Y-83399333D01*
X146573904Y-83351714D01*
X146526285Y-83256476D01*
X146526285Y-83208857D01*
X146573904Y-83113619D01*
X146621523Y-83066000D01*
X146716761Y-83018380D01*
X146907238Y-83018380D01*
X147002476Y-83066000D01*
X147050095Y-83113619D01*
X147097714Y-83208857D01*
X147097714Y-83256476D01*
X147050095Y-83351714D01*
X147002476Y-83399333D01*
X146907238Y-83446952D01*
X146716761Y-83446952D01*
X146621523Y-83494571D01*
X146573904Y-83542190D01*
X146526285Y-83637428D01*
X146526285Y-83827904D01*
X146573904Y-83923142D01*
X146621523Y-83970761D01*
X146716761Y-84018380D01*
X146907238Y-84018380D01*
X147002476Y-83970761D01*
X147050095Y-83923142D01*
X147097714Y-83827904D01*
X147097714Y-83637428D01*
X147050095Y-83542190D01*
X147002476Y-83494571D01*
X146907238Y-83446952D01*
X146478666Y-80478380D02*
X147145333Y-80478380D01*
X146716761Y-81478380D01*
X147002476Y-77938380D02*
X146812000Y-77938380D01*
X146716761Y-77986000D01*
X146669142Y-78033619D01*
X146573904Y-78176476D01*
X146526285Y-78366952D01*
X146526285Y-78747904D01*
X146573904Y-78843142D01*
X146621523Y-78890761D01*
X146716761Y-78938380D01*
X146907238Y-78938380D01*
X147002476Y-78890761D01*
X147050095Y-78843142D01*
X147097714Y-78747904D01*
X147097714Y-78509809D01*
X147050095Y-78414571D01*
X147002476Y-78366952D01*
X146907238Y-78319333D01*
X146716761Y-78319333D01*
X146621523Y-78366952D01*
X146573904Y-78414571D01*
X146526285Y-78509809D01*
X147050095Y-75398380D02*
X146573904Y-75398380D01*
X146526285Y-75874571D01*
X146573904Y-75826952D01*
X146669142Y-75779333D01*
X146907238Y-75779333D01*
X147002476Y-75826952D01*
X147050095Y-75874571D01*
X147097714Y-75969809D01*
X147097714Y-76207904D01*
X147050095Y-76303142D01*
X147002476Y-76350761D01*
X146907238Y-76398380D01*
X146669142Y-76398380D01*
X146573904Y-76350761D01*
X146526285Y-76303142D01*
X147002476Y-73445714D02*
X147002476Y-74112380D01*
X146764380Y-73064761D02*
X146526285Y-73779047D01*
X147145333Y-73779047D01*
X146478666Y-70318380D02*
X147097714Y-70318380D01*
X146764380Y-70699333D01*
X146907238Y-70699333D01*
X147002476Y-70746952D01*
X147050095Y-70794571D01*
X147097714Y-70889809D01*
X147097714Y-71127904D01*
X147050095Y-71223142D01*
X147002476Y-71270761D01*
X146907238Y-71318380D01*
X146621523Y-71318380D01*
X146526285Y-71270761D01*
X146478666Y-71223142D01*
X146526285Y-67873619D02*
X146573904Y-67826000D01*
X146669142Y-67778380D01*
X146907238Y-67778380D01*
X147002476Y-67826000D01*
X147050095Y-67873619D01*
X147097714Y-67968857D01*
X147097714Y-68064095D01*
X147050095Y-68206952D01*
X146478666Y-68778380D01*
X147097714Y-68778380D01*
X147097714Y-66238380D02*
X146526285Y-66238380D01*
X146812000Y-66238380D02*
X146812000Y-65238380D01*
X146716761Y-65381238D01*
X146621523Y-65476476D01*
X146526285Y-65524095D01*
X147256666Y-85812380D02*
X147590000Y-86812380D01*
X147923333Y-85812380D01*
X148256666Y-86812380D02*
X148256666Y-85812380D01*
X148494761Y-85812380D01*
X148637619Y-85860000D01*
X148732857Y-85955238D01*
X148780476Y-86050476D01*
X148828095Y-86240952D01*
X148828095Y-86383809D01*
X148780476Y-86574285D01*
X148732857Y-86669523D01*
X148637619Y-86764761D01*
X148494761Y-86812380D01*
X148256666Y-86812380D01*
X149256666Y-86812380D02*
X149256666Y-85812380D01*
X149494761Y-85812380D01*
X149637619Y-85860000D01*
X149732857Y-85955238D01*
X149780476Y-86050476D01*
X149828095Y-86240952D01*
X149828095Y-86383809D01*
X149780476Y-86574285D01*
X149732857Y-86669523D01*
X149637619Y-86764761D01*
X149494761Y-86812380D01*
X149256666Y-86812380D01*
X147574095Y-88146000D02*
X147478857Y-88098380D01*
X147336000Y-88098380D01*
X147193142Y-88146000D01*
X147097904Y-88241238D01*
X147050285Y-88336476D01*
X147002666Y-88526952D01*
X147002666Y-88669809D01*
X147050285Y-88860285D01*
X147097904Y-88955523D01*
X147193142Y-89050761D01*
X147336000Y-89098380D01*
X147431238Y-89098380D01*
X147574095Y-89050761D01*
X147621714Y-89003142D01*
X147621714Y-88669809D01*
X147431238Y-88669809D01*
X148050285Y-89098380D02*
X148050285Y-88098380D01*
X148621714Y-89098380D01*
X148621714Y-88098380D01*
X149097904Y-89098380D02*
X149097904Y-88098380D01*
X149336000Y-88098380D01*
X149478857Y-88146000D01*
X149574095Y-88241238D01*
X149621714Y-88336476D01*
X149669333Y-88526952D01*
X149669333Y-88669809D01*
X149621714Y-88860285D01*
X149574095Y-88955523D01*
X149478857Y-89050761D01*
X149336000Y-89098380D01*
X149097904Y-89098380D01*
X141422380Y-99456761D02*
X140422380Y-99456761D01*
X141422380Y-98980571D02*
X140422380Y-98980571D01*
X141422380Y-98409142D01*
X140422380Y-98409142D01*
X140422380Y-98075809D02*
X140422380Y-97504380D01*
X141422380Y-97790095D02*
X140422380Y-97790095D01*
X138580761Y-99742476D02*
X138628380Y-99599619D01*
X138628380Y-99361523D01*
X138580761Y-99266285D01*
X138533142Y-99218666D01*
X138437904Y-99171047D01*
X138342666Y-99171047D01*
X138247428Y-99218666D01*
X138199809Y-99266285D01*
X138152190Y-99361523D01*
X138104571Y-99552000D01*
X138056952Y-99647238D01*
X138009333Y-99694857D01*
X137914095Y-99742476D01*
X137818857Y-99742476D01*
X137723619Y-99694857D01*
X137676000Y-99647238D01*
X137628380Y-99552000D01*
X137628380Y-99313904D01*
X137676000Y-99171047D01*
X138533142Y-98171047D02*
X138580761Y-98218666D01*
X138628380Y-98361523D01*
X138628380Y-98456761D01*
X138580761Y-98599619D01*
X138485523Y-98694857D01*
X138390285Y-98742476D01*
X138199809Y-98790095D01*
X138056952Y-98790095D01*
X137866476Y-98742476D01*
X137771238Y-98694857D01*
X137676000Y-98599619D01*
X137628380Y-98456761D01*
X137628380Y-98361523D01*
X137676000Y-98218666D01*
X137723619Y-98171047D01*
X138628380Y-97266285D02*
X138628380Y-97742476D01*
X137628380Y-97742476D01*
X135786761Y-99766285D02*
X135834380Y-99623428D01*
X135834380Y-99385333D01*
X135786761Y-99290095D01*
X135739142Y-99242476D01*
X135643904Y-99194857D01*
X135548666Y-99194857D01*
X135453428Y-99242476D01*
X135405809Y-99290095D01*
X135358190Y-99385333D01*
X135310571Y-99575809D01*
X135262952Y-99671047D01*
X135215333Y-99718666D01*
X135120095Y-99766285D01*
X135024857Y-99766285D01*
X134929619Y-99718666D01*
X134882000Y-99671047D01*
X134834380Y-99575809D01*
X134834380Y-99337714D01*
X134882000Y-99194857D01*
X135834380Y-98766285D02*
X134834380Y-98766285D01*
X134834380Y-98528190D01*
X134882000Y-98385333D01*
X134977238Y-98290095D01*
X135072476Y-98242476D01*
X135262952Y-98194857D01*
X135405809Y-98194857D01*
X135596285Y-98242476D01*
X135691523Y-98290095D01*
X135786761Y-98385333D01*
X135834380Y-98528190D01*
X135834380Y-98766285D01*
X135548666Y-97813904D02*
X135548666Y-97337714D01*
X135834380Y-97909142D02*
X134834380Y-97575809D01*
X135834380Y-97242476D01*
X132294380Y-99885333D02*
X133294380Y-99552000D01*
X132294380Y-99218666D01*
X133294380Y-98885333D02*
X132294380Y-98885333D01*
X132294380Y-98647238D01*
X132342000Y-98504380D01*
X132437238Y-98409142D01*
X132532476Y-98361523D01*
X132722952Y-98313904D01*
X132865809Y-98313904D01*
X133056285Y-98361523D01*
X133151523Y-98409142D01*
X133246761Y-98504380D01*
X133294380Y-98647238D01*
X133294380Y-98885333D01*
X133294380Y-97885333D02*
X132294380Y-97885333D01*
X132294380Y-97647238D01*
X132342000Y-97504380D01*
X132437238Y-97409142D01*
X132532476Y-97361523D01*
X132722952Y-97313904D01*
X132865809Y-97313904D01*
X133056285Y-97361523D01*
X133151523Y-97409142D01*
X133246761Y-97504380D01*
X133294380Y-97647238D01*
X133294380Y-97885333D01*
X130056000Y-99313904D02*
X130008380Y-99409142D01*
X130008380Y-99552000D01*
X130056000Y-99694857D01*
X130151238Y-99790095D01*
X130246476Y-99837714D01*
X130436952Y-99885333D01*
X130579809Y-99885333D01*
X130770285Y-99837714D01*
X130865523Y-99790095D01*
X130960761Y-99694857D01*
X131008380Y-99552000D01*
X131008380Y-99456761D01*
X130960761Y-99313904D01*
X130913142Y-99266285D01*
X130579809Y-99266285D01*
X130579809Y-99456761D01*
X131008380Y-98837714D02*
X130008380Y-98837714D01*
X131008380Y-98266285D01*
X130008380Y-98266285D01*
X131008380Y-97790095D02*
X130008380Y-97790095D01*
X130008380Y-97552000D01*
X130056000Y-97409142D01*
X130151238Y-97313904D01*
X130246476Y-97266285D01*
X130436952Y-97218666D01*
X130579809Y-97218666D01*
X130770285Y-97266285D01*
X130865523Y-97313904D01*
X130960761Y-97409142D01*
X131008380Y-97552000D01*
X131008380Y-97790095D01*
%TO.C,RELAY9*%
X119070380Y-84227952D02*
X118594190Y-84561285D01*
X119070380Y-84799380D02*
X118070380Y-84799380D01*
X118070380Y-84418428D01*
X118118000Y-84323190D01*
X118165619Y-84275571D01*
X118260857Y-84227952D01*
X118403714Y-84227952D01*
X118498952Y-84275571D01*
X118546571Y-84323190D01*
X118594190Y-84418428D01*
X118594190Y-84799380D01*
X118546571Y-83799380D02*
X118546571Y-83466047D01*
X119070380Y-83323190D02*
X119070380Y-83799380D01*
X118070380Y-83799380D01*
X118070380Y-83323190D01*
X119070380Y-82418428D02*
X119070380Y-82894619D01*
X118070380Y-82894619D01*
X118784666Y-82132714D02*
X118784666Y-81656523D01*
X119070380Y-82227952D02*
X118070380Y-81894619D01*
X119070380Y-81561285D01*
X118594190Y-81037476D02*
X119070380Y-81037476D01*
X118070380Y-81370809D02*
X118594190Y-81037476D01*
X118070380Y-80704142D01*
X119070380Y-80323190D02*
X119070380Y-80132714D01*
X119022761Y-80037476D01*
X118975142Y-79989857D01*
X118832285Y-79894619D01*
X118641809Y-79847000D01*
X118260857Y-79847000D01*
X118165619Y-79894619D01*
X118118000Y-79942238D01*
X118070380Y-80037476D01*
X118070380Y-80227952D01*
X118118000Y-80323190D01*
X118165619Y-80370809D01*
X118260857Y-80418428D01*
X118498952Y-80418428D01*
X118594190Y-80370809D01*
X118641809Y-80323190D01*
X118689428Y-80227952D01*
X118689428Y-80037476D01*
X118641809Y-79942238D01*
X118594190Y-79894619D01*
X118498952Y-79847000D01*
%TO.C,RELAY10*%
X103576380Y-84145142D02*
X103100190Y-84478476D01*
X103576380Y-84716571D02*
X102576380Y-84716571D01*
X102576380Y-84335619D01*
X102624000Y-84240380D01*
X102671619Y-84192761D01*
X102766857Y-84145142D01*
X102909714Y-84145142D01*
X103004952Y-84192761D01*
X103052571Y-84240380D01*
X103100190Y-84335619D01*
X103100190Y-84716571D01*
X103052571Y-83716571D02*
X103052571Y-83383238D01*
X103576380Y-83240380D02*
X103576380Y-83716571D01*
X102576380Y-83716571D01*
X102576380Y-83240380D01*
X103576380Y-82335619D02*
X103576380Y-82811809D01*
X102576380Y-82811809D01*
X103290666Y-82049904D02*
X103290666Y-81573714D01*
X103576380Y-82145142D02*
X102576380Y-81811809D01*
X103576380Y-81478476D01*
X103100190Y-80954666D02*
X103576380Y-80954666D01*
X102576380Y-81288000D02*
X103100190Y-80954666D01*
X102576380Y-80621333D01*
X103576380Y-79764190D02*
X103576380Y-80335619D01*
X103576380Y-80049904D02*
X102576380Y-80049904D01*
X102719238Y-80145142D01*
X102814476Y-80240380D01*
X102862095Y-80335619D01*
X102576380Y-79145142D02*
X102576380Y-79049904D01*
X102624000Y-78954666D01*
X102671619Y-78907047D01*
X102766857Y-78859428D01*
X102957333Y-78811809D01*
X103195428Y-78811809D01*
X103385904Y-78859428D01*
X103481142Y-78907047D01*
X103528761Y-78954666D01*
X103576380Y-79049904D01*
X103576380Y-79145142D01*
X103528761Y-79240380D01*
X103481142Y-79288000D01*
X103385904Y-79335619D01*
X103195428Y-79383238D01*
X102957333Y-79383238D01*
X102766857Y-79335619D01*
X102671619Y-79288000D01*
X102624000Y-79240380D01*
X102576380Y-79145142D01*
%TO.C,RELAY8*%
X176037047Y-95534380D02*
X175703714Y-95058190D01*
X175465619Y-95534380D02*
X175465619Y-94534380D01*
X175846571Y-94534380D01*
X175941809Y-94582000D01*
X175989428Y-94629619D01*
X176037047Y-94724857D01*
X176037047Y-94867714D01*
X175989428Y-94962952D01*
X175941809Y-95010571D01*
X175846571Y-95058190D01*
X175465619Y-95058190D01*
X176465619Y-95010571D02*
X176798952Y-95010571D01*
X176941809Y-95534380D02*
X176465619Y-95534380D01*
X176465619Y-94534380D01*
X176941809Y-94534380D01*
X177846571Y-95534380D02*
X177370380Y-95534380D01*
X177370380Y-94534380D01*
X178132285Y-95248666D02*
X178608476Y-95248666D01*
X178037047Y-95534380D02*
X178370380Y-94534380D01*
X178703714Y-95534380D01*
X179227523Y-95058190D02*
X179227523Y-95534380D01*
X178894190Y-94534380D02*
X179227523Y-95058190D01*
X179560857Y-94534380D01*
X180037047Y-94962952D02*
X179941809Y-94915333D01*
X179894190Y-94867714D01*
X179846571Y-94772476D01*
X179846571Y-94724857D01*
X179894190Y-94629619D01*
X179941809Y-94582000D01*
X180037047Y-94534380D01*
X180227523Y-94534380D01*
X180322761Y-94582000D01*
X180370380Y-94629619D01*
X180418000Y-94724857D01*
X180418000Y-94772476D01*
X180370380Y-94867714D01*
X180322761Y-94915333D01*
X180227523Y-94962952D01*
X180037047Y-94962952D01*
X179941809Y-95010571D01*
X179894190Y-95058190D01*
X179846571Y-95153428D01*
X179846571Y-95343904D01*
X179894190Y-95439142D01*
X179941809Y-95486761D01*
X180037047Y-95534380D01*
X180227523Y-95534380D01*
X180322761Y-95486761D01*
X180370380Y-95439142D01*
X180418000Y-95343904D01*
X180418000Y-95153428D01*
X180370380Y-95058190D01*
X180322761Y-95010571D01*
X180227523Y-94962952D01*
%TO.C,RELAY7*%
X175920047Y-85628380D02*
X175586714Y-85152190D01*
X175348619Y-85628380D02*
X175348619Y-84628380D01*
X175729571Y-84628380D01*
X175824809Y-84676000D01*
X175872428Y-84723619D01*
X175920047Y-84818857D01*
X175920047Y-84961714D01*
X175872428Y-85056952D01*
X175824809Y-85104571D01*
X175729571Y-85152190D01*
X175348619Y-85152190D01*
X176348619Y-85104571D02*
X176681952Y-85104571D01*
X176824809Y-85628380D02*
X176348619Y-85628380D01*
X176348619Y-84628380D01*
X176824809Y-84628380D01*
X177729571Y-85628380D02*
X177253380Y-85628380D01*
X177253380Y-84628380D01*
X178015285Y-85342666D02*
X178491476Y-85342666D01*
X177920047Y-85628380D02*
X178253380Y-84628380D01*
X178586714Y-85628380D01*
X179110523Y-85152190D02*
X179110523Y-85628380D01*
X178777190Y-84628380D02*
X179110523Y-85152190D01*
X179443857Y-84628380D01*
X179681952Y-84628380D02*
X180348619Y-84628380D01*
X179920047Y-85628380D01*
%TO.C,RELAY6*%
X175960047Y-76525380D02*
X175626714Y-76049190D01*
X175388619Y-76525380D02*
X175388619Y-75525380D01*
X175769571Y-75525380D01*
X175864809Y-75573000D01*
X175912428Y-75620619D01*
X175960047Y-75715857D01*
X175960047Y-75858714D01*
X175912428Y-75953952D01*
X175864809Y-76001571D01*
X175769571Y-76049190D01*
X175388619Y-76049190D01*
X176388619Y-76001571D02*
X176721952Y-76001571D01*
X176864809Y-76525380D02*
X176388619Y-76525380D01*
X176388619Y-75525380D01*
X176864809Y-75525380D01*
X177769571Y-76525380D02*
X177293380Y-76525380D01*
X177293380Y-75525380D01*
X178055285Y-76239666D02*
X178531476Y-76239666D01*
X177960047Y-76525380D02*
X178293380Y-75525380D01*
X178626714Y-76525380D01*
X179150523Y-76049190D02*
X179150523Y-76525380D01*
X178817190Y-75525380D02*
X179150523Y-76049190D01*
X179483857Y-75525380D01*
X180245761Y-75525380D02*
X180055285Y-75525380D01*
X179960047Y-75573000D01*
X179912428Y-75620619D01*
X179817190Y-75763476D01*
X179769571Y-75953952D01*
X179769571Y-76334904D01*
X179817190Y-76430142D01*
X179864809Y-76477761D01*
X179960047Y-76525380D01*
X180150523Y-76525380D01*
X180245761Y-76477761D01*
X180293380Y-76430142D01*
X180341000Y-76334904D01*
X180341000Y-76096809D01*
X180293380Y-76001571D01*
X180245761Y-75953952D01*
X180150523Y-75906333D01*
X179960047Y-75906333D01*
X179864809Y-75953952D01*
X179817190Y-76001571D01*
X179769571Y-76096809D01*
%TO.C,RELAY5*%
X175920047Y-66365380D02*
X175586714Y-65889190D01*
X175348619Y-66365380D02*
X175348619Y-65365380D01*
X175729571Y-65365380D01*
X175824809Y-65413000D01*
X175872428Y-65460619D01*
X175920047Y-65555857D01*
X175920047Y-65698714D01*
X175872428Y-65793952D01*
X175824809Y-65841571D01*
X175729571Y-65889190D01*
X175348619Y-65889190D01*
X176348619Y-65841571D02*
X176681952Y-65841571D01*
X176824809Y-66365380D02*
X176348619Y-66365380D01*
X176348619Y-65365380D01*
X176824809Y-65365380D01*
X177729571Y-66365380D02*
X177253380Y-66365380D01*
X177253380Y-65365380D01*
X178015285Y-66079666D02*
X178491476Y-66079666D01*
X177920047Y-66365380D02*
X178253380Y-65365380D01*
X178586714Y-66365380D01*
X179110523Y-65889190D02*
X179110523Y-66365380D01*
X178777190Y-65365380D02*
X179110523Y-65889190D01*
X179443857Y-65365380D01*
X180253380Y-65365380D02*
X179777190Y-65365380D01*
X179729571Y-65841571D01*
X179777190Y-65793952D01*
X179872428Y-65746333D01*
X180110523Y-65746333D01*
X180205761Y-65793952D01*
X180253380Y-65841571D01*
X180301000Y-65936809D01*
X180301000Y-66174904D01*
X180253380Y-66270142D01*
X180205761Y-66317761D01*
X180110523Y-66365380D01*
X179872428Y-66365380D01*
X179777190Y-66317761D01*
X179729571Y-66270142D01*
%TO.C,RELAY1*%
X137444380Y-55084952D02*
X136968190Y-55418285D01*
X137444380Y-55656380D02*
X136444380Y-55656380D01*
X136444380Y-55275428D01*
X136492000Y-55180190D01*
X136539619Y-55132571D01*
X136634857Y-55084952D01*
X136777714Y-55084952D01*
X136872952Y-55132571D01*
X136920571Y-55180190D01*
X136968190Y-55275428D01*
X136968190Y-55656380D01*
X136920571Y-54656380D02*
X136920571Y-54323047D01*
X137444380Y-54180190D02*
X137444380Y-54656380D01*
X136444380Y-54656380D01*
X136444380Y-54180190D01*
X137444380Y-53275428D02*
X137444380Y-53751619D01*
X136444380Y-53751619D01*
X137158666Y-52989714D02*
X137158666Y-52513523D01*
X137444380Y-53084952D02*
X136444380Y-52751619D01*
X137444380Y-52418285D01*
X136968190Y-51894476D02*
X137444380Y-51894476D01*
X136444380Y-52227809D02*
X136968190Y-51894476D01*
X136444380Y-51561142D01*
X137444380Y-50704000D02*
X137444380Y-51275428D01*
X137444380Y-50989714D02*
X136444380Y-50989714D01*
X136587238Y-51084952D01*
X136682476Y-51180190D01*
X136730095Y-51275428D01*
%TO.C,RELAY2*%
X147137380Y-54839952D02*
X146661190Y-55173285D01*
X147137380Y-55411380D02*
X146137380Y-55411380D01*
X146137380Y-55030428D01*
X146185000Y-54935190D01*
X146232619Y-54887571D01*
X146327857Y-54839952D01*
X146470714Y-54839952D01*
X146565952Y-54887571D01*
X146613571Y-54935190D01*
X146661190Y-55030428D01*
X146661190Y-55411380D01*
X146613571Y-54411380D02*
X146613571Y-54078047D01*
X147137380Y-53935190D02*
X147137380Y-54411380D01*
X146137380Y-54411380D01*
X146137380Y-53935190D01*
X147137380Y-53030428D02*
X147137380Y-53506619D01*
X146137380Y-53506619D01*
X146851666Y-52744714D02*
X146851666Y-52268523D01*
X147137380Y-52839952D02*
X146137380Y-52506619D01*
X147137380Y-52173285D01*
X146661190Y-51649476D02*
X147137380Y-51649476D01*
X146137380Y-51982809D02*
X146661190Y-51649476D01*
X146137380Y-51316142D01*
X146232619Y-51030428D02*
X146185000Y-50982809D01*
X146137380Y-50887571D01*
X146137380Y-50649476D01*
X146185000Y-50554238D01*
X146232619Y-50506619D01*
X146327857Y-50459000D01*
X146423095Y-50459000D01*
X146565952Y-50506619D01*
X147137380Y-51078047D01*
X147137380Y-50459000D01*
%TO.C,RELAY3*%
X156281380Y-54976952D02*
X155805190Y-55310285D01*
X156281380Y-55548380D02*
X155281380Y-55548380D01*
X155281380Y-55167428D01*
X155329000Y-55072190D01*
X155376619Y-55024571D01*
X155471857Y-54976952D01*
X155614714Y-54976952D01*
X155709952Y-55024571D01*
X155757571Y-55072190D01*
X155805190Y-55167428D01*
X155805190Y-55548380D01*
X155757571Y-54548380D02*
X155757571Y-54215047D01*
X156281380Y-54072190D02*
X156281380Y-54548380D01*
X155281380Y-54548380D01*
X155281380Y-54072190D01*
X156281380Y-53167428D02*
X156281380Y-53643619D01*
X155281380Y-53643619D01*
X155995666Y-52881714D02*
X155995666Y-52405523D01*
X156281380Y-52976952D02*
X155281380Y-52643619D01*
X156281380Y-52310285D01*
X155805190Y-51786476D02*
X156281380Y-51786476D01*
X155281380Y-52119809D02*
X155805190Y-51786476D01*
X155281380Y-51453142D01*
X155281380Y-51215047D02*
X155281380Y-50596000D01*
X155662333Y-50929333D01*
X155662333Y-50786476D01*
X155709952Y-50691238D01*
X155757571Y-50643619D01*
X155852809Y-50596000D01*
X156090904Y-50596000D01*
X156186142Y-50643619D01*
X156233761Y-50691238D01*
X156281380Y-50786476D01*
X156281380Y-51072190D01*
X156233761Y-51167428D01*
X156186142Y-51215047D01*
%TO.C,RELAY4*%
X165679380Y-54585952D02*
X165203190Y-54919285D01*
X165679380Y-55157380D02*
X164679380Y-55157380D01*
X164679380Y-54776428D01*
X164727000Y-54681190D01*
X164774619Y-54633571D01*
X164869857Y-54585952D01*
X165012714Y-54585952D01*
X165107952Y-54633571D01*
X165155571Y-54681190D01*
X165203190Y-54776428D01*
X165203190Y-55157380D01*
X165155571Y-54157380D02*
X165155571Y-53824047D01*
X165679380Y-53681190D02*
X165679380Y-54157380D01*
X164679380Y-54157380D01*
X164679380Y-53681190D01*
X165679380Y-52776428D02*
X165679380Y-53252619D01*
X164679380Y-53252619D01*
X165393666Y-52490714D02*
X165393666Y-52014523D01*
X165679380Y-52585952D02*
X164679380Y-52252619D01*
X165679380Y-51919285D01*
X165203190Y-51395476D02*
X165679380Y-51395476D01*
X164679380Y-51728809D02*
X165203190Y-51395476D01*
X164679380Y-51062142D01*
X165012714Y-50300238D02*
X165679380Y-50300238D01*
X164631761Y-50538333D02*
X165346047Y-50776428D01*
X165346047Y-50157380D01*
%TO.C,D14*%
X189453714Y-78430380D02*
X189453714Y-77430380D01*
X189691809Y-77430380D01*
X189834666Y-77478000D01*
X189929904Y-77573238D01*
X189977523Y-77668476D01*
X190025142Y-77858952D01*
X190025142Y-78001809D01*
X189977523Y-78192285D01*
X189929904Y-78287523D01*
X189834666Y-78382761D01*
X189691809Y-78430380D01*
X189453714Y-78430380D01*
X190977523Y-78430380D02*
X190406095Y-78430380D01*
X190691809Y-78430380D02*
X190691809Y-77430380D01*
X190596571Y-77573238D01*
X190501333Y-77668476D01*
X190406095Y-77716095D01*
X191834666Y-77763714D02*
X191834666Y-78430380D01*
X191596571Y-77382761D02*
X191358476Y-78097047D01*
X191977523Y-78097047D01*
X187555904Y-79160666D02*
X188032095Y-79160666D01*
X187460666Y-79446380D02*
X187794000Y-78446380D01*
X188127333Y-79446380D01*
%TO.C,D3*%
X137612380Y-58904095D02*
X136612380Y-58904095D01*
X136612380Y-58666000D01*
X136660000Y-58523142D01*
X136755238Y-58427904D01*
X136850476Y-58380285D01*
X137040952Y-58332666D01*
X137183809Y-58332666D01*
X137374285Y-58380285D01*
X137469523Y-58427904D01*
X137564761Y-58523142D01*
X137612380Y-58666000D01*
X137612380Y-58904095D01*
X136612380Y-57999333D02*
X136612380Y-57380285D01*
X136993333Y-57713619D01*
X136993333Y-57570761D01*
X137040952Y-57475523D01*
X137088571Y-57427904D01*
X137183809Y-57380285D01*
X137421904Y-57380285D01*
X137517142Y-57427904D01*
X137564761Y-57475523D01*
X137612380Y-57570761D01*
X137612380Y-57856476D01*
X137564761Y-57951714D01*
X137517142Y-57999333D01*
%TO.C,D7*%
X149083380Y-42149095D02*
X148083380Y-42149095D01*
X148083380Y-41911000D01*
X148131000Y-41768142D01*
X148226238Y-41672904D01*
X148321476Y-41625285D01*
X148511952Y-41577666D01*
X148654809Y-41577666D01*
X148845285Y-41625285D01*
X148940523Y-41672904D01*
X149035761Y-41768142D01*
X149083380Y-41911000D01*
X149083380Y-42149095D01*
X148083380Y-41244333D02*
X148083380Y-40577666D01*
X149083380Y-41006238D01*
X149813666Y-43593095D02*
X149813666Y-43116904D01*
X150099380Y-43688333D02*
X149099380Y-43355000D01*
X150099380Y-43021666D01*
%TO.C,D9*%
X147005380Y-58904095D02*
X146005380Y-58904095D01*
X146005380Y-58666000D01*
X146053000Y-58523142D01*
X146148238Y-58427904D01*
X146243476Y-58380285D01*
X146433952Y-58332666D01*
X146576809Y-58332666D01*
X146767285Y-58380285D01*
X146862523Y-58427904D01*
X146957761Y-58523142D01*
X147005380Y-58666000D01*
X147005380Y-58904095D01*
X147005380Y-57856476D02*
X147005380Y-57666000D01*
X146957761Y-57570761D01*
X146910142Y-57523142D01*
X146767285Y-57427904D01*
X146576809Y-57380285D01*
X146195857Y-57380285D01*
X146100619Y-57427904D01*
X146053000Y-57475523D01*
X146005380Y-57570761D01*
X146005380Y-57761238D01*
X146053000Y-57856476D01*
X146100619Y-57904095D01*
X146195857Y-57951714D01*
X146433952Y-57951714D01*
X146529190Y-57904095D01*
X146576809Y-57856476D01*
X146624428Y-57761238D01*
X146624428Y-57570761D01*
X146576809Y-57475523D01*
X146529190Y-57427904D01*
X146433952Y-57380285D01*
%TO.C,R8*%
X161734833Y-79828380D02*
X161401500Y-79352190D01*
X161163404Y-79828380D02*
X161163404Y-78828380D01*
X161544357Y-78828380D01*
X161639595Y-78876000D01*
X161687214Y-78923619D01*
X161734833Y-79018857D01*
X161734833Y-79161714D01*
X161687214Y-79256952D01*
X161639595Y-79304571D01*
X161544357Y-79352190D01*
X161163404Y-79352190D01*
X162306261Y-79256952D02*
X162211023Y-79209333D01*
X162163404Y-79161714D01*
X162115785Y-79066476D01*
X162115785Y-79018857D01*
X162163404Y-78923619D01*
X162211023Y-78876000D01*
X162306261Y-78828380D01*
X162496738Y-78828380D01*
X162591976Y-78876000D01*
X162639595Y-78923619D01*
X162687214Y-79018857D01*
X162687214Y-79066476D01*
X162639595Y-79161714D01*
X162591976Y-79209333D01*
X162496738Y-79256952D01*
X162306261Y-79256952D01*
X162211023Y-79304571D01*
X162163404Y-79352190D01*
X162115785Y-79447428D01*
X162115785Y-79637904D01*
X162163404Y-79733142D01*
X162211023Y-79780761D01*
X162306261Y-79828380D01*
X162496738Y-79828380D01*
X162591976Y-79780761D01*
X162639595Y-79733142D01*
X162687214Y-79637904D01*
X162687214Y-79447428D01*
X162639595Y-79352190D01*
X162591976Y-79304571D01*
X162496738Y-79256952D01*
%TO.C,U1*%
X126666595Y-61903880D02*
X126666595Y-62713404D01*
X126714214Y-62808642D01*
X126761833Y-62856261D01*
X126857071Y-62903880D01*
X127047547Y-62903880D01*
X127142785Y-62856261D01*
X127190404Y-62808642D01*
X127238023Y-62713404D01*
X127238023Y-61903880D01*
X128238023Y-62903880D02*
X127666595Y-62903880D01*
X127952309Y-62903880D02*
X127952309Y-61903880D01*
X127857071Y-62046738D01*
X127761833Y-62141976D01*
X127666595Y-62189595D01*
X132366595Y-62903880D02*
X132366595Y-61903880D01*
X132747547Y-61903880D01*
X132842785Y-61951500D01*
X132890404Y-61999119D01*
X132938023Y-62094357D01*
X132938023Y-62237214D01*
X132890404Y-62332452D01*
X132842785Y-62380071D01*
X132747547Y-62427690D01*
X132366595Y-62427690D01*
X133938023Y-62808642D02*
X133890404Y-62856261D01*
X133747547Y-62903880D01*
X133652309Y-62903880D01*
X133509452Y-62856261D01*
X133414214Y-62761023D01*
X133366595Y-62665785D01*
X133318976Y-62475309D01*
X133318976Y-62332452D01*
X133366595Y-62141976D01*
X133414214Y-62046738D01*
X133509452Y-61951500D01*
X133652309Y-61903880D01*
X133747547Y-61903880D01*
X133890404Y-61951500D01*
X133938023Y-61999119D01*
X134699928Y-62380071D02*
X134366595Y-62380071D01*
X134366595Y-62903880D02*
X134366595Y-61903880D01*
X134842785Y-61903880D01*
X135366595Y-62332452D02*
X135271357Y-62284833D01*
X135223738Y-62237214D01*
X135176119Y-62141976D01*
X135176119Y-62094357D01*
X135223738Y-61999119D01*
X135271357Y-61951500D01*
X135366595Y-61903880D01*
X135557071Y-61903880D01*
X135652309Y-61951500D01*
X135699928Y-61999119D01*
X135747547Y-62094357D01*
X135747547Y-62141976D01*
X135699928Y-62237214D01*
X135652309Y-62284833D01*
X135557071Y-62332452D01*
X135366595Y-62332452D01*
X135271357Y-62380071D01*
X135223738Y-62427690D01*
X135176119Y-62522928D01*
X135176119Y-62713404D01*
X135223738Y-62808642D01*
X135271357Y-62856261D01*
X135366595Y-62903880D01*
X135557071Y-62903880D01*
X135652309Y-62856261D01*
X135699928Y-62808642D01*
X135747547Y-62713404D01*
X135747547Y-62522928D01*
X135699928Y-62427690D01*
X135652309Y-62380071D01*
X135557071Y-62332452D01*
X136652309Y-61903880D02*
X136176119Y-61903880D01*
X136128500Y-62380071D01*
X136176119Y-62332452D01*
X136271357Y-62284833D01*
X136509452Y-62284833D01*
X136604690Y-62332452D01*
X136652309Y-62380071D01*
X136699928Y-62475309D01*
X136699928Y-62713404D01*
X136652309Y-62808642D01*
X136604690Y-62856261D01*
X136509452Y-62903880D01*
X136271357Y-62903880D01*
X136176119Y-62856261D01*
X136128500Y-62808642D01*
X137033261Y-61903880D02*
X137699928Y-61903880D01*
X137271357Y-62903880D01*
X138557071Y-61903880D02*
X138080880Y-61903880D01*
X138033261Y-62380071D01*
X138080880Y-62332452D01*
X138176119Y-62284833D01*
X138414214Y-62284833D01*
X138509452Y-62332452D01*
X138557071Y-62380071D01*
X138604690Y-62475309D01*
X138604690Y-62713404D01*
X138557071Y-62808642D01*
X138509452Y-62856261D01*
X138414214Y-62903880D01*
X138176119Y-62903880D01*
X138080880Y-62856261D01*
X138033261Y-62808642D01*
X138795166Y-62999119D02*
X139557071Y-62999119D01*
X140128500Y-62380071D02*
X140271357Y-62427690D01*
X140318976Y-62475309D01*
X140366595Y-62570547D01*
X140366595Y-62713404D01*
X140318976Y-62808642D01*
X140271357Y-62856261D01*
X140176119Y-62903880D01*
X139795166Y-62903880D01*
X139795166Y-61903880D01*
X140128500Y-61903880D01*
X140223738Y-61951500D01*
X140271357Y-61999119D01*
X140318976Y-62094357D01*
X140318976Y-62189595D01*
X140271357Y-62284833D01*
X140223738Y-62332452D01*
X140128500Y-62380071D01*
X139795166Y-62380071D01*
X140795166Y-62903880D02*
X140795166Y-62237214D01*
X140795166Y-62427690D02*
X140842785Y-62332452D01*
X140890404Y-62284833D01*
X140985642Y-62237214D01*
X141080880Y-62237214D01*
X141795166Y-62856261D02*
X141699928Y-62903880D01*
X141509452Y-62903880D01*
X141414214Y-62856261D01*
X141366595Y-62761023D01*
X141366595Y-62380071D01*
X141414214Y-62284833D01*
X141509452Y-62237214D01*
X141699928Y-62237214D01*
X141795166Y-62284833D01*
X141842785Y-62380071D01*
X141842785Y-62475309D01*
X141366595Y-62570547D01*
X142699928Y-62903880D02*
X142699928Y-62380071D01*
X142652309Y-62284833D01*
X142557071Y-62237214D01*
X142366595Y-62237214D01*
X142271357Y-62284833D01*
X142699928Y-62856261D02*
X142604690Y-62903880D01*
X142366595Y-62903880D01*
X142271357Y-62856261D01*
X142223738Y-62761023D01*
X142223738Y-62665785D01*
X142271357Y-62570547D01*
X142366595Y-62522928D01*
X142604690Y-62522928D01*
X142699928Y-62475309D01*
X143176119Y-62903880D02*
X143176119Y-61903880D01*
X143271357Y-62522928D02*
X143557071Y-62903880D01*
X143557071Y-62237214D02*
X143176119Y-62618166D01*
X144128500Y-62903880D02*
X144033261Y-62856261D01*
X143985642Y-62808642D01*
X143938023Y-62713404D01*
X143938023Y-62427690D01*
X143985642Y-62332452D01*
X144033261Y-62284833D01*
X144128500Y-62237214D01*
X144271357Y-62237214D01*
X144366595Y-62284833D01*
X144414214Y-62332452D01*
X144461833Y-62427690D01*
X144461833Y-62713404D01*
X144414214Y-62808642D01*
X144366595Y-62856261D01*
X144271357Y-62903880D01*
X144128500Y-62903880D01*
X145318976Y-62237214D02*
X145318976Y-62903880D01*
X144890404Y-62237214D02*
X144890404Y-62761023D01*
X144938023Y-62856261D01*
X145033261Y-62903880D01*
X145176119Y-62903880D01*
X145271357Y-62856261D01*
X145318976Y-62808642D01*
X145652309Y-62237214D02*
X146033261Y-62237214D01*
X145795166Y-61903880D02*
X145795166Y-62761023D01*
X145842785Y-62856261D01*
X145938023Y-62903880D01*
X146033261Y-62903880D01*
%TO.C,R9*%
X153503333Y-67382380D02*
X153170000Y-66906190D01*
X152931904Y-67382380D02*
X152931904Y-66382380D01*
X153312857Y-66382380D01*
X153408095Y-66430000D01*
X153455714Y-66477619D01*
X153503333Y-66572857D01*
X153503333Y-66715714D01*
X153455714Y-66810952D01*
X153408095Y-66858571D01*
X153312857Y-66906190D01*
X152931904Y-66906190D01*
X153979523Y-67382380D02*
X154170000Y-67382380D01*
X154265238Y-67334761D01*
X154312857Y-67287142D01*
X154408095Y-67144285D01*
X154455714Y-66953809D01*
X154455714Y-66572857D01*
X154408095Y-66477619D01*
X154360476Y-66430000D01*
X154265238Y-66382380D01*
X154074761Y-66382380D01*
X153979523Y-66430000D01*
X153931904Y-66477619D01*
X153884285Y-66572857D01*
X153884285Y-66810952D01*
X153931904Y-66906190D01*
X153979523Y-66953809D01*
X154074761Y-67001428D01*
X154265238Y-67001428D01*
X154360476Y-66953809D01*
X154408095Y-66906190D01*
X154455714Y-66810952D01*
%TO.C,R27*%
X109997642Y-67128380D02*
X109664309Y-66652190D01*
X109426214Y-67128380D02*
X109426214Y-66128380D01*
X109807166Y-66128380D01*
X109902404Y-66176000D01*
X109950023Y-66223619D01*
X109997642Y-66318857D01*
X109997642Y-66461714D01*
X109950023Y-66556952D01*
X109902404Y-66604571D01*
X109807166Y-66652190D01*
X109426214Y-66652190D01*
X110378595Y-66223619D02*
X110426214Y-66176000D01*
X110521452Y-66128380D01*
X110759547Y-66128380D01*
X110854785Y-66176000D01*
X110902404Y-66223619D01*
X110950023Y-66318857D01*
X110950023Y-66414095D01*
X110902404Y-66556952D01*
X110330976Y-67128380D01*
X110950023Y-67128380D01*
X111283357Y-66128380D02*
X111950023Y-66128380D01*
X111521452Y-67128380D01*
%TO.C,R25*%
X117467142Y-67128380D02*
X117133809Y-66652190D01*
X116895714Y-67128380D02*
X116895714Y-66128380D01*
X117276666Y-66128380D01*
X117371904Y-66176000D01*
X117419523Y-66223619D01*
X117467142Y-66318857D01*
X117467142Y-66461714D01*
X117419523Y-66556952D01*
X117371904Y-66604571D01*
X117276666Y-66652190D01*
X116895714Y-66652190D01*
X117848095Y-66223619D02*
X117895714Y-66176000D01*
X117990952Y-66128380D01*
X118229047Y-66128380D01*
X118324285Y-66176000D01*
X118371904Y-66223619D01*
X118419523Y-66318857D01*
X118419523Y-66414095D01*
X118371904Y-66556952D01*
X117800476Y-67128380D01*
X118419523Y-67128380D01*
X119324285Y-66128380D02*
X118848095Y-66128380D01*
X118800476Y-66604571D01*
X118848095Y-66556952D01*
X118943333Y-66509333D01*
X119181428Y-66509333D01*
X119276666Y-66556952D01*
X119324285Y-66604571D01*
X119371904Y-66699809D01*
X119371904Y-66937904D01*
X119324285Y-67033142D01*
X119276666Y-67080761D01*
X119181428Y-67128380D01*
X118943333Y-67128380D01*
X118848095Y-67080761D01*
X118800476Y-67033142D01*
%TO.C,D20*%
X110185380Y-78090285D02*
X109185380Y-78090285D01*
X109185380Y-77852190D01*
X109233000Y-77709333D01*
X109328238Y-77614095D01*
X109423476Y-77566476D01*
X109613952Y-77518857D01*
X109756809Y-77518857D01*
X109947285Y-77566476D01*
X110042523Y-77614095D01*
X110137761Y-77709333D01*
X110185380Y-77852190D01*
X110185380Y-78090285D01*
X109280619Y-77137904D02*
X109233000Y-77090285D01*
X109185380Y-76995047D01*
X109185380Y-76756952D01*
X109233000Y-76661714D01*
X109280619Y-76614095D01*
X109375857Y-76566476D01*
X109471095Y-76566476D01*
X109613952Y-76614095D01*
X110185380Y-77185523D01*
X110185380Y-76566476D01*
X109185380Y-75947428D02*
X109185380Y-75852190D01*
X109233000Y-75756952D01*
X109280619Y-75709333D01*
X109375857Y-75661714D01*
X109566333Y-75614095D01*
X109804428Y-75614095D01*
X109994904Y-75661714D01*
X110090142Y-75709333D01*
X110137761Y-75756952D01*
X110185380Y-75852190D01*
X110185380Y-75947428D01*
X110137761Y-76042666D01*
X110090142Y-76090285D01*
X109994904Y-76137904D01*
X109804428Y-76185523D01*
X109566333Y-76185523D01*
X109375857Y-76137904D01*
X109280619Y-76090285D01*
X109233000Y-76042666D01*
X109185380Y-75947428D01*
%TO.C,R23*%
X162171142Y-60904380D02*
X161837809Y-60428190D01*
X161599714Y-60904380D02*
X161599714Y-59904380D01*
X161980666Y-59904380D01*
X162075904Y-59952000D01*
X162123523Y-59999619D01*
X162171142Y-60094857D01*
X162171142Y-60237714D01*
X162123523Y-60332952D01*
X162075904Y-60380571D01*
X161980666Y-60428190D01*
X161599714Y-60428190D01*
X162552095Y-59999619D02*
X162599714Y-59952000D01*
X162694952Y-59904380D01*
X162933047Y-59904380D01*
X163028285Y-59952000D01*
X163075904Y-59999619D01*
X163123523Y-60094857D01*
X163123523Y-60190095D01*
X163075904Y-60332952D01*
X162504476Y-60904380D01*
X163123523Y-60904380D01*
X163456857Y-59904380D02*
X164075904Y-59904380D01*
X163742571Y-60285333D01*
X163885428Y-60285333D01*
X163980666Y-60332952D01*
X164028285Y-60380571D01*
X164075904Y-60475809D01*
X164075904Y-60713904D01*
X164028285Y-60809142D01*
X163980666Y-60856761D01*
X163885428Y-60904380D01*
X163599714Y-60904380D01*
X163504476Y-60856761D01*
X163456857Y-60809142D01*
%TO.C,R3*%
X161734833Y-64588380D02*
X161401500Y-64112190D01*
X161163404Y-64588380D02*
X161163404Y-63588380D01*
X161544357Y-63588380D01*
X161639595Y-63636000D01*
X161687214Y-63683619D01*
X161734833Y-63778857D01*
X161734833Y-63921714D01*
X161687214Y-64016952D01*
X161639595Y-64064571D01*
X161544357Y-64112190D01*
X161163404Y-64112190D01*
X162068166Y-63588380D02*
X162687214Y-63588380D01*
X162353880Y-63969333D01*
X162496738Y-63969333D01*
X162591976Y-64016952D01*
X162639595Y-64064571D01*
X162687214Y-64159809D01*
X162687214Y-64397904D01*
X162639595Y-64493142D01*
X162591976Y-64540761D01*
X162496738Y-64588380D01*
X162211023Y-64588380D01*
X162115785Y-64540761D01*
X162068166Y-64493142D01*
%TO.C,R19*%
X153027142Y-77542380D02*
X152693809Y-77066190D01*
X152455714Y-77542380D02*
X152455714Y-76542380D01*
X152836666Y-76542380D01*
X152931904Y-76590000D01*
X152979523Y-76637619D01*
X153027142Y-76732857D01*
X153027142Y-76875714D01*
X152979523Y-76970952D01*
X152931904Y-77018571D01*
X152836666Y-77066190D01*
X152455714Y-77066190D01*
X153979523Y-77542380D02*
X153408095Y-77542380D01*
X153693809Y-77542380D02*
X153693809Y-76542380D01*
X153598571Y-76685238D01*
X153503333Y-76780476D01*
X153408095Y-76828095D01*
X154455714Y-77542380D02*
X154646190Y-77542380D01*
X154741428Y-77494761D01*
X154789047Y-77447142D01*
X154884285Y-77304285D01*
X154931904Y-77113809D01*
X154931904Y-76732857D01*
X154884285Y-76637619D01*
X154836666Y-76590000D01*
X154741428Y-76542380D01*
X154550952Y-76542380D01*
X154455714Y-76590000D01*
X154408095Y-76637619D01*
X154360476Y-76732857D01*
X154360476Y-76970952D01*
X154408095Y-77066190D01*
X154455714Y-77113809D01*
X154550952Y-77161428D01*
X154741428Y-77161428D01*
X154836666Y-77113809D01*
X154884285Y-77066190D01*
X154931904Y-76970952D01*
%TO.C,R6*%
X171791333Y-60904380D02*
X171458000Y-60428190D01*
X171219904Y-60904380D02*
X171219904Y-59904380D01*
X171600857Y-59904380D01*
X171696095Y-59952000D01*
X171743714Y-59999619D01*
X171791333Y-60094857D01*
X171791333Y-60237714D01*
X171743714Y-60332952D01*
X171696095Y-60380571D01*
X171600857Y-60428190D01*
X171219904Y-60428190D01*
X172648476Y-59904380D02*
X172458000Y-59904380D01*
X172362761Y-59952000D01*
X172315142Y-59999619D01*
X172219904Y-60142476D01*
X172172285Y-60332952D01*
X172172285Y-60713904D01*
X172219904Y-60809142D01*
X172267523Y-60856761D01*
X172362761Y-60904380D01*
X172553238Y-60904380D01*
X172648476Y-60856761D01*
X172696095Y-60809142D01*
X172743714Y-60713904D01*
X172743714Y-60475809D01*
X172696095Y-60380571D01*
X172648476Y-60332952D01*
X172553238Y-60285333D01*
X172362761Y-60285333D01*
X172267523Y-60332952D01*
X172219904Y-60380571D01*
X172172285Y-60475809D01*
%TO.C,D17*%
X116784380Y-95702285D02*
X115784380Y-95702285D01*
X115784380Y-95464190D01*
X115832000Y-95321333D01*
X115927238Y-95226095D01*
X116022476Y-95178476D01*
X116212952Y-95130857D01*
X116355809Y-95130857D01*
X116546285Y-95178476D01*
X116641523Y-95226095D01*
X116736761Y-95321333D01*
X116784380Y-95464190D01*
X116784380Y-95702285D01*
X116784380Y-94178476D02*
X116784380Y-94749904D01*
X116784380Y-94464190D02*
X115784380Y-94464190D01*
X115927238Y-94559428D01*
X116022476Y-94654666D01*
X116070095Y-94749904D01*
X115784380Y-93845142D02*
X115784380Y-93178476D01*
X116784380Y-93607047D01*
X115736666Y-92274095D02*
X115736666Y-91797904D01*
X116022380Y-92369333D02*
X115022380Y-92036000D01*
X116022380Y-91702666D01*
%TO.C,D4*%
X165806380Y-58904095D02*
X164806380Y-58904095D01*
X164806380Y-58666000D01*
X164854000Y-58523142D01*
X164949238Y-58427904D01*
X165044476Y-58380285D01*
X165234952Y-58332666D01*
X165377809Y-58332666D01*
X165568285Y-58380285D01*
X165663523Y-58427904D01*
X165758761Y-58523142D01*
X165806380Y-58666000D01*
X165806380Y-58904095D01*
X165139714Y-57475523D02*
X165806380Y-57475523D01*
X164758761Y-57713619D02*
X165473047Y-57951714D01*
X165473047Y-57332666D01*
%TO.C,R20*%
X161409142Y-69668380D02*
X161075809Y-69192190D01*
X160837714Y-69668380D02*
X160837714Y-68668380D01*
X161218666Y-68668380D01*
X161313904Y-68716000D01*
X161361523Y-68763619D01*
X161409142Y-68858857D01*
X161409142Y-69001714D01*
X161361523Y-69096952D01*
X161313904Y-69144571D01*
X161218666Y-69192190D01*
X160837714Y-69192190D01*
X161790095Y-68763619D02*
X161837714Y-68716000D01*
X161932952Y-68668380D01*
X162171047Y-68668380D01*
X162266285Y-68716000D01*
X162313904Y-68763619D01*
X162361523Y-68858857D01*
X162361523Y-68954095D01*
X162313904Y-69096952D01*
X161742476Y-69668380D01*
X162361523Y-69668380D01*
X162980571Y-68668380D02*
X163075809Y-68668380D01*
X163171047Y-68716000D01*
X163218666Y-68763619D01*
X163266285Y-68858857D01*
X163313904Y-69049333D01*
X163313904Y-69287428D01*
X163266285Y-69477904D01*
X163218666Y-69573142D01*
X163171047Y-69620761D01*
X163075809Y-69668380D01*
X162980571Y-69668380D01*
X162885333Y-69620761D01*
X162837714Y-69573142D01*
X162790095Y-69477904D01*
X162742476Y-69287428D01*
X162742476Y-69049333D01*
X162790095Y-68858857D01*
X162837714Y-68763619D01*
X162885333Y-68716000D01*
X162980571Y-68668380D01*
%TO.C,R24*%
X170846380Y-82938857D02*
X170370190Y-83272190D01*
X170846380Y-83510285D02*
X169846380Y-83510285D01*
X169846380Y-83129333D01*
X169894000Y-83034095D01*
X169941619Y-82986476D01*
X170036857Y-82938857D01*
X170179714Y-82938857D01*
X170274952Y-82986476D01*
X170322571Y-83034095D01*
X170370190Y-83129333D01*
X170370190Y-83510285D01*
X169941619Y-82557904D02*
X169894000Y-82510285D01*
X169846380Y-82415047D01*
X169846380Y-82176952D01*
X169894000Y-82081714D01*
X169941619Y-82034095D01*
X170036857Y-81986476D01*
X170132095Y-81986476D01*
X170274952Y-82034095D01*
X170846380Y-82605523D01*
X170846380Y-81986476D01*
X170179714Y-81129333D02*
X170846380Y-81129333D01*
X169798761Y-81367428D02*
X170513047Y-81605523D01*
X170513047Y-80986476D01*
%TO.C,R5*%
X143851333Y-60904380D02*
X143518000Y-60428190D01*
X143279904Y-60904380D02*
X143279904Y-59904380D01*
X143660857Y-59904380D01*
X143756095Y-59952000D01*
X143803714Y-59999619D01*
X143851333Y-60094857D01*
X143851333Y-60237714D01*
X143803714Y-60332952D01*
X143756095Y-60380571D01*
X143660857Y-60428190D01*
X143279904Y-60428190D01*
X144756095Y-59904380D02*
X144279904Y-59904380D01*
X144232285Y-60380571D01*
X144279904Y-60332952D01*
X144375142Y-60285333D01*
X144613238Y-60285333D01*
X144708476Y-60332952D01*
X144756095Y-60380571D01*
X144803714Y-60475809D01*
X144803714Y-60713904D01*
X144756095Y-60809142D01*
X144708476Y-60856761D01*
X144613238Y-60904380D01*
X144375142Y-60904380D01*
X144279904Y-60856761D01*
X144232285Y-60809142D01*
%TO.C,R30*%
X110614142Y-74891880D02*
X110280809Y-74415690D01*
X110042714Y-74891880D02*
X110042714Y-73891880D01*
X110423666Y-73891880D01*
X110518904Y-73939500D01*
X110566523Y-73987119D01*
X110614142Y-74082357D01*
X110614142Y-74225214D01*
X110566523Y-74320452D01*
X110518904Y-74368071D01*
X110423666Y-74415690D01*
X110042714Y-74415690D01*
X110947476Y-73891880D02*
X111566523Y-73891880D01*
X111233190Y-74272833D01*
X111376047Y-74272833D01*
X111471285Y-74320452D01*
X111518904Y-74368071D01*
X111566523Y-74463309D01*
X111566523Y-74701404D01*
X111518904Y-74796642D01*
X111471285Y-74844261D01*
X111376047Y-74891880D01*
X111090333Y-74891880D01*
X110995095Y-74844261D01*
X110947476Y-74796642D01*
X112185571Y-73891880D02*
X112280809Y-73891880D01*
X112376047Y-73939500D01*
X112423666Y-73987119D01*
X112471285Y-74082357D01*
X112518904Y-74272833D01*
X112518904Y-74510928D01*
X112471285Y-74701404D01*
X112423666Y-74796642D01*
X112376047Y-74844261D01*
X112280809Y-74891880D01*
X112185571Y-74891880D01*
X112090333Y-74844261D01*
X112042714Y-74796642D01*
X111995095Y-74701404D01*
X111947476Y-74510928D01*
X111947476Y-74272833D01*
X111995095Y-74082357D01*
X112042714Y-73987119D01*
X112090333Y-73939500D01*
X112185571Y-73891880D01*
%TO.C,R1*%
X149185333Y-64588380D02*
X148852000Y-64112190D01*
X148613904Y-64588380D02*
X148613904Y-63588380D01*
X148994857Y-63588380D01*
X149090095Y-63636000D01*
X149137714Y-63683619D01*
X149185333Y-63778857D01*
X149185333Y-63921714D01*
X149137714Y-64016952D01*
X149090095Y-64064571D01*
X148994857Y-64112190D01*
X148613904Y-64112190D01*
X150137714Y-64588380D02*
X149566285Y-64588380D01*
X149852000Y-64588380D02*
X149852000Y-63588380D01*
X149756761Y-63731238D01*
X149661523Y-63826476D01*
X149566285Y-63874095D01*
%TO.C,D2*%
X168092380Y-41632095D02*
X167092380Y-41632095D01*
X167092380Y-41394000D01*
X167140000Y-41251142D01*
X167235238Y-41155904D01*
X167330476Y-41108285D01*
X167520952Y-41060666D01*
X167663809Y-41060666D01*
X167854285Y-41108285D01*
X167949523Y-41155904D01*
X168044761Y-41251142D01*
X168092380Y-41394000D01*
X168092380Y-41632095D01*
X167187619Y-40679714D02*
X167140000Y-40632095D01*
X167092380Y-40536857D01*
X167092380Y-40298761D01*
X167140000Y-40203523D01*
X167187619Y-40155904D01*
X167282857Y-40108285D01*
X167378095Y-40108285D01*
X167520952Y-40155904D01*
X168092380Y-40727333D01*
X168092380Y-40108285D01*
X168568666Y-43584095D02*
X168568666Y-43107904D01*
X168854380Y-43679333D02*
X167854380Y-43346000D01*
X168854380Y-43012666D01*
%TO.C,R4*%
X165949333Y-72208380D02*
X165616000Y-71732190D01*
X165377904Y-72208380D02*
X165377904Y-71208380D01*
X165758857Y-71208380D01*
X165854095Y-71256000D01*
X165901714Y-71303619D01*
X165949333Y-71398857D01*
X165949333Y-71541714D01*
X165901714Y-71636952D01*
X165854095Y-71684571D01*
X165758857Y-71732190D01*
X165377904Y-71732190D01*
X166806476Y-71541714D02*
X166806476Y-72208380D01*
X166568380Y-71160761D02*
X166330285Y-71875047D01*
X166949333Y-71875047D01*
%TO.C,D1*%
X139390380Y-42140095D02*
X138390380Y-42140095D01*
X138390380Y-41902000D01*
X138438000Y-41759142D01*
X138533238Y-41663904D01*
X138628476Y-41616285D01*
X138818952Y-41568666D01*
X138961809Y-41568666D01*
X139152285Y-41616285D01*
X139247523Y-41663904D01*
X139342761Y-41759142D01*
X139390380Y-41902000D01*
X139390380Y-42140095D01*
X139390380Y-40616285D02*
X139390380Y-41187714D01*
X139390380Y-40902000D02*
X138390380Y-40902000D01*
X138533238Y-40997238D01*
X138628476Y-41092476D01*
X138676095Y-41187714D01*
X140120666Y-43752095D02*
X140120666Y-43275904D01*
X140406380Y-43847333D02*
X139406380Y-43514000D01*
X140406380Y-43180666D01*
%TO.C,D13*%
X157932380Y-41854285D02*
X156932380Y-41854285D01*
X156932380Y-41616190D01*
X156980000Y-41473333D01*
X157075238Y-41378095D01*
X157170476Y-41330476D01*
X157360952Y-41282857D01*
X157503809Y-41282857D01*
X157694285Y-41330476D01*
X157789523Y-41378095D01*
X157884761Y-41473333D01*
X157932380Y-41616190D01*
X157932380Y-41854285D01*
X157932380Y-40330476D02*
X157932380Y-40901904D01*
X157932380Y-40616190D02*
X156932380Y-40616190D01*
X157075238Y-40711428D01*
X157170476Y-40806666D01*
X157218095Y-40901904D01*
X156932380Y-39997142D02*
X156932380Y-39378095D01*
X157313333Y-39711428D01*
X157313333Y-39568571D01*
X157360952Y-39473333D01*
X157408571Y-39425714D01*
X157503809Y-39378095D01*
X157741904Y-39378095D01*
X157837142Y-39425714D01*
X157884761Y-39473333D01*
X157932380Y-39568571D01*
X157932380Y-39854285D01*
X157884761Y-39949523D01*
X157837142Y-39997142D01*
X158916666Y-43498095D02*
X158916666Y-43021904D01*
X159202380Y-43593333D02*
X158202380Y-43260000D01*
X159202380Y-42926666D01*
%TO.C,D10*%
X171633714Y-65984380D02*
X171633714Y-64984380D01*
X171871809Y-64984380D01*
X172014666Y-65032000D01*
X172109904Y-65127238D01*
X172157523Y-65222476D01*
X172205142Y-65412952D01*
X172205142Y-65555809D01*
X172157523Y-65746285D01*
X172109904Y-65841523D01*
X172014666Y-65936761D01*
X171871809Y-65984380D01*
X171633714Y-65984380D01*
X173157523Y-65984380D02*
X172586095Y-65984380D01*
X172871809Y-65984380D02*
X172871809Y-64984380D01*
X172776571Y-65127238D01*
X172681333Y-65222476D01*
X172586095Y-65270095D01*
X173776571Y-64984380D02*
X173871809Y-64984380D01*
X173967047Y-65032000D01*
X174014666Y-65079619D01*
X174062285Y-65174857D01*
X174109904Y-65365333D01*
X174109904Y-65603428D01*
X174062285Y-65793904D01*
X174014666Y-65889142D01*
X173967047Y-65936761D01*
X173871809Y-65984380D01*
X173776571Y-65984380D01*
X173681333Y-65936761D01*
X173633714Y-65889142D01*
X173586095Y-65793904D01*
X173538476Y-65603428D01*
X173538476Y-65365333D01*
X173586095Y-65174857D01*
X173633714Y-65079619D01*
X173681333Y-65032000D01*
X173776571Y-64984380D01*
%TO.C,D6*%
X171855904Y-85501380D02*
X171855904Y-84501380D01*
X172094000Y-84501380D01*
X172236857Y-84549000D01*
X172332095Y-84644238D01*
X172379714Y-84739476D01*
X172427333Y-84929952D01*
X172427333Y-85072809D01*
X172379714Y-85263285D01*
X172332095Y-85358523D01*
X172236857Y-85453761D01*
X172094000Y-85501380D01*
X171855904Y-85501380D01*
X173284476Y-84501380D02*
X173094000Y-84501380D01*
X172998761Y-84549000D01*
X172951142Y-84596619D01*
X172855904Y-84739476D01*
X172808285Y-84929952D01*
X172808285Y-85310904D01*
X172855904Y-85406142D01*
X172903523Y-85453761D01*
X172998761Y-85501380D01*
X173189238Y-85501380D01*
X173284476Y-85453761D01*
X173332095Y-85406142D01*
X173379714Y-85310904D01*
X173379714Y-85072809D01*
X173332095Y-84977571D01*
X173284476Y-84929952D01*
X173189238Y-84882333D01*
X172998761Y-84882333D01*
X172903523Y-84929952D01*
X172855904Y-84977571D01*
X172808285Y-85072809D01*
%TO.C,R29*%
X120520142Y-75089380D02*
X120186809Y-74613190D01*
X119948714Y-75089380D02*
X119948714Y-74089380D01*
X120329666Y-74089380D01*
X120424904Y-74137000D01*
X120472523Y-74184619D01*
X120520142Y-74279857D01*
X120520142Y-74422714D01*
X120472523Y-74517952D01*
X120424904Y-74565571D01*
X120329666Y-74613190D01*
X119948714Y-74613190D01*
X120901095Y-74184619D02*
X120948714Y-74137000D01*
X121043952Y-74089380D01*
X121282047Y-74089380D01*
X121377285Y-74137000D01*
X121424904Y-74184619D01*
X121472523Y-74279857D01*
X121472523Y-74375095D01*
X121424904Y-74517952D01*
X120853476Y-75089380D01*
X121472523Y-75089380D01*
X121948714Y-75089380D02*
X122139190Y-75089380D01*
X122234428Y-75041761D01*
X122282047Y-74994142D01*
X122377285Y-74851285D01*
X122424904Y-74660809D01*
X122424904Y-74279857D01*
X122377285Y-74184619D01*
X122329666Y-74137000D01*
X122234428Y-74089380D01*
X122043952Y-74089380D01*
X121948714Y-74137000D01*
X121901095Y-74184619D01*
X121853476Y-74279857D01*
X121853476Y-74517952D01*
X121901095Y-74613190D01*
X121948714Y-74660809D01*
X122043952Y-74708428D01*
X122234428Y-74708428D01*
X122329666Y-74660809D01*
X122377285Y-74613190D01*
X122424904Y-74517952D01*
%TO.C,D19*%
X119578380Y-78090285D02*
X118578380Y-78090285D01*
X118578380Y-77852190D01*
X118626000Y-77709333D01*
X118721238Y-77614095D01*
X118816476Y-77566476D01*
X119006952Y-77518857D01*
X119149809Y-77518857D01*
X119340285Y-77566476D01*
X119435523Y-77614095D01*
X119530761Y-77709333D01*
X119578380Y-77852190D01*
X119578380Y-78090285D01*
X119578380Y-76566476D02*
X119578380Y-77137904D01*
X119578380Y-76852190D02*
X118578380Y-76852190D01*
X118721238Y-76947428D01*
X118816476Y-77042666D01*
X118864095Y-77137904D01*
X119578380Y-76090285D02*
X119578380Y-75899809D01*
X119530761Y-75804571D01*
X119483142Y-75756952D01*
X119340285Y-75661714D01*
X119149809Y-75614095D01*
X118768857Y-75614095D01*
X118673619Y-75661714D01*
X118626000Y-75709333D01*
X118578380Y-75804571D01*
X118578380Y-75995047D01*
X118626000Y-76090285D01*
X118673619Y-76137904D01*
X118768857Y-76185523D01*
X119006952Y-76185523D01*
X119102190Y-76137904D01*
X119149809Y-76090285D01*
X119197428Y-75995047D01*
X119197428Y-75804571D01*
X119149809Y-75709333D01*
X119102190Y-75661714D01*
X119006952Y-75614095D01*
%TO.C,R7*%
X149185333Y-79828380D02*
X148852000Y-79352190D01*
X148613904Y-79828380D02*
X148613904Y-78828380D01*
X148994857Y-78828380D01*
X149090095Y-78876000D01*
X149137714Y-78923619D01*
X149185333Y-79018857D01*
X149185333Y-79161714D01*
X149137714Y-79256952D01*
X149090095Y-79304571D01*
X148994857Y-79352190D01*
X148613904Y-79352190D01*
X149518666Y-78828380D02*
X150185333Y-78828380D01*
X149756761Y-79828380D01*
%TO.C,J1*%
X191944666Y-107402380D02*
X191944666Y-108116666D01*
X191897047Y-108259523D01*
X191801809Y-108354761D01*
X191658952Y-108402380D01*
X191563714Y-108402380D01*
X192944666Y-108402380D02*
X192373238Y-108402380D01*
X192658952Y-108402380D02*
X192658952Y-107402380D01*
X192563714Y-107545238D01*
X192468476Y-107640476D01*
X192373238Y-107688095D01*
%TO.C,R21*%
X165727142Y-77288380D02*
X165393809Y-76812190D01*
X165155714Y-77288380D02*
X165155714Y-76288380D01*
X165536666Y-76288380D01*
X165631904Y-76336000D01*
X165679523Y-76383619D01*
X165727142Y-76478857D01*
X165727142Y-76621714D01*
X165679523Y-76716952D01*
X165631904Y-76764571D01*
X165536666Y-76812190D01*
X165155714Y-76812190D01*
X166108095Y-76383619D02*
X166155714Y-76336000D01*
X166250952Y-76288380D01*
X166489047Y-76288380D01*
X166584285Y-76336000D01*
X166631904Y-76383619D01*
X166679523Y-76478857D01*
X166679523Y-76574095D01*
X166631904Y-76716952D01*
X166060476Y-77288380D01*
X166679523Y-77288380D01*
X167631904Y-77288380D02*
X167060476Y-77288380D01*
X167346190Y-77288380D02*
X167346190Y-76288380D01*
X167250952Y-76431238D01*
X167155714Y-76526476D01*
X167060476Y-76574095D01*
%TO.C,R15*%
X170949880Y-73540857D02*
X170473690Y-73874190D01*
X170949880Y-74112285D02*
X169949880Y-74112285D01*
X169949880Y-73731333D01*
X169997500Y-73636095D01*
X170045119Y-73588476D01*
X170140357Y-73540857D01*
X170283214Y-73540857D01*
X170378452Y-73588476D01*
X170426071Y-73636095D01*
X170473690Y-73731333D01*
X170473690Y-74112285D01*
X170949880Y-72588476D02*
X170949880Y-73159904D01*
X170949880Y-72874190D02*
X169949880Y-72874190D01*
X170092738Y-72969428D01*
X170187976Y-73064666D01*
X170235595Y-73159904D01*
X169949880Y-71683714D02*
X169949880Y-72159904D01*
X170426071Y-72207523D01*
X170378452Y-72159904D01*
X170330833Y-72064666D01*
X170330833Y-71826571D01*
X170378452Y-71731333D01*
X170426071Y-71683714D01*
X170521309Y-71636095D01*
X170759404Y-71636095D01*
X170854642Y-71683714D01*
X170902261Y-71731333D01*
X170949880Y-71826571D01*
X170949880Y-72064666D01*
X170902261Y-72159904D01*
X170854642Y-72207523D01*
%TO.C,R2*%
X153606833Y-72462380D02*
X153273500Y-71986190D01*
X153035404Y-72462380D02*
X153035404Y-71462380D01*
X153416357Y-71462380D01*
X153511595Y-71510000D01*
X153559214Y-71557619D01*
X153606833Y-71652857D01*
X153606833Y-71795714D01*
X153559214Y-71890952D01*
X153511595Y-71938571D01*
X153416357Y-71986190D01*
X153035404Y-71986190D01*
X153987785Y-71557619D02*
X154035404Y-71510000D01*
X154130642Y-71462380D01*
X154368738Y-71462380D01*
X154463976Y-71510000D01*
X154511595Y-71557619D01*
X154559214Y-71652857D01*
X154559214Y-71748095D01*
X154511595Y-71890952D01*
X153940166Y-72462380D01*
X154559214Y-72462380D01*
%TO.C,R16*%
X153027142Y-82368380D02*
X152693809Y-81892190D01*
X152455714Y-82368380D02*
X152455714Y-81368380D01*
X152836666Y-81368380D01*
X152931904Y-81416000D01*
X152979523Y-81463619D01*
X153027142Y-81558857D01*
X153027142Y-81701714D01*
X152979523Y-81796952D01*
X152931904Y-81844571D01*
X152836666Y-81892190D01*
X152455714Y-81892190D01*
X153979523Y-82368380D02*
X153408095Y-82368380D01*
X153693809Y-82368380D02*
X153693809Y-81368380D01*
X153598571Y-81511238D01*
X153503333Y-81606476D01*
X153408095Y-81654095D01*
X154836666Y-81368380D02*
X154646190Y-81368380D01*
X154550952Y-81416000D01*
X154503333Y-81463619D01*
X154408095Y-81606476D01*
X154360476Y-81796952D01*
X154360476Y-82177904D01*
X154408095Y-82273142D01*
X154455714Y-82320761D01*
X154550952Y-82368380D01*
X154741428Y-82368380D01*
X154836666Y-82320761D01*
X154884285Y-82273142D01*
X154931904Y-82177904D01*
X154931904Y-81939809D01*
X154884285Y-81844571D01*
X154836666Y-81796952D01*
X154741428Y-81749333D01*
X154550952Y-81749333D01*
X154455714Y-81796952D01*
X154408095Y-81844571D01*
X154360476Y-81939809D01*
%TO.C,D16*%
X171419714Y-76144380D02*
X171419714Y-75144380D01*
X171657809Y-75144380D01*
X171800666Y-75192000D01*
X171895904Y-75287238D01*
X171943523Y-75382476D01*
X171991142Y-75572952D01*
X171991142Y-75715809D01*
X171943523Y-75906285D01*
X171895904Y-76001523D01*
X171800666Y-76096761D01*
X171657809Y-76144380D01*
X171419714Y-76144380D01*
X172943523Y-76144380D02*
X172372095Y-76144380D01*
X172657809Y-76144380D02*
X172657809Y-75144380D01*
X172562571Y-75287238D01*
X172467333Y-75382476D01*
X172372095Y-75430095D01*
X173800666Y-75144380D02*
X173610190Y-75144380D01*
X173514952Y-75192000D01*
X173467333Y-75239619D01*
X173372095Y-75382476D01*
X173324476Y-75572952D01*
X173324476Y-75953904D01*
X173372095Y-76049142D01*
X173419714Y-76096761D01*
X173514952Y-76144380D01*
X173705428Y-76144380D01*
X173800666Y-76096761D01*
X173848285Y-76049142D01*
X173895904Y-75953904D01*
X173895904Y-75715809D01*
X173848285Y-75620571D01*
X173800666Y-75572952D01*
X173705428Y-75525333D01*
X173514952Y-75525333D01*
X173419714Y-75572952D01*
X173372095Y-75620571D01*
X173324476Y-75715809D01*
%TO.C,R28*%
X113760642Y-64588380D02*
X113427309Y-64112190D01*
X113189214Y-64588380D02*
X113189214Y-63588380D01*
X113570166Y-63588380D01*
X113665404Y-63636000D01*
X113713023Y-63683619D01*
X113760642Y-63778857D01*
X113760642Y-63921714D01*
X113713023Y-64016952D01*
X113665404Y-64064571D01*
X113570166Y-64112190D01*
X113189214Y-64112190D01*
X114141595Y-63683619D02*
X114189214Y-63636000D01*
X114284452Y-63588380D01*
X114522547Y-63588380D01*
X114617785Y-63636000D01*
X114665404Y-63683619D01*
X114713023Y-63778857D01*
X114713023Y-63874095D01*
X114665404Y-64016952D01*
X114093976Y-64588380D01*
X114713023Y-64588380D01*
X115284452Y-64016952D02*
X115189214Y-63969333D01*
X115141595Y-63921714D01*
X115093976Y-63826476D01*
X115093976Y-63778857D01*
X115141595Y-63683619D01*
X115189214Y-63636000D01*
X115284452Y-63588380D01*
X115474928Y-63588380D01*
X115570166Y-63636000D01*
X115617785Y-63683619D01*
X115665404Y-63778857D01*
X115665404Y-63826476D01*
X115617785Y-63921714D01*
X115570166Y-63969333D01*
X115474928Y-64016952D01*
X115284452Y-64016952D01*
X115189214Y-64064571D01*
X115141595Y-64112190D01*
X115093976Y-64207428D01*
X115093976Y-64397904D01*
X115141595Y-64493142D01*
X115189214Y-64540761D01*
X115284452Y-64588380D01*
X115474928Y-64588380D01*
X115570166Y-64540761D01*
X115617785Y-64493142D01*
X115665404Y-64397904D01*
X115665404Y-64207428D01*
X115617785Y-64112190D01*
X115570166Y-64064571D01*
X115474928Y-64016952D01*
%TO.C,D8*%
X189467904Y-67254380D02*
X189467904Y-66254380D01*
X189706000Y-66254380D01*
X189848857Y-66302000D01*
X189944095Y-66397238D01*
X189991714Y-66492476D01*
X190039333Y-66682952D01*
X190039333Y-66825809D01*
X189991714Y-67016285D01*
X189944095Y-67111523D01*
X189848857Y-67206761D01*
X189706000Y-67254380D01*
X189467904Y-67254380D01*
X190610761Y-66682952D02*
X190515523Y-66635333D01*
X190467904Y-66587714D01*
X190420285Y-66492476D01*
X190420285Y-66444857D01*
X190467904Y-66349619D01*
X190515523Y-66302000D01*
X190610761Y-66254380D01*
X190801238Y-66254380D01*
X190896476Y-66302000D01*
X190944095Y-66349619D01*
X190991714Y-66444857D01*
X190991714Y-66492476D01*
X190944095Y-66587714D01*
X190896476Y-66635333D01*
X190801238Y-66682952D01*
X190610761Y-66682952D01*
X190515523Y-66730571D01*
X190467904Y-66778190D01*
X190420285Y-66873428D01*
X190420285Y-67063904D01*
X190467904Y-67159142D01*
X190515523Y-67206761D01*
X190610761Y-67254380D01*
X190801238Y-67254380D01*
X190896476Y-67206761D01*
X190944095Y-67159142D01*
X190991714Y-67063904D01*
X190991714Y-66873428D01*
X190944095Y-66778190D01*
X190896476Y-66730571D01*
X190801238Y-66682952D01*
X187769904Y-68238666D02*
X188246095Y-68238666D01*
X187674666Y-68524380D02*
X188008000Y-67524380D01*
X188341333Y-68524380D01*
%TO.C,R13*%
X161258642Y-74748380D02*
X160925309Y-74272190D01*
X160687214Y-74748380D02*
X160687214Y-73748380D01*
X161068166Y-73748380D01*
X161163404Y-73796000D01*
X161211023Y-73843619D01*
X161258642Y-73938857D01*
X161258642Y-74081714D01*
X161211023Y-74176952D01*
X161163404Y-74224571D01*
X161068166Y-74272190D01*
X160687214Y-74272190D01*
X162211023Y-74748380D02*
X161639595Y-74748380D01*
X161925309Y-74748380D02*
X161925309Y-73748380D01*
X161830071Y-73891238D01*
X161734833Y-73986476D01*
X161639595Y-74034095D01*
X162544357Y-73748380D02*
X163163404Y-73748380D01*
X162830071Y-74129333D01*
X162972928Y-74129333D01*
X163068166Y-74176952D01*
X163115785Y-74224571D01*
X163163404Y-74319809D01*
X163163404Y-74557904D01*
X163115785Y-74653142D01*
X163068166Y-74700761D01*
X162972928Y-74748380D01*
X162687214Y-74748380D01*
X162591976Y-74700761D01*
X162544357Y-74653142D01*
%TO.C,R26*%
X121531142Y-64588380D02*
X121197809Y-64112190D01*
X120959714Y-64588380D02*
X120959714Y-63588380D01*
X121340666Y-63588380D01*
X121435904Y-63636000D01*
X121483523Y-63683619D01*
X121531142Y-63778857D01*
X121531142Y-63921714D01*
X121483523Y-64016952D01*
X121435904Y-64064571D01*
X121340666Y-64112190D01*
X120959714Y-64112190D01*
X121912095Y-63683619D02*
X121959714Y-63636000D01*
X122054952Y-63588380D01*
X122293047Y-63588380D01*
X122388285Y-63636000D01*
X122435904Y-63683619D01*
X122483523Y-63778857D01*
X122483523Y-63874095D01*
X122435904Y-64016952D01*
X121864476Y-64588380D01*
X122483523Y-64588380D01*
X123340666Y-63588380D02*
X123150190Y-63588380D01*
X123054952Y-63636000D01*
X123007333Y-63683619D01*
X122912095Y-63826476D01*
X122864476Y-64016952D01*
X122864476Y-64397904D01*
X122912095Y-64493142D01*
X122959714Y-64540761D01*
X123054952Y-64588380D01*
X123245428Y-64588380D01*
X123340666Y-64540761D01*
X123388285Y-64493142D01*
X123435904Y-64397904D01*
X123435904Y-64159809D01*
X123388285Y-64064571D01*
X123340666Y-64016952D01*
X123245428Y-63969333D01*
X123054952Y-63969333D01*
X122959714Y-64016952D01*
X122912095Y-64064571D01*
X122864476Y-64159809D01*
%TO.C,D15*%
X156154380Y-59380285D02*
X155154380Y-59380285D01*
X155154380Y-59142190D01*
X155202000Y-58999333D01*
X155297238Y-58904095D01*
X155392476Y-58856476D01*
X155582952Y-58808857D01*
X155725809Y-58808857D01*
X155916285Y-58856476D01*
X156011523Y-58904095D01*
X156106761Y-58999333D01*
X156154380Y-59142190D01*
X156154380Y-59380285D01*
X156154380Y-57856476D02*
X156154380Y-58427904D01*
X156154380Y-58142190D02*
X155154380Y-58142190D01*
X155297238Y-58237428D01*
X155392476Y-58332666D01*
X155440095Y-58427904D01*
X155154380Y-56951714D02*
X155154380Y-57427904D01*
X155630571Y-57475523D01*
X155582952Y-57427904D01*
X155535333Y-57332666D01*
X155535333Y-57094571D01*
X155582952Y-56999333D01*
X155630571Y-56951714D01*
X155725809Y-56904095D01*
X155963904Y-56904095D01*
X156059142Y-56951714D01*
X156106761Y-56999333D01*
X156154380Y-57094571D01*
X156154380Y-57332666D01*
X156106761Y-57427904D01*
X156059142Y-57475523D01*
%TO.C,J3*%
X197024666Y-37596380D02*
X197024666Y-38310666D01*
X196977047Y-38453523D01*
X196881809Y-38548761D01*
X196738952Y-38596380D01*
X196643714Y-38596380D01*
X197405619Y-37596380D02*
X198024666Y-37596380D01*
X197691333Y-37977333D01*
X197834190Y-37977333D01*
X197929428Y-38024952D01*
X197977047Y-38072571D01*
X198024666Y-38167809D01*
X198024666Y-38405904D01*
X197977047Y-38501142D01*
X197929428Y-38548761D01*
X197834190Y-38596380D01*
X197548476Y-38596380D01*
X197453238Y-38548761D01*
X197405619Y-38501142D01*
X195016380Y-37464666D02*
X195016380Y-38036095D01*
X195016380Y-37750380D02*
X194016380Y-37750380D01*
X194159238Y-37845619D01*
X194254476Y-37940857D01*
X194302095Y-38036095D01*
X194111619Y-37083714D02*
X194064000Y-37036095D01*
X194016380Y-36940857D01*
X194016380Y-36702761D01*
X194064000Y-36607523D01*
X194111619Y-36559904D01*
X194206857Y-36512285D01*
X194302095Y-36512285D01*
X194444952Y-36559904D01*
X195016380Y-37131333D01*
X195016380Y-36512285D01*
X194016380Y-36226571D02*
X195016380Y-35893238D01*
X194016380Y-35559904D01*
X195016380Y-33988476D02*
X195016380Y-34464666D01*
X194016380Y-34464666D01*
X195016380Y-33655142D02*
X194349714Y-33655142D01*
X194016380Y-33655142D02*
X194064000Y-33702761D01*
X194111619Y-33655142D01*
X194064000Y-33607523D01*
X194016380Y-33655142D01*
X194111619Y-33655142D01*
X195016380Y-33178952D02*
X194016380Y-33178952D01*
X194016380Y-32798000D01*
X194064000Y-32702761D01*
X194111619Y-32655142D01*
X194206857Y-32607523D01*
X194349714Y-32607523D01*
X194444952Y-32655142D01*
X194492571Y-32702761D01*
X194540190Y-32798000D01*
X194540190Y-33178952D01*
X194016380Y-31988476D02*
X194016380Y-31798000D01*
X194064000Y-31702761D01*
X194159238Y-31607523D01*
X194349714Y-31559904D01*
X194683047Y-31559904D01*
X194873523Y-31607523D01*
X194968761Y-31702761D01*
X195016380Y-31798000D01*
X195016380Y-31988476D01*
X194968761Y-32083714D01*
X194873523Y-32178952D01*
X194683047Y-32226571D01*
X194349714Y-32226571D01*
X194159238Y-32178952D01*
X194064000Y-32083714D01*
X194016380Y-31988476D01*
%TO.C,R12*%
X165473142Y-67128380D02*
X165139809Y-66652190D01*
X164901714Y-67128380D02*
X164901714Y-66128380D01*
X165282666Y-66128380D01*
X165377904Y-66176000D01*
X165425523Y-66223619D01*
X165473142Y-66318857D01*
X165473142Y-66461714D01*
X165425523Y-66556952D01*
X165377904Y-66604571D01*
X165282666Y-66652190D01*
X164901714Y-66652190D01*
X166425523Y-67128380D02*
X165854095Y-67128380D01*
X166139809Y-67128380D02*
X166139809Y-66128380D01*
X166044571Y-66271238D01*
X165949333Y-66366476D01*
X165854095Y-66414095D01*
X166806476Y-66223619D02*
X166854095Y-66176000D01*
X166949333Y-66128380D01*
X167187428Y-66128380D01*
X167282666Y-66176000D01*
X167330285Y-66223619D01*
X167377904Y-66318857D01*
X167377904Y-66414095D01*
X167330285Y-66556952D01*
X166758857Y-67128380D01*
X167377904Y-67128380D01*
%TO.C,R17*%
X165830642Y-82114380D02*
X165497309Y-81638190D01*
X165259214Y-82114380D02*
X165259214Y-81114380D01*
X165640166Y-81114380D01*
X165735404Y-81162000D01*
X165783023Y-81209619D01*
X165830642Y-81304857D01*
X165830642Y-81447714D01*
X165783023Y-81542952D01*
X165735404Y-81590571D01*
X165640166Y-81638190D01*
X165259214Y-81638190D01*
X166783023Y-82114380D02*
X166211595Y-82114380D01*
X166497309Y-82114380D02*
X166497309Y-81114380D01*
X166402071Y-81257238D01*
X166306833Y-81352476D01*
X166211595Y-81400095D01*
X167116357Y-81114380D02*
X167783023Y-81114380D01*
X167354452Y-82114380D01*
%TO.C,J2*%
X93692380Y-61298333D02*
X94406666Y-61298333D01*
X94549523Y-61345952D01*
X94644761Y-61441190D01*
X94692380Y-61584047D01*
X94692380Y-61679285D01*
X93787619Y-60869761D02*
X93740000Y-60822142D01*
X93692380Y-60726904D01*
X93692380Y-60488809D01*
X93740000Y-60393571D01*
X93787619Y-60345952D01*
X93882857Y-60298333D01*
X93978095Y-60298333D01*
X94120952Y-60345952D01*
X94692380Y-60917380D01*
X94692380Y-60298333D01*
%TO.C,D5*%
X189721904Y-87234380D02*
X189721904Y-86234380D01*
X189960000Y-86234380D01*
X190102857Y-86282000D01*
X190198095Y-86377238D01*
X190245714Y-86472476D01*
X190293333Y-86662952D01*
X190293333Y-86805809D01*
X190245714Y-86996285D01*
X190198095Y-87091523D01*
X190102857Y-87186761D01*
X189960000Y-87234380D01*
X189721904Y-87234380D01*
X191198095Y-86234380D02*
X190721904Y-86234380D01*
X190674285Y-86710571D01*
X190721904Y-86662952D01*
X190817142Y-86615333D01*
X191055238Y-86615333D01*
X191150476Y-86662952D01*
X191198095Y-86710571D01*
X191245714Y-86805809D01*
X191245714Y-87043904D01*
X191198095Y-87139142D01*
X191150476Y-87186761D01*
X191055238Y-87234380D01*
X190817142Y-87234380D01*
X190721904Y-87186761D01*
X190674285Y-87139142D01*
X187769904Y-87796666D02*
X188246095Y-87796666D01*
X187674666Y-88082380D02*
X188008000Y-87082380D01*
X188341333Y-88082380D01*
%TO.C,D12*%
X171379714Y-94899380D02*
X171379714Y-93899380D01*
X171617809Y-93899380D01*
X171760666Y-93947000D01*
X171855904Y-94042238D01*
X171903523Y-94137476D01*
X171951142Y-94327952D01*
X171951142Y-94470809D01*
X171903523Y-94661285D01*
X171855904Y-94756523D01*
X171760666Y-94851761D01*
X171617809Y-94899380D01*
X171379714Y-94899380D01*
X172903523Y-94899380D02*
X172332095Y-94899380D01*
X172617809Y-94899380D02*
X172617809Y-93899380D01*
X172522571Y-94042238D01*
X172427333Y-94137476D01*
X172332095Y-94185095D01*
X173284476Y-93994619D02*
X173332095Y-93947000D01*
X173427333Y-93899380D01*
X173665428Y-93899380D01*
X173760666Y-93947000D01*
X173808285Y-93994619D01*
X173855904Y-94089857D01*
X173855904Y-94185095D01*
X173808285Y-94327952D01*
X173236857Y-94899380D01*
X173855904Y-94899380D01*
%TO.C,R11*%
X148709142Y-74748380D02*
X148375809Y-74272190D01*
X148137714Y-74748380D02*
X148137714Y-73748380D01*
X148518666Y-73748380D01*
X148613904Y-73796000D01*
X148661523Y-73843619D01*
X148709142Y-73938857D01*
X148709142Y-74081714D01*
X148661523Y-74176952D01*
X148613904Y-74224571D01*
X148518666Y-74272190D01*
X148137714Y-74272190D01*
X149661523Y-74748380D02*
X149090095Y-74748380D01*
X149375809Y-74748380D02*
X149375809Y-73748380D01*
X149280571Y-73891238D01*
X149185333Y-73986476D01*
X149090095Y-74034095D01*
X150613904Y-74748380D02*
X150042476Y-74748380D01*
X150328190Y-74748380D02*
X150328190Y-73748380D01*
X150232952Y-73891238D01*
X150137714Y-73986476D01*
X150042476Y-74034095D01*
%TO.C,D11*%
X189327714Y-97693380D02*
X189327714Y-96693380D01*
X189565809Y-96693380D01*
X189708666Y-96741000D01*
X189803904Y-96836238D01*
X189851523Y-96931476D01*
X189899142Y-97121952D01*
X189899142Y-97264809D01*
X189851523Y-97455285D01*
X189803904Y-97550523D01*
X189708666Y-97645761D01*
X189565809Y-97693380D01*
X189327714Y-97693380D01*
X190851523Y-97693380D02*
X190280095Y-97693380D01*
X190565809Y-97693380D02*
X190565809Y-96693380D01*
X190470571Y-96836238D01*
X190375333Y-96931476D01*
X190280095Y-96979095D01*
X191803904Y-97693380D02*
X191232476Y-97693380D01*
X191518190Y-97693380D02*
X191518190Y-96693380D01*
X191422952Y-96836238D01*
X191327714Y-96931476D01*
X191232476Y-96979095D01*
X187683904Y-98423666D02*
X188160095Y-98423666D01*
X187588666Y-98709380D02*
X187922000Y-97709380D01*
X188255333Y-98709380D01*
%TO.C,R14*%
X152773142Y-60904380D02*
X152439809Y-60428190D01*
X152201714Y-60904380D02*
X152201714Y-59904380D01*
X152582666Y-59904380D01*
X152677904Y-59952000D01*
X152725523Y-59999619D01*
X152773142Y-60094857D01*
X152773142Y-60237714D01*
X152725523Y-60332952D01*
X152677904Y-60380571D01*
X152582666Y-60428190D01*
X152201714Y-60428190D01*
X153725523Y-60904380D02*
X153154095Y-60904380D01*
X153439809Y-60904380D02*
X153439809Y-59904380D01*
X153344571Y-60047238D01*
X153249333Y-60142476D01*
X153154095Y-60190095D01*
X154582666Y-60237714D02*
X154582666Y-60904380D01*
X154344571Y-59856761D02*
X154106476Y-60571047D01*
X154725523Y-60571047D01*
%TO.C,R22*%
X170592380Y-102242857D02*
X170116190Y-102576190D01*
X170592380Y-102814285D02*
X169592380Y-102814285D01*
X169592380Y-102433333D01*
X169640000Y-102338095D01*
X169687619Y-102290476D01*
X169782857Y-102242857D01*
X169925714Y-102242857D01*
X170020952Y-102290476D01*
X170068571Y-102338095D01*
X170116190Y-102433333D01*
X170116190Y-102814285D01*
X169687619Y-101861904D02*
X169640000Y-101814285D01*
X169592380Y-101719047D01*
X169592380Y-101480952D01*
X169640000Y-101385714D01*
X169687619Y-101338095D01*
X169782857Y-101290476D01*
X169878095Y-101290476D01*
X170020952Y-101338095D01*
X170592380Y-101909523D01*
X170592380Y-101290476D01*
X169687619Y-100909523D02*
X169640000Y-100861904D01*
X169592380Y-100766666D01*
X169592380Y-100528571D01*
X169640000Y-100433333D01*
X169687619Y-100385714D01*
X169782857Y-100338095D01*
X169878095Y-100338095D01*
X170020952Y-100385714D01*
X170592380Y-100957142D01*
X170592380Y-100338095D01*
%TO.C,R10*%
X170552380Y-92549857D02*
X170076190Y-92883190D01*
X170552380Y-93121285D02*
X169552380Y-93121285D01*
X169552380Y-92740333D01*
X169600000Y-92645095D01*
X169647619Y-92597476D01*
X169742857Y-92549857D01*
X169885714Y-92549857D01*
X169980952Y-92597476D01*
X170028571Y-92645095D01*
X170076190Y-92740333D01*
X170076190Y-93121285D01*
X170552380Y-91597476D02*
X170552380Y-92168904D01*
X170552380Y-91883190D02*
X169552380Y-91883190D01*
X169695238Y-91978428D01*
X169790476Y-92073666D01*
X169838095Y-92168904D01*
X169552380Y-90978428D02*
X169552380Y-90883190D01*
X169600000Y-90787952D01*
X169647619Y-90740333D01*
X169742857Y-90692714D01*
X169933333Y-90645095D01*
X170171428Y-90645095D01*
X170361904Y-90692714D01*
X170457142Y-90740333D01*
X170504761Y-90787952D01*
X170552380Y-90883190D01*
X170552380Y-90978428D01*
X170504761Y-91073666D01*
X170457142Y-91121285D01*
X170361904Y-91168904D01*
X170171428Y-91216523D01*
X169933333Y-91216523D01*
X169742857Y-91168904D01*
X169647619Y-91121285D01*
X169600000Y-91073666D01*
X169552380Y-90978428D01*
%TO.C,D18*%
X108661380Y-96210285D02*
X107661380Y-96210285D01*
X107661380Y-95972190D01*
X107709000Y-95829333D01*
X107804238Y-95734095D01*
X107899476Y-95686476D01*
X108089952Y-95638857D01*
X108232809Y-95638857D01*
X108423285Y-95686476D01*
X108518523Y-95734095D01*
X108613761Y-95829333D01*
X108661380Y-95972190D01*
X108661380Y-96210285D01*
X108661380Y-94686476D02*
X108661380Y-95257904D01*
X108661380Y-94972190D02*
X107661380Y-94972190D01*
X107804238Y-95067428D01*
X107899476Y-95162666D01*
X107947095Y-95257904D01*
X108089952Y-94115047D02*
X108042333Y-94210285D01*
X107994714Y-94257904D01*
X107899476Y-94305523D01*
X107851857Y-94305523D01*
X107756619Y-94257904D01*
X107709000Y-94210285D01*
X107661380Y-94115047D01*
X107661380Y-93924571D01*
X107709000Y-93829333D01*
X107756619Y-93781714D01*
X107851857Y-93734095D01*
X107899476Y-93734095D01*
X107994714Y-93781714D01*
X108042333Y-93829333D01*
X108089952Y-93924571D01*
X108089952Y-94115047D01*
X108137571Y-94210285D01*
X108185190Y-94257904D01*
X108280428Y-94305523D01*
X108470904Y-94305523D01*
X108566142Y-94257904D01*
X108613761Y-94210285D01*
X108661380Y-94115047D01*
X108661380Y-93924571D01*
X108613761Y-93829333D01*
X108566142Y-93781714D01*
X108470904Y-93734095D01*
X108280428Y-93734095D01*
X108185190Y-93781714D01*
X108137571Y-93829333D01*
X108089952Y-93924571D01*
X107359666Y-92442095D02*
X107359666Y-91965904D01*
X107645380Y-92537333D02*
X106645380Y-92204000D01*
X107645380Y-91870666D01*
%TO.C,R18*%
X148709142Y-69922380D02*
X148375809Y-69446190D01*
X148137714Y-69922380D02*
X148137714Y-68922380D01*
X148518666Y-68922380D01*
X148613904Y-68970000D01*
X148661523Y-69017619D01*
X148709142Y-69112857D01*
X148709142Y-69255714D01*
X148661523Y-69350952D01*
X148613904Y-69398571D01*
X148518666Y-69446190D01*
X148137714Y-69446190D01*
X149661523Y-69922380D02*
X149090095Y-69922380D01*
X149375809Y-69922380D02*
X149375809Y-68922380D01*
X149280571Y-69065238D01*
X149185333Y-69160476D01*
X149090095Y-69208095D01*
X150232952Y-69350952D02*
X150137714Y-69303333D01*
X150090095Y-69255714D01*
X150042476Y-69160476D01*
X150042476Y-69112857D01*
X150090095Y-69017619D01*
X150137714Y-68970000D01*
X150232952Y-68922380D01*
X150423428Y-68922380D01*
X150518666Y-68970000D01*
X150566285Y-69017619D01*
X150613904Y-69112857D01*
X150613904Y-69160476D01*
X150566285Y-69255714D01*
X150518666Y-69303333D01*
X150423428Y-69350952D01*
X150232952Y-69350952D01*
X150137714Y-69398571D01*
X150090095Y-69446190D01*
X150042476Y-69541428D01*
X150042476Y-69731904D01*
X150090095Y-69827142D01*
X150137714Y-69874761D01*
X150232952Y-69922380D01*
X150423428Y-69922380D01*
X150518666Y-69874761D01*
X150566285Y-69827142D01*
X150613904Y-69731904D01*
X150613904Y-69541428D01*
X150566285Y-69446190D01*
X150518666Y-69398571D01*
X150423428Y-69350952D01*
D12*
%TO.C,RELAY9*%
X116891000Y-80202000D02*
X116891000Y-83202000D01*
X113741000Y-80202000D02*
X113741000Y-83202000D01*
D13*
X116416000Y-79302000D02*
G75*
G03*
X116416000Y-79302000I-100000J0D01*
G01*
D12*
%TO.C,RELAY10*%
X104856000Y-80202000D02*
X104856000Y-83202000D01*
X108006000Y-80202000D02*
X108006000Y-83202000D01*
D13*
X107531000Y-79302000D02*
G75*
G03*
X107531000Y-79302000I-100000J0D01*
G01*
D12*
%TO.C,RELAY8*%
X175783000Y-99832000D02*
X178783000Y-99832000D01*
X175783000Y-96682000D02*
X178783000Y-96682000D01*
D13*
X174983000Y-97257000D02*
G75*
G03*
X174983000Y-97257000I-100000J0D01*
G01*
D12*
%TO.C,RELAY7*%
X175666000Y-89926000D02*
X178666000Y-89926000D01*
X175666000Y-86776000D02*
X178666000Y-86776000D01*
D13*
X174866000Y-87351000D02*
G75*
G03*
X174866000Y-87351000I-100000J0D01*
G01*
D12*
%TO.C,RELAY6*%
X175706000Y-80823000D02*
X178706000Y-80823000D01*
X175706000Y-77673000D02*
X178706000Y-77673000D01*
D13*
X174906000Y-78248000D02*
G75*
G03*
X174906000Y-78248000I-100000J0D01*
G01*
D12*
%TO.C,RELAY5*%
X175666000Y-70663000D02*
X178666000Y-70663000D01*
X175666000Y-67513000D02*
X178666000Y-67513000D01*
D13*
X174866000Y-68088000D02*
G75*
G03*
X174866000Y-68088000I-100000J0D01*
G01*
D12*
%TO.C,RELAY1*%
X138592000Y-55339000D02*
X138592000Y-52339000D01*
X141742000Y-55339000D02*
X141742000Y-52339000D01*
D13*
X139267000Y-56239000D02*
G75*
G03*
X139267000Y-56239000I-100000J0D01*
G01*
D12*
%TO.C,RELAY2*%
X148285000Y-55094000D02*
X148285000Y-52094000D01*
X151435000Y-55094000D02*
X151435000Y-52094000D01*
D13*
X148960000Y-55994000D02*
G75*
G03*
X148960000Y-55994000I-100000J0D01*
G01*
D12*
%TO.C,RELAY3*%
X157429000Y-55231000D02*
X157429000Y-52231000D01*
X160579000Y-55231000D02*
X160579000Y-52231000D01*
D13*
X158104000Y-56131000D02*
G75*
G03*
X158104000Y-56131000I-100000J0D01*
G01*
D12*
%TO.C,RELAY4*%
X169977000Y-54840000D02*
X169977000Y-51840000D01*
X166827000Y-54840000D02*
X166827000Y-51840000D01*
D13*
X167502000Y-55740000D02*
G75*
G03*
X167502000Y-55740000I-100000J0D01*
G01*
D14*
%TO.C,D14*%
X184648596Y-77874000D02*
G75*
G03*
X184590371Y-80188732I-1514596J-1120000D01*
G01*
%TO.C,D3*%
X138493000Y-59426000D02*
X141913000Y-59426000D01*
X138613000Y-56906000D02*
X138613000Y-57086000D01*
X138733000Y-59246000D02*
X138733000Y-59426000D01*
X138493000Y-56906000D02*
X141913000Y-56906000D01*
X138733000Y-56906000D02*
X138733000Y-57086000D01*
X138613000Y-59246000D02*
X138613000Y-59426000D01*
X141913000Y-59261000D02*
X141913000Y-59426000D01*
X138493000Y-56906000D02*
X138493000Y-57086000D01*
X141913000Y-56906000D02*
X141913000Y-57071000D01*
X138493000Y-59246000D02*
X138493000Y-59426000D01*
%TO.C,D7*%
X148527000Y-46500404D02*
G75*
G03*
X150841732Y-46558629I1120000J-1514596D01*
G01*
%TO.C,D9*%
X148145000Y-59246000D02*
X148145000Y-59426000D01*
X148145000Y-56906000D02*
X151565000Y-56906000D01*
X148385000Y-59246000D02*
X148385000Y-59426000D01*
X151565000Y-56906000D02*
X151565000Y-57071000D01*
X148265000Y-56906000D02*
X148265000Y-57086000D01*
X148145000Y-59426000D02*
X151565000Y-59426000D01*
X148145000Y-56906000D02*
X148145000Y-57086000D01*
X151565000Y-59261000D02*
X151565000Y-59426000D01*
X148265000Y-59246000D02*
X148265000Y-59426000D01*
X148385000Y-56906000D02*
X148385000Y-57086000D01*
%TO.C,R8*%
X161674436Y-81761000D02*
X162128564Y-81761000D01*
X161674436Y-80291000D02*
X162128564Y-80291000D01*
D12*
%TO.C,U1*%
X125148500Y-96251500D02*
X146148500Y-96251500D01*
X146138500Y-64251500D02*
X125138500Y-64251500D01*
X125148500Y-64251500D02*
X125148500Y-96251500D01*
X146138500Y-64251500D02*
X146138500Y-96251500D01*
D14*
%TO.C,R9*%
X153442936Y-67845000D02*
X153897064Y-67845000D01*
X153442936Y-69315000D02*
X153897064Y-69315000D01*
%TO.C,R27*%
X110413436Y-69061000D02*
X110867564Y-69061000D01*
X110413436Y-67591000D02*
X110867564Y-67591000D01*
%TO.C,R25*%
X117882936Y-69061000D02*
X118337064Y-69061000D01*
X117882936Y-67591000D02*
X118337064Y-67591000D01*
%TO.C,D20*%
X108146000Y-78136000D02*
X108146000Y-77956000D01*
X108146000Y-75616000D02*
X104726000Y-75616000D01*
X104726000Y-75781000D02*
X104726000Y-75616000D01*
X108026000Y-78136000D02*
X108026000Y-77956000D01*
X108026000Y-75796000D02*
X108026000Y-75616000D01*
X108146000Y-75796000D02*
X108146000Y-75616000D01*
X104726000Y-78136000D02*
X104726000Y-77971000D01*
X107906000Y-78136000D02*
X107906000Y-77956000D01*
X108146000Y-78136000D02*
X104726000Y-78136000D01*
X107906000Y-75796000D02*
X107906000Y-75616000D01*
%TO.C,R23*%
X163549000Y-57684936D02*
X163549000Y-58139064D01*
X162079000Y-57684936D02*
X162079000Y-58139064D01*
%TO.C,R3*%
X161674436Y-65051000D02*
X162128564Y-65051000D01*
X161674436Y-66521000D02*
X162128564Y-66521000D01*
%TO.C,R19*%
X153442936Y-78005000D02*
X153897064Y-78005000D01*
X153442936Y-79475000D02*
X153897064Y-79475000D01*
%TO.C,R6*%
X172693000Y-57938936D02*
X172693000Y-58393064D01*
X171223000Y-57938936D02*
X171223000Y-58393064D01*
%TO.C,D17*%
X116690000Y-88890596D02*
G75*
G03*
X114375268Y-88832371I-1120000J1514596D01*
G01*
%TO.C,D4*%
X166932000Y-59246000D02*
X166932000Y-59426000D01*
X166692000Y-59246000D02*
X166692000Y-59426000D01*
X166692000Y-59426000D02*
X170112000Y-59426000D01*
X166812000Y-59246000D02*
X166812000Y-59426000D01*
X166932000Y-56906000D02*
X166932000Y-57086000D01*
X170112000Y-59261000D02*
X170112000Y-59426000D01*
X166692000Y-56906000D02*
X170112000Y-56906000D01*
X170112000Y-56906000D02*
X170112000Y-57071000D01*
X166812000Y-56906000D02*
X166812000Y-57086000D01*
X166692000Y-56906000D02*
X166692000Y-57086000D01*
%TO.C,R20*%
X161824936Y-70131000D02*
X162279064Y-70131000D01*
X161824936Y-71601000D02*
X162279064Y-71601000D01*
%TO.C,R24*%
X173161064Y-81815000D02*
X172706936Y-81815000D01*
X173161064Y-83285000D02*
X172706936Y-83285000D01*
%TO.C,R5*%
X144753000Y-57684936D02*
X144753000Y-58139064D01*
X143283000Y-57684936D02*
X143283000Y-58139064D01*
%TO.C,R30*%
X110522000Y-77206564D02*
X110522000Y-76752436D01*
X111992000Y-77206564D02*
X111992000Y-76752436D01*
%TO.C,R1*%
X149124936Y-66521000D02*
X149579064Y-66521000D01*
X149124936Y-65051000D02*
X149579064Y-65051000D01*
%TO.C,D2*%
X167282000Y-46491404D02*
G75*
G03*
X169596732Y-46549629I1120000J-1514596D01*
G01*
%TO.C,R4*%
X165888936Y-74141000D02*
X166343064Y-74141000D01*
X165888936Y-72671000D02*
X166343064Y-72671000D01*
%TO.C,D1*%
X138834000Y-46659404D02*
G75*
G03*
X141148732Y-46717629I1120000J-1514596D01*
G01*
%TO.C,D13*%
X157630000Y-46405404D02*
G75*
G03*
X159944732Y-46463629I1120000J-1514596D01*
G01*
%TO.C,D10*%
X174108000Y-67124000D02*
X173928000Y-67124000D01*
X174108000Y-67244000D02*
X173928000Y-67244000D01*
X174108000Y-67124000D02*
X174108000Y-70544000D01*
X174108000Y-70544000D02*
X173943000Y-70544000D01*
X174108000Y-67364000D02*
X173928000Y-67364000D01*
X171588000Y-67124000D02*
X171588000Y-70544000D01*
X171768000Y-67124000D02*
X171588000Y-67124000D01*
X171768000Y-67244000D02*
X171588000Y-67244000D01*
X171768000Y-67364000D02*
X171588000Y-67364000D01*
X171753000Y-70544000D02*
X171588000Y-70544000D01*
%TO.C,D6*%
X173854000Y-86622000D02*
X173674000Y-86622000D01*
X173854000Y-86382000D02*
X173674000Y-86382000D01*
X171499000Y-89802000D02*
X171334000Y-89802000D01*
X171514000Y-86382000D02*
X171334000Y-86382000D01*
X171514000Y-86622000D02*
X171334000Y-86622000D01*
X173854000Y-89802000D02*
X173689000Y-89802000D01*
X171514000Y-86502000D02*
X171334000Y-86502000D01*
X171334000Y-86382000D02*
X171334000Y-89802000D01*
X173854000Y-86382000D02*
X173854000Y-89802000D01*
X173854000Y-86502000D02*
X173674000Y-86502000D01*
%TO.C,R29*%
X120428000Y-77253564D02*
X120428000Y-76799436D01*
X121898000Y-77253564D02*
X121898000Y-76799436D01*
%TO.C,D19*%
X114119000Y-78136000D02*
X114119000Y-77971000D01*
X117539000Y-78136000D02*
X114119000Y-78136000D01*
X114119000Y-75781000D02*
X114119000Y-75616000D01*
X117539000Y-75616000D02*
X114119000Y-75616000D01*
X117539000Y-75796000D02*
X117539000Y-75616000D01*
X117299000Y-78136000D02*
X117299000Y-77956000D01*
X117539000Y-78136000D02*
X117539000Y-77956000D01*
X117299000Y-75796000D02*
X117299000Y-75616000D01*
X117419000Y-78136000D02*
X117419000Y-77956000D01*
X117419000Y-75796000D02*
X117419000Y-75616000D01*
%TO.C,R7*%
X149124936Y-80291000D02*
X149579064Y-80291000D01*
X149124936Y-81761000D02*
X149579064Y-81761000D01*
%TO.C,R21*%
X166142936Y-77751000D02*
X166597064Y-77751000D01*
X166142936Y-79221000D02*
X166597064Y-79221000D01*
%TO.C,R15*%
X173161064Y-73633000D02*
X172706936Y-73633000D01*
X173161064Y-72163000D02*
X172706936Y-72163000D01*
%TO.C,R2*%
X153546436Y-72925000D02*
X154000564Y-72925000D01*
X153546436Y-74395000D02*
X154000564Y-74395000D01*
%TO.C,R16*%
X153442936Y-84301000D02*
X153897064Y-84301000D01*
X153442936Y-82831000D02*
X153897064Y-82831000D01*
%TO.C,D16*%
X171554000Y-77025000D02*
X171374000Y-77025000D01*
X171554000Y-77265000D02*
X171374000Y-77265000D01*
X171554000Y-77145000D02*
X171374000Y-77145000D01*
X173894000Y-77145000D02*
X173714000Y-77145000D01*
X171374000Y-77025000D02*
X171374000Y-80445000D01*
X173894000Y-77265000D02*
X173714000Y-77265000D01*
X173894000Y-80445000D02*
X173729000Y-80445000D01*
X171539000Y-80445000D02*
X171374000Y-80445000D01*
X173894000Y-77025000D02*
X173714000Y-77025000D01*
X173894000Y-77025000D02*
X173894000Y-80445000D01*
%TO.C,R28*%
X114176436Y-66521000D02*
X114630564Y-66521000D01*
X114176436Y-65051000D02*
X114630564Y-65051000D01*
%TO.C,D8*%
X184862596Y-66952000D02*
G75*
G03*
X184804371Y-69266732I-1514596J-1120000D01*
G01*
%TO.C,R13*%
X161674436Y-76681000D02*
X162128564Y-76681000D01*
X161674436Y-75211000D02*
X162128564Y-75211000D01*
%TO.C,R26*%
X121946936Y-65051000D02*
X122401064Y-65051000D01*
X121946936Y-66521000D02*
X122401064Y-66521000D01*
%TO.C,D15*%
X160709000Y-59261000D02*
X160709000Y-59426000D01*
X157289000Y-59246000D02*
X157289000Y-59426000D01*
X157289000Y-56906000D02*
X157289000Y-57086000D01*
X157289000Y-56906000D02*
X160709000Y-56906000D01*
X157409000Y-56906000D02*
X157409000Y-57086000D01*
X157409000Y-59246000D02*
X157409000Y-59426000D01*
X157529000Y-59246000D02*
X157529000Y-59426000D01*
X157289000Y-59426000D02*
X160709000Y-59426000D01*
X157529000Y-56906000D02*
X157529000Y-57086000D01*
X160709000Y-56906000D02*
X160709000Y-57071000D01*
%TO.C,J3*%
X198688000Y-34544000D02*
X198688000Y-31944000D01*
X198688000Y-37144000D02*
X197358000Y-37144000D01*
X196028000Y-34544000D02*
X196028000Y-31944000D01*
X198688000Y-31944000D02*
X196028000Y-31944000D01*
X198688000Y-35814000D02*
X198688000Y-37144000D01*
X198688000Y-34544000D02*
X196028000Y-34544000D01*
%TO.C,R12*%
X165888936Y-69061000D02*
X166343064Y-69061000D01*
X165888936Y-67591000D02*
X166343064Y-67591000D01*
%TO.C,R17*%
X166246436Y-84047000D02*
X166700564Y-84047000D01*
X166246436Y-82577000D02*
X166700564Y-82577000D01*
%TO.C,J2*%
X93761325Y-44345000D02*
X94194338Y-44095000D01*
X80960000Y-34355000D02*
X93300000Y-34355000D01*
X93300000Y-87575000D02*
X80960000Y-87575000D01*
X94194338Y-44095000D02*
X94194338Y-44595000D01*
X93300000Y-34355000D02*
X93300000Y-87575000D01*
X94194338Y-44595000D02*
X93761325Y-44345000D01*
%TO.C,D5*%
X184862596Y-86510000D02*
G75*
G03*
X184804371Y-88824732I-1514596J-1120000D01*
G01*
%TO.C,D12*%
X171514000Y-96274000D02*
X171334000Y-96274000D01*
X171514000Y-96034000D02*
X171334000Y-96034000D01*
X171514000Y-96154000D02*
X171334000Y-96154000D01*
X171334000Y-96034000D02*
X171334000Y-99454000D01*
X173854000Y-99454000D02*
X173689000Y-99454000D01*
X173854000Y-96154000D02*
X173674000Y-96154000D01*
X173854000Y-96034000D02*
X173854000Y-99454000D01*
X173854000Y-96034000D02*
X173674000Y-96034000D01*
X173854000Y-96274000D02*
X173674000Y-96274000D01*
X171499000Y-99454000D02*
X171334000Y-99454000D01*
%TO.C,R11*%
X149124936Y-76681000D02*
X149579064Y-76681000D01*
X149124936Y-75211000D02*
X149579064Y-75211000D01*
%TO.C,D11*%
X184776596Y-97137000D02*
G75*
G03*
X184718371Y-99451732I-1514596J-1120000D01*
G01*
%TO.C,R14*%
X152681000Y-57684936D02*
X152681000Y-58139064D01*
X154151000Y-57684936D02*
X154151000Y-58139064D01*
%TO.C,R22*%
X172907064Y-102335000D02*
X172452936Y-102335000D01*
X172907064Y-100865000D02*
X172452936Y-100865000D01*
%TO.C,R10*%
X172867064Y-91172000D02*
X172412936Y-91172000D01*
X172867064Y-92642000D02*
X172412936Y-92642000D01*
%TO.C,D18*%
X108313000Y-89058596D02*
G75*
G03*
X105998268Y-89000371I-1120000J1514596D01*
G01*
%TO.C,R18*%
X149124936Y-71855000D02*
X149579064Y-71855000D01*
X149124936Y-70385000D02*
X149579064Y-70385000D01*
%TD*%
M02*
