%TF.GenerationSoftware,KiCad,Pcbnew,(6.0.6-0)*%
%TF.CreationDate,2023-02-15T09:52:43-08:00*%
%TF.ProjectId,le2-daq-new,6c65322d-6461-4712-9d6e-65772e6b6963,rev?*%
%TF.SameCoordinates,Original*%
%TF.FileFunction,Legend,Top*%
%TF.FilePolarity,Positive*%
%FSLAX46Y46*%
G04 Gerber Fmt 4.6, Leading zero omitted, Abs format (unit mm)*
G04 Created by KiCad (PCBNEW (6.0.6-0)) date 2023-02-15 09:52:43*
%MOMM*%
%LPD*%
G01*
G04 APERTURE LIST*
%ADD10C,0.150000*%
%ADD11C,0.095250*%
%ADD12C,0.063500*%
%ADD13C,0.120000*%
%ADD14C,0.127000*%
%ADD15C,0.010000*%
G04 APERTURE END LIST*
D10*
X106664285Y-53427380D02*
X107283333Y-53427380D01*
X106950000Y-53808333D01*
X107092857Y-53808333D01*
X107188095Y-53855952D01*
X107235714Y-53903571D01*
X107283333Y-53998809D01*
X107283333Y-54236904D01*
X107235714Y-54332142D01*
X107188095Y-54379761D01*
X107092857Y-54427380D01*
X106807142Y-54427380D01*
X106711904Y-54379761D01*
X106664285Y-54332142D01*
X107616666Y-53427380D02*
X108235714Y-53427380D01*
X107902380Y-53808333D01*
X108045238Y-53808333D01*
X108140476Y-53855952D01*
X108188095Y-53903571D01*
X108235714Y-53998809D01*
X108235714Y-54236904D01*
X108188095Y-54332142D01*
X108140476Y-54379761D01*
X108045238Y-54427380D01*
X107759523Y-54427380D01*
X107664285Y-54379761D01*
X107616666Y-54332142D01*
X108854761Y-53427380D02*
X108950000Y-53427380D01*
X109045238Y-53475000D01*
X109092857Y-53522619D01*
X109140476Y-53617857D01*
X109188095Y-53808333D01*
X109188095Y-54046428D01*
X109140476Y-54236904D01*
X109092857Y-54332142D01*
X109045238Y-54379761D01*
X108950000Y-54427380D01*
X108854761Y-54427380D01*
X108759523Y-54379761D01*
X108711904Y-54332142D01*
X108664285Y-54236904D01*
X108616666Y-54046428D01*
X108616666Y-53808333D01*
X108664285Y-53617857D01*
X108711904Y-53522619D01*
X108759523Y-53475000D01*
X108854761Y-53427380D01*
X107688095Y-111212380D02*
X107211904Y-111212380D01*
X107164285Y-111688571D01*
X107211904Y-111640952D01*
X107307142Y-111593333D01*
X107545238Y-111593333D01*
X107640476Y-111640952D01*
X107688095Y-111688571D01*
X107735714Y-111783809D01*
X107735714Y-112021904D01*
X107688095Y-112117142D01*
X107640476Y-112164761D01*
X107545238Y-112212380D01*
X107307142Y-112212380D01*
X107211904Y-112164761D01*
X107164285Y-112117142D01*
X108164285Y-112212380D02*
X108164285Y-111212380D01*
X108735714Y-112212380D02*
X108307142Y-111640952D01*
X108735714Y-111212380D02*
X108164285Y-111783809D01*
D11*
X161462357Y-120574857D02*
X161462357Y-120792571D01*
X161462357Y-120683714D02*
X161081357Y-120683714D01*
X161135785Y-120720000D01*
X161172071Y-120756285D01*
X161190214Y-120792571D01*
X161117642Y-120429714D02*
X161099500Y-120411571D01*
X161081357Y-120375285D01*
X161081357Y-120284571D01*
X161099500Y-120248285D01*
X161117642Y-120230142D01*
X161153928Y-120212000D01*
X161190214Y-120212000D01*
X161244642Y-120230142D01*
X161462357Y-120447857D01*
X161462357Y-120212000D01*
X161081357Y-120103142D02*
X161462357Y-119976142D01*
X161081357Y-119849142D01*
X150667357Y-120574857D02*
X150667357Y-120792571D01*
X150667357Y-120683714D02*
X150286357Y-120683714D01*
X150340785Y-120720000D01*
X150377071Y-120756285D01*
X150395214Y-120792571D01*
X150322642Y-120429714D02*
X150304500Y-120411571D01*
X150286357Y-120375285D01*
X150286357Y-120284571D01*
X150304500Y-120248285D01*
X150322642Y-120230142D01*
X150358928Y-120212000D01*
X150395214Y-120212000D01*
X150449642Y-120230142D01*
X150667357Y-120447857D01*
X150667357Y-120212000D01*
X150286357Y-120103142D02*
X150667357Y-119976142D01*
X150286357Y-119849142D01*
X139872357Y-120679857D02*
X139872357Y-120897571D01*
X139872357Y-120788714D02*
X139491357Y-120788714D01*
X139545785Y-120825000D01*
X139582071Y-120861285D01*
X139600214Y-120897571D01*
X139527642Y-120534714D02*
X139509500Y-120516571D01*
X139491357Y-120480285D01*
X139491357Y-120389571D01*
X139509500Y-120353285D01*
X139527642Y-120335142D01*
X139563928Y-120317000D01*
X139600214Y-120317000D01*
X139654642Y-120335142D01*
X139872357Y-120552857D01*
X139872357Y-120317000D01*
X139491357Y-120208142D02*
X139872357Y-120081142D01*
X139491357Y-119954142D01*
X129077357Y-120828857D02*
X129077357Y-121046571D01*
X129077357Y-120937714D02*
X128696357Y-120937714D01*
X128750785Y-120974000D01*
X128787071Y-121010285D01*
X128805214Y-121046571D01*
X128732642Y-120683714D02*
X128714500Y-120665571D01*
X128696357Y-120629285D01*
X128696357Y-120538571D01*
X128714500Y-120502285D01*
X128732642Y-120484142D01*
X128768928Y-120466000D01*
X128805214Y-120466000D01*
X128859642Y-120484142D01*
X129077357Y-120701857D01*
X129077357Y-120466000D01*
X128696357Y-120357142D02*
X129077357Y-120230142D01*
X128696357Y-120103142D01*
X118917357Y-120828857D02*
X118917357Y-121046571D01*
X118917357Y-120937714D02*
X118536357Y-120937714D01*
X118590785Y-120974000D01*
X118627071Y-121010285D01*
X118645214Y-121046571D01*
X118572642Y-120683714D02*
X118554500Y-120665571D01*
X118536357Y-120629285D01*
X118536357Y-120538571D01*
X118554500Y-120502285D01*
X118572642Y-120484142D01*
X118608928Y-120466000D01*
X118645214Y-120466000D01*
X118699642Y-120484142D01*
X118917357Y-120701857D01*
X118917357Y-120466000D01*
X118536357Y-120357142D02*
X118917357Y-120230142D01*
X118536357Y-120103142D01*
X108757357Y-120933863D02*
X108757357Y-121151577D01*
X108757357Y-121042720D02*
X108376357Y-121042720D01*
X108430785Y-121079006D01*
X108467071Y-121115291D01*
X108485214Y-121151577D01*
X108412642Y-120788720D02*
X108394500Y-120770577D01*
X108376357Y-120734291D01*
X108376357Y-120643577D01*
X108394500Y-120607291D01*
X108412642Y-120589148D01*
X108448928Y-120571006D01*
X108485214Y-120571006D01*
X108539642Y-120589148D01*
X108757357Y-120806863D01*
X108757357Y-120571006D01*
X108376357Y-120462148D02*
X108757357Y-120335148D01*
X108376357Y-120208148D01*
X154096357Y-45012428D02*
X154096357Y-44776571D01*
X154241500Y-44903571D01*
X154241500Y-44849142D01*
X154259642Y-44812857D01*
X154277785Y-44794714D01*
X154314071Y-44776571D01*
X154404785Y-44776571D01*
X154441071Y-44794714D01*
X154459214Y-44812857D01*
X154477357Y-44849142D01*
X154477357Y-44958000D01*
X154459214Y-44994285D01*
X154441071Y-45012428D01*
X154441071Y-44613285D02*
X154459214Y-44595142D01*
X154477357Y-44613285D01*
X154459214Y-44631428D01*
X154441071Y-44613285D01*
X154477357Y-44613285D01*
X154096357Y-44468142D02*
X154096357Y-44232285D01*
X154241500Y-44359285D01*
X154241500Y-44304857D01*
X154259642Y-44268571D01*
X154277785Y-44250428D01*
X154314071Y-44232285D01*
X154404785Y-44232285D01*
X154441071Y-44250428D01*
X154459214Y-44268571D01*
X154477357Y-44304857D01*
X154477357Y-44413714D01*
X154459214Y-44450000D01*
X154441071Y-44468142D01*
X154096357Y-44123428D02*
X154477357Y-43996428D01*
X154096357Y-43869428D01*
X142031357Y-45069428D02*
X142031357Y-44833571D01*
X142176500Y-44960571D01*
X142176500Y-44906142D01*
X142194642Y-44869857D01*
X142212785Y-44851714D01*
X142249071Y-44833571D01*
X142339785Y-44833571D01*
X142376071Y-44851714D01*
X142394214Y-44869857D01*
X142412357Y-44906142D01*
X142412357Y-45015000D01*
X142394214Y-45051285D01*
X142376071Y-45069428D01*
X142376071Y-44670285D02*
X142394214Y-44652142D01*
X142412357Y-44670285D01*
X142394214Y-44688428D01*
X142376071Y-44670285D01*
X142412357Y-44670285D01*
X142031357Y-44525142D02*
X142031357Y-44289285D01*
X142176500Y-44416285D01*
X142176500Y-44361857D01*
X142194642Y-44325571D01*
X142212785Y-44307428D01*
X142249071Y-44289285D01*
X142339785Y-44289285D01*
X142376071Y-44307428D01*
X142394214Y-44325571D01*
X142412357Y-44361857D01*
X142412357Y-44470714D01*
X142394214Y-44507000D01*
X142376071Y-44525142D01*
X142031357Y-44180428D02*
X142412357Y-44053428D01*
X142031357Y-43926428D01*
X131236357Y-45012428D02*
X131236357Y-44776571D01*
X131381500Y-44903571D01*
X131381500Y-44849142D01*
X131399642Y-44812857D01*
X131417785Y-44794714D01*
X131454071Y-44776571D01*
X131544785Y-44776571D01*
X131581071Y-44794714D01*
X131599214Y-44812857D01*
X131617357Y-44849142D01*
X131617357Y-44958000D01*
X131599214Y-44994285D01*
X131581071Y-45012428D01*
X131581071Y-44613285D02*
X131599214Y-44595142D01*
X131617357Y-44613285D01*
X131599214Y-44631428D01*
X131581071Y-44613285D01*
X131617357Y-44613285D01*
X131236357Y-44468142D02*
X131236357Y-44232285D01*
X131381500Y-44359285D01*
X131381500Y-44304857D01*
X131399642Y-44268571D01*
X131417785Y-44250428D01*
X131454071Y-44232285D01*
X131544785Y-44232285D01*
X131581071Y-44250428D01*
X131599214Y-44268571D01*
X131617357Y-44304857D01*
X131617357Y-44413714D01*
X131599214Y-44450000D01*
X131581071Y-44468142D01*
X131236357Y-44123428D02*
X131617357Y-43996428D01*
X131236357Y-43869428D01*
X121076357Y-45069428D02*
X121076357Y-44833571D01*
X121221500Y-44960571D01*
X121221500Y-44906142D01*
X121239642Y-44869857D01*
X121257785Y-44851714D01*
X121294071Y-44833571D01*
X121384785Y-44833571D01*
X121421071Y-44851714D01*
X121439214Y-44869857D01*
X121457357Y-44906142D01*
X121457357Y-45015000D01*
X121439214Y-45051285D01*
X121421071Y-45069428D01*
X121421071Y-44670285D02*
X121439214Y-44652142D01*
X121457357Y-44670285D01*
X121439214Y-44688428D01*
X121421071Y-44670285D01*
X121457357Y-44670285D01*
X121076357Y-44525142D02*
X121076357Y-44289285D01*
X121221500Y-44416285D01*
X121221500Y-44361857D01*
X121239642Y-44325571D01*
X121257785Y-44307428D01*
X121294071Y-44289285D01*
X121384785Y-44289285D01*
X121421071Y-44307428D01*
X121439214Y-44325571D01*
X121457357Y-44361857D01*
X121457357Y-44470714D01*
X121439214Y-44507000D01*
X121421071Y-44525142D01*
X121076357Y-44180428D02*
X121457357Y-44053428D01*
X121076357Y-43926428D01*
X110281357Y-45069428D02*
X110281357Y-44833571D01*
X110426500Y-44960571D01*
X110426500Y-44906142D01*
X110444642Y-44869857D01*
X110462785Y-44851714D01*
X110499071Y-44833571D01*
X110589785Y-44833571D01*
X110626071Y-44851714D01*
X110644214Y-44869857D01*
X110662357Y-44906142D01*
X110662357Y-45015000D01*
X110644214Y-45051285D01*
X110626071Y-45069428D01*
X110626071Y-44670285D02*
X110644214Y-44652142D01*
X110662357Y-44670285D01*
X110644214Y-44688428D01*
X110626071Y-44670285D01*
X110662357Y-44670285D01*
X110281357Y-44525142D02*
X110281357Y-44289285D01*
X110426500Y-44416285D01*
X110426500Y-44361857D01*
X110444642Y-44325571D01*
X110462785Y-44307428D01*
X110499071Y-44289285D01*
X110589785Y-44289285D01*
X110626071Y-44307428D01*
X110644214Y-44325571D01*
X110662357Y-44361857D01*
X110662357Y-44470714D01*
X110644214Y-44507000D01*
X110626071Y-44525142D01*
X110281357Y-44180428D02*
X110662357Y-44053428D01*
X110281357Y-43926428D01*
X100756357Y-45012428D02*
X100756357Y-44776571D01*
X100901500Y-44903571D01*
X100901500Y-44849142D01*
X100919642Y-44812857D01*
X100937785Y-44794714D01*
X100974071Y-44776571D01*
X101064785Y-44776571D01*
X101101071Y-44794714D01*
X101119214Y-44812857D01*
X101137357Y-44849142D01*
X101137357Y-44958000D01*
X101119214Y-44994285D01*
X101101071Y-45012428D01*
X101101071Y-44613285D02*
X101119214Y-44595142D01*
X101137357Y-44613285D01*
X101119214Y-44631428D01*
X101101071Y-44613285D01*
X101137357Y-44613285D01*
X100756357Y-44468142D02*
X100756357Y-44232285D01*
X100901500Y-44359285D01*
X100901500Y-44304857D01*
X100919642Y-44268571D01*
X100937785Y-44250428D01*
X100974071Y-44232285D01*
X101064785Y-44232285D01*
X101101071Y-44250428D01*
X101119214Y-44268571D01*
X101137357Y-44304857D01*
X101137357Y-44413714D01*
X101119214Y-44450000D01*
X101101071Y-44468142D01*
X100756357Y-44123428D02*
X101137357Y-43996428D01*
X100756357Y-43869428D01*
D10*
X98560000Y-127126904D02*
X98512380Y-127222142D01*
X98512380Y-127365000D01*
X98560000Y-127507857D01*
X98655238Y-127603095D01*
X98750476Y-127650714D01*
X98940952Y-127698333D01*
X99083809Y-127698333D01*
X99274285Y-127650714D01*
X99369523Y-127603095D01*
X99464761Y-127507857D01*
X99512380Y-127365000D01*
X99512380Y-127269761D01*
X99464761Y-127126904D01*
X99417142Y-127079285D01*
X99083809Y-127079285D01*
X99083809Y-127269761D01*
X99512380Y-126650714D02*
X98512380Y-126650714D01*
X99512380Y-126079285D01*
X98512380Y-126079285D01*
X99512380Y-125603095D02*
X98512380Y-125603095D01*
X98512380Y-125365000D01*
X98560000Y-125222142D01*
X98655238Y-125126904D01*
X98750476Y-125079285D01*
X98940952Y-125031666D01*
X99083809Y-125031666D01*
X99274285Y-125079285D01*
X99369523Y-125126904D01*
X99464761Y-125222142D01*
X99512380Y-125365000D01*
X99512380Y-125603095D01*
X99512380Y-122539047D02*
X99512380Y-123110476D01*
X99512380Y-122824761D02*
X98512380Y-122824761D01*
X98655238Y-122920000D01*
X98750476Y-123015238D01*
X98798095Y-123110476D01*
X98607619Y-122158095D02*
X98560000Y-122110476D01*
X98512380Y-122015238D01*
X98512380Y-121777142D01*
X98560000Y-121681904D01*
X98607619Y-121634285D01*
X98702857Y-121586666D01*
X98798095Y-121586666D01*
X98940952Y-121634285D01*
X99512380Y-122205714D01*
X99512380Y-121586666D01*
X98512380Y-121300952D02*
X99512380Y-120967619D01*
X98512380Y-120634285D01*
X169164000Y-47879000D02*
X93726000Y-47879000D01*
X93726000Y-47879000D02*
X93726000Y-32385000D01*
X93726000Y-32385000D02*
X169164000Y-32385000D01*
X169164000Y-32385000D02*
X169164000Y-47879000D01*
X169164000Y-132334000D02*
X92456000Y-132334000D01*
X92456000Y-132334000D02*
X92456000Y-116840000D01*
X92456000Y-116840000D02*
X169164000Y-116840000D01*
X169164000Y-116840000D02*
X169164000Y-132334000D01*
X155956000Y-88773000D02*
X169672000Y-88773000D01*
X169672000Y-88773000D02*
X169672000Y-107061000D01*
X169672000Y-107061000D02*
X155956000Y-107061000D01*
X155956000Y-107061000D02*
X155956000Y-88773000D01*
D12*
X151752904Y-55619952D02*
X151752904Y-55474809D01*
X152006904Y-55547380D02*
X151752904Y-55547380D01*
X152006904Y-55390142D02*
X151752904Y-55390142D01*
X151873857Y-55390142D02*
X151873857Y-55245000D01*
X152006904Y-55245000D02*
X151752904Y-55245000D01*
X152006904Y-55124047D02*
X151752904Y-55124047D01*
X151994809Y-55015190D02*
X152006904Y-54978904D01*
X152006904Y-54918428D01*
X151994809Y-54894238D01*
X151982714Y-54882142D01*
X151958523Y-54870047D01*
X151934333Y-54870047D01*
X151910142Y-54882142D01*
X151898047Y-54894238D01*
X151885952Y-54918428D01*
X151873857Y-54966809D01*
X151861761Y-54991000D01*
X151849666Y-55003095D01*
X151825476Y-55015190D01*
X151801285Y-55015190D01*
X151777095Y-55003095D01*
X151765000Y-54991000D01*
X151752904Y-54966809D01*
X151752904Y-54906333D01*
X151765000Y-54870047D01*
X151994809Y-54579761D02*
X152006904Y-54543476D01*
X152006904Y-54483000D01*
X151994809Y-54458809D01*
X151982714Y-54446714D01*
X151958523Y-54434619D01*
X151934333Y-54434619D01*
X151910142Y-54446714D01*
X151898047Y-54458809D01*
X151885952Y-54483000D01*
X151873857Y-54531380D01*
X151861761Y-54555571D01*
X151849666Y-54567666D01*
X151825476Y-54579761D01*
X151801285Y-54579761D01*
X151777095Y-54567666D01*
X151765000Y-54555571D01*
X151752904Y-54531380D01*
X151752904Y-54470904D01*
X151765000Y-54434619D01*
X152006904Y-54325761D02*
X151752904Y-54325761D01*
X152006904Y-54204809D02*
X151752904Y-54204809D01*
X151752904Y-54144333D01*
X151765000Y-54108047D01*
X151789190Y-54083857D01*
X151813380Y-54071761D01*
X151861761Y-54059666D01*
X151898047Y-54059666D01*
X151946428Y-54071761D01*
X151970619Y-54083857D01*
X151994809Y-54108047D01*
X152006904Y-54144333D01*
X152006904Y-54204809D01*
X151873857Y-53950809D02*
X151873857Y-53866142D01*
X152006904Y-53829857D02*
X152006904Y-53950809D01*
X151752904Y-53950809D01*
X151752904Y-53829857D01*
X151752904Y-53527476D02*
X151958523Y-53527476D01*
X151982714Y-53515380D01*
X151994809Y-53503285D01*
X152006904Y-53479095D01*
X152006904Y-53430714D01*
X151994809Y-53406523D01*
X151982714Y-53394428D01*
X151958523Y-53382333D01*
X151752904Y-53382333D01*
X152006904Y-53261380D02*
X151752904Y-53261380D01*
X151752904Y-53164619D01*
X151765000Y-53140428D01*
X151777095Y-53128333D01*
X151801285Y-53116238D01*
X151837571Y-53116238D01*
X151861761Y-53128333D01*
X151873857Y-53140428D01*
X151885952Y-53164619D01*
X151885952Y-53261380D01*
D10*
X157873095Y-99555300D02*
X157752142Y-99494823D01*
X157570714Y-99494823D01*
X157389285Y-99555300D01*
X157268333Y-99676252D01*
X157207857Y-99797204D01*
X157147380Y-100039109D01*
X157147380Y-100220538D01*
X157207857Y-100462442D01*
X157268333Y-100583395D01*
X157389285Y-100704347D01*
X157570714Y-100764823D01*
X157691666Y-100764823D01*
X157873095Y-100704347D01*
X157933571Y-100643871D01*
X157933571Y-100220538D01*
X157691666Y-100220538D01*
X158477857Y-100764823D02*
X158477857Y-99918157D01*
X158477857Y-100160061D02*
X158538333Y-100039109D01*
X158598809Y-99978633D01*
X158719761Y-99918157D01*
X158840714Y-99918157D01*
X159445476Y-100764823D02*
X159324523Y-100704347D01*
X159264047Y-100643871D01*
X159203571Y-100522919D01*
X159203571Y-100160061D01*
X159264047Y-100039109D01*
X159324523Y-99978633D01*
X159445476Y-99918157D01*
X159626904Y-99918157D01*
X159747857Y-99978633D01*
X159808333Y-100039109D01*
X159868809Y-100160061D01*
X159868809Y-100522919D01*
X159808333Y-100643871D01*
X159747857Y-100704347D01*
X159626904Y-100764823D01*
X159445476Y-100764823D01*
X160957380Y-99918157D02*
X160957380Y-100764823D01*
X160413095Y-99918157D02*
X160413095Y-100583395D01*
X160473571Y-100704347D01*
X160594523Y-100764823D01*
X160775952Y-100764823D01*
X160896904Y-100704347D01*
X160957380Y-100643871D01*
X161562142Y-99918157D02*
X161562142Y-100764823D01*
X161562142Y-100039109D02*
X161622619Y-99978633D01*
X161743571Y-99918157D01*
X161925000Y-99918157D01*
X162045952Y-99978633D01*
X162106428Y-100099585D01*
X162106428Y-100764823D01*
X163255476Y-100764823D02*
X163255476Y-99494823D01*
X163255476Y-100704347D02*
X163134523Y-100764823D01*
X162892619Y-100764823D01*
X162771666Y-100704347D01*
X162711190Y-100643871D01*
X162650714Y-100522919D01*
X162650714Y-100160061D01*
X162711190Y-100039109D01*
X162771666Y-99978633D01*
X162892619Y-99918157D01*
X163134523Y-99918157D01*
X163255476Y-99978633D01*
X164827857Y-100764823D02*
X164827857Y-99494823D01*
X165130238Y-99494823D01*
X165311666Y-99555300D01*
X165432619Y-99676252D01*
X165493095Y-99797204D01*
X165553571Y-100039109D01*
X165553571Y-100220538D01*
X165493095Y-100462442D01*
X165432619Y-100583395D01*
X165311666Y-100704347D01*
X165130238Y-100764823D01*
X164827857Y-100764823D01*
X166037380Y-100401966D02*
X166642142Y-100401966D01*
X165916428Y-100764823D02*
X166339761Y-99494823D01*
X166763095Y-100764823D01*
X168033095Y-100885776D02*
X167912142Y-100825300D01*
X167791190Y-100704347D01*
X167609761Y-100522919D01*
X167488809Y-100462442D01*
X167367857Y-100462442D01*
X167428333Y-100764823D02*
X167307380Y-100704347D01*
X167186428Y-100583395D01*
X167125952Y-100341490D01*
X167125952Y-99918157D01*
X167186428Y-99676252D01*
X167307380Y-99555300D01*
X167428333Y-99494823D01*
X167670238Y-99494823D01*
X167791190Y-99555300D01*
X167912142Y-99676252D01*
X167972619Y-99918157D01*
X167972619Y-100341490D01*
X167912142Y-100583395D01*
X167791190Y-100704347D01*
X167670238Y-100764823D01*
X167428333Y-100764823D01*
X158084761Y-102809523D02*
X157480000Y-102809523D01*
X157480000Y-101539523D01*
X158508095Y-102144285D02*
X158931428Y-102144285D01*
X159112857Y-102809523D02*
X158508095Y-102809523D01*
X158508095Y-101539523D01*
X159112857Y-101539523D01*
X159596666Y-101660476D02*
X159657142Y-101600000D01*
X159778095Y-101539523D01*
X160080476Y-101539523D01*
X160201428Y-101600000D01*
X160261904Y-101660476D01*
X160322380Y-101781428D01*
X160322380Y-101902380D01*
X160261904Y-102083809D01*
X159536190Y-102809523D01*
X160322380Y-102809523D01*
X161834285Y-102809523D02*
X161834285Y-101539523D01*
X161834285Y-102144285D02*
X162560000Y-102144285D01*
X162560000Y-102809523D02*
X162560000Y-101539523D01*
X163346190Y-102809523D02*
X163225238Y-102749047D01*
X163164761Y-102688571D01*
X163104285Y-102567619D01*
X163104285Y-102204761D01*
X163164761Y-102083809D01*
X163225238Y-102023333D01*
X163346190Y-101962857D01*
X163527619Y-101962857D01*
X163648571Y-102023333D01*
X163709047Y-102083809D01*
X163769523Y-102204761D01*
X163769523Y-102567619D01*
X163709047Y-102688571D01*
X163648571Y-102749047D01*
X163527619Y-102809523D01*
X163346190Y-102809523D01*
X164132380Y-101962857D02*
X164616190Y-101962857D01*
X164313809Y-101539523D02*
X164313809Y-102628095D01*
X164374285Y-102749047D01*
X164495238Y-102809523D01*
X164616190Y-102809523D01*
X164858095Y-101962857D02*
X165341904Y-101962857D01*
X165039523Y-102809523D02*
X165039523Y-101720952D01*
X165100000Y-101600000D01*
X165220952Y-101539523D01*
X165341904Y-101539523D01*
X165765238Y-102809523D02*
X165765238Y-101962857D01*
X165765238Y-101539523D02*
X165704761Y-101600000D01*
X165765238Y-101660476D01*
X165825714Y-101600000D01*
X165765238Y-101539523D01*
X165765238Y-101660476D01*
X166370000Y-102809523D02*
X166370000Y-101962857D01*
X166370000Y-102204761D02*
X166430476Y-102083809D01*
X166490952Y-102023333D01*
X166611904Y-101962857D01*
X166732857Y-101962857D01*
X167640000Y-102749047D02*
X167519047Y-102809523D01*
X167277142Y-102809523D01*
X167156190Y-102749047D01*
X167095714Y-102628095D01*
X167095714Y-102144285D01*
X167156190Y-102023333D01*
X167277142Y-101962857D01*
X167519047Y-101962857D01*
X167640000Y-102023333D01*
X167700476Y-102144285D01*
X167700476Y-102265238D01*
X167095714Y-102386190D01*
X160382857Y-103705176D02*
X160443333Y-103644700D01*
X160564285Y-103584223D01*
X160866666Y-103584223D01*
X160987619Y-103644700D01*
X161048095Y-103705176D01*
X161108571Y-103826128D01*
X161108571Y-103947080D01*
X161048095Y-104128509D01*
X160322380Y-104854223D01*
X161108571Y-104854223D01*
X161894761Y-103584223D02*
X162015714Y-103584223D01*
X162136666Y-103644700D01*
X162197142Y-103705176D01*
X162257619Y-103826128D01*
X162318095Y-104068033D01*
X162318095Y-104370414D01*
X162257619Y-104612319D01*
X162197142Y-104733271D01*
X162136666Y-104793747D01*
X162015714Y-104854223D01*
X161894761Y-104854223D01*
X161773809Y-104793747D01*
X161713333Y-104733271D01*
X161652857Y-104612319D01*
X161592380Y-104370414D01*
X161592380Y-104068033D01*
X161652857Y-103826128D01*
X161713333Y-103705176D01*
X161773809Y-103644700D01*
X161894761Y-103584223D01*
X162801904Y-103705176D02*
X162862380Y-103644700D01*
X162983333Y-103584223D01*
X163285714Y-103584223D01*
X163406666Y-103644700D01*
X163467142Y-103705176D01*
X163527619Y-103826128D01*
X163527619Y-103947080D01*
X163467142Y-104128509D01*
X162741428Y-104854223D01*
X163527619Y-104854223D01*
X163950952Y-103584223D02*
X164737142Y-103584223D01*
X164313809Y-104068033D01*
X164495238Y-104068033D01*
X164616190Y-104128509D01*
X164676666Y-104188985D01*
X164737142Y-104309938D01*
X164737142Y-104612319D01*
X164676666Y-104733271D01*
X164616190Y-104793747D01*
X164495238Y-104854223D01*
X164132380Y-104854223D01*
X164011428Y-104793747D01*
X163950952Y-104733271D01*
X167330380Y-129991714D02*
X167330380Y-130563142D01*
X167330380Y-130277428D02*
X166330380Y-130277428D01*
X166473238Y-130372666D01*
X166568476Y-130467904D01*
X166616095Y-130563142D01*
X166425619Y-129610761D02*
X166378000Y-129563142D01*
X166330380Y-129467904D01*
X166330380Y-129229809D01*
X166378000Y-129134571D01*
X166425619Y-129086952D01*
X166520857Y-129039333D01*
X166616095Y-129039333D01*
X166758952Y-129086952D01*
X167330380Y-129658380D01*
X167330380Y-129039333D01*
X166330380Y-128753619D02*
X167330380Y-128420285D01*
X166330380Y-128086952D01*
X167282761Y-127039333D02*
X167330380Y-126896476D01*
X167330380Y-126658380D01*
X167282761Y-126563142D01*
X167235142Y-126515523D01*
X167139904Y-126467904D01*
X167044666Y-126467904D01*
X166949428Y-126515523D01*
X166901809Y-126563142D01*
X166854190Y-126658380D01*
X166806571Y-126848857D01*
X166758952Y-126944095D01*
X166711333Y-126991714D01*
X166616095Y-127039333D01*
X166520857Y-127039333D01*
X166425619Y-126991714D01*
X166378000Y-126944095D01*
X166330380Y-126848857D01*
X166330380Y-126610761D01*
X166378000Y-126467904D01*
X166330380Y-126039333D02*
X167139904Y-126039333D01*
X167235142Y-125991714D01*
X167282761Y-125944095D01*
X167330380Y-125848857D01*
X167330380Y-125658380D01*
X167282761Y-125563142D01*
X167235142Y-125515523D01*
X167139904Y-125467904D01*
X166330380Y-125467904D01*
X167330380Y-124991714D02*
X166330380Y-124991714D01*
X166330380Y-124610761D01*
X166378000Y-124515523D01*
X166425619Y-124467904D01*
X166520857Y-124420285D01*
X166663714Y-124420285D01*
X166758952Y-124467904D01*
X166806571Y-124515523D01*
X166854190Y-124610761D01*
X166854190Y-124991714D01*
X167330380Y-123991714D02*
X166330380Y-123991714D01*
X166330380Y-123610761D01*
X166378000Y-123515523D01*
X166425619Y-123467904D01*
X166520857Y-123420285D01*
X166663714Y-123420285D01*
X166758952Y-123467904D01*
X166806571Y-123515523D01*
X166854190Y-123610761D01*
X166854190Y-123991714D01*
X167330380Y-122515523D02*
X167330380Y-122991714D01*
X166330380Y-122991714D01*
X166854190Y-121991714D02*
X167330380Y-121991714D01*
X166330380Y-122325047D02*
X166854190Y-121991714D01*
X166330380Y-121658380D01*
X167330380Y-119991714D02*
X166854190Y-120325047D01*
X167330380Y-120563142D02*
X166330380Y-120563142D01*
X166330380Y-120182190D01*
X166378000Y-120086952D01*
X166425619Y-120039333D01*
X166520857Y-119991714D01*
X166663714Y-119991714D01*
X166758952Y-120039333D01*
X166806571Y-120086952D01*
X166854190Y-120182190D01*
X166854190Y-120563142D01*
X167044666Y-119610761D02*
X167044666Y-119134571D01*
X167330380Y-119706000D02*
X166330380Y-119372666D01*
X167330380Y-119039333D01*
X167330380Y-118706000D02*
X166330380Y-118706000D01*
X167330380Y-117753619D02*
X167330380Y-118229809D01*
X166330380Y-118229809D01*
X129961666Y-109783571D02*
X130295000Y-109783571D01*
X130437857Y-110307380D02*
X129961666Y-110307380D01*
X129961666Y-109307380D01*
X130437857Y-109307380D01*
X130818809Y-110259761D02*
X130961666Y-110307380D01*
X131199761Y-110307380D01*
X131295000Y-110259761D01*
X131342619Y-110212142D01*
X131390238Y-110116904D01*
X131390238Y-110021666D01*
X131342619Y-109926428D01*
X131295000Y-109878809D01*
X131199761Y-109831190D01*
X131009285Y-109783571D01*
X130914047Y-109735952D01*
X130866428Y-109688333D01*
X130818809Y-109593095D01*
X130818809Y-109497857D01*
X130866428Y-109402619D01*
X130914047Y-109355000D01*
X131009285Y-109307380D01*
X131247380Y-109307380D01*
X131390238Y-109355000D01*
X131818809Y-110307380D02*
X131818809Y-109307380D01*
X132199761Y-109307380D01*
X132295000Y-109355000D01*
X132342619Y-109402619D01*
X132390238Y-109497857D01*
X132390238Y-109640714D01*
X132342619Y-109735952D01*
X132295000Y-109783571D01*
X132199761Y-109831190D01*
X131818809Y-109831190D01*
X132723571Y-109307380D02*
X133342619Y-109307380D01*
X133009285Y-109688333D01*
X133152142Y-109688333D01*
X133247380Y-109735952D01*
X133295000Y-109783571D01*
X133342619Y-109878809D01*
X133342619Y-110116904D01*
X133295000Y-110212142D01*
X133247380Y-110259761D01*
X133152142Y-110307380D01*
X132866428Y-110307380D01*
X132771190Y-110259761D01*
X132723571Y-110212142D01*
X133723571Y-109402619D02*
X133771190Y-109355000D01*
X133866428Y-109307380D01*
X134104523Y-109307380D01*
X134199761Y-109355000D01*
X134247380Y-109402619D01*
X134295000Y-109497857D01*
X134295000Y-109593095D01*
X134247380Y-109735952D01*
X133675952Y-110307380D01*
X134295000Y-110307380D01*
X134723571Y-109926428D02*
X135485476Y-109926428D01*
X135961666Y-110307380D02*
X135961666Y-109307380D01*
X136199761Y-109307380D01*
X136342619Y-109355000D01*
X136437857Y-109450238D01*
X136485476Y-109545476D01*
X136533095Y-109735952D01*
X136533095Y-109878809D01*
X136485476Y-110069285D01*
X136437857Y-110164523D01*
X136342619Y-110259761D01*
X136199761Y-110307380D01*
X135961666Y-110307380D01*
X136961666Y-109783571D02*
X137295000Y-109783571D01*
X137437857Y-110307380D02*
X136961666Y-110307380D01*
X136961666Y-109307380D01*
X137437857Y-109307380D01*
X137723571Y-109307380D02*
X138056904Y-110307380D01*
X138390238Y-109307380D01*
X138723571Y-110307380D02*
X138723571Y-109307380D01*
X139295000Y-110307380D02*
X138866428Y-109735952D01*
X139295000Y-109307380D02*
X138723571Y-109878809D01*
X139723571Y-110307380D02*
X139723571Y-109307380D01*
X140056904Y-109307380D02*
X140628333Y-109307380D01*
X140342619Y-110307380D02*
X140342619Y-109307380D01*
X141533095Y-110212142D02*
X141485476Y-110259761D01*
X141342619Y-110307380D01*
X141247380Y-110307380D01*
X141104523Y-110259761D01*
X141009285Y-110164523D01*
X140961666Y-110069285D01*
X140914047Y-109878809D01*
X140914047Y-109735952D01*
X140961666Y-109545476D01*
X141009285Y-109450238D01*
X141104523Y-109355000D01*
X141247380Y-109307380D01*
X141342619Y-109307380D01*
X141485476Y-109355000D01*
X141533095Y-109402619D01*
X141961666Y-109926428D02*
X142723571Y-109926428D01*
X143104523Y-109307380D02*
X143723571Y-109307380D01*
X143390238Y-109688333D01*
X143533095Y-109688333D01*
X143628333Y-109735952D01*
X143675952Y-109783571D01*
X143723571Y-109878809D01*
X143723571Y-110116904D01*
X143675952Y-110212142D01*
X143628333Y-110259761D01*
X143533095Y-110307380D01*
X143247380Y-110307380D01*
X143152142Y-110259761D01*
X143104523Y-110212142D01*
X144104523Y-109402619D02*
X144152142Y-109355000D01*
X144247380Y-109307380D01*
X144485476Y-109307380D01*
X144580714Y-109355000D01*
X144628333Y-109402619D01*
X144675952Y-109497857D01*
X144675952Y-109593095D01*
X144628333Y-109735952D01*
X144056904Y-110307380D01*
X144675952Y-110307380D01*
X145104523Y-110307380D02*
X145104523Y-109307380D01*
X145342619Y-109307380D01*
X145485476Y-109355000D01*
X145580714Y-109450238D01*
X145628333Y-109545476D01*
X145675952Y-109735952D01*
X145675952Y-109878809D01*
X145628333Y-110069285D01*
X145580714Y-110164523D01*
X145485476Y-110259761D01*
X145342619Y-110307380D01*
X145104523Y-110307380D01*
X94480476Y-111482142D02*
X94432857Y-111529761D01*
X94290000Y-111577380D01*
X94194761Y-111577380D01*
X94051904Y-111529761D01*
X93956666Y-111434523D01*
X93909047Y-111339285D01*
X93861428Y-111148809D01*
X93861428Y-111005952D01*
X93909047Y-110815476D01*
X93956666Y-110720238D01*
X94051904Y-110625000D01*
X94194761Y-110577380D01*
X94290000Y-110577380D01*
X94432857Y-110625000D01*
X94480476Y-110672619D01*
X94861428Y-111291666D02*
X95337619Y-111291666D01*
X94766190Y-111577380D02*
X95099523Y-110577380D01*
X95432857Y-111577380D01*
X95766190Y-111577380D02*
X95766190Y-110577380D01*
X96147142Y-110577380D01*
X96242380Y-110625000D01*
X96290000Y-110672619D01*
X96337619Y-110767857D01*
X96337619Y-110910714D01*
X96290000Y-111005952D01*
X96242380Y-111053571D01*
X96147142Y-111101190D01*
X95766190Y-111101190D01*
X96766190Y-111196428D02*
X97528095Y-111196428D01*
X98575714Y-111482142D02*
X98528095Y-111529761D01*
X98385238Y-111577380D01*
X98290000Y-111577380D01*
X98147142Y-111529761D01*
X98051904Y-111434523D01*
X98004285Y-111339285D01*
X97956666Y-111148809D01*
X97956666Y-111005952D01*
X98004285Y-110815476D01*
X98051904Y-110720238D01*
X98147142Y-110625000D01*
X98290000Y-110577380D01*
X98385238Y-110577380D01*
X98528095Y-110625000D01*
X98575714Y-110672619D01*
X99194761Y-110577380D02*
X99385238Y-110577380D01*
X99480476Y-110625000D01*
X99575714Y-110720238D01*
X99623333Y-110910714D01*
X99623333Y-111244047D01*
X99575714Y-111434523D01*
X99480476Y-111529761D01*
X99385238Y-111577380D01*
X99194761Y-111577380D01*
X99099523Y-111529761D01*
X99004285Y-111434523D01*
X98956666Y-111244047D01*
X98956666Y-110910714D01*
X99004285Y-110720238D01*
X99099523Y-110625000D01*
X99194761Y-110577380D01*
X100051904Y-111577380D02*
X100051904Y-110577380D01*
X100623333Y-111577380D01*
X100623333Y-110577380D01*
X101099523Y-111577380D02*
X101099523Y-110577380D01*
X101670952Y-111577380D01*
X101670952Y-110577380D01*
X94313809Y-92797380D02*
X94885238Y-92797380D01*
X94599523Y-93797380D02*
X94599523Y-92797380D01*
X95790000Y-93702142D02*
X95742380Y-93749761D01*
X95599523Y-93797380D01*
X95504285Y-93797380D01*
X95361428Y-93749761D01*
X95266190Y-93654523D01*
X95218571Y-93559285D01*
X95170952Y-93368809D01*
X95170952Y-93225952D01*
X95218571Y-93035476D01*
X95266190Y-92940238D01*
X95361428Y-92845000D01*
X95504285Y-92797380D01*
X95599523Y-92797380D01*
X95742380Y-92845000D01*
X95790000Y-92892619D01*
X96218571Y-93416428D02*
X96980476Y-93416428D01*
X98028095Y-93702142D02*
X97980476Y-93749761D01*
X97837619Y-93797380D01*
X97742380Y-93797380D01*
X97599523Y-93749761D01*
X97504285Y-93654523D01*
X97456666Y-93559285D01*
X97409047Y-93368809D01*
X97409047Y-93225952D01*
X97456666Y-93035476D01*
X97504285Y-92940238D01*
X97599523Y-92845000D01*
X97742380Y-92797380D01*
X97837619Y-92797380D01*
X97980476Y-92845000D01*
X98028095Y-92892619D01*
X98647142Y-92797380D02*
X98837619Y-92797380D01*
X98932857Y-92845000D01*
X99028095Y-92940238D01*
X99075714Y-93130714D01*
X99075714Y-93464047D01*
X99028095Y-93654523D01*
X98932857Y-93749761D01*
X98837619Y-93797380D01*
X98647142Y-93797380D01*
X98551904Y-93749761D01*
X98456666Y-93654523D01*
X98409047Y-93464047D01*
X98409047Y-93130714D01*
X98456666Y-92940238D01*
X98551904Y-92845000D01*
X98647142Y-92797380D01*
X99504285Y-93797380D02*
X99504285Y-92797380D01*
X100075714Y-93797380D01*
X100075714Y-92797380D01*
X100551904Y-93797380D02*
X100551904Y-92797380D01*
X101123333Y-93797380D01*
X101123333Y-92797380D01*
X94456666Y-49982380D02*
X94456666Y-48982380D01*
X94837619Y-48982380D01*
X94932857Y-49030000D01*
X94980476Y-49077619D01*
X95028095Y-49172857D01*
X95028095Y-49315714D01*
X94980476Y-49410952D01*
X94932857Y-49458571D01*
X94837619Y-49506190D01*
X94456666Y-49506190D01*
X95313809Y-48982380D02*
X95885238Y-48982380D01*
X95599523Y-49982380D02*
X95599523Y-48982380D01*
X96218571Y-49601428D02*
X96980476Y-49601428D01*
X98028095Y-49887142D02*
X97980476Y-49934761D01*
X97837619Y-49982380D01*
X97742380Y-49982380D01*
X97599523Y-49934761D01*
X97504285Y-49839523D01*
X97456666Y-49744285D01*
X97409047Y-49553809D01*
X97409047Y-49410952D01*
X97456666Y-49220476D01*
X97504285Y-49125238D01*
X97599523Y-49030000D01*
X97742380Y-48982380D01*
X97837619Y-48982380D01*
X97980476Y-49030000D01*
X98028095Y-49077619D01*
X98647142Y-48982380D02*
X98837619Y-48982380D01*
X98932857Y-49030000D01*
X99028095Y-49125238D01*
X99075714Y-49315714D01*
X99075714Y-49649047D01*
X99028095Y-49839523D01*
X98932857Y-49934761D01*
X98837619Y-49982380D01*
X98647142Y-49982380D01*
X98551904Y-49934761D01*
X98456666Y-49839523D01*
X98409047Y-49649047D01*
X98409047Y-49315714D01*
X98456666Y-49125238D01*
X98551904Y-49030000D01*
X98647142Y-48982380D01*
X99504285Y-49982380D02*
X99504285Y-48982380D01*
X100075714Y-49982380D01*
X100075714Y-48982380D01*
X100551904Y-49982380D02*
X100551904Y-48982380D01*
X101123333Y-49982380D01*
X101123333Y-48982380D01*
X166457380Y-45933571D02*
X166457380Y-45314523D01*
X166838333Y-45647857D01*
X166838333Y-45505000D01*
X166885952Y-45409761D01*
X166933571Y-45362142D01*
X167028809Y-45314523D01*
X167266904Y-45314523D01*
X167362142Y-45362142D01*
X167409761Y-45409761D01*
X167457380Y-45505000D01*
X167457380Y-45790714D01*
X167409761Y-45885952D01*
X167362142Y-45933571D01*
X166457380Y-45028809D02*
X167457380Y-44695476D01*
X166457380Y-44362142D01*
X167409761Y-43314523D02*
X167457380Y-43171666D01*
X167457380Y-42933571D01*
X167409761Y-42838333D01*
X167362142Y-42790714D01*
X167266904Y-42743095D01*
X167171666Y-42743095D01*
X167076428Y-42790714D01*
X167028809Y-42838333D01*
X166981190Y-42933571D01*
X166933571Y-43124047D01*
X166885952Y-43219285D01*
X166838333Y-43266904D01*
X166743095Y-43314523D01*
X166647857Y-43314523D01*
X166552619Y-43266904D01*
X166505000Y-43219285D01*
X166457380Y-43124047D01*
X166457380Y-42885952D01*
X166505000Y-42743095D01*
X166457380Y-42314523D02*
X167266904Y-42314523D01*
X167362142Y-42266904D01*
X167409761Y-42219285D01*
X167457380Y-42124047D01*
X167457380Y-41933571D01*
X167409761Y-41838333D01*
X167362142Y-41790714D01*
X167266904Y-41743095D01*
X166457380Y-41743095D01*
X167457380Y-41266904D02*
X166457380Y-41266904D01*
X166457380Y-40885952D01*
X166505000Y-40790714D01*
X166552619Y-40743095D01*
X166647857Y-40695476D01*
X166790714Y-40695476D01*
X166885952Y-40743095D01*
X166933571Y-40790714D01*
X166981190Y-40885952D01*
X166981190Y-41266904D01*
X167457380Y-40266904D02*
X166457380Y-40266904D01*
X166457380Y-39885952D01*
X166505000Y-39790714D01*
X166552619Y-39743095D01*
X166647857Y-39695476D01*
X166790714Y-39695476D01*
X166885952Y-39743095D01*
X166933571Y-39790714D01*
X166981190Y-39885952D01*
X166981190Y-40266904D01*
X167457380Y-38790714D02*
X167457380Y-39266904D01*
X166457380Y-39266904D01*
X166981190Y-38266904D02*
X167457380Y-38266904D01*
X166457380Y-38600238D02*
X166981190Y-38266904D01*
X166457380Y-37933571D01*
X167457380Y-36266904D02*
X166981190Y-36600238D01*
X167457380Y-36838333D02*
X166457380Y-36838333D01*
X166457380Y-36457380D01*
X166505000Y-36362142D01*
X166552619Y-36314523D01*
X166647857Y-36266904D01*
X166790714Y-36266904D01*
X166885952Y-36314523D01*
X166933571Y-36362142D01*
X166981190Y-36457380D01*
X166981190Y-36838333D01*
X167171666Y-35885952D02*
X167171666Y-35409761D01*
X167457380Y-35981190D02*
X166457380Y-35647857D01*
X167457380Y-35314523D01*
X167457380Y-34981190D02*
X166457380Y-34981190D01*
X167457380Y-34028809D02*
X167457380Y-34505000D01*
X166457380Y-34505000D01*
X159099761Y-84907380D02*
X158766428Y-84431190D01*
X158528333Y-84907380D02*
X158528333Y-83907380D01*
X158909285Y-83907380D01*
X159004523Y-83955000D01*
X159052142Y-84002619D01*
X159099761Y-84097857D01*
X159099761Y-84240714D01*
X159052142Y-84335952D01*
X159004523Y-84383571D01*
X158909285Y-84431190D01*
X158528333Y-84431190D01*
X159528333Y-84383571D02*
X159861666Y-84383571D01*
X160004523Y-84907380D02*
X159528333Y-84907380D01*
X159528333Y-83907380D01*
X160004523Y-83907380D01*
X160909285Y-84907380D02*
X160433095Y-84907380D01*
X160433095Y-83907380D01*
X161195000Y-84621666D02*
X161671190Y-84621666D01*
X161099761Y-84907380D02*
X161433095Y-83907380D01*
X161766428Y-84907380D01*
X162290238Y-84431190D02*
X162290238Y-84907380D01*
X161956904Y-83907380D02*
X162290238Y-84431190D01*
X162623571Y-83907380D01*
X162956904Y-84526428D02*
X163718809Y-84526428D01*
X164766428Y-84812142D02*
X164718809Y-84859761D01*
X164575952Y-84907380D01*
X164480714Y-84907380D01*
X164337857Y-84859761D01*
X164242619Y-84764523D01*
X164195000Y-84669285D01*
X164147380Y-84478809D01*
X164147380Y-84335952D01*
X164195000Y-84145476D01*
X164242619Y-84050238D01*
X164337857Y-83955000D01*
X164480714Y-83907380D01*
X164575952Y-83907380D01*
X164718809Y-83955000D01*
X164766428Y-84002619D01*
X165385476Y-83907380D02*
X165575952Y-83907380D01*
X165671190Y-83955000D01*
X165766428Y-84050238D01*
X165814047Y-84240714D01*
X165814047Y-84574047D01*
X165766428Y-84764523D01*
X165671190Y-84859761D01*
X165575952Y-84907380D01*
X165385476Y-84907380D01*
X165290238Y-84859761D01*
X165195000Y-84764523D01*
X165147380Y-84574047D01*
X165147380Y-84240714D01*
X165195000Y-84050238D01*
X165290238Y-83955000D01*
X165385476Y-83907380D01*
X166242619Y-84907380D02*
X166242619Y-83907380D01*
X166814047Y-84907380D01*
X166814047Y-83907380D01*
X167290238Y-84907380D02*
X167290238Y-83907380D01*
X167861666Y-84907380D01*
X167861666Y-83907380D01*
%TO.C,J17*%
X94440476Y-127727380D02*
X94440476Y-128441666D01*
X94392857Y-128584523D01*
X94297619Y-128679761D01*
X94154761Y-128727380D01*
X94059523Y-128727380D01*
X95440476Y-128727380D02*
X94869047Y-128727380D01*
X95154761Y-128727380D02*
X95154761Y-127727380D01*
X95059523Y-127870238D01*
X94964285Y-127965476D01*
X94869047Y-128013095D01*
X95773809Y-127727380D02*
X96440476Y-127727380D01*
X96011904Y-128727380D01*
%TO.C,U1*%
X125071626Y-51156124D02*
X125071626Y-51965960D01*
X125119263Y-52061235D01*
X125166901Y-52108873D01*
X125262175Y-52156510D01*
X125452725Y-52156510D01*
X125548000Y-52108873D01*
X125595637Y-52061235D01*
X125643275Y-51965960D01*
X125643275Y-51156124D01*
X126643661Y-52156510D02*
X126072012Y-52156510D01*
X126357836Y-52156510D02*
X126357836Y-51156124D01*
X126262561Y-51299036D01*
X126167287Y-51394311D01*
X126072012Y-51441949D01*
%TO.C,J16*%
X108037380Y-125904523D02*
X108751666Y-125904523D01*
X108894523Y-125952142D01*
X108989761Y-126047380D01*
X109037380Y-126190238D01*
X109037380Y-126285476D01*
X109037380Y-124904523D02*
X109037380Y-125475952D01*
X109037380Y-125190238D02*
X108037380Y-125190238D01*
X108180238Y-125285476D01*
X108275476Y-125380714D01*
X108323095Y-125475952D01*
X108037380Y-124047380D02*
X108037380Y-124237857D01*
X108085000Y-124333095D01*
X108132619Y-124380714D01*
X108275476Y-124475952D01*
X108465952Y-124523571D01*
X108846904Y-124523571D01*
X108942142Y-124475952D01*
X108989761Y-124428333D01*
X109037380Y-124333095D01*
X109037380Y-124142619D01*
X108989761Y-124047380D01*
X108942142Y-123999761D01*
X108846904Y-123952142D01*
X108608809Y-123952142D01*
X108513571Y-123999761D01*
X108465952Y-124047380D01*
X108418333Y-124142619D01*
X108418333Y-124333095D01*
X108465952Y-124428333D01*
X108513571Y-124475952D01*
X108608809Y-124523571D01*
%TO.C,J15*%
X139136380Y-125638523D02*
X139850666Y-125638523D01*
X139993523Y-125686142D01*
X140088761Y-125781380D01*
X140136380Y-125924238D01*
X140136380Y-126019476D01*
X140136380Y-124638523D02*
X140136380Y-125209952D01*
X140136380Y-124924238D02*
X139136380Y-124924238D01*
X139279238Y-125019476D01*
X139374476Y-125114714D01*
X139422095Y-125209952D01*
X139136380Y-123733761D02*
X139136380Y-124209952D01*
X139612571Y-124257571D01*
X139564952Y-124209952D01*
X139517333Y-124114714D01*
X139517333Y-123876619D01*
X139564952Y-123781380D01*
X139612571Y-123733761D01*
X139707809Y-123686142D01*
X139945904Y-123686142D01*
X140041142Y-123733761D01*
X140088761Y-123781380D01*
X140136380Y-123876619D01*
X140136380Y-124114714D01*
X140088761Y-124209952D01*
X140041142Y-124257571D01*
%TO.C,J14*%
X128714380Y-125787523D02*
X129428666Y-125787523D01*
X129571523Y-125835142D01*
X129666761Y-125930380D01*
X129714380Y-126073238D01*
X129714380Y-126168476D01*
X129714380Y-124787523D02*
X129714380Y-125358952D01*
X129714380Y-125073238D02*
X128714380Y-125073238D01*
X128857238Y-125168476D01*
X128952476Y-125263714D01*
X129000095Y-125358952D01*
X129047714Y-123930380D02*
X129714380Y-123930380D01*
X128666761Y-124168476D02*
X129381047Y-124406571D01*
X129381047Y-123787523D01*
%TO.C,J13*%
X160464380Y-125533523D02*
X161178666Y-125533523D01*
X161321523Y-125581142D01*
X161416761Y-125676380D01*
X161464380Y-125819238D01*
X161464380Y-125914476D01*
X161464380Y-124533523D02*
X161464380Y-125104952D01*
X161464380Y-124819238D02*
X160464380Y-124819238D01*
X160607238Y-124914476D01*
X160702476Y-125009714D01*
X160750095Y-125104952D01*
X160464380Y-124200190D02*
X160464380Y-123581142D01*
X160845333Y-123914476D01*
X160845333Y-123771619D01*
X160892952Y-123676380D01*
X160940571Y-123628761D01*
X161035809Y-123581142D01*
X161273904Y-123581142D01*
X161369142Y-123628761D01*
X161416761Y-123676380D01*
X161464380Y-123771619D01*
X161464380Y-124057333D01*
X161416761Y-124152571D01*
X161369142Y-124200190D01*
%TO.C,J12*%
X118300380Y-125787523D02*
X119014666Y-125787523D01*
X119157523Y-125835142D01*
X119252761Y-125930380D01*
X119300380Y-126073238D01*
X119300380Y-126168476D01*
X119300380Y-124787523D02*
X119300380Y-125358952D01*
X119300380Y-125073238D02*
X118300380Y-125073238D01*
X118443238Y-125168476D01*
X118538476Y-125263714D01*
X118586095Y-125358952D01*
X118395619Y-124406571D02*
X118348000Y-124358952D01*
X118300380Y-124263714D01*
X118300380Y-124025619D01*
X118348000Y-123930380D01*
X118395619Y-123882761D01*
X118490857Y-123835142D01*
X118586095Y-123835142D01*
X118728952Y-123882761D01*
X119300380Y-124454190D01*
X119300380Y-123835142D01*
%TO.C,J11*%
X150304380Y-125533523D02*
X151018666Y-125533523D01*
X151161523Y-125581142D01*
X151256761Y-125676380D01*
X151304380Y-125819238D01*
X151304380Y-125914476D01*
X151304380Y-124533523D02*
X151304380Y-125104952D01*
X151304380Y-124819238D02*
X150304380Y-124819238D01*
X150447238Y-124914476D01*
X150542476Y-125009714D01*
X150590095Y-125104952D01*
X151304380Y-123581142D02*
X151304380Y-124152571D01*
X151304380Y-123866857D02*
X150304380Y-123866857D01*
X150447238Y-123962095D01*
X150542476Y-124057333D01*
X150590095Y-124152571D01*
%TO.C,J10*%
X153387380Y-40931523D02*
X154101666Y-40931523D01*
X154244523Y-40979142D01*
X154339761Y-41074380D01*
X154387380Y-41217238D01*
X154387380Y-41312476D01*
X154387380Y-39931523D02*
X154387380Y-40502952D01*
X154387380Y-40217238D02*
X153387380Y-40217238D01*
X153530238Y-40312476D01*
X153625476Y-40407714D01*
X153673095Y-40502952D01*
X153387380Y-39312476D02*
X153387380Y-39217238D01*
X153435000Y-39122000D01*
X153482619Y-39074380D01*
X153577857Y-39026761D01*
X153768333Y-38979142D01*
X154006428Y-38979142D01*
X154196904Y-39026761D01*
X154292142Y-39074380D01*
X154339761Y-39122000D01*
X154387380Y-39217238D01*
X154387380Y-39312476D01*
X154339761Y-39407714D01*
X154292142Y-39455333D01*
X154196904Y-39502952D01*
X154006428Y-39550571D01*
X153768333Y-39550571D01*
X153577857Y-39502952D01*
X153482619Y-39455333D01*
X153435000Y-39407714D01*
X153387380Y-39312476D01*
%TO.C,J9*%
X141449380Y-40455333D02*
X142163666Y-40455333D01*
X142306523Y-40502952D01*
X142401761Y-40598190D01*
X142449380Y-40741047D01*
X142449380Y-40836285D01*
X142449380Y-39931523D02*
X142449380Y-39741047D01*
X142401761Y-39645809D01*
X142354142Y-39598190D01*
X142211285Y-39502952D01*
X142020809Y-39455333D01*
X141639857Y-39455333D01*
X141544619Y-39502952D01*
X141497000Y-39550571D01*
X141449380Y-39645809D01*
X141449380Y-39836285D01*
X141497000Y-39931523D01*
X141544619Y-39979142D01*
X141639857Y-40026761D01*
X141877952Y-40026761D01*
X141973190Y-39979142D01*
X142020809Y-39931523D01*
X142068428Y-39836285D01*
X142068428Y-39645809D01*
X142020809Y-39550571D01*
X141973190Y-39502952D01*
X141877952Y-39455333D01*
%TO.C,J8*%
X120367380Y-40455333D02*
X121081666Y-40455333D01*
X121224523Y-40502952D01*
X121319761Y-40598190D01*
X121367380Y-40741047D01*
X121367380Y-40836285D01*
X120795952Y-39836285D02*
X120748333Y-39931523D01*
X120700714Y-39979142D01*
X120605476Y-40026761D01*
X120557857Y-40026761D01*
X120462619Y-39979142D01*
X120415000Y-39931523D01*
X120367380Y-39836285D01*
X120367380Y-39645809D01*
X120415000Y-39550571D01*
X120462619Y-39502952D01*
X120557857Y-39455333D01*
X120605476Y-39455333D01*
X120700714Y-39502952D01*
X120748333Y-39550571D01*
X120795952Y-39645809D01*
X120795952Y-39836285D01*
X120843571Y-39931523D01*
X120891190Y-39979142D01*
X120986428Y-40026761D01*
X121176904Y-40026761D01*
X121272142Y-39979142D01*
X121319761Y-39931523D01*
X121367380Y-39836285D01*
X121367380Y-39645809D01*
X121319761Y-39550571D01*
X121272142Y-39502952D01*
X121176904Y-39455333D01*
X120986428Y-39455333D01*
X120891190Y-39502952D01*
X120843571Y-39550571D01*
X120795952Y-39645809D01*
%TO.C,J7*%
X130535380Y-40350333D02*
X131249666Y-40350333D01*
X131392523Y-40397952D01*
X131487761Y-40493190D01*
X131535380Y-40636047D01*
X131535380Y-40731285D01*
X130535380Y-39969380D02*
X130535380Y-39302714D01*
X131535380Y-39731285D01*
%TO.C,J6*%
X109699380Y-40455333D02*
X110413666Y-40455333D01*
X110556523Y-40502952D01*
X110651761Y-40598190D01*
X110699380Y-40741047D01*
X110699380Y-40836285D01*
X109699380Y-39550571D02*
X109699380Y-39741047D01*
X109747000Y-39836285D01*
X109794619Y-39883904D01*
X109937476Y-39979142D01*
X110127952Y-40026761D01*
X110508904Y-40026761D01*
X110604142Y-39979142D01*
X110651761Y-39931523D01*
X110699380Y-39836285D01*
X110699380Y-39645809D01*
X110651761Y-39550571D01*
X110604142Y-39502952D01*
X110508904Y-39455333D01*
X110270809Y-39455333D01*
X110175571Y-39502952D01*
X110127952Y-39550571D01*
X110080333Y-39645809D01*
X110080333Y-39836285D01*
X110127952Y-39931523D01*
X110175571Y-39979142D01*
X110270809Y-40026761D01*
%TO.C,J5*%
X100555380Y-40455333D02*
X101269666Y-40455333D01*
X101412523Y-40502952D01*
X101507761Y-40598190D01*
X101555380Y-40741047D01*
X101555380Y-40836285D01*
X100555380Y-39502952D02*
X100555380Y-39979142D01*
X101031571Y-40026761D01*
X100983952Y-39979142D01*
X100936333Y-39883904D01*
X100936333Y-39645809D01*
X100983952Y-39550571D01*
X101031571Y-39502952D01*
X101126809Y-39455333D01*
X101364904Y-39455333D01*
X101460142Y-39502952D01*
X101507761Y-39550571D01*
X101555380Y-39645809D01*
X101555380Y-39883904D01*
X101507761Y-39979142D01*
X101460142Y-40026761D01*
%TO.C,J4*%
X97777666Y-95226380D02*
X97777666Y-95940666D01*
X97730047Y-96083523D01*
X97634809Y-96178761D01*
X97491952Y-96226380D01*
X97396714Y-96226380D01*
X98682428Y-95559714D02*
X98682428Y-96226380D01*
X98444333Y-95178761D02*
X98206238Y-95893047D01*
X98825285Y-95893047D01*
%TO.C,J3*%
X97212666Y-75160380D02*
X97212666Y-75874666D01*
X97165047Y-76017523D01*
X97069809Y-76112761D01*
X96926952Y-76160380D01*
X96831714Y-76160380D01*
X97593619Y-75160380D02*
X98212666Y-75160380D01*
X97879333Y-75541333D01*
X98022190Y-75541333D01*
X98117428Y-75588952D01*
X98165047Y-75636571D01*
X98212666Y-75731809D01*
X98212666Y-75969904D01*
X98165047Y-76065142D01*
X98117428Y-76112761D01*
X98022190Y-76160380D01*
X97736476Y-76160380D01*
X97641238Y-76112761D01*
X97593619Y-76065142D01*
%TO.C,J2*%
X97446666Y-73848380D02*
X97446666Y-74562666D01*
X97399047Y-74705523D01*
X97303809Y-74800761D01*
X97160952Y-74848380D01*
X97065714Y-74848380D01*
X97875238Y-73943619D02*
X97922857Y-73896000D01*
X98018095Y-73848380D01*
X98256190Y-73848380D01*
X98351428Y-73896000D01*
X98399047Y-73943619D01*
X98446666Y-74038857D01*
X98446666Y-74134095D01*
X98399047Y-74276952D01*
X97827619Y-74848380D01*
X98446666Y-74848380D01*
%TO.C,J1*%
X162871666Y-56115380D02*
X162871666Y-56829666D01*
X162824047Y-56972523D01*
X162728809Y-57067761D01*
X162585952Y-57115380D01*
X162490714Y-57115380D01*
X163871666Y-57115380D02*
X163300238Y-57115380D01*
X163585952Y-57115380D02*
X163585952Y-56115380D01*
X163490714Y-56258238D01*
X163395476Y-56353476D01*
X163300238Y-56401095D01*
%TO.C,D1*%
X112799904Y-110482380D02*
X112799904Y-109482380D01*
X113038000Y-109482380D01*
X113180857Y-109530000D01*
X113276095Y-109625238D01*
X113323714Y-109720476D01*
X113371333Y-109910952D01*
X113371333Y-110053809D01*
X113323714Y-110244285D01*
X113276095Y-110339523D01*
X113180857Y-110434761D01*
X113038000Y-110482380D01*
X112799904Y-110482380D01*
X114323714Y-110482380D02*
X113752285Y-110482380D01*
X114038000Y-110482380D02*
X114038000Y-109482380D01*
X113942761Y-109625238D01*
X113847523Y-109720476D01*
X113752285Y-109768095D01*
%TO.C,D2*%
X113815904Y-55482380D02*
X113815904Y-54482380D01*
X114054000Y-54482380D01*
X114196857Y-54530000D01*
X114292095Y-54625238D01*
X114339714Y-54720476D01*
X114387333Y-54910952D01*
X114387333Y-55053809D01*
X114339714Y-55244285D01*
X114292095Y-55339523D01*
X114196857Y-55434761D01*
X114054000Y-55482380D01*
X113815904Y-55482380D01*
X114768285Y-54577619D02*
X114815904Y-54530000D01*
X114911142Y-54482380D01*
X115149238Y-54482380D01*
X115244476Y-54530000D01*
X115292095Y-54577619D01*
X115339714Y-54672857D01*
X115339714Y-54768095D01*
X115292095Y-54910952D01*
X114720666Y-55482380D01*
X115339714Y-55482380D01*
%TO.C,R2*%
X107799333Y-113658380D02*
X107466000Y-113182190D01*
X107227904Y-113658380D02*
X107227904Y-112658380D01*
X107608857Y-112658380D01*
X107704095Y-112706000D01*
X107751714Y-112753619D01*
X107799333Y-112848857D01*
X107799333Y-112991714D01*
X107751714Y-113086952D01*
X107704095Y-113134571D01*
X107608857Y-113182190D01*
X107227904Y-113182190D01*
X108180285Y-112753619D02*
X108227904Y-112706000D01*
X108323142Y-112658380D01*
X108561238Y-112658380D01*
X108656476Y-112706000D01*
X108704095Y-112753619D01*
X108751714Y-112848857D01*
X108751714Y-112944095D01*
X108704095Y-113086952D01*
X108132666Y-113658380D01*
X108751714Y-113658380D01*
%TO.C,R1*%
X115896380Y-61634666D02*
X115420190Y-61968000D01*
X115896380Y-62206095D02*
X114896380Y-62206095D01*
X114896380Y-61825142D01*
X114944000Y-61729904D01*
X114991619Y-61682285D01*
X115086857Y-61634666D01*
X115229714Y-61634666D01*
X115324952Y-61682285D01*
X115372571Y-61729904D01*
X115420190Y-61825142D01*
X115420190Y-62206095D01*
X115896380Y-60682285D02*
X115896380Y-61253714D01*
X115896380Y-60968000D02*
X114896380Y-60968000D01*
X115039238Y-61063238D01*
X115134476Y-61158476D01*
X115182095Y-61253714D01*
%TO.C,R3*%
X107783333Y-50872380D02*
X107450000Y-50396190D01*
X107211904Y-50872380D02*
X107211904Y-49872380D01*
X107592857Y-49872380D01*
X107688095Y-49920000D01*
X107735714Y-49967619D01*
X107783333Y-50062857D01*
X107783333Y-50205714D01*
X107735714Y-50300952D01*
X107688095Y-50348571D01*
X107592857Y-50396190D01*
X107211904Y-50396190D01*
X108116666Y-49872380D02*
X108735714Y-49872380D01*
X108402380Y-50253333D01*
X108545238Y-50253333D01*
X108640476Y-50300952D01*
X108688095Y-50348571D01*
X108735714Y-50443809D01*
X108735714Y-50681904D01*
X108688095Y-50777142D01*
X108640476Y-50824761D01*
X108545238Y-50872380D01*
X108259523Y-50872380D01*
X108164285Y-50824761D01*
X108116666Y-50777142D01*
D13*
%TO.C,J17*%
X92985000Y-125575000D02*
X86985000Y-125575000D01*
X86985000Y-122815000D02*
X92985000Y-122815000D01*
X98355000Y-127005000D02*
X97085000Y-127005000D01*
X92985000Y-125815000D02*
X86985000Y-125815000D01*
X92985000Y-126115000D02*
X86985000Y-126115000D01*
X86985000Y-125355000D02*
X92985000Y-125355000D01*
X92985000Y-127065000D02*
X95645000Y-127065000D01*
X95645000Y-127065000D02*
X95645000Y-121865000D01*
X92985000Y-125935000D02*
X86985000Y-125935000D01*
X86985000Y-126115000D02*
X86985000Y-125355000D01*
X92985000Y-125455000D02*
X86985000Y-125455000D01*
X92985000Y-126055000D02*
X86985000Y-126055000D01*
X98355000Y-125735000D02*
X98355000Y-127005000D01*
X95645000Y-124465000D02*
X92985000Y-124465000D01*
X92985000Y-125695000D02*
X86985000Y-125695000D01*
X95645000Y-121865000D02*
X92985000Y-121865000D01*
X95975000Y-125355000D02*
X95645000Y-125355000D01*
X92985000Y-121865000D02*
X92985000Y-127065000D01*
X92985000Y-123575000D02*
X86985000Y-123575000D01*
X96042071Y-122815000D02*
X95645000Y-122815000D01*
X95975000Y-126115000D02*
X95645000Y-126115000D01*
X86985000Y-123575000D02*
X86985000Y-122815000D01*
X96042071Y-123575000D02*
X95645000Y-123575000D01*
D14*
%TO.C,U1*%
X150613000Y-107400000D02*
X122713000Y-107400000D01*
X122713000Y-107400000D02*
X122713000Y-53000000D01*
X122713000Y-53000000D02*
X150613000Y-53000000D01*
X150613000Y-53000000D02*
X150613000Y-107400000D01*
D13*
%TO.C,J16*%
X106012000Y-124798000D02*
X106012000Y-130798000D01*
X103252000Y-130798000D02*
X103252000Y-124798000D01*
X107442000Y-119428000D02*
X107442000Y-120698000D01*
X106252000Y-124798000D02*
X106252000Y-130798000D01*
X106552000Y-124798000D02*
X106552000Y-130798000D01*
X105792000Y-130798000D02*
X105792000Y-124798000D01*
X107502000Y-124798000D02*
X107502000Y-122138000D01*
X107502000Y-122138000D02*
X102302000Y-122138000D01*
X106372000Y-124798000D02*
X106372000Y-130798000D01*
X106552000Y-130798000D02*
X105792000Y-130798000D01*
X105892000Y-124798000D02*
X105892000Y-130798000D01*
X106492000Y-124798000D02*
X106492000Y-130798000D01*
X106172000Y-119428000D02*
X107442000Y-119428000D01*
X104902000Y-122138000D02*
X104902000Y-124798000D01*
X106132000Y-124798000D02*
X106132000Y-130798000D01*
X102302000Y-122138000D02*
X102302000Y-124798000D01*
X105792000Y-121808000D02*
X105792000Y-122138000D01*
X102302000Y-124798000D02*
X107502000Y-124798000D01*
X104012000Y-124798000D02*
X104012000Y-130798000D01*
X103252000Y-121740929D02*
X103252000Y-122138000D01*
X106552000Y-121808000D02*
X106552000Y-122138000D01*
X104012000Y-130798000D02*
X103252000Y-130798000D01*
X104012000Y-121740929D02*
X104012000Y-122138000D01*
%TO.C,J15*%
X137254000Y-124544000D02*
X137254000Y-130544000D01*
X134494000Y-130544000D02*
X134494000Y-124544000D01*
X138684000Y-119174000D02*
X138684000Y-120444000D01*
X137494000Y-124544000D02*
X137494000Y-130544000D01*
X137794000Y-124544000D02*
X137794000Y-130544000D01*
X137034000Y-130544000D02*
X137034000Y-124544000D01*
X138744000Y-124544000D02*
X138744000Y-121884000D01*
X138744000Y-121884000D02*
X133544000Y-121884000D01*
X137614000Y-124544000D02*
X137614000Y-130544000D01*
X137794000Y-130544000D02*
X137034000Y-130544000D01*
X137134000Y-124544000D02*
X137134000Y-130544000D01*
X137734000Y-124544000D02*
X137734000Y-130544000D01*
X137414000Y-119174000D02*
X138684000Y-119174000D01*
X136144000Y-121884000D02*
X136144000Y-124544000D01*
X137374000Y-124544000D02*
X137374000Y-130544000D01*
X133544000Y-121884000D02*
X133544000Y-124544000D01*
X137034000Y-121554000D02*
X137034000Y-121884000D01*
X133544000Y-124544000D02*
X138744000Y-124544000D01*
X135254000Y-124544000D02*
X135254000Y-130544000D01*
X134494000Y-121486929D02*
X134494000Y-121884000D01*
X137794000Y-121554000D02*
X137794000Y-121884000D01*
X135254000Y-130544000D02*
X134494000Y-130544000D01*
X135254000Y-121486929D02*
X135254000Y-121884000D01*
%TO.C,J14*%
X126832000Y-124693000D02*
X126832000Y-130693000D01*
X124072000Y-130693000D02*
X124072000Y-124693000D01*
X128262000Y-119323000D02*
X128262000Y-120593000D01*
X127072000Y-124693000D02*
X127072000Y-130693000D01*
X127372000Y-124693000D02*
X127372000Y-130693000D01*
X126612000Y-130693000D02*
X126612000Y-124693000D01*
X128322000Y-124693000D02*
X128322000Y-122033000D01*
X128322000Y-122033000D02*
X123122000Y-122033000D01*
X127192000Y-124693000D02*
X127192000Y-130693000D01*
X127372000Y-130693000D02*
X126612000Y-130693000D01*
X126712000Y-124693000D02*
X126712000Y-130693000D01*
X127312000Y-124693000D02*
X127312000Y-130693000D01*
X126992000Y-119323000D02*
X128262000Y-119323000D01*
X125722000Y-122033000D02*
X125722000Y-124693000D01*
X126952000Y-124693000D02*
X126952000Y-130693000D01*
X123122000Y-122033000D02*
X123122000Y-124693000D01*
X126612000Y-121703000D02*
X126612000Y-122033000D01*
X123122000Y-124693000D02*
X128322000Y-124693000D01*
X124832000Y-124693000D02*
X124832000Y-130693000D01*
X124072000Y-121635929D02*
X124072000Y-122033000D01*
X127372000Y-121703000D02*
X127372000Y-122033000D01*
X124832000Y-130693000D02*
X124072000Y-130693000D01*
X124832000Y-121635929D02*
X124832000Y-122033000D01*
%TO.C,J13*%
X158582000Y-124439000D02*
X158582000Y-130439000D01*
X155822000Y-130439000D02*
X155822000Y-124439000D01*
X160012000Y-119069000D02*
X160012000Y-120339000D01*
X158822000Y-124439000D02*
X158822000Y-130439000D01*
X159122000Y-124439000D02*
X159122000Y-130439000D01*
X158362000Y-130439000D02*
X158362000Y-124439000D01*
X160072000Y-124439000D02*
X160072000Y-121779000D01*
X160072000Y-121779000D02*
X154872000Y-121779000D01*
X158942000Y-124439000D02*
X158942000Y-130439000D01*
X159122000Y-130439000D02*
X158362000Y-130439000D01*
X158462000Y-124439000D02*
X158462000Y-130439000D01*
X159062000Y-124439000D02*
X159062000Y-130439000D01*
X158742000Y-119069000D02*
X160012000Y-119069000D01*
X157472000Y-121779000D02*
X157472000Y-124439000D01*
X158702000Y-124439000D02*
X158702000Y-130439000D01*
X154872000Y-121779000D02*
X154872000Y-124439000D01*
X158362000Y-121449000D02*
X158362000Y-121779000D01*
X154872000Y-124439000D02*
X160072000Y-124439000D01*
X156582000Y-124439000D02*
X156582000Y-130439000D01*
X155822000Y-121381929D02*
X155822000Y-121779000D01*
X159122000Y-121449000D02*
X159122000Y-121779000D01*
X156582000Y-130439000D02*
X155822000Y-130439000D01*
X156582000Y-121381929D02*
X156582000Y-121779000D01*
%TO.C,J12*%
X116418000Y-124693000D02*
X116418000Y-130693000D01*
X113658000Y-130693000D02*
X113658000Y-124693000D01*
X117848000Y-119323000D02*
X117848000Y-120593000D01*
X116658000Y-124693000D02*
X116658000Y-130693000D01*
X116958000Y-124693000D02*
X116958000Y-130693000D01*
X116198000Y-130693000D02*
X116198000Y-124693000D01*
X117908000Y-124693000D02*
X117908000Y-122033000D01*
X117908000Y-122033000D02*
X112708000Y-122033000D01*
X116778000Y-124693000D02*
X116778000Y-130693000D01*
X116958000Y-130693000D02*
X116198000Y-130693000D01*
X116298000Y-124693000D02*
X116298000Y-130693000D01*
X116898000Y-124693000D02*
X116898000Y-130693000D01*
X116578000Y-119323000D02*
X117848000Y-119323000D01*
X115308000Y-122033000D02*
X115308000Y-124693000D01*
X116538000Y-124693000D02*
X116538000Y-130693000D01*
X112708000Y-122033000D02*
X112708000Y-124693000D01*
X116198000Y-121703000D02*
X116198000Y-122033000D01*
X112708000Y-124693000D02*
X117908000Y-124693000D01*
X114418000Y-124693000D02*
X114418000Y-130693000D01*
X113658000Y-121635929D02*
X113658000Y-122033000D01*
X116958000Y-121703000D02*
X116958000Y-122033000D01*
X114418000Y-130693000D02*
X113658000Y-130693000D01*
X114418000Y-121635929D02*
X114418000Y-122033000D01*
%TO.C,J11*%
X148422000Y-124439000D02*
X148422000Y-130439000D01*
X145662000Y-130439000D02*
X145662000Y-124439000D01*
X149852000Y-119069000D02*
X149852000Y-120339000D01*
X148662000Y-124439000D02*
X148662000Y-130439000D01*
X148962000Y-124439000D02*
X148962000Y-130439000D01*
X148202000Y-130439000D02*
X148202000Y-124439000D01*
X149912000Y-124439000D02*
X149912000Y-121779000D01*
X149912000Y-121779000D02*
X144712000Y-121779000D01*
X148782000Y-124439000D02*
X148782000Y-130439000D01*
X148962000Y-130439000D02*
X148202000Y-130439000D01*
X148302000Y-124439000D02*
X148302000Y-130439000D01*
X148902000Y-124439000D02*
X148902000Y-130439000D01*
X148582000Y-119069000D02*
X149852000Y-119069000D01*
X147312000Y-121779000D02*
X147312000Y-124439000D01*
X148542000Y-124439000D02*
X148542000Y-130439000D01*
X144712000Y-121779000D02*
X144712000Y-124439000D01*
X148202000Y-121449000D02*
X148202000Y-121779000D01*
X144712000Y-124439000D02*
X149912000Y-124439000D01*
X146422000Y-124439000D02*
X146422000Y-130439000D01*
X145662000Y-121381929D02*
X145662000Y-121779000D01*
X148962000Y-121449000D02*
X148962000Y-121779000D01*
X146422000Y-130439000D02*
X145662000Y-130439000D01*
X146422000Y-121381929D02*
X146422000Y-121779000D01*
%TO.C,J10*%
X156365000Y-40407000D02*
X156365000Y-34407000D01*
X159125000Y-34407000D02*
X159125000Y-40407000D01*
X154935000Y-45777000D02*
X154935000Y-44507000D01*
X156125000Y-40407000D02*
X156125000Y-34407000D01*
X155825000Y-40407000D02*
X155825000Y-34407000D01*
X156585000Y-34407000D02*
X156585000Y-40407000D01*
X154875000Y-40407000D02*
X154875000Y-43067000D01*
X154875000Y-43067000D02*
X160075000Y-43067000D01*
X156005000Y-40407000D02*
X156005000Y-34407000D01*
X155825000Y-34407000D02*
X156585000Y-34407000D01*
X156485000Y-40407000D02*
X156485000Y-34407000D01*
X155885000Y-40407000D02*
X155885000Y-34407000D01*
X156205000Y-45777000D02*
X154935000Y-45777000D01*
X157475000Y-43067000D02*
X157475000Y-40407000D01*
X156245000Y-40407000D02*
X156245000Y-34407000D01*
X160075000Y-43067000D02*
X160075000Y-40407000D01*
X156585000Y-43397000D02*
X156585000Y-43067000D01*
X160075000Y-40407000D02*
X154875000Y-40407000D01*
X158365000Y-40407000D02*
X158365000Y-34407000D01*
X159125000Y-43464071D02*
X159125000Y-43067000D01*
X155825000Y-43397000D02*
X155825000Y-43067000D01*
X158365000Y-34407000D02*
X159125000Y-34407000D01*
X158365000Y-43464071D02*
X158365000Y-43067000D01*
%TO.C,J9*%
X144427000Y-40407000D02*
X144427000Y-34407000D01*
X147187000Y-34407000D02*
X147187000Y-40407000D01*
X142997000Y-45777000D02*
X142997000Y-44507000D01*
X144187000Y-40407000D02*
X144187000Y-34407000D01*
X143887000Y-40407000D02*
X143887000Y-34407000D01*
X144647000Y-34407000D02*
X144647000Y-40407000D01*
X142937000Y-40407000D02*
X142937000Y-43067000D01*
X142937000Y-43067000D02*
X148137000Y-43067000D01*
X144067000Y-40407000D02*
X144067000Y-34407000D01*
X143887000Y-34407000D02*
X144647000Y-34407000D01*
X144547000Y-40407000D02*
X144547000Y-34407000D01*
X143947000Y-40407000D02*
X143947000Y-34407000D01*
X144267000Y-45777000D02*
X142997000Y-45777000D01*
X145537000Y-43067000D02*
X145537000Y-40407000D01*
X144307000Y-40407000D02*
X144307000Y-34407000D01*
X148137000Y-43067000D02*
X148137000Y-40407000D01*
X144647000Y-43397000D02*
X144647000Y-43067000D01*
X148137000Y-40407000D02*
X142937000Y-40407000D01*
X146427000Y-40407000D02*
X146427000Y-34407000D01*
X147187000Y-43464071D02*
X147187000Y-43067000D01*
X143887000Y-43397000D02*
X143887000Y-43067000D01*
X146427000Y-34407000D02*
X147187000Y-34407000D01*
X146427000Y-43464071D02*
X146427000Y-43067000D01*
%TO.C,J8*%
X125345000Y-43464071D02*
X125345000Y-43067000D01*
X125345000Y-34407000D02*
X126105000Y-34407000D01*
X122805000Y-43397000D02*
X122805000Y-43067000D01*
X126105000Y-43464071D02*
X126105000Y-43067000D01*
X125345000Y-40407000D02*
X125345000Y-34407000D01*
X127055000Y-40407000D02*
X121855000Y-40407000D01*
X123565000Y-43397000D02*
X123565000Y-43067000D01*
X127055000Y-43067000D02*
X127055000Y-40407000D01*
X123225000Y-40407000D02*
X123225000Y-34407000D01*
X124455000Y-43067000D02*
X124455000Y-40407000D01*
X123185000Y-45777000D02*
X121915000Y-45777000D01*
X122865000Y-40407000D02*
X122865000Y-34407000D01*
X123465000Y-40407000D02*
X123465000Y-34407000D01*
X122805000Y-34407000D02*
X123565000Y-34407000D01*
X122985000Y-40407000D02*
X122985000Y-34407000D01*
X121855000Y-43067000D02*
X127055000Y-43067000D01*
X121855000Y-40407000D02*
X121855000Y-43067000D01*
X123565000Y-34407000D02*
X123565000Y-40407000D01*
X122805000Y-40407000D02*
X122805000Y-34407000D01*
X123105000Y-40407000D02*
X123105000Y-34407000D01*
X121915000Y-45777000D02*
X121915000Y-44507000D01*
X126105000Y-34407000D02*
X126105000Y-40407000D01*
X123345000Y-40407000D02*
X123345000Y-34407000D01*
%TO.C,J7*%
X135513000Y-43359071D02*
X135513000Y-42962000D01*
X135513000Y-34302000D02*
X136273000Y-34302000D01*
X132973000Y-43292000D02*
X132973000Y-42962000D01*
X136273000Y-43359071D02*
X136273000Y-42962000D01*
X135513000Y-40302000D02*
X135513000Y-34302000D01*
X137223000Y-40302000D02*
X132023000Y-40302000D01*
X133733000Y-43292000D02*
X133733000Y-42962000D01*
X137223000Y-42962000D02*
X137223000Y-40302000D01*
X133393000Y-40302000D02*
X133393000Y-34302000D01*
X134623000Y-42962000D02*
X134623000Y-40302000D01*
X133353000Y-45672000D02*
X132083000Y-45672000D01*
X133033000Y-40302000D02*
X133033000Y-34302000D01*
X133633000Y-40302000D02*
X133633000Y-34302000D01*
X132973000Y-34302000D02*
X133733000Y-34302000D01*
X133153000Y-40302000D02*
X133153000Y-34302000D01*
X132023000Y-42962000D02*
X137223000Y-42962000D01*
X132023000Y-40302000D02*
X132023000Y-42962000D01*
X133733000Y-34302000D02*
X133733000Y-40302000D01*
X132973000Y-40302000D02*
X132973000Y-34302000D01*
X133273000Y-40302000D02*
X133273000Y-34302000D01*
X132083000Y-45672000D02*
X132083000Y-44402000D01*
X136273000Y-34302000D02*
X136273000Y-40302000D01*
X133513000Y-40302000D02*
X133513000Y-34302000D01*
%TO.C,J6*%
X112677000Y-40407000D02*
X112677000Y-34407000D01*
X115437000Y-34407000D02*
X115437000Y-40407000D01*
X111247000Y-45777000D02*
X111247000Y-44507000D01*
X112437000Y-40407000D02*
X112437000Y-34407000D01*
X112137000Y-40407000D02*
X112137000Y-34407000D01*
X112897000Y-34407000D02*
X112897000Y-40407000D01*
X111187000Y-40407000D02*
X111187000Y-43067000D01*
X111187000Y-43067000D02*
X116387000Y-43067000D01*
X112317000Y-40407000D02*
X112317000Y-34407000D01*
X112137000Y-34407000D02*
X112897000Y-34407000D01*
X112797000Y-40407000D02*
X112797000Y-34407000D01*
X112197000Y-40407000D02*
X112197000Y-34407000D01*
X112517000Y-45777000D02*
X111247000Y-45777000D01*
X113787000Y-43067000D02*
X113787000Y-40407000D01*
X112557000Y-40407000D02*
X112557000Y-34407000D01*
X116387000Y-43067000D02*
X116387000Y-40407000D01*
X112897000Y-43397000D02*
X112897000Y-43067000D01*
X116387000Y-40407000D02*
X111187000Y-40407000D01*
X114677000Y-40407000D02*
X114677000Y-34407000D01*
X115437000Y-43464071D02*
X115437000Y-43067000D01*
X112137000Y-43397000D02*
X112137000Y-43067000D01*
X114677000Y-34407000D02*
X115437000Y-34407000D01*
X114677000Y-43464071D02*
X114677000Y-43067000D01*
%TO.C,J5*%
X103533000Y-40407000D02*
X103533000Y-34407000D01*
X106293000Y-34407000D02*
X106293000Y-40407000D01*
X102103000Y-45777000D02*
X102103000Y-44507000D01*
X103293000Y-40407000D02*
X103293000Y-34407000D01*
X102993000Y-40407000D02*
X102993000Y-34407000D01*
X103753000Y-34407000D02*
X103753000Y-40407000D01*
X102043000Y-40407000D02*
X102043000Y-43067000D01*
X102043000Y-43067000D02*
X107243000Y-43067000D01*
X103173000Y-40407000D02*
X103173000Y-34407000D01*
X102993000Y-34407000D02*
X103753000Y-34407000D01*
X103653000Y-40407000D02*
X103653000Y-34407000D01*
X103053000Y-40407000D02*
X103053000Y-34407000D01*
X103373000Y-45777000D02*
X102103000Y-45777000D01*
X104643000Y-43067000D02*
X104643000Y-40407000D01*
X103413000Y-40407000D02*
X103413000Y-34407000D01*
X107243000Y-43067000D02*
X107243000Y-40407000D01*
X103753000Y-43397000D02*
X103753000Y-43067000D01*
X107243000Y-40407000D02*
X102043000Y-40407000D01*
X105533000Y-40407000D02*
X105533000Y-34407000D01*
X106293000Y-43464071D02*
X106293000Y-43067000D01*
X102993000Y-43397000D02*
X102993000Y-43067000D01*
X105533000Y-34407000D02*
X106293000Y-34407000D01*
X105533000Y-43464071D02*
X105533000Y-43067000D01*
%TO.C,J4*%
X94768929Y-106044000D02*
X95166000Y-106044000D01*
X103826000Y-106044000D02*
X97826000Y-106044000D01*
X97826000Y-109534000D02*
X97826000Y-96714000D01*
X97826000Y-96714000D02*
X95166000Y-96714000D01*
X95166000Y-101854000D02*
X97826000Y-101854000D01*
X94768929Y-103504000D02*
X95166000Y-103504000D01*
X95166000Y-106934000D02*
X97826000Y-106934000D01*
X94768929Y-102744000D02*
X95166000Y-102744000D01*
X92456000Y-96774000D02*
X93726000Y-96774000D01*
X103826000Y-100964000D02*
X97826000Y-100964000D01*
X95166000Y-99314000D02*
X97826000Y-99314000D01*
X95166000Y-104394000D02*
X97826000Y-104394000D01*
X94836000Y-98424000D02*
X95166000Y-98424000D01*
X95166000Y-96714000D02*
X95166000Y-109534000D01*
X94768929Y-108584000D02*
X95166000Y-108584000D01*
X103826000Y-102744000D02*
X103826000Y-103504000D01*
X97826000Y-100204000D02*
X103826000Y-100204000D01*
X94768929Y-107824000D02*
X95166000Y-107824000D01*
X97826000Y-102744000D02*
X103826000Y-102744000D01*
X103826000Y-103504000D02*
X97826000Y-103504000D01*
X95166000Y-109534000D02*
X97826000Y-109534000D01*
X97826000Y-98084000D02*
X103826000Y-98084000D01*
X103826000Y-98424000D02*
X97826000Y-98424000D01*
X97826000Y-97724000D02*
X103826000Y-97724000D01*
X94768929Y-100204000D02*
X95166000Y-100204000D01*
X97826000Y-97844000D02*
X103826000Y-97844000D01*
X103826000Y-100204000D02*
X103826000Y-100964000D01*
X97826000Y-97964000D02*
X103826000Y-97964000D01*
X94836000Y-97664000D02*
X95166000Y-97664000D01*
X97826000Y-98324000D02*
X103826000Y-98324000D01*
X94768929Y-100964000D02*
X95166000Y-100964000D01*
X97826000Y-98204000D02*
X103826000Y-98204000D01*
X97826000Y-105284000D02*
X103826000Y-105284000D01*
X103826000Y-105284000D02*
X103826000Y-106044000D01*
X103826000Y-97664000D02*
X103826000Y-98424000D01*
X97826000Y-97664000D02*
X103826000Y-97664000D01*
X97826000Y-107824000D02*
X103826000Y-107824000D01*
X92456000Y-98044000D02*
X92456000Y-96774000D01*
X103826000Y-108584000D02*
X97826000Y-108584000D01*
X94768929Y-105284000D02*
X95166000Y-105284000D01*
X103826000Y-107824000D02*
X103826000Y-108584000D01*
%TO.C,J3*%
X94203929Y-80898000D02*
X94601000Y-80898000D01*
X97261000Y-85218000D02*
X103261000Y-85218000D01*
X103261000Y-83438000D02*
X97261000Y-83438000D01*
X94601000Y-76648000D02*
X94601000Y-92008000D01*
X94271000Y-77598000D02*
X94601000Y-77598000D01*
X103261000Y-77598000D02*
X103261000Y-78358000D01*
X94203929Y-83438000D02*
X94601000Y-83438000D01*
X97261000Y-78018000D02*
X103261000Y-78018000D01*
X94271000Y-78358000D02*
X94601000Y-78358000D01*
X103261000Y-85218000D02*
X103261000Y-85978000D01*
X94203929Y-90298000D02*
X94601000Y-90298000D01*
X94203929Y-85978000D02*
X94601000Y-85978000D01*
X94203929Y-87758000D02*
X94601000Y-87758000D01*
X97261000Y-77778000D02*
X103261000Y-77778000D01*
X103261000Y-78358000D02*
X97261000Y-78358000D01*
X103261000Y-80898000D02*
X97261000Y-80898000D01*
X103261000Y-80138000D02*
X103261000Y-80898000D01*
X91891000Y-76708000D02*
X93161000Y-76708000D01*
X103261000Y-85978000D02*
X97261000Y-85978000D01*
X94601000Y-79248000D02*
X97261000Y-79248000D01*
X94601000Y-92008000D02*
X97261000Y-92008000D01*
X97261000Y-77898000D02*
X103261000Y-77898000D01*
X97261000Y-82678000D02*
X103261000Y-82678000D01*
X94601000Y-89408000D02*
X97261000Y-89408000D01*
X94601000Y-81788000D02*
X97261000Y-81788000D01*
X97261000Y-77658000D02*
X103261000Y-77658000D01*
X94203929Y-82678000D02*
X94601000Y-82678000D01*
X103261000Y-90298000D02*
X103261000Y-91058000D01*
X97261000Y-76648000D02*
X94601000Y-76648000D01*
X94601000Y-84328000D02*
X97261000Y-84328000D01*
X103261000Y-88518000D02*
X97261000Y-88518000D01*
X97261000Y-77598000D02*
X103261000Y-77598000D01*
X91891000Y-77978000D02*
X91891000Y-76708000D01*
X97261000Y-78138000D02*
X103261000Y-78138000D01*
X103261000Y-87758000D02*
X103261000Y-88518000D01*
X94601000Y-86868000D02*
X97261000Y-86868000D01*
X94203929Y-85218000D02*
X94601000Y-85218000D01*
X97261000Y-92008000D02*
X97261000Y-76648000D01*
X97261000Y-78258000D02*
X103261000Y-78258000D01*
X97261000Y-90298000D02*
X103261000Y-90298000D01*
X97261000Y-80138000D02*
X103261000Y-80138000D01*
X103261000Y-91058000D02*
X97261000Y-91058000D01*
X94203929Y-91058000D02*
X94601000Y-91058000D01*
X94203929Y-80138000D02*
X94601000Y-80138000D01*
X97261000Y-87758000D02*
X103261000Y-87758000D01*
X94203929Y-88518000D02*
X94601000Y-88518000D01*
X103261000Y-82678000D02*
X103261000Y-83438000D01*
%TO.C,J2*%
X101122071Y-66666000D02*
X100725000Y-66666000D01*
X101055000Y-71746000D02*
X100725000Y-71746000D01*
X98065000Y-50476000D02*
X98065000Y-73456000D01*
X92065000Y-54726000D02*
X92065000Y-53966000D01*
X101122071Y-64126000D02*
X100725000Y-64126000D01*
X101122071Y-57266000D02*
X100725000Y-57266000D01*
X100725000Y-60696000D02*
X98065000Y-60696000D01*
X92065000Y-59046000D02*
X98065000Y-59046000D01*
X92065000Y-61586000D02*
X98065000Y-61586000D01*
X100725000Y-55616000D02*
X98065000Y-55616000D01*
X101122071Y-51426000D02*
X100725000Y-51426000D01*
X101122071Y-69206000D02*
X100725000Y-69206000D01*
X92065000Y-64886000D02*
X92065000Y-64126000D01*
X92065000Y-57266000D02*
X92065000Y-56506000D01*
X98065000Y-72446000D02*
X92065000Y-72446000D01*
X101122071Y-59806000D02*
X100725000Y-59806000D01*
X92065000Y-51426000D02*
X98065000Y-51426000D01*
X98065000Y-72326000D02*
X92065000Y-72326000D01*
X98065000Y-72506000D02*
X92065000Y-72506000D01*
X92065000Y-62346000D02*
X92065000Y-61586000D01*
X100725000Y-73456000D02*
X100725000Y-50476000D01*
X100725000Y-50476000D02*
X98065000Y-50476000D01*
X92065000Y-64126000D02*
X98065000Y-64126000D01*
X103435000Y-73396000D02*
X102165000Y-73396000D01*
X100725000Y-58156000D02*
X98065000Y-58156000D01*
X98065000Y-54726000D02*
X92065000Y-54726000D01*
X92065000Y-69966000D02*
X92065000Y-69206000D01*
X98065000Y-57266000D02*
X92065000Y-57266000D01*
X92065000Y-56506000D02*
X98065000Y-56506000D01*
X101055000Y-72506000D02*
X100725000Y-72506000D01*
X100725000Y-53076000D02*
X98065000Y-53076000D01*
X101122071Y-54726000D02*
X100725000Y-54726000D01*
X101122071Y-64886000D02*
X100725000Y-64886000D01*
X92065000Y-71746000D02*
X98065000Y-71746000D01*
X100725000Y-63236000D02*
X98065000Y-63236000D01*
X98065000Y-59806000D02*
X92065000Y-59806000D01*
X98065000Y-52186000D02*
X92065000Y-52186000D01*
X98065000Y-72086000D02*
X92065000Y-72086000D01*
X92065000Y-72506000D02*
X92065000Y-71746000D01*
X101122071Y-53966000D02*
X100725000Y-53966000D01*
X101122071Y-59046000D02*
X100725000Y-59046000D01*
X92065000Y-53966000D02*
X98065000Y-53966000D01*
X100725000Y-65776000D02*
X98065000Y-65776000D01*
X92065000Y-69206000D02*
X98065000Y-69206000D01*
X103435000Y-72126000D02*
X103435000Y-73396000D01*
X98065000Y-73456000D02*
X100725000Y-73456000D01*
X98065000Y-71846000D02*
X92065000Y-71846000D01*
X100725000Y-68316000D02*
X98065000Y-68316000D01*
X98065000Y-69966000D02*
X92065000Y-69966000D01*
X98065000Y-67426000D02*
X92065000Y-67426000D01*
X101122071Y-62346000D02*
X100725000Y-62346000D01*
X98065000Y-62346000D02*
X92065000Y-62346000D01*
X101122071Y-61586000D02*
X100725000Y-61586000D01*
X101122071Y-52186000D02*
X100725000Y-52186000D01*
X92065000Y-66666000D02*
X98065000Y-66666000D01*
X98065000Y-64886000D02*
X92065000Y-64886000D01*
X101122071Y-69966000D02*
X100725000Y-69966000D01*
X101122071Y-56506000D02*
X100725000Y-56506000D01*
X98065000Y-71966000D02*
X92065000Y-71966000D01*
X92065000Y-52186000D02*
X92065000Y-51426000D01*
X98065000Y-72206000D02*
X92065000Y-72206000D01*
X100725000Y-70856000D02*
X98065000Y-70856000D01*
X92065000Y-67426000D02*
X92065000Y-66666000D01*
X101122071Y-67426000D02*
X100725000Y-67426000D01*
X92065000Y-59806000D02*
X92065000Y-59046000D01*
%TO.C,J1*%
X159862929Y-77093000D02*
X160260000Y-77093000D01*
X168920000Y-82173000D02*
X162920000Y-82173000D01*
X168920000Y-66173000D02*
X168920000Y-66933000D01*
X159862929Y-71253000D02*
X160260000Y-71253000D01*
X168920000Y-69473000D02*
X162920000Y-69473000D01*
X168920000Y-73793000D02*
X168920000Y-74553000D01*
X159930000Y-58553000D02*
X160260000Y-58553000D01*
X168920000Y-61853000D02*
X162920000Y-61853000D01*
X160260000Y-72903000D02*
X162920000Y-72903000D01*
X168920000Y-64393000D02*
X162920000Y-64393000D01*
X160260000Y-65283000D02*
X162920000Y-65283000D01*
X162920000Y-83123000D02*
X162920000Y-57603000D01*
X159862929Y-61853000D02*
X160260000Y-61853000D01*
X159930000Y-59313000D02*
X160260000Y-59313000D01*
X162920000Y-68713000D02*
X168920000Y-68713000D01*
X160260000Y-57603000D02*
X160260000Y-83123000D01*
X168920000Y-58553000D02*
X168920000Y-59313000D01*
X162920000Y-58613000D02*
X168920000Y-58613000D01*
X159862929Y-66173000D02*
X160260000Y-66173000D01*
X162920000Y-58553000D02*
X168920000Y-58553000D01*
X162920000Y-81413000D02*
X168920000Y-81413000D01*
X159862929Y-68713000D02*
X160260000Y-68713000D01*
X162920000Y-58973000D02*
X168920000Y-58973000D01*
X159862929Y-61093000D02*
X160260000Y-61093000D01*
X159862929Y-66933000D02*
X160260000Y-66933000D01*
X159862929Y-79633000D02*
X160260000Y-79633000D01*
X168920000Y-59313000D02*
X162920000Y-59313000D01*
X168920000Y-71253000D02*
X168920000Y-72013000D01*
X159862929Y-76333000D02*
X160260000Y-76333000D01*
X159862929Y-72013000D02*
X160260000Y-72013000D01*
X168920000Y-72013000D02*
X162920000Y-72013000D01*
X162920000Y-66173000D02*
X168920000Y-66173000D01*
X160260000Y-75443000D02*
X162920000Y-75443000D01*
X168920000Y-74553000D02*
X162920000Y-74553000D01*
X159862929Y-73793000D02*
X160260000Y-73793000D01*
X162920000Y-59093000D02*
X168920000Y-59093000D01*
X159862929Y-82173000D02*
X160260000Y-82173000D01*
X160260000Y-70363000D02*
X162920000Y-70363000D01*
X168920000Y-79633000D02*
X162920000Y-79633000D01*
X168920000Y-78873000D02*
X168920000Y-79633000D01*
X159862929Y-81413000D02*
X160260000Y-81413000D01*
X168920000Y-68713000D02*
X168920000Y-69473000D01*
X162920000Y-73793000D02*
X168920000Y-73793000D01*
X168920000Y-63633000D02*
X168920000Y-64393000D01*
X157550000Y-57663000D02*
X158820000Y-57663000D01*
X159862929Y-69473000D02*
X160260000Y-69473000D01*
X159862929Y-63633000D02*
X160260000Y-63633000D01*
X168920000Y-77093000D02*
X162920000Y-77093000D01*
X162920000Y-71253000D02*
X168920000Y-71253000D01*
X159862929Y-74553000D02*
X160260000Y-74553000D01*
X159862929Y-78873000D02*
X160260000Y-78873000D01*
X160260000Y-83123000D02*
X162920000Y-83123000D01*
X168920000Y-66933000D02*
X162920000Y-66933000D01*
X160260000Y-60203000D02*
X162920000Y-60203000D01*
X162920000Y-78873000D02*
X168920000Y-78873000D01*
X168920000Y-76333000D02*
X168920000Y-77093000D01*
X162920000Y-57603000D02*
X160260000Y-57603000D01*
X168920000Y-61093000D02*
X168920000Y-61853000D01*
X160260000Y-77983000D02*
X162920000Y-77983000D01*
X162920000Y-76333000D02*
X168920000Y-76333000D01*
X157550000Y-58933000D02*
X157550000Y-57663000D01*
X160260000Y-67823000D02*
X162920000Y-67823000D01*
X159862929Y-64393000D02*
X160260000Y-64393000D01*
X160260000Y-62743000D02*
X162920000Y-62743000D01*
X160260000Y-80523000D02*
X162920000Y-80523000D01*
X162920000Y-63633000D02*
X168920000Y-63633000D01*
X162920000Y-58733000D02*
X168920000Y-58733000D01*
X162920000Y-59213000D02*
X168920000Y-59213000D01*
X162920000Y-61093000D02*
X168920000Y-61093000D01*
X162920000Y-58853000D02*
X168920000Y-58853000D01*
X168920000Y-81413000D02*
X168920000Y-82173000D01*
%TO.C,D1*%
X114844000Y-116092000D02*
X114844000Y-115936000D01*
X114844000Y-113776000D02*
X114844000Y-113620000D01*
X112242870Y-115935837D02*
G75*
G03*
X114324961Y-115936000I1041130J1079837D01*
G01*
X114844000Y-113620484D02*
G75*
G03*
X111611665Y-113777392I-1560000J-1235516D01*
G01*
X114324961Y-113776000D02*
G75*
G03*
X112242870Y-113776163I-1040961J-1080000D01*
G01*
X111611665Y-115934608D02*
G75*
G03*
X114844000Y-116091516I1672335J1078608D01*
G01*
%TO.C,D2*%
X116114000Y-53306000D02*
X116114000Y-53150000D01*
X116114000Y-50990000D02*
X116114000Y-50834000D01*
X116114000Y-50834484D02*
G75*
G03*
X112881665Y-50991392I-1560000J-1235516D01*
G01*
X115594961Y-50990000D02*
G75*
G03*
X113512870Y-50990163I-1040961J-1080000D01*
G01*
X113512870Y-53149837D02*
G75*
G03*
X115594961Y-53150000I1041130J1079837D01*
G01*
X112881665Y-53148608D02*
G75*
G03*
X116114000Y-53305516I1672335J1078608D01*
G01*
%TO.C,G\u002A\u002A\u002A*%
G36*
X165868741Y-94444375D02*
G01*
X165887987Y-94327578D01*
X165902526Y-94211272D01*
X165912628Y-94093136D01*
X165918560Y-93970851D01*
X165920002Y-93910150D01*
X165919631Y-93765030D01*
X165913556Y-93624620D01*
X165901583Y-93487204D01*
X165883520Y-93351065D01*
X165859172Y-93214486D01*
X165828347Y-93075750D01*
X165824240Y-93059020D01*
X165780260Y-92899107D01*
X165728363Y-92742162D01*
X165668591Y-92588262D01*
X165600984Y-92437486D01*
X165525584Y-92289911D01*
X165442432Y-92145614D01*
X165351570Y-92004674D01*
X165253038Y-91867167D01*
X165146879Y-91733173D01*
X165077070Y-91651694D01*
X165051857Y-91623870D01*
X165021682Y-91591802D01*
X164987918Y-91556861D01*
X164951941Y-91520416D01*
X164915126Y-91483838D01*
X164878846Y-91448496D01*
X164844478Y-91415762D01*
X164813395Y-91387006D01*
X164795200Y-91370741D01*
X164662333Y-91259629D01*
X164525258Y-91155805D01*
X164384108Y-91059338D01*
X164239019Y-90970301D01*
X164090125Y-90888763D01*
X163937562Y-90814796D01*
X163781464Y-90748471D01*
X163621967Y-90689858D01*
X163459206Y-90639029D01*
X163345283Y-90608586D01*
X163178783Y-90571381D01*
X163011353Y-90542441D01*
X162843305Y-90521719D01*
X162674949Y-90509170D01*
X162506597Y-90504747D01*
X162338558Y-90508404D01*
X162171145Y-90520095D01*
X162004669Y-90539773D01*
X161839439Y-90567393D01*
X161675768Y-90602907D01*
X161513966Y-90646271D01*
X161354344Y-90697437D01*
X161197213Y-90756359D01*
X161042884Y-90822992D01*
X160891668Y-90897289D01*
X160743876Y-90979203D01*
X160707916Y-91000615D01*
X160571778Y-91087149D01*
X160440417Y-91179379D01*
X160314691Y-91276661D01*
X160195452Y-91378352D01*
X160145740Y-91423881D01*
X160128795Y-91439440D01*
X160113975Y-91452469D01*
X160102366Y-91462062D01*
X160095051Y-91467308D01*
X160093094Y-91467939D01*
X160095112Y-91464218D01*
X160102626Y-91455482D01*
X160114904Y-91442454D01*
X160131213Y-91425855D01*
X160150821Y-91406406D01*
X160172997Y-91384828D01*
X160197007Y-91361844D01*
X160222120Y-91338175D01*
X160247604Y-91314542D01*
X160263791Y-91299750D01*
X160393584Y-91187577D01*
X160528469Y-91082071D01*
X160668158Y-90983364D01*
X160812363Y-90891586D01*
X160960794Y-90806868D01*
X161113165Y-90729341D01*
X161269186Y-90659135D01*
X161428568Y-90596380D01*
X161591025Y-90541208D01*
X161756267Y-90493749D01*
X161924006Y-90454133D01*
X162093954Y-90422492D01*
X162247025Y-90401122D01*
X162287969Y-90396376D01*
X162324435Y-90392375D01*
X162357673Y-90389056D01*
X162388929Y-90386355D01*
X162419451Y-90384212D01*
X162450487Y-90382564D01*
X162483285Y-90381348D01*
X162519093Y-90380501D01*
X162559158Y-90379962D01*
X162604729Y-90379669D01*
X162657053Y-90379557D01*
X162678533Y-90379550D01*
X162731945Y-90379599D01*
X162778144Y-90379783D01*
X162818384Y-90380162D01*
X162853918Y-90380795D01*
X162886000Y-90381740D01*
X162915882Y-90383057D01*
X162944820Y-90384805D01*
X162974065Y-90387041D01*
X163004872Y-90389826D01*
X163038494Y-90393219D01*
X163076185Y-90397277D01*
X163091283Y-90398945D01*
X163262470Y-90422162D01*
X163431771Y-90453540D01*
X163598907Y-90492943D01*
X163763596Y-90540236D01*
X163925559Y-90595282D01*
X164084517Y-90657946D01*
X164240189Y-90728092D01*
X164392295Y-90805584D01*
X164540556Y-90890286D01*
X164684692Y-90982063D01*
X164824423Y-91080778D01*
X164959468Y-91186296D01*
X165089548Y-91298480D01*
X165214383Y-91417195D01*
X165237619Y-91440614D01*
X165351388Y-91561377D01*
X165457350Y-91684379D01*
X165556028Y-91810354D01*
X165647948Y-91940037D01*
X165733633Y-92074164D01*
X165813608Y-92213469D01*
X165879016Y-92339583D01*
X165948375Y-92488728D01*
X166010550Y-92640958D01*
X166065269Y-92795469D01*
X166112259Y-92951454D01*
X166151249Y-93108108D01*
X166171501Y-93206347D01*
X166185741Y-93281478D01*
X166213312Y-93290468D01*
X166245563Y-93301706D01*
X166282776Y-93315861D01*
X166322427Y-93331896D01*
X166361992Y-93348774D01*
X166398946Y-93365458D01*
X166418683Y-93374878D01*
X166479087Y-93405993D01*
X166532574Y-93437005D01*
X166580621Y-93468923D01*
X166624704Y-93502753D01*
X166666301Y-93539504D01*
X166681795Y-93554477D01*
X166721983Y-93597304D01*
X166754862Y-93639459D01*
X166781318Y-93682397D01*
X166802239Y-93727569D01*
X166818510Y-93776430D01*
X166819570Y-93780291D01*
X166824581Y-93805742D01*
X166827831Y-93836912D01*
X166829295Y-93871235D01*
X166828949Y-93906142D01*
X166826770Y-93939067D01*
X166822731Y-93967442D01*
X166821399Y-93973650D01*
X166802206Y-94038747D01*
X166775011Y-94103968D01*
X166739769Y-94169363D01*
X166696436Y-94234982D01*
X166644966Y-94300877D01*
X166585314Y-94367099D01*
X166517435Y-94433697D01*
X166441283Y-94500724D01*
X166356815Y-94568229D01*
X166263984Y-94636263D01*
X166183165Y-94691439D01*
X166118781Y-94734109D01*
X166096500Y-94811079D01*
X166046626Y-94968347D01*
X165988648Y-95123821D01*
X165922840Y-95276939D01*
X165849475Y-95427139D01*
X165768826Y-95573858D01*
X165681165Y-95716535D01*
X165595300Y-95842710D01*
X165491862Y-95980353D01*
X165382022Y-96112541D01*
X165266011Y-96239077D01*
X165144062Y-96359764D01*
X165016409Y-96474405D01*
X164883283Y-96582804D01*
X164744918Y-96684763D01*
X164601545Y-96780085D01*
X164453399Y-96868574D01*
X164300711Y-96950033D01*
X164266033Y-96967236D01*
X164110024Y-97038895D01*
X163950496Y-97102986D01*
X163787902Y-97159406D01*
X163622693Y-97208050D01*
X163455321Y-97248818D01*
X163286240Y-97281605D01*
X163115900Y-97306309D01*
X162944755Y-97322827D01*
X162773257Y-97331056D01*
X162663716Y-97331926D01*
X162633941Y-97331652D01*
X162605290Y-97331309D01*
X162579435Y-97330925D01*
X162558047Y-97330524D01*
X162542795Y-97330133D01*
X162538833Y-97329988D01*
X162359939Y-97318280D01*
X162183985Y-97298635D01*
X162010933Y-97271042D01*
X161840747Y-97235492D01*
X161673391Y-97191974D01*
X161508829Y-97140477D01*
X161347025Y-97080991D01*
X161187941Y-97013505D01*
X161031541Y-96938010D01*
X160879691Y-96855585D01*
X160734769Y-96767849D01*
X160594778Y-96673616D01*
X160459298Y-96572569D01*
X160327913Y-96464390D01*
X160200203Y-96348762D01*
X160158616Y-96308742D01*
X160136743Y-96287138D01*
X160119223Y-96269357D01*
X160106257Y-96255680D01*
X160098050Y-96246388D01*
X160094803Y-96241759D01*
X160096721Y-96242074D01*
X160104006Y-96247614D01*
X160116860Y-96258657D01*
X160132558Y-96272800D01*
X160240754Y-96368653D01*
X160347788Y-96457156D01*
X160454801Y-96539110D01*
X160562934Y-96615312D01*
X160673327Y-96686561D01*
X160787122Y-96753655D01*
X160905458Y-96817394D01*
X160923817Y-96826789D01*
X161067797Y-96896061D01*
X161212936Y-96957978D01*
X161359872Y-97012718D01*
X161509244Y-97060461D01*
X161661689Y-97101385D01*
X161817846Y-97135670D01*
X161978353Y-97163494D01*
X162143849Y-97185036D01*
X162234033Y-97193987D01*
X162259299Y-97195717D01*
X162291792Y-97197128D01*
X162330277Y-97198226D01*
X162373519Y-97199015D01*
X162420286Y-97199501D01*
X162469341Y-97199688D01*
X162519452Y-97199581D01*
X162569384Y-97199185D01*
X162617903Y-97198505D01*
X162663775Y-97197546D01*
X162705765Y-97196312D01*
X162742640Y-97194809D01*
X162773164Y-97193041D01*
X162788600Y-97191792D01*
X162956657Y-97172633D01*
X163119490Y-97147191D01*
X163277743Y-97115287D01*
X163432059Y-97076740D01*
X163583083Y-97031370D01*
X163731460Y-96978996D01*
X163877833Y-96919440D01*
X164022847Y-96852520D01*
X164050133Y-96839041D01*
X164200929Y-96759091D01*
X164347035Y-96672165D01*
X164488249Y-96578432D01*
X164624371Y-96478058D01*
X164755201Y-96371211D01*
X164880538Y-96258058D01*
X165000181Y-96138766D01*
X165113930Y-96013503D01*
X165221584Y-95882436D01*
X165264906Y-95825734D01*
X165360006Y-95691861D01*
X165447868Y-95554232D01*
X165528735Y-95412405D01*
X165602844Y-95265938D01*
X165670437Y-95114387D01*
X165722564Y-94982270D01*
X165734766Y-94949490D01*
X165679159Y-94977355D01*
X165570869Y-95029932D01*
X165454994Y-95082993D01*
X165332372Y-95136196D01*
X165203844Y-95189205D01*
X165070251Y-95241678D01*
X164932432Y-95293276D01*
X164791228Y-95343661D01*
X164668200Y-95385605D01*
X164567861Y-95418661D01*
X164471569Y-95449473D01*
X164377618Y-95478536D01*
X164284300Y-95506347D01*
X164189908Y-95533403D01*
X164092735Y-95560199D01*
X163991073Y-95587232D01*
X163883216Y-95614999D01*
X163853283Y-95622568D01*
X163654317Y-95672699D01*
X163651320Y-95693125D01*
X163649922Y-95704253D01*
X163647981Y-95721890D01*
X163645698Y-95744109D01*
X163643272Y-95768985D01*
X163641690Y-95785920D01*
X163627657Y-95907624D01*
X163608309Y-96025666D01*
X163607280Y-96031050D01*
X163603165Y-96051501D01*
X163597971Y-96075863D01*
X163592011Y-96102809D01*
X163585601Y-96131008D01*
X163579052Y-96159132D01*
X163572680Y-96185853D01*
X163566798Y-96209840D01*
X163561720Y-96229765D01*
X163557758Y-96244299D01*
X163555228Y-96252112D01*
X163554964Y-96252674D01*
X163553865Y-96250496D01*
X163552621Y-96241038D01*
X163551330Y-96225482D01*
X163550089Y-96205010D01*
X163548993Y-96180805D01*
X163548909Y-96178591D01*
X163541512Y-96055815D01*
X163528716Y-95936510D01*
X163510692Y-95822176D01*
X163505803Y-95796631D01*
X163500051Y-95767769D01*
X163495556Y-95746201D01*
X163491948Y-95730911D01*
X163488854Y-95720884D01*
X163485903Y-95715105D01*
X163482724Y-95712559D01*
X163478946Y-95712230D01*
X163475168Y-95712897D01*
X163444842Y-95719284D01*
X163410197Y-95726509D01*
X163372517Y-95734311D01*
X163333086Y-95742428D01*
X163293187Y-95750598D01*
X163254106Y-95758561D01*
X163217125Y-95766053D01*
X163183528Y-95772814D01*
X163154599Y-95778581D01*
X163131623Y-95783093D01*
X163118134Y-95785672D01*
X163056086Y-95797258D01*
X163019165Y-95873937D01*
X163007943Y-95896897D01*
X162997945Y-95916695D01*
X162989734Y-95932268D01*
X162983875Y-95942554D01*
X162980931Y-95946490D01*
X162980725Y-95946384D01*
X162981294Y-95941069D01*
X162983838Y-95929063D01*
X162988010Y-95911815D01*
X162993464Y-95890776D01*
X162997890Y-95874457D01*
X163004048Y-95851914D01*
X163009242Y-95832442D01*
X163013120Y-95817405D01*
X163015327Y-95808168D01*
X163015680Y-95805870D01*
X163011433Y-95806265D01*
X163000286Y-95807939D01*
X162983674Y-95810661D01*
X162963028Y-95814197D01*
X162949317Y-95816611D01*
X162883850Y-95828247D01*
X162871042Y-95889432D01*
X162858235Y-95950617D01*
X162780026Y-96113196D01*
X162763507Y-96147321D01*
X162748117Y-96178707D01*
X162734233Y-96206612D01*
X162722235Y-96230292D01*
X162712501Y-96249005D01*
X162705411Y-96262009D01*
X162701342Y-96268561D01*
X162700506Y-96269071D01*
X162700564Y-96263375D01*
X162701331Y-96250287D01*
X162702726Y-96230846D01*
X162704670Y-96206090D01*
X162707081Y-96177056D01*
X162709878Y-96144784D01*
X162711980Y-96121309D01*
X162717052Y-96065009D01*
X162721341Y-96016646D01*
X162724882Y-95975726D01*
X162727713Y-95941760D01*
X162729870Y-95914256D01*
X162731390Y-95892722D01*
X162732311Y-95876668D01*
X162732670Y-95865603D01*
X162732502Y-95859034D01*
X162731882Y-95856505D01*
X162727169Y-95856418D01*
X162715262Y-95857514D01*
X162697326Y-95859647D01*
X162674529Y-95862672D01*
X162648038Y-95866442D01*
X162626685Y-95869635D01*
X162595539Y-95874342D01*
X162564766Y-95878915D01*
X162536137Y-95883096D01*
X162511426Y-95886628D01*
X162492404Y-95889253D01*
X162485458Y-95890160D01*
X162466870Y-95892769D01*
X162455379Y-95895176D01*
X162449635Y-95897798D01*
X162448292Y-95901053D01*
X162448394Y-95901655D01*
X162449798Y-95907531D01*
X162452916Y-95920375D01*
X162457443Y-95938932D01*
X162463072Y-95961949D01*
X162469497Y-95988171D01*
X162473193Y-96003239D01*
X162479843Y-96030534D01*
X162485754Y-96055183D01*
X162490640Y-96075962D01*
X162494215Y-96091648D01*
X162496195Y-96101017D01*
X162496500Y-96103041D01*
X162494038Y-96108521D01*
X162487537Y-96118531D01*
X162478324Y-96131053D01*
X162476833Y-96132969D01*
X162448629Y-96171321D01*
X162419321Y-96215466D01*
X162390270Y-96263095D01*
X162362836Y-96311900D01*
X162338379Y-96359573D01*
X162321055Y-96397234D01*
X162309195Y-96424750D01*
X162286264Y-96357017D01*
X162267530Y-96300814D01*
X162247840Y-96240190D01*
X162228030Y-96177789D01*
X162208934Y-96116258D01*
X162191384Y-96058244D01*
X162180884Y-96022584D01*
X162173410Y-95997104D01*
X162166617Y-95974420D01*
X162160892Y-95955779D01*
X162156620Y-95942431D01*
X162154185Y-95935623D01*
X162153885Y-95935060D01*
X162149291Y-95934695D01*
X162138213Y-95935167D01*
X162122570Y-95936292D01*
X162104283Y-95937882D01*
X162085272Y-95939753D01*
X162067457Y-95941718D01*
X162052758Y-95943591D01*
X162043096Y-95945187D01*
X162040337Y-95946057D01*
X162038838Y-95950683D01*
X162035917Y-95962330D01*
X162031851Y-95979721D01*
X162026917Y-96001583D01*
X162021392Y-96026640D01*
X162015553Y-96053618D01*
X162009679Y-96081243D01*
X162004046Y-96108239D01*
X161998931Y-96133332D01*
X161994611Y-96155248D01*
X161993063Y-96163403D01*
X161987865Y-96192197D01*
X161982090Y-96225822D01*
X161976331Y-96260725D01*
X161971184Y-96293351D01*
X161969583Y-96303931D01*
X161958561Y-96377846D01*
X161934372Y-96398744D01*
X161913697Y-96417473D01*
X161889318Y-96440943D01*
X161862907Y-96467422D01*
X161836135Y-96495178D01*
X161810673Y-96522476D01*
X161788194Y-96547585D01*
X161770483Y-96568628D01*
X161756687Y-96586527D01*
X161740251Y-96608946D01*
X161722332Y-96634196D01*
X161704085Y-96660594D01*
X161686665Y-96686451D01*
X161671229Y-96710082D01*
X161658931Y-96729800D01*
X161652876Y-96740250D01*
X161647590Y-96748663D01*
X161643961Y-96752269D01*
X161643519Y-96752164D01*
X161642227Y-96746932D01*
X161640687Y-96734137D01*
X161638950Y-96714674D01*
X161637069Y-96689443D01*
X161635096Y-96659340D01*
X161633082Y-96625263D01*
X161631080Y-96588109D01*
X161629142Y-96548775D01*
X161627319Y-96508160D01*
X161625664Y-96467160D01*
X161624228Y-96426672D01*
X161623699Y-96409934D01*
X161621752Y-96331011D01*
X161620920Y-96258180D01*
X161621196Y-96189136D01*
X161622572Y-96121580D01*
X161622807Y-96113600D01*
X161623792Y-96080961D01*
X161624681Y-96051197D01*
X161625444Y-96025322D01*
X161626053Y-96004347D01*
X161626477Y-95989284D01*
X161626686Y-95981144D01*
X161626701Y-95979983D01*
X161622639Y-95980145D01*
X161611392Y-95980753D01*
X161594229Y-95981733D01*
X161572415Y-95983014D01*
X161547217Y-95984522D01*
X161541883Y-95984844D01*
X161398414Y-95992309D01*
X161252313Y-95997545D01*
X161105175Y-96000555D01*
X160958597Y-96001339D01*
X160814177Y-95999897D01*
X160673510Y-95996231D01*
X160538192Y-95990340D01*
X160439100Y-95984321D01*
X160294572Y-95972654D01*
X160154997Y-95957948D01*
X160020691Y-95940274D01*
X159891972Y-95919704D01*
X159769157Y-95896310D01*
X159652561Y-95870162D01*
X159542504Y-95841332D01*
X159439301Y-95809892D01*
X159343269Y-95775914D01*
X159254726Y-95739467D01*
X159173988Y-95700625D01*
X159169100Y-95698062D01*
X159096235Y-95656459D01*
X159031053Y-95612537D01*
X158973638Y-95566393D01*
X158924075Y-95518123D01*
X158882448Y-95467822D01*
X158848842Y-95415587D01*
X158823341Y-95361515D01*
X158806029Y-95305701D01*
X158800710Y-95278671D01*
X158797476Y-95246345D01*
X158796970Y-95209120D01*
X158799026Y-95170056D01*
X158803478Y-95132212D01*
X158810160Y-95098646D01*
X158810555Y-95097115D01*
X158831047Y-95034318D01*
X158859837Y-94970786D01*
X158896795Y-94906617D01*
X158941794Y-94841911D01*
X158994704Y-94776765D01*
X159055398Y-94711280D01*
X159123746Y-94645552D01*
X159199621Y-94579680D01*
X159282894Y-94513764D01*
X159373436Y-94447902D01*
X159471119Y-94382192D01*
X159575815Y-94316733D01*
X159687395Y-94251624D01*
X159805730Y-94186962D01*
X159930693Y-94122848D01*
X160062155Y-94059378D01*
X160199986Y-93996653D01*
X160302276Y-93952355D01*
X160327321Y-93941591D01*
X160345424Y-93933422D01*
X160357517Y-93927330D01*
X160364533Y-93922801D01*
X160367403Y-93919320D01*
X160367135Y-93916504D01*
X160364899Y-93914757D01*
X160359603Y-93912861D01*
X160350631Y-93910719D01*
X160337367Y-93908237D01*
X160319195Y-93905320D01*
X160295498Y-93901873D01*
X160265661Y-93897800D01*
X160229068Y-93893007D01*
X160185101Y-93887397D01*
X160150476Y-93883043D01*
X160108995Y-93877824D01*
X160070121Y-93872886D01*
X160034650Y-93868333D01*
X160003381Y-93864270D01*
X159977111Y-93860801D01*
X159956638Y-93858031D01*
X159942759Y-93856064D01*
X159936272Y-93855006D01*
X159935892Y-93854891D01*
X159935791Y-93854144D01*
X159937442Y-93853295D01*
X159941482Y-93852256D01*
X159948547Y-93850935D01*
X159959273Y-93849244D01*
X159974296Y-93847092D01*
X159994254Y-93844391D01*
X160019783Y-93841049D01*
X160051518Y-93836978D01*
X160090096Y-93832087D01*
X160136153Y-93826287D01*
X160159528Y-93823352D01*
X160200177Y-93818234D01*
X160238178Y-93813420D01*
X160272722Y-93809014D01*
X160303000Y-93805119D01*
X160328205Y-93801842D01*
X160347527Y-93799285D01*
X160360159Y-93797555D01*
X160365291Y-93796755D01*
X160365365Y-93796728D01*
X160367542Y-93792766D01*
X160371958Y-93784231D01*
X160372637Y-93782898D01*
X160382525Y-93768276D01*
X160397076Y-93752347D01*
X160413520Y-93737850D01*
X160428139Y-93728024D01*
X160440035Y-93719129D01*
X160445329Y-93707980D01*
X160445501Y-93707053D01*
X160446490Y-93700314D01*
X160448454Y-93686080D01*
X160451273Y-93665250D01*
X160454826Y-93638722D01*
X160458995Y-93607397D01*
X160463658Y-93572174D01*
X160468696Y-93533953D01*
X160473192Y-93499708D01*
X160478413Y-93460119D01*
X160483348Y-93423159D01*
X160487882Y-93389665D01*
X160491898Y-93360472D01*
X160495281Y-93336415D01*
X160497914Y-93318331D01*
X160499683Y-93307055D01*
X160500439Y-93303417D01*
X160501236Y-93303186D01*
X160502106Y-93304512D01*
X160503142Y-93308045D01*
X160504442Y-93314435D01*
X160506101Y-93324331D01*
X160508214Y-93338382D01*
X160510878Y-93357237D01*
X160514187Y-93381547D01*
X160518238Y-93411960D01*
X160523127Y-93449126D01*
X160528949Y-93493693D01*
X160532465Y-93520684D01*
X160537755Y-93560727D01*
X160542846Y-93598138D01*
X160547616Y-93632089D01*
X160551942Y-93661757D01*
X160555700Y-93686317D01*
X160558768Y-93704944D01*
X160561022Y-93716812D01*
X160562332Y-93721094D01*
X160578670Y-93729932D01*
X160596824Y-93744423D01*
X160614793Y-93762666D01*
X160630575Y-93782757D01*
X160635950Y-93791090D01*
X160638222Y-93792910D01*
X160643302Y-93794830D01*
X160651840Y-93796953D01*
X160664485Y-93799378D01*
X160681884Y-93802209D01*
X160704686Y-93805546D01*
X160733541Y-93809491D01*
X160769096Y-93814146D01*
X160812001Y-93819612D01*
X160843383Y-93823553D01*
X160892860Y-93829752D01*
X160934568Y-93835008D01*
X160969145Y-93839410D01*
X160997224Y-93843048D01*
X161019442Y-93846012D01*
X161036435Y-93848392D01*
X161048837Y-93850278D01*
X161057284Y-93851760D01*
X161062412Y-93852926D01*
X161064855Y-93853869D01*
X161065251Y-93854676D01*
X161065074Y-93854897D01*
X161060696Y-93855699D01*
X161048712Y-93857442D01*
X161029922Y-93860022D01*
X161005121Y-93863334D01*
X160975108Y-93867271D01*
X160940680Y-93871729D01*
X160902633Y-93876602D01*
X160861765Y-93881786D01*
X160850359Y-93883225D01*
X160637201Y-93910068D01*
X160629524Y-93925116D01*
X160620006Y-93939066D01*
X160605765Y-93954617D01*
X160589448Y-93969208D01*
X160573707Y-93980278D01*
X160570817Y-93981866D01*
X160562030Y-93987203D01*
X160557722Y-93991373D01*
X160557633Y-93991777D01*
X160557094Y-93996742D01*
X160555567Y-94009091D01*
X160553183Y-94027815D01*
X160550077Y-94051905D01*
X160546381Y-94080352D01*
X160542229Y-94112148D01*
X160537752Y-94146284D01*
X160533085Y-94181752D01*
X160528361Y-94217542D01*
X160523711Y-94252646D01*
X160519270Y-94286056D01*
X160515171Y-94316763D01*
X160511546Y-94343758D01*
X160508529Y-94366032D01*
X160506252Y-94382578D01*
X160504848Y-94392386D01*
X160504553Y-94394241D01*
X160502506Y-94403273D01*
X160500733Y-94406983D01*
X160500525Y-94406903D01*
X160499681Y-94402526D01*
X160497862Y-94390582D01*
X160495181Y-94371900D01*
X160491753Y-94347311D01*
X160487693Y-94317643D01*
X160483115Y-94283726D01*
X160478134Y-94246389D01*
X160473140Y-94208562D01*
X160467833Y-94168269D01*
X160462795Y-94130212D01*
X160458146Y-94095284D01*
X160454005Y-94064377D01*
X160450494Y-94038385D01*
X160447732Y-94018201D01*
X160445838Y-94004716D01*
X160444977Y-93999050D01*
X160439163Y-93986801D01*
X160429243Y-93979576D01*
X160423302Y-93976858D01*
X160417752Y-93975700D01*
X160410927Y-93976470D01*
X160401160Y-93979538D01*
X160386787Y-93985272D01*
X160368570Y-93993002D01*
X160247056Y-94046549D01*
X160128010Y-94102164D01*
X160012245Y-94159406D01*
X159900575Y-94217833D01*
X159793815Y-94277003D01*
X159692779Y-94336474D01*
X159598281Y-94395804D01*
X159511135Y-94454552D01*
X159488717Y-94470439D01*
X159436171Y-94509476D01*
X159383662Y-94551095D01*
X159332226Y-94594346D01*
X159282897Y-94638274D01*
X159236714Y-94681928D01*
X159194711Y-94724355D01*
X159157926Y-94764602D01*
X159127394Y-94801718D01*
X159125229Y-94804555D01*
X159081307Y-94867386D01*
X159045746Y-94928985D01*
X159018538Y-94989300D01*
X158999674Y-95048280D01*
X158989147Y-95105874D01*
X158986948Y-95162032D01*
X158993068Y-95216701D01*
X159007499Y-95269832D01*
X159030233Y-95321373D01*
X159061262Y-95371274D01*
X159100577Y-95419483D01*
X159148170Y-95465949D01*
X159204032Y-95510621D01*
X159245300Y-95539015D01*
X159308143Y-95576409D01*
X159378837Y-95612095D01*
X159456911Y-95645926D01*
X159541896Y-95677755D01*
X159633319Y-95707434D01*
X159730711Y-95734817D01*
X159833601Y-95759755D01*
X159941519Y-95782103D01*
X160053993Y-95801712D01*
X160113988Y-95810758D01*
X160190751Y-95821305D01*
X160264735Y-95830547D01*
X160337289Y-95838588D01*
X160409764Y-95845536D01*
X160483511Y-95851496D01*
X160559880Y-95856575D01*
X160640220Y-95860877D01*
X160725882Y-95864509D01*
X160818216Y-95867577D01*
X160849497Y-95868460D01*
X160919051Y-95869861D01*
X160994301Y-95870497D01*
X161073638Y-95870399D01*
X161155452Y-95869603D01*
X161238133Y-95868141D01*
X161320072Y-95866047D01*
X161399660Y-95863354D01*
X161475286Y-95860096D01*
X161545341Y-95856306D01*
X161595749Y-95852953D01*
X161632682Y-95850252D01*
X161634630Y-95836934D01*
X161635520Y-95829106D01*
X161636987Y-95814166D01*
X161637295Y-95810839D01*
X162077400Y-95810839D01*
X162081064Y-95811951D01*
X162090010Y-95811928D01*
X162101171Y-95811035D01*
X162111478Y-95809537D01*
X162117864Y-95807696D01*
X162118403Y-95807308D01*
X162118032Y-95802857D01*
X162115819Y-95792154D01*
X162112180Y-95777105D01*
X162110010Y-95768752D01*
X162100161Y-95731651D01*
X162088780Y-95769572D01*
X162083814Y-95786457D01*
X162079946Y-95800251D01*
X162077724Y-95808969D01*
X162077400Y-95810839D01*
X161637295Y-95810839D01*
X161638912Y-95793436D01*
X161641172Y-95768244D01*
X161643646Y-95739913D01*
X161645537Y-95717784D01*
X161666129Y-95520752D01*
X161694672Y-95321764D01*
X161731049Y-95121427D01*
X161775140Y-94920349D01*
X161826829Y-94719137D01*
X161864771Y-94587484D01*
X161881318Y-94532450D01*
X161875766Y-94481650D01*
X161865969Y-94385741D01*
X161857758Y-94291270D01*
X161851045Y-94196597D01*
X161845737Y-94100082D01*
X161841746Y-94000085D01*
X161839102Y-93899567D01*
X162183301Y-93899567D01*
X162183730Y-93982448D01*
X162185092Y-94061735D01*
X162187478Y-94138746D01*
X162190978Y-94214801D01*
X162195686Y-94291220D01*
X162201692Y-94369322D01*
X162209088Y-94450428D01*
X162217965Y-94535855D01*
X162228416Y-94626925D01*
X162240530Y-94724956D01*
X162240544Y-94725067D01*
X162258905Y-94864686D01*
X162277611Y-94997459D01*
X162296929Y-95125005D01*
X162317129Y-95248943D01*
X162338476Y-95370893D01*
X162361240Y-95492475D01*
X162385687Y-95615309D01*
X162395716Y-95663809D01*
X162418043Y-95770700D01*
X162429521Y-95770700D01*
X162436618Y-95770107D01*
X162450890Y-95768433D01*
X162471140Y-95765837D01*
X162496166Y-95762476D01*
X162524770Y-95758508D01*
X162555753Y-95754093D01*
X162558708Y-95753666D01*
X162603255Y-95747191D01*
X162640146Y-95741765D01*
X162670113Y-95737274D01*
X162693887Y-95733604D01*
X162712199Y-95730644D01*
X162725779Y-95728280D01*
X162735360Y-95726398D01*
X162735979Y-95726264D01*
X162737903Y-95725862D01*
X162739566Y-95725139D01*
X162741029Y-95723469D01*
X162742353Y-95720223D01*
X162743596Y-95714774D01*
X162744821Y-95706493D01*
X162746086Y-95694753D01*
X162747453Y-95678925D01*
X162748981Y-95658382D01*
X162750731Y-95632496D01*
X162752763Y-95600638D01*
X162755138Y-95562182D01*
X162757915Y-95516499D01*
X162760978Y-95465900D01*
X162768254Y-95337184D01*
X162774665Y-95206142D01*
X162780205Y-95073537D01*
X162784868Y-94940128D01*
X162788648Y-94806675D01*
X162791539Y-94673940D01*
X162793534Y-94542682D01*
X162794627Y-94413662D01*
X162794813Y-94287640D01*
X162794085Y-94165377D01*
X162792436Y-94047634D01*
X162789862Y-93935170D01*
X162786355Y-93828746D01*
X162781910Y-93729123D01*
X162776520Y-93637061D01*
X162775807Y-93626517D01*
X162757531Y-93419148D01*
X162731141Y-93211169D01*
X162696598Y-93002385D01*
X162653867Y-92792602D01*
X162602911Y-92581625D01*
X162560975Y-92431237D01*
X162890188Y-92431237D01*
X162890934Y-92436579D01*
X162891494Y-92439067D01*
X162893337Y-92448537D01*
X162896195Y-92465316D01*
X162899908Y-92488326D01*
X162904315Y-92516492D01*
X162909256Y-92548736D01*
X162914570Y-92583982D01*
X162920097Y-92621154D01*
X162925676Y-92659175D01*
X162931147Y-92696969D01*
X162936349Y-92733459D01*
X162941122Y-92767569D01*
X162945305Y-92798222D01*
X162947361Y-92813717D01*
X162975840Y-93047194D01*
X162999259Y-93274645D01*
X163017625Y-93496827D01*
X163030945Y-93714496D01*
X163039229Y-93928408D01*
X163042483Y-94139320D01*
X163040715Y-94347988D01*
X163033933Y-94555168D01*
X163022146Y-94761616D01*
X163005360Y-94968090D01*
X162983584Y-95175344D01*
X162972698Y-95264817D01*
X162967278Y-95306511D01*
X162961201Y-95351320D01*
X162954649Y-95398033D01*
X162947805Y-95445442D01*
X162940852Y-95492339D01*
X162933973Y-95537515D01*
X162927350Y-95579761D01*
X162921167Y-95617868D01*
X162915606Y-95650628D01*
X162910851Y-95676832D01*
X162908745Y-95687523D01*
X162907687Y-95695897D01*
X162910897Y-95698203D01*
X162918344Y-95697016D01*
X162926866Y-95695344D01*
X162941806Y-95692559D01*
X162961241Y-95689016D01*
X162983250Y-95685066D01*
X162989209Y-95684006D01*
X163010449Y-95680146D01*
X163028516Y-95676688D01*
X163041867Y-95673940D01*
X163048955Y-95672213D01*
X163049670Y-95671908D01*
X163051431Y-95666997D01*
X163053713Y-95658461D01*
X163123033Y-95658461D01*
X163127042Y-95658168D01*
X163138533Y-95656290D01*
X163156702Y-95652986D01*
X163180746Y-95648410D01*
X163209860Y-95642720D01*
X163243240Y-95636071D01*
X163280082Y-95628621D01*
X163319583Y-95620524D01*
X163340399Y-95616216D01*
X163369720Y-95610053D01*
X163396270Y-95604328D01*
X163418932Y-95599295D01*
X163436592Y-95595206D01*
X163448132Y-95592312D01*
X163452412Y-95590899D01*
X163452564Y-95585431D01*
X163449809Y-95573127D01*
X163444510Y-95554963D01*
X163437028Y-95531912D01*
X163427724Y-95504949D01*
X163416960Y-95475051D01*
X163405097Y-95443190D01*
X163392498Y-95410343D01*
X163379522Y-95377484D01*
X163366532Y-95345588D01*
X163353889Y-95315631D01*
X163341955Y-95288585D01*
X163333862Y-95271167D01*
X163308593Y-95218250D01*
X163291505Y-95262700D01*
X163277029Y-95299571D01*
X163259769Y-95342228D01*
X163240519Y-95388783D01*
X163220071Y-95437348D01*
X163199221Y-95486037D01*
X163178759Y-95532960D01*
X163163638Y-95566992D01*
X163152180Y-95592571D01*
X163141975Y-95615429D01*
X163133502Y-95634483D01*
X163127244Y-95648651D01*
X163123679Y-95656851D01*
X163123033Y-95658461D01*
X163053713Y-95658461D01*
X163054688Y-95654817D01*
X163059215Y-95636389D01*
X163064784Y-95612732D01*
X163071165Y-95584866D01*
X163078132Y-95553812D01*
X163085456Y-95520589D01*
X163092910Y-95486219D01*
X163100266Y-95451720D01*
X163107295Y-95418114D01*
X163113771Y-95386420D01*
X163116500Y-95372767D01*
X163141413Y-95243067D01*
X163163329Y-95119976D01*
X163182376Y-95002234D01*
X163198687Y-94888581D01*
X163212392Y-94777758D01*
X163223620Y-94668507D01*
X163232503Y-94559567D01*
X163239171Y-94449679D01*
X163243754Y-94337583D01*
X163246382Y-94222022D01*
X163247187Y-94111233D01*
X163247070Y-94050454D01*
X163246604Y-93996504D01*
X163245723Y-93947754D01*
X163244360Y-93902571D01*
X163242450Y-93859323D01*
X163239927Y-93816381D01*
X163236725Y-93772111D01*
X163232777Y-93724882D01*
X163230591Y-93700600D01*
X163209853Y-93520867D01*
X163180751Y-93342365D01*
X163143313Y-93165204D01*
X163097568Y-92989496D01*
X163043544Y-92815349D01*
X162981269Y-92642874D01*
X162922208Y-92498451D01*
X162910296Y-92471051D01*
X162901360Y-92451060D01*
X162895179Y-92438048D01*
X162891529Y-92431584D01*
X162890188Y-92431237D01*
X162560975Y-92431237D01*
X162543693Y-92369262D01*
X162527230Y-92314747D01*
X162519614Y-92289911D01*
X162480874Y-92369781D01*
X162418196Y-92508175D01*
X162362927Y-92649473D01*
X162315301Y-92792937D01*
X162275553Y-92937828D01*
X162243917Y-93083411D01*
X162231945Y-93151695D01*
X162220084Y-93233679D01*
X162209776Y-93323140D01*
X162201074Y-93419220D01*
X162194037Y-93521061D01*
X162188718Y-93627805D01*
X162185174Y-93738597D01*
X162183461Y-93852577D01*
X162183301Y-93899567D01*
X161839102Y-93899567D01*
X161838980Y-93894965D01*
X161837351Y-93783150D01*
X161836944Y-93661587D01*
X161838164Y-93547418D01*
X161841116Y-93439709D01*
X161845908Y-93337526D01*
X161852644Y-93239934D01*
X161861432Y-93146000D01*
X161872377Y-93054788D01*
X161885585Y-92965364D01*
X161901163Y-92876794D01*
X161919217Y-92788144D01*
X161939852Y-92698479D01*
X161963176Y-92606864D01*
X161976552Y-92557600D01*
X162030676Y-92377579D01*
X162092579Y-92200040D01*
X162162037Y-92025478D01*
X162238824Y-91854384D01*
X162322715Y-91687251D01*
X162413487Y-91524572D01*
X162510913Y-91366841D01*
X162540818Y-91321437D01*
X162561296Y-91291052D01*
X162582206Y-91260495D01*
X162602742Y-91230907D01*
X162622101Y-91203425D01*
X162639476Y-91179189D01*
X162654064Y-91159339D01*
X162665060Y-91145014D01*
X162667882Y-91141550D01*
X162678496Y-91128850D01*
X162688040Y-91141090D01*
X162700746Y-91157952D01*
X162717167Y-91180605D01*
X162736403Y-91207746D01*
X162757557Y-91238066D01*
X162779728Y-91270259D01*
X162802018Y-91303019D01*
X162823527Y-91335039D01*
X162843357Y-91365013D01*
X162860609Y-91391635D01*
X162862664Y-91394857D01*
X162960673Y-91556772D01*
X163051441Y-91722981D01*
X163134855Y-91893213D01*
X163210805Y-92067197D01*
X163279180Y-92244663D01*
X163339868Y-92425340D01*
X163392758Y-92608957D01*
X163437740Y-92795243D01*
X163438077Y-92796784D01*
X163453672Y-92873183D01*
X163467517Y-92951714D01*
X163479753Y-93033482D01*
X163490522Y-93119591D01*
X163499967Y-93211146D01*
X163508231Y-93309253D01*
X163513294Y-93380984D01*
X163514618Y-93406616D01*
X163515759Y-93439628D01*
X163516716Y-93478933D01*
X163517489Y-93523447D01*
X163518078Y-93572082D01*
X163518483Y-93623755D01*
X163518705Y-93677378D01*
X163518743Y-93731868D01*
X163518597Y-93786137D01*
X163518267Y-93839101D01*
X163517752Y-93889674D01*
X163517054Y-93936770D01*
X163516172Y-93979304D01*
X163515106Y-94016190D01*
X163513856Y-94046343D01*
X163513309Y-94056200D01*
X163508578Y-94131411D01*
X163503950Y-94199690D01*
X163499309Y-94262568D01*
X163494536Y-94321578D01*
X163489515Y-94378250D01*
X163484621Y-94429156D01*
X163473827Y-94537528D01*
X163497768Y-94604839D01*
X163543149Y-94744093D01*
X163580751Y-94884987D01*
X163610679Y-95028074D01*
X163633033Y-95173903D01*
X163647916Y-95323028D01*
X163654814Y-95454259D01*
X163655715Y-95481147D01*
X163656609Y-95504940D01*
X163657443Y-95524423D01*
X163658163Y-95538382D01*
X163658716Y-95545603D01*
X163658885Y-95546334D01*
X163664013Y-95545329D01*
X163676318Y-95542485D01*
X163694775Y-95538059D01*
X163718356Y-95532306D01*
X163746037Y-95525484D01*
X163776791Y-95517849D01*
X163809593Y-95509656D01*
X163843415Y-95501163D01*
X163877232Y-95492625D01*
X163910018Y-95484300D01*
X163940748Y-95476443D01*
X163968394Y-95469312D01*
X163991931Y-95463161D01*
X163995100Y-95462324D01*
X164208967Y-95403572D01*
X164417649Y-95341882D01*
X164620675Y-95277418D01*
X164817576Y-95210342D01*
X165007882Y-95140817D01*
X165191124Y-95069007D01*
X165366831Y-94995074D01*
X165458218Y-94954415D01*
X165476396Y-94946038D01*
X165499196Y-94935331D01*
X165525660Y-94922760D01*
X165554832Y-94908792D01*
X165585754Y-94893895D01*
X165617469Y-94878535D01*
X165649018Y-94863179D01*
X165679445Y-94848294D01*
X165707793Y-94834347D01*
X165733102Y-94821806D01*
X165754417Y-94811136D01*
X165770780Y-94802805D01*
X165781233Y-94797280D01*
X165784707Y-94795186D01*
X165786572Y-94790463D01*
X165790118Y-94778736D01*
X165795027Y-94761231D01*
X165800983Y-94739172D01*
X165807668Y-94713785D01*
X165814766Y-94686293D01*
X165821961Y-94657921D01*
X165828934Y-94629894D01*
X165835370Y-94603437D01*
X165840951Y-94579775D01*
X165843231Y-94569690D01*
X166157017Y-94569690D01*
X166170638Y-94561653D01*
X166178361Y-94556571D01*
X166191482Y-94547372D01*
X166208637Y-94535036D01*
X166228462Y-94520541D01*
X166247830Y-94506185D01*
X166331171Y-94441231D01*
X166406435Y-94376771D01*
X166473573Y-94312861D01*
X166532536Y-94249558D01*
X166583276Y-94186917D01*
X166625745Y-94124995D01*
X166659893Y-94063846D01*
X166685673Y-94003528D01*
X166686854Y-94000214D01*
X166703366Y-93942020D01*
X166711629Y-93884596D01*
X166711645Y-93828229D01*
X166703416Y-93773204D01*
X166686942Y-93719807D01*
X166685542Y-93716292D01*
X166671757Y-93685847D01*
X166655449Y-93657339D01*
X166635469Y-93629149D01*
X166610666Y-93599655D01*
X166579891Y-93567238D01*
X166579550Y-93566894D01*
X166539513Y-93529126D01*
X166497808Y-93495154D01*
X166452663Y-93463727D01*
X166402308Y-93433592D01*
X166356679Y-93409370D01*
X166334881Y-93398642D01*
X166311182Y-93387512D01*
X166286840Y-93376514D01*
X166263120Y-93366179D01*
X166241281Y-93357041D01*
X166222585Y-93349632D01*
X166208294Y-93344486D01*
X166199669Y-93342135D01*
X166197771Y-93342251D01*
X166197648Y-93346866D01*
X166198502Y-93358441D01*
X166200195Y-93375541D01*
X166202589Y-93396733D01*
X166204623Y-93413355D01*
X166221707Y-93581029D01*
X166230801Y-93749116D01*
X166231911Y-93916908D01*
X166225044Y-94083699D01*
X166210206Y-94248780D01*
X166196003Y-94356767D01*
X166192578Y-94378885D01*
X166188345Y-94404771D01*
X166183582Y-94432867D01*
X166178566Y-94461617D01*
X166173577Y-94489464D01*
X166168892Y-94514853D01*
X166164788Y-94536225D01*
X166161545Y-94552025D01*
X166159776Y-94559537D01*
X166157017Y-94569690D01*
X165843231Y-94569690D01*
X165844522Y-94563980D01*
X165868741Y-94444375D01*
G37*
D15*
X165868741Y-94444375D02*
X165887987Y-94327578D01*
X165902526Y-94211272D01*
X165912628Y-94093136D01*
X165918560Y-93970851D01*
X165920002Y-93910150D01*
X165919631Y-93765030D01*
X165913556Y-93624620D01*
X165901583Y-93487204D01*
X165883520Y-93351065D01*
X165859172Y-93214486D01*
X165828347Y-93075750D01*
X165824240Y-93059020D01*
X165780260Y-92899107D01*
X165728363Y-92742162D01*
X165668591Y-92588262D01*
X165600984Y-92437486D01*
X165525584Y-92289911D01*
X165442432Y-92145614D01*
X165351570Y-92004674D01*
X165253038Y-91867167D01*
X165146879Y-91733173D01*
X165077070Y-91651694D01*
X165051857Y-91623870D01*
X165021682Y-91591802D01*
X164987918Y-91556861D01*
X164951941Y-91520416D01*
X164915126Y-91483838D01*
X164878846Y-91448496D01*
X164844478Y-91415762D01*
X164813395Y-91387006D01*
X164795200Y-91370741D01*
X164662333Y-91259629D01*
X164525258Y-91155805D01*
X164384108Y-91059338D01*
X164239019Y-90970301D01*
X164090125Y-90888763D01*
X163937562Y-90814796D01*
X163781464Y-90748471D01*
X163621967Y-90689858D01*
X163459206Y-90639029D01*
X163345283Y-90608586D01*
X163178783Y-90571381D01*
X163011353Y-90542441D01*
X162843305Y-90521719D01*
X162674949Y-90509170D01*
X162506597Y-90504747D01*
X162338558Y-90508404D01*
X162171145Y-90520095D01*
X162004669Y-90539773D01*
X161839439Y-90567393D01*
X161675768Y-90602907D01*
X161513966Y-90646271D01*
X161354344Y-90697437D01*
X161197213Y-90756359D01*
X161042884Y-90822992D01*
X160891668Y-90897289D01*
X160743876Y-90979203D01*
X160707916Y-91000615D01*
X160571778Y-91087149D01*
X160440417Y-91179379D01*
X160314691Y-91276661D01*
X160195452Y-91378352D01*
X160145740Y-91423881D01*
X160128795Y-91439440D01*
X160113975Y-91452469D01*
X160102366Y-91462062D01*
X160095051Y-91467308D01*
X160093094Y-91467939D01*
X160095112Y-91464218D01*
X160102626Y-91455482D01*
X160114904Y-91442454D01*
X160131213Y-91425855D01*
X160150821Y-91406406D01*
X160172997Y-91384828D01*
X160197007Y-91361844D01*
X160222120Y-91338175D01*
X160247604Y-91314542D01*
X160263791Y-91299750D01*
X160393584Y-91187577D01*
X160528469Y-91082071D01*
X160668158Y-90983364D01*
X160812363Y-90891586D01*
X160960794Y-90806868D01*
X161113165Y-90729341D01*
X161269186Y-90659135D01*
X161428568Y-90596380D01*
X161591025Y-90541208D01*
X161756267Y-90493749D01*
X161924006Y-90454133D01*
X162093954Y-90422492D01*
X162247025Y-90401122D01*
X162287969Y-90396376D01*
X162324435Y-90392375D01*
X162357673Y-90389056D01*
X162388929Y-90386355D01*
X162419451Y-90384212D01*
X162450487Y-90382564D01*
X162483285Y-90381348D01*
X162519093Y-90380501D01*
X162559158Y-90379962D01*
X162604729Y-90379669D01*
X162657053Y-90379557D01*
X162678533Y-90379550D01*
X162731945Y-90379599D01*
X162778144Y-90379783D01*
X162818384Y-90380162D01*
X162853918Y-90380795D01*
X162886000Y-90381740D01*
X162915882Y-90383057D01*
X162944820Y-90384805D01*
X162974065Y-90387041D01*
X163004872Y-90389826D01*
X163038494Y-90393219D01*
X163076185Y-90397277D01*
X163091283Y-90398945D01*
X163262470Y-90422162D01*
X163431771Y-90453540D01*
X163598907Y-90492943D01*
X163763596Y-90540236D01*
X163925559Y-90595282D01*
X164084517Y-90657946D01*
X164240189Y-90728092D01*
X164392295Y-90805584D01*
X164540556Y-90890286D01*
X164684692Y-90982063D01*
X164824423Y-91080778D01*
X164959468Y-91186296D01*
X165089548Y-91298480D01*
X165214383Y-91417195D01*
X165237619Y-91440614D01*
X165351388Y-91561377D01*
X165457350Y-91684379D01*
X165556028Y-91810354D01*
X165647948Y-91940037D01*
X165733633Y-92074164D01*
X165813608Y-92213469D01*
X165879016Y-92339583D01*
X165948375Y-92488728D01*
X166010550Y-92640958D01*
X166065269Y-92795469D01*
X166112259Y-92951454D01*
X166151249Y-93108108D01*
X166171501Y-93206347D01*
X166185741Y-93281478D01*
X166213312Y-93290468D01*
X166245563Y-93301706D01*
X166282776Y-93315861D01*
X166322427Y-93331896D01*
X166361992Y-93348774D01*
X166398946Y-93365458D01*
X166418683Y-93374878D01*
X166479087Y-93405993D01*
X166532574Y-93437005D01*
X166580621Y-93468923D01*
X166624704Y-93502753D01*
X166666301Y-93539504D01*
X166681795Y-93554477D01*
X166721983Y-93597304D01*
X166754862Y-93639459D01*
X166781318Y-93682397D01*
X166802239Y-93727569D01*
X166818510Y-93776430D01*
X166819570Y-93780291D01*
X166824581Y-93805742D01*
X166827831Y-93836912D01*
X166829295Y-93871235D01*
X166828949Y-93906142D01*
X166826770Y-93939067D01*
X166822731Y-93967442D01*
X166821399Y-93973650D01*
X166802206Y-94038747D01*
X166775011Y-94103968D01*
X166739769Y-94169363D01*
X166696436Y-94234982D01*
X166644966Y-94300877D01*
X166585314Y-94367099D01*
X166517435Y-94433697D01*
X166441283Y-94500724D01*
X166356815Y-94568229D01*
X166263984Y-94636263D01*
X166183165Y-94691439D01*
X166118781Y-94734109D01*
X166096500Y-94811079D01*
X166046626Y-94968347D01*
X165988648Y-95123821D01*
X165922840Y-95276939D01*
X165849475Y-95427139D01*
X165768826Y-95573858D01*
X165681165Y-95716535D01*
X165595300Y-95842710D01*
X165491862Y-95980353D01*
X165382022Y-96112541D01*
X165266011Y-96239077D01*
X165144062Y-96359764D01*
X165016409Y-96474405D01*
X164883283Y-96582804D01*
X164744918Y-96684763D01*
X164601545Y-96780085D01*
X164453399Y-96868574D01*
X164300711Y-96950033D01*
X164266033Y-96967236D01*
X164110024Y-97038895D01*
X163950496Y-97102986D01*
X163787902Y-97159406D01*
X163622693Y-97208050D01*
X163455321Y-97248818D01*
X163286240Y-97281605D01*
X163115900Y-97306309D01*
X162944755Y-97322827D01*
X162773257Y-97331056D01*
X162663716Y-97331926D01*
X162633941Y-97331652D01*
X162605290Y-97331309D01*
X162579435Y-97330925D01*
X162558047Y-97330524D01*
X162542795Y-97330133D01*
X162538833Y-97329988D01*
X162359939Y-97318280D01*
X162183985Y-97298635D01*
X162010933Y-97271042D01*
X161840747Y-97235492D01*
X161673391Y-97191974D01*
X161508829Y-97140477D01*
X161347025Y-97080991D01*
X161187941Y-97013505D01*
X161031541Y-96938010D01*
X160879691Y-96855585D01*
X160734769Y-96767849D01*
X160594778Y-96673616D01*
X160459298Y-96572569D01*
X160327913Y-96464390D01*
X160200203Y-96348762D01*
X160158616Y-96308742D01*
X160136743Y-96287138D01*
X160119223Y-96269357D01*
X160106257Y-96255680D01*
X160098050Y-96246388D01*
X160094803Y-96241759D01*
X160096721Y-96242074D01*
X160104006Y-96247614D01*
X160116860Y-96258657D01*
X160132558Y-96272800D01*
X160240754Y-96368653D01*
X160347788Y-96457156D01*
X160454801Y-96539110D01*
X160562934Y-96615312D01*
X160673327Y-96686561D01*
X160787122Y-96753655D01*
X160905458Y-96817394D01*
X160923817Y-96826789D01*
X161067797Y-96896061D01*
X161212936Y-96957978D01*
X161359872Y-97012718D01*
X161509244Y-97060461D01*
X161661689Y-97101385D01*
X161817846Y-97135670D01*
X161978353Y-97163494D01*
X162143849Y-97185036D01*
X162234033Y-97193987D01*
X162259299Y-97195717D01*
X162291792Y-97197128D01*
X162330277Y-97198226D01*
X162373519Y-97199015D01*
X162420286Y-97199501D01*
X162469341Y-97199688D01*
X162519452Y-97199581D01*
X162569384Y-97199185D01*
X162617903Y-97198505D01*
X162663775Y-97197546D01*
X162705765Y-97196312D01*
X162742640Y-97194809D01*
X162773164Y-97193041D01*
X162788600Y-97191792D01*
X162956657Y-97172633D01*
X163119490Y-97147191D01*
X163277743Y-97115287D01*
X163432059Y-97076740D01*
X163583083Y-97031370D01*
X163731460Y-96978996D01*
X163877833Y-96919440D01*
X164022847Y-96852520D01*
X164050133Y-96839041D01*
X164200929Y-96759091D01*
X164347035Y-96672165D01*
X164488249Y-96578432D01*
X164624371Y-96478058D01*
X164755201Y-96371211D01*
X164880538Y-96258058D01*
X165000181Y-96138766D01*
X165113930Y-96013503D01*
X165221584Y-95882436D01*
X165264906Y-95825734D01*
X165360006Y-95691861D01*
X165447868Y-95554232D01*
X165528735Y-95412405D01*
X165602844Y-95265938D01*
X165670437Y-95114387D01*
X165722564Y-94982270D01*
X165734766Y-94949490D01*
X165679159Y-94977355D01*
X165570869Y-95029932D01*
X165454994Y-95082993D01*
X165332372Y-95136196D01*
X165203844Y-95189205D01*
X165070251Y-95241678D01*
X164932432Y-95293276D01*
X164791228Y-95343661D01*
X164668200Y-95385605D01*
X164567861Y-95418661D01*
X164471569Y-95449473D01*
X164377618Y-95478536D01*
X164284300Y-95506347D01*
X164189908Y-95533403D01*
X164092735Y-95560199D01*
X163991073Y-95587232D01*
X163883216Y-95614999D01*
X163853283Y-95622568D01*
X163654317Y-95672699D01*
X163651320Y-95693125D01*
X163649922Y-95704253D01*
X163647981Y-95721890D01*
X163645698Y-95744109D01*
X163643272Y-95768985D01*
X163641690Y-95785920D01*
X163627657Y-95907624D01*
X163608309Y-96025666D01*
X163607280Y-96031050D01*
X163603165Y-96051501D01*
X163597971Y-96075863D01*
X163592011Y-96102809D01*
X163585601Y-96131008D01*
X163579052Y-96159132D01*
X163572680Y-96185853D01*
X163566798Y-96209840D01*
X163561720Y-96229765D01*
X163557758Y-96244299D01*
X163555228Y-96252112D01*
X163554964Y-96252674D01*
X163553865Y-96250496D01*
X163552621Y-96241038D01*
X163551330Y-96225482D01*
X163550089Y-96205010D01*
X163548993Y-96180805D01*
X163548909Y-96178591D01*
X163541512Y-96055815D01*
X163528716Y-95936510D01*
X163510692Y-95822176D01*
X163505803Y-95796631D01*
X163500051Y-95767769D01*
X163495556Y-95746201D01*
X163491948Y-95730911D01*
X163488854Y-95720884D01*
X163485903Y-95715105D01*
X163482724Y-95712559D01*
X163478946Y-95712230D01*
X163475168Y-95712897D01*
X163444842Y-95719284D01*
X163410197Y-95726509D01*
X163372517Y-95734311D01*
X163333086Y-95742428D01*
X163293187Y-95750598D01*
X163254106Y-95758561D01*
X163217125Y-95766053D01*
X163183528Y-95772814D01*
X163154599Y-95778581D01*
X163131623Y-95783093D01*
X163118134Y-95785672D01*
X163056086Y-95797258D01*
X163019165Y-95873937D01*
X163007943Y-95896897D01*
X162997945Y-95916695D01*
X162989734Y-95932268D01*
X162983875Y-95942554D01*
X162980931Y-95946490D01*
X162980725Y-95946384D01*
X162981294Y-95941069D01*
X162983838Y-95929063D01*
X162988010Y-95911815D01*
X162993464Y-95890776D01*
X162997890Y-95874457D01*
X163004048Y-95851914D01*
X163009242Y-95832442D01*
X163013120Y-95817405D01*
X163015327Y-95808168D01*
X163015680Y-95805870D01*
X163011433Y-95806265D01*
X163000286Y-95807939D01*
X162983674Y-95810661D01*
X162963028Y-95814197D01*
X162949317Y-95816611D01*
X162883850Y-95828247D01*
X162871042Y-95889432D01*
X162858235Y-95950617D01*
X162780026Y-96113196D01*
X162763507Y-96147321D01*
X162748117Y-96178707D01*
X162734233Y-96206612D01*
X162722235Y-96230292D01*
X162712501Y-96249005D01*
X162705411Y-96262009D01*
X162701342Y-96268561D01*
X162700506Y-96269071D01*
X162700564Y-96263375D01*
X162701331Y-96250287D01*
X162702726Y-96230846D01*
X162704670Y-96206090D01*
X162707081Y-96177056D01*
X162709878Y-96144784D01*
X162711980Y-96121309D01*
X162717052Y-96065009D01*
X162721341Y-96016646D01*
X162724882Y-95975726D01*
X162727713Y-95941760D01*
X162729870Y-95914256D01*
X162731390Y-95892722D01*
X162732311Y-95876668D01*
X162732670Y-95865603D01*
X162732502Y-95859034D01*
X162731882Y-95856505D01*
X162727169Y-95856418D01*
X162715262Y-95857514D01*
X162697326Y-95859647D01*
X162674529Y-95862672D01*
X162648038Y-95866442D01*
X162626685Y-95869635D01*
X162595539Y-95874342D01*
X162564766Y-95878915D01*
X162536137Y-95883096D01*
X162511426Y-95886628D01*
X162492404Y-95889253D01*
X162485458Y-95890160D01*
X162466870Y-95892769D01*
X162455379Y-95895176D01*
X162449635Y-95897798D01*
X162448292Y-95901053D01*
X162448394Y-95901655D01*
X162449798Y-95907531D01*
X162452916Y-95920375D01*
X162457443Y-95938932D01*
X162463072Y-95961949D01*
X162469497Y-95988171D01*
X162473193Y-96003239D01*
X162479843Y-96030534D01*
X162485754Y-96055183D01*
X162490640Y-96075962D01*
X162494215Y-96091648D01*
X162496195Y-96101017D01*
X162496500Y-96103041D01*
X162494038Y-96108521D01*
X162487537Y-96118531D01*
X162478324Y-96131053D01*
X162476833Y-96132969D01*
X162448629Y-96171321D01*
X162419321Y-96215466D01*
X162390270Y-96263095D01*
X162362836Y-96311900D01*
X162338379Y-96359573D01*
X162321055Y-96397234D01*
X162309195Y-96424750D01*
X162286264Y-96357017D01*
X162267530Y-96300814D01*
X162247840Y-96240190D01*
X162228030Y-96177789D01*
X162208934Y-96116258D01*
X162191384Y-96058244D01*
X162180884Y-96022584D01*
X162173410Y-95997104D01*
X162166617Y-95974420D01*
X162160892Y-95955779D01*
X162156620Y-95942431D01*
X162154185Y-95935623D01*
X162153885Y-95935060D01*
X162149291Y-95934695D01*
X162138213Y-95935167D01*
X162122570Y-95936292D01*
X162104283Y-95937882D01*
X162085272Y-95939753D01*
X162067457Y-95941718D01*
X162052758Y-95943591D01*
X162043096Y-95945187D01*
X162040337Y-95946057D01*
X162038838Y-95950683D01*
X162035917Y-95962330D01*
X162031851Y-95979721D01*
X162026917Y-96001583D01*
X162021392Y-96026640D01*
X162015553Y-96053618D01*
X162009679Y-96081243D01*
X162004046Y-96108239D01*
X161998931Y-96133332D01*
X161994611Y-96155248D01*
X161993063Y-96163403D01*
X161987865Y-96192197D01*
X161982090Y-96225822D01*
X161976331Y-96260725D01*
X161971184Y-96293351D01*
X161969583Y-96303931D01*
X161958561Y-96377846D01*
X161934372Y-96398744D01*
X161913697Y-96417473D01*
X161889318Y-96440943D01*
X161862907Y-96467422D01*
X161836135Y-96495178D01*
X161810673Y-96522476D01*
X161788194Y-96547585D01*
X161770483Y-96568628D01*
X161756687Y-96586527D01*
X161740251Y-96608946D01*
X161722332Y-96634196D01*
X161704085Y-96660594D01*
X161686665Y-96686451D01*
X161671229Y-96710082D01*
X161658931Y-96729800D01*
X161652876Y-96740250D01*
X161647590Y-96748663D01*
X161643961Y-96752269D01*
X161643519Y-96752164D01*
X161642227Y-96746932D01*
X161640687Y-96734137D01*
X161638950Y-96714674D01*
X161637069Y-96689443D01*
X161635096Y-96659340D01*
X161633082Y-96625263D01*
X161631080Y-96588109D01*
X161629142Y-96548775D01*
X161627319Y-96508160D01*
X161625664Y-96467160D01*
X161624228Y-96426672D01*
X161623699Y-96409934D01*
X161621752Y-96331011D01*
X161620920Y-96258180D01*
X161621196Y-96189136D01*
X161622572Y-96121580D01*
X161622807Y-96113600D01*
X161623792Y-96080961D01*
X161624681Y-96051197D01*
X161625444Y-96025322D01*
X161626053Y-96004347D01*
X161626477Y-95989284D01*
X161626686Y-95981144D01*
X161626701Y-95979983D01*
X161622639Y-95980145D01*
X161611392Y-95980753D01*
X161594229Y-95981733D01*
X161572415Y-95983014D01*
X161547217Y-95984522D01*
X161541883Y-95984844D01*
X161398414Y-95992309D01*
X161252313Y-95997545D01*
X161105175Y-96000555D01*
X160958597Y-96001339D01*
X160814177Y-95999897D01*
X160673510Y-95996231D01*
X160538192Y-95990340D01*
X160439100Y-95984321D01*
X160294572Y-95972654D01*
X160154997Y-95957948D01*
X160020691Y-95940274D01*
X159891972Y-95919704D01*
X159769157Y-95896310D01*
X159652561Y-95870162D01*
X159542504Y-95841332D01*
X159439301Y-95809892D01*
X159343269Y-95775914D01*
X159254726Y-95739467D01*
X159173988Y-95700625D01*
X159169100Y-95698062D01*
X159096235Y-95656459D01*
X159031053Y-95612537D01*
X158973638Y-95566393D01*
X158924075Y-95518123D01*
X158882448Y-95467822D01*
X158848842Y-95415587D01*
X158823341Y-95361515D01*
X158806029Y-95305701D01*
X158800710Y-95278671D01*
X158797476Y-95246345D01*
X158796970Y-95209120D01*
X158799026Y-95170056D01*
X158803478Y-95132212D01*
X158810160Y-95098646D01*
X158810555Y-95097115D01*
X158831047Y-95034318D01*
X158859837Y-94970786D01*
X158896795Y-94906617D01*
X158941794Y-94841911D01*
X158994704Y-94776765D01*
X159055398Y-94711280D01*
X159123746Y-94645552D01*
X159199621Y-94579680D01*
X159282894Y-94513764D01*
X159373436Y-94447902D01*
X159471119Y-94382192D01*
X159575815Y-94316733D01*
X159687395Y-94251624D01*
X159805730Y-94186962D01*
X159930693Y-94122848D01*
X160062155Y-94059378D01*
X160199986Y-93996653D01*
X160302276Y-93952355D01*
X160327321Y-93941591D01*
X160345424Y-93933422D01*
X160357517Y-93927330D01*
X160364533Y-93922801D01*
X160367403Y-93919320D01*
X160367135Y-93916504D01*
X160364899Y-93914757D01*
X160359603Y-93912861D01*
X160350631Y-93910719D01*
X160337367Y-93908237D01*
X160319195Y-93905320D01*
X160295498Y-93901873D01*
X160265661Y-93897800D01*
X160229068Y-93893007D01*
X160185101Y-93887397D01*
X160150476Y-93883043D01*
X160108995Y-93877824D01*
X160070121Y-93872886D01*
X160034650Y-93868333D01*
X160003381Y-93864270D01*
X159977111Y-93860801D01*
X159956638Y-93858031D01*
X159942759Y-93856064D01*
X159936272Y-93855006D01*
X159935892Y-93854891D01*
X159935791Y-93854144D01*
X159937442Y-93853295D01*
X159941482Y-93852256D01*
X159948547Y-93850935D01*
X159959273Y-93849244D01*
X159974296Y-93847092D01*
X159994254Y-93844391D01*
X160019783Y-93841049D01*
X160051518Y-93836978D01*
X160090096Y-93832087D01*
X160136153Y-93826287D01*
X160159528Y-93823352D01*
X160200177Y-93818234D01*
X160238178Y-93813420D01*
X160272722Y-93809014D01*
X160303000Y-93805119D01*
X160328205Y-93801842D01*
X160347527Y-93799285D01*
X160360159Y-93797555D01*
X160365291Y-93796755D01*
X160365365Y-93796728D01*
X160367542Y-93792766D01*
X160371958Y-93784231D01*
X160372637Y-93782898D01*
X160382525Y-93768276D01*
X160397076Y-93752347D01*
X160413520Y-93737850D01*
X160428139Y-93728024D01*
X160440035Y-93719129D01*
X160445329Y-93707980D01*
X160445501Y-93707053D01*
X160446490Y-93700314D01*
X160448454Y-93686080D01*
X160451273Y-93665250D01*
X160454826Y-93638722D01*
X160458995Y-93607397D01*
X160463658Y-93572174D01*
X160468696Y-93533953D01*
X160473192Y-93499708D01*
X160478413Y-93460119D01*
X160483348Y-93423159D01*
X160487882Y-93389665D01*
X160491898Y-93360472D01*
X160495281Y-93336415D01*
X160497914Y-93318331D01*
X160499683Y-93307055D01*
X160500439Y-93303417D01*
X160501236Y-93303186D01*
X160502106Y-93304512D01*
X160503142Y-93308045D01*
X160504442Y-93314435D01*
X160506101Y-93324331D01*
X160508214Y-93338382D01*
X160510878Y-93357237D01*
X160514187Y-93381547D01*
X160518238Y-93411960D01*
X160523127Y-93449126D01*
X160528949Y-93493693D01*
X160532465Y-93520684D01*
X160537755Y-93560727D01*
X160542846Y-93598138D01*
X160547616Y-93632089D01*
X160551942Y-93661757D01*
X160555700Y-93686317D01*
X160558768Y-93704944D01*
X160561022Y-93716812D01*
X160562332Y-93721094D01*
X160578670Y-93729932D01*
X160596824Y-93744423D01*
X160614793Y-93762666D01*
X160630575Y-93782757D01*
X160635950Y-93791090D01*
X160638222Y-93792910D01*
X160643302Y-93794830D01*
X160651840Y-93796953D01*
X160664485Y-93799378D01*
X160681884Y-93802209D01*
X160704686Y-93805546D01*
X160733541Y-93809491D01*
X160769096Y-93814146D01*
X160812001Y-93819612D01*
X160843383Y-93823553D01*
X160892860Y-93829752D01*
X160934568Y-93835008D01*
X160969145Y-93839410D01*
X160997224Y-93843048D01*
X161019442Y-93846012D01*
X161036435Y-93848392D01*
X161048837Y-93850278D01*
X161057284Y-93851760D01*
X161062412Y-93852926D01*
X161064855Y-93853869D01*
X161065251Y-93854676D01*
X161065074Y-93854897D01*
X161060696Y-93855699D01*
X161048712Y-93857442D01*
X161029922Y-93860022D01*
X161005121Y-93863334D01*
X160975108Y-93867271D01*
X160940680Y-93871729D01*
X160902633Y-93876602D01*
X160861765Y-93881786D01*
X160850359Y-93883225D01*
X160637201Y-93910068D01*
X160629524Y-93925116D01*
X160620006Y-93939066D01*
X160605765Y-93954617D01*
X160589448Y-93969208D01*
X160573707Y-93980278D01*
X160570817Y-93981866D01*
X160562030Y-93987203D01*
X160557722Y-93991373D01*
X160557633Y-93991777D01*
X160557094Y-93996742D01*
X160555567Y-94009091D01*
X160553183Y-94027815D01*
X160550077Y-94051905D01*
X160546381Y-94080352D01*
X160542229Y-94112148D01*
X160537752Y-94146284D01*
X160533085Y-94181752D01*
X160528361Y-94217542D01*
X160523711Y-94252646D01*
X160519270Y-94286056D01*
X160515171Y-94316763D01*
X160511546Y-94343758D01*
X160508529Y-94366032D01*
X160506252Y-94382578D01*
X160504848Y-94392386D01*
X160504553Y-94394241D01*
X160502506Y-94403273D01*
X160500733Y-94406983D01*
X160500525Y-94406903D01*
X160499681Y-94402526D01*
X160497862Y-94390582D01*
X160495181Y-94371900D01*
X160491753Y-94347311D01*
X160487693Y-94317643D01*
X160483115Y-94283726D01*
X160478134Y-94246389D01*
X160473140Y-94208562D01*
X160467833Y-94168269D01*
X160462795Y-94130212D01*
X160458146Y-94095284D01*
X160454005Y-94064377D01*
X160450494Y-94038385D01*
X160447732Y-94018201D01*
X160445838Y-94004716D01*
X160444977Y-93999050D01*
X160439163Y-93986801D01*
X160429243Y-93979576D01*
X160423302Y-93976858D01*
X160417752Y-93975700D01*
X160410927Y-93976470D01*
X160401160Y-93979538D01*
X160386787Y-93985272D01*
X160368570Y-93993002D01*
X160247056Y-94046549D01*
X160128010Y-94102164D01*
X160012245Y-94159406D01*
X159900575Y-94217833D01*
X159793815Y-94277003D01*
X159692779Y-94336474D01*
X159598281Y-94395804D01*
X159511135Y-94454552D01*
X159488717Y-94470439D01*
X159436171Y-94509476D01*
X159383662Y-94551095D01*
X159332226Y-94594346D01*
X159282897Y-94638274D01*
X159236714Y-94681928D01*
X159194711Y-94724355D01*
X159157926Y-94764602D01*
X159127394Y-94801718D01*
X159125229Y-94804555D01*
X159081307Y-94867386D01*
X159045746Y-94928985D01*
X159018538Y-94989300D01*
X158999674Y-95048280D01*
X158989147Y-95105874D01*
X158986948Y-95162032D01*
X158993068Y-95216701D01*
X159007499Y-95269832D01*
X159030233Y-95321373D01*
X159061262Y-95371274D01*
X159100577Y-95419483D01*
X159148170Y-95465949D01*
X159204032Y-95510621D01*
X159245300Y-95539015D01*
X159308143Y-95576409D01*
X159378837Y-95612095D01*
X159456911Y-95645926D01*
X159541896Y-95677755D01*
X159633319Y-95707434D01*
X159730711Y-95734817D01*
X159833601Y-95759755D01*
X159941519Y-95782103D01*
X160053993Y-95801712D01*
X160113988Y-95810758D01*
X160190751Y-95821305D01*
X160264735Y-95830547D01*
X160337289Y-95838588D01*
X160409764Y-95845536D01*
X160483511Y-95851496D01*
X160559880Y-95856575D01*
X160640220Y-95860877D01*
X160725882Y-95864509D01*
X160818216Y-95867577D01*
X160849497Y-95868460D01*
X160919051Y-95869861D01*
X160994301Y-95870497D01*
X161073638Y-95870399D01*
X161155452Y-95869603D01*
X161238133Y-95868141D01*
X161320072Y-95866047D01*
X161399660Y-95863354D01*
X161475286Y-95860096D01*
X161545341Y-95856306D01*
X161595749Y-95852953D01*
X161632682Y-95850252D01*
X161634630Y-95836934D01*
X161635520Y-95829106D01*
X161636987Y-95814166D01*
X161637295Y-95810839D01*
X162077400Y-95810839D01*
X162081064Y-95811951D01*
X162090010Y-95811928D01*
X162101171Y-95811035D01*
X162111478Y-95809537D01*
X162117864Y-95807696D01*
X162118403Y-95807308D01*
X162118032Y-95802857D01*
X162115819Y-95792154D01*
X162112180Y-95777105D01*
X162110010Y-95768752D01*
X162100161Y-95731651D01*
X162088780Y-95769572D01*
X162083814Y-95786457D01*
X162079946Y-95800251D01*
X162077724Y-95808969D01*
X162077400Y-95810839D01*
X161637295Y-95810839D01*
X161638912Y-95793436D01*
X161641172Y-95768244D01*
X161643646Y-95739913D01*
X161645537Y-95717784D01*
X161666129Y-95520752D01*
X161694672Y-95321764D01*
X161731049Y-95121427D01*
X161775140Y-94920349D01*
X161826829Y-94719137D01*
X161864771Y-94587484D01*
X161881318Y-94532450D01*
X161875766Y-94481650D01*
X161865969Y-94385741D01*
X161857758Y-94291270D01*
X161851045Y-94196597D01*
X161845737Y-94100082D01*
X161841746Y-94000085D01*
X161839102Y-93899567D01*
X162183301Y-93899567D01*
X162183730Y-93982448D01*
X162185092Y-94061735D01*
X162187478Y-94138746D01*
X162190978Y-94214801D01*
X162195686Y-94291220D01*
X162201692Y-94369322D01*
X162209088Y-94450428D01*
X162217965Y-94535855D01*
X162228416Y-94626925D01*
X162240530Y-94724956D01*
X162240544Y-94725067D01*
X162258905Y-94864686D01*
X162277611Y-94997459D01*
X162296929Y-95125005D01*
X162317129Y-95248943D01*
X162338476Y-95370893D01*
X162361240Y-95492475D01*
X162385687Y-95615309D01*
X162395716Y-95663809D01*
X162418043Y-95770700D01*
X162429521Y-95770700D01*
X162436618Y-95770107D01*
X162450890Y-95768433D01*
X162471140Y-95765837D01*
X162496166Y-95762476D01*
X162524770Y-95758508D01*
X162555753Y-95754093D01*
X162558708Y-95753666D01*
X162603255Y-95747191D01*
X162640146Y-95741765D01*
X162670113Y-95737274D01*
X162693887Y-95733604D01*
X162712199Y-95730644D01*
X162725779Y-95728280D01*
X162735360Y-95726398D01*
X162735979Y-95726264D01*
X162737903Y-95725862D01*
X162739566Y-95725139D01*
X162741029Y-95723469D01*
X162742353Y-95720223D01*
X162743596Y-95714774D01*
X162744821Y-95706493D01*
X162746086Y-95694753D01*
X162747453Y-95678925D01*
X162748981Y-95658382D01*
X162750731Y-95632496D01*
X162752763Y-95600638D01*
X162755138Y-95562182D01*
X162757915Y-95516499D01*
X162760978Y-95465900D01*
X162768254Y-95337184D01*
X162774665Y-95206142D01*
X162780205Y-95073537D01*
X162784868Y-94940128D01*
X162788648Y-94806675D01*
X162791539Y-94673940D01*
X162793534Y-94542682D01*
X162794627Y-94413662D01*
X162794813Y-94287640D01*
X162794085Y-94165377D01*
X162792436Y-94047634D01*
X162789862Y-93935170D01*
X162786355Y-93828746D01*
X162781910Y-93729123D01*
X162776520Y-93637061D01*
X162775807Y-93626517D01*
X162757531Y-93419148D01*
X162731141Y-93211169D01*
X162696598Y-93002385D01*
X162653867Y-92792602D01*
X162602911Y-92581625D01*
X162560975Y-92431237D01*
X162890188Y-92431237D01*
X162890934Y-92436579D01*
X162891494Y-92439067D01*
X162893337Y-92448537D01*
X162896195Y-92465316D01*
X162899908Y-92488326D01*
X162904315Y-92516492D01*
X162909256Y-92548736D01*
X162914570Y-92583982D01*
X162920097Y-92621154D01*
X162925676Y-92659175D01*
X162931147Y-92696969D01*
X162936349Y-92733459D01*
X162941122Y-92767569D01*
X162945305Y-92798222D01*
X162947361Y-92813717D01*
X162975840Y-93047194D01*
X162999259Y-93274645D01*
X163017625Y-93496827D01*
X163030945Y-93714496D01*
X163039229Y-93928408D01*
X163042483Y-94139320D01*
X163040715Y-94347988D01*
X163033933Y-94555168D01*
X163022146Y-94761616D01*
X163005360Y-94968090D01*
X162983584Y-95175344D01*
X162972698Y-95264817D01*
X162967278Y-95306511D01*
X162961201Y-95351320D01*
X162954649Y-95398033D01*
X162947805Y-95445442D01*
X162940852Y-95492339D01*
X162933973Y-95537515D01*
X162927350Y-95579761D01*
X162921167Y-95617868D01*
X162915606Y-95650628D01*
X162910851Y-95676832D01*
X162908745Y-95687523D01*
X162907687Y-95695897D01*
X162910897Y-95698203D01*
X162918344Y-95697016D01*
X162926866Y-95695344D01*
X162941806Y-95692559D01*
X162961241Y-95689016D01*
X162983250Y-95685066D01*
X162989209Y-95684006D01*
X163010449Y-95680146D01*
X163028516Y-95676688D01*
X163041867Y-95673940D01*
X163048955Y-95672213D01*
X163049670Y-95671908D01*
X163051431Y-95666997D01*
X163053713Y-95658461D01*
X163123033Y-95658461D01*
X163127042Y-95658168D01*
X163138533Y-95656290D01*
X163156702Y-95652986D01*
X163180746Y-95648410D01*
X163209860Y-95642720D01*
X163243240Y-95636071D01*
X163280082Y-95628621D01*
X163319583Y-95620524D01*
X163340399Y-95616216D01*
X163369720Y-95610053D01*
X163396270Y-95604328D01*
X163418932Y-95599295D01*
X163436592Y-95595206D01*
X163448132Y-95592312D01*
X163452412Y-95590899D01*
X163452564Y-95585431D01*
X163449809Y-95573127D01*
X163444510Y-95554963D01*
X163437028Y-95531912D01*
X163427724Y-95504949D01*
X163416960Y-95475051D01*
X163405097Y-95443190D01*
X163392498Y-95410343D01*
X163379522Y-95377484D01*
X163366532Y-95345588D01*
X163353889Y-95315631D01*
X163341955Y-95288585D01*
X163333862Y-95271167D01*
X163308593Y-95218250D01*
X163291505Y-95262700D01*
X163277029Y-95299571D01*
X163259769Y-95342228D01*
X163240519Y-95388783D01*
X163220071Y-95437348D01*
X163199221Y-95486037D01*
X163178759Y-95532960D01*
X163163638Y-95566992D01*
X163152180Y-95592571D01*
X163141975Y-95615429D01*
X163133502Y-95634483D01*
X163127244Y-95648651D01*
X163123679Y-95656851D01*
X163123033Y-95658461D01*
X163053713Y-95658461D01*
X163054688Y-95654817D01*
X163059215Y-95636389D01*
X163064784Y-95612732D01*
X163071165Y-95584866D01*
X163078132Y-95553812D01*
X163085456Y-95520589D01*
X163092910Y-95486219D01*
X163100266Y-95451720D01*
X163107295Y-95418114D01*
X163113771Y-95386420D01*
X163116500Y-95372767D01*
X163141413Y-95243067D01*
X163163329Y-95119976D01*
X163182376Y-95002234D01*
X163198687Y-94888581D01*
X163212392Y-94777758D01*
X163223620Y-94668507D01*
X163232503Y-94559567D01*
X163239171Y-94449679D01*
X163243754Y-94337583D01*
X163246382Y-94222022D01*
X163247187Y-94111233D01*
X163247070Y-94050454D01*
X163246604Y-93996504D01*
X163245723Y-93947754D01*
X163244360Y-93902571D01*
X163242450Y-93859323D01*
X163239927Y-93816381D01*
X163236725Y-93772111D01*
X163232777Y-93724882D01*
X163230591Y-93700600D01*
X163209853Y-93520867D01*
X163180751Y-93342365D01*
X163143313Y-93165204D01*
X163097568Y-92989496D01*
X163043544Y-92815349D01*
X162981269Y-92642874D01*
X162922208Y-92498451D01*
X162910296Y-92471051D01*
X162901360Y-92451060D01*
X162895179Y-92438048D01*
X162891529Y-92431584D01*
X162890188Y-92431237D01*
X162560975Y-92431237D01*
X162543693Y-92369262D01*
X162527230Y-92314747D01*
X162519614Y-92289911D01*
X162480874Y-92369781D01*
X162418196Y-92508175D01*
X162362927Y-92649473D01*
X162315301Y-92792937D01*
X162275553Y-92937828D01*
X162243917Y-93083411D01*
X162231945Y-93151695D01*
X162220084Y-93233679D01*
X162209776Y-93323140D01*
X162201074Y-93419220D01*
X162194037Y-93521061D01*
X162188718Y-93627805D01*
X162185174Y-93738597D01*
X162183461Y-93852577D01*
X162183301Y-93899567D01*
X161839102Y-93899567D01*
X161838980Y-93894965D01*
X161837351Y-93783150D01*
X161836944Y-93661587D01*
X161838164Y-93547418D01*
X161841116Y-93439709D01*
X161845908Y-93337526D01*
X161852644Y-93239934D01*
X161861432Y-93146000D01*
X161872377Y-93054788D01*
X161885585Y-92965364D01*
X161901163Y-92876794D01*
X161919217Y-92788144D01*
X161939852Y-92698479D01*
X161963176Y-92606864D01*
X161976552Y-92557600D01*
X162030676Y-92377579D01*
X162092579Y-92200040D01*
X162162037Y-92025478D01*
X162238824Y-91854384D01*
X162322715Y-91687251D01*
X162413487Y-91524572D01*
X162510913Y-91366841D01*
X162540818Y-91321437D01*
X162561296Y-91291052D01*
X162582206Y-91260495D01*
X162602742Y-91230907D01*
X162622101Y-91203425D01*
X162639476Y-91179189D01*
X162654064Y-91159339D01*
X162665060Y-91145014D01*
X162667882Y-91141550D01*
X162678496Y-91128850D01*
X162688040Y-91141090D01*
X162700746Y-91157952D01*
X162717167Y-91180605D01*
X162736403Y-91207746D01*
X162757557Y-91238066D01*
X162779728Y-91270259D01*
X162802018Y-91303019D01*
X162823527Y-91335039D01*
X162843357Y-91365013D01*
X162860609Y-91391635D01*
X162862664Y-91394857D01*
X162960673Y-91556772D01*
X163051441Y-91722981D01*
X163134855Y-91893213D01*
X163210805Y-92067197D01*
X163279180Y-92244663D01*
X163339868Y-92425340D01*
X163392758Y-92608957D01*
X163437740Y-92795243D01*
X163438077Y-92796784D01*
X163453672Y-92873183D01*
X163467517Y-92951714D01*
X163479753Y-93033482D01*
X163490522Y-93119591D01*
X163499967Y-93211146D01*
X163508231Y-93309253D01*
X163513294Y-93380984D01*
X163514618Y-93406616D01*
X163515759Y-93439628D01*
X163516716Y-93478933D01*
X163517489Y-93523447D01*
X163518078Y-93572082D01*
X163518483Y-93623755D01*
X163518705Y-93677378D01*
X163518743Y-93731868D01*
X163518597Y-93786137D01*
X163518267Y-93839101D01*
X163517752Y-93889674D01*
X163517054Y-93936770D01*
X163516172Y-93979304D01*
X163515106Y-94016190D01*
X163513856Y-94046343D01*
X163513309Y-94056200D01*
X163508578Y-94131411D01*
X163503950Y-94199690D01*
X163499309Y-94262568D01*
X163494536Y-94321578D01*
X163489515Y-94378250D01*
X163484621Y-94429156D01*
X163473827Y-94537528D01*
X163497768Y-94604839D01*
X163543149Y-94744093D01*
X163580751Y-94884987D01*
X163610679Y-95028074D01*
X163633033Y-95173903D01*
X163647916Y-95323028D01*
X163654814Y-95454259D01*
X163655715Y-95481147D01*
X163656609Y-95504940D01*
X163657443Y-95524423D01*
X163658163Y-95538382D01*
X163658716Y-95545603D01*
X163658885Y-95546334D01*
X163664013Y-95545329D01*
X163676318Y-95542485D01*
X163694775Y-95538059D01*
X163718356Y-95532306D01*
X163746037Y-95525484D01*
X163776791Y-95517849D01*
X163809593Y-95509656D01*
X163843415Y-95501163D01*
X163877232Y-95492625D01*
X163910018Y-95484300D01*
X163940748Y-95476443D01*
X163968394Y-95469312D01*
X163991931Y-95463161D01*
X163995100Y-95462324D01*
X164208967Y-95403572D01*
X164417649Y-95341882D01*
X164620675Y-95277418D01*
X164817576Y-95210342D01*
X165007882Y-95140817D01*
X165191124Y-95069007D01*
X165366831Y-94995074D01*
X165458218Y-94954415D01*
X165476396Y-94946038D01*
X165499196Y-94935331D01*
X165525660Y-94922760D01*
X165554832Y-94908792D01*
X165585754Y-94893895D01*
X165617469Y-94878535D01*
X165649018Y-94863179D01*
X165679445Y-94848294D01*
X165707793Y-94834347D01*
X165733102Y-94821806D01*
X165754417Y-94811136D01*
X165770780Y-94802805D01*
X165781233Y-94797280D01*
X165784707Y-94795186D01*
X165786572Y-94790463D01*
X165790118Y-94778736D01*
X165795027Y-94761231D01*
X165800983Y-94739172D01*
X165807668Y-94713785D01*
X165814766Y-94686293D01*
X165821961Y-94657921D01*
X165828934Y-94629894D01*
X165835370Y-94603437D01*
X165840951Y-94579775D01*
X165843231Y-94569690D01*
X166157017Y-94569690D01*
X166170638Y-94561653D01*
X166178361Y-94556571D01*
X166191482Y-94547372D01*
X166208637Y-94535036D01*
X166228462Y-94520541D01*
X166247830Y-94506185D01*
X166331171Y-94441231D01*
X166406435Y-94376771D01*
X166473573Y-94312861D01*
X166532536Y-94249558D01*
X166583276Y-94186917D01*
X166625745Y-94124995D01*
X166659893Y-94063846D01*
X166685673Y-94003528D01*
X166686854Y-94000214D01*
X166703366Y-93942020D01*
X166711629Y-93884596D01*
X166711645Y-93828229D01*
X166703416Y-93773204D01*
X166686942Y-93719807D01*
X166685542Y-93716292D01*
X166671757Y-93685847D01*
X166655449Y-93657339D01*
X166635469Y-93629149D01*
X166610666Y-93599655D01*
X166579891Y-93567238D01*
X166579550Y-93566894D01*
X166539513Y-93529126D01*
X166497808Y-93495154D01*
X166452663Y-93463727D01*
X166402308Y-93433592D01*
X166356679Y-93409370D01*
X166334881Y-93398642D01*
X166311182Y-93387512D01*
X166286840Y-93376514D01*
X166263120Y-93366179D01*
X166241281Y-93357041D01*
X166222585Y-93349632D01*
X166208294Y-93344486D01*
X166199669Y-93342135D01*
X166197771Y-93342251D01*
X166197648Y-93346866D01*
X166198502Y-93358441D01*
X166200195Y-93375541D01*
X166202589Y-93396733D01*
X166204623Y-93413355D01*
X166221707Y-93581029D01*
X166230801Y-93749116D01*
X166231911Y-93916908D01*
X166225044Y-94083699D01*
X166210206Y-94248780D01*
X166196003Y-94356767D01*
X166192578Y-94378885D01*
X166188345Y-94404771D01*
X166183582Y-94432867D01*
X166178566Y-94461617D01*
X166173577Y-94489464D01*
X166168892Y-94514853D01*
X166164788Y-94536225D01*
X166161545Y-94552025D01*
X166159776Y-94559537D01*
X166157017Y-94569690D01*
X165843231Y-94569690D01*
X165844522Y-94563980D01*
X165868741Y-94444375D01*
D13*
%TO.C,R2*%
X107738936Y-115591000D02*
X108193064Y-115591000D01*
X107738936Y-114121000D02*
X108193064Y-114121000D01*
%TO.C,R1*%
X117829000Y-61695064D02*
X117829000Y-61240936D01*
X116359000Y-61695064D02*
X116359000Y-61240936D01*
%TO.C,R3*%
X107722936Y-52805000D02*
X108177064Y-52805000D01*
X107722936Y-51335000D02*
X108177064Y-51335000D01*
%TD*%
M02*
