M48
; DRILL file {KiCad (6.0.6-0)} date Wednesday, February 15, 2023 at 09:53:25 AM
; FORMAT={-:-/ absolute / inch / decimal}
; #@! TF.CreationDate,2023-02-15T09:53:25-08:00
; #@! TF.GenerationSoftware,Kicad,Pcbnew,(6.0.6-0)
; #@! TF.FileFunction,Plated,1,2,PTH
FMAT,2
INCH
; #@! TA.AperFunction,Plated,PTH,ViaDrill
T1C0.0157
; #@! TA.AperFunction,Plated,PTH,ComponentDrill
T2C0.0354
; #@! TA.AperFunction,Plated,PTH,ComponentDrill
T3C0.0394
; #@! TA.AperFunction,Plated,PTH,ComponentDrill
T4C0.0409
; #@! TA.AperFunction,Plated,PTH,ViaDrill
T5C0.0787
%
G90
G05
T1
X4.175Y-2.25
X4.175Y-2.4
X4.45Y-2.25
X4.45Y-2.4
X4.45Y-2.625
X4.45Y-2.725
X4.45Y-2.825
X4.45Y-3.2
X4.45Y-3.625
X4.45Y-4.2
X4.725Y-2.25
X4.925Y-2.25
X5.075Y-4.2
X5.1Y-3.625
X5.125Y-2.25
X5.125Y-2.4
X5.125Y-2.625
X5.125Y-2.75
X5.125Y-2.85
X5.125Y-3.2
X5.35Y-2.25
X5.35Y-2.4
X5.35Y-2.625
X5.35Y-2.75
X5.35Y-2.85
X5.35Y-3.2
X5.35Y-3.625
X5.35Y-4.2
X5.6Y-2.25
X5.6Y-2.425
X5.6Y-2.625
X5.6Y-2.75
X5.6Y-2.85
X5.6Y-3.2
X5.6Y-3.625
X5.625Y-4.2
X5.825Y-2.25
X6.025Y-4.2
X6.05Y-3.625
X6.075Y-2.25
X6.075Y-2.625
X6.65Y-3.45
T2
X4.41Y-4.5219
X4.46Y-2.05
X4.51Y-4.5219
X4.56Y-2.05
T3
X3.6678Y-3.07
X3.6678Y-3.17
X3.6678Y-3.27
X3.6678Y-3.37
X3.6678Y-3.47
X3.6678Y-3.57
X3.69Y-3.86
X3.69Y-3.96
X3.69Y-4.06
X3.69Y-4.16
X3.69Y-4.26
X3.8222Y-4.8502
X3.8222Y-4.9502
X4.0222Y-2.0396
X4.0222Y-2.1396
X4.0222Y-2.2396
X4.0222Y-2.3396
X4.0222Y-2.4396
X4.0222Y-2.5396
X4.0222Y-2.6396
X4.0222Y-2.7396
X4.0222Y-2.8396
X4.0698Y-1.7522
X4.08Y-4.7519
X4.1698Y-1.7522
X4.18Y-4.7519
X4.4298Y-1.7522
X4.4897Y-4.7478
X4.5298Y-1.7522
X4.5897Y-4.7478
X4.8498Y-1.7522
X4.8997Y-4.7478
X4.9498Y-1.7522
X4.9997Y-4.7478
X5.2501Y-1.7481
X5.31Y-4.7419
X5.3501Y-1.7481
X5.41Y-4.7419
X5.6798Y-1.7522
X5.7497Y-4.7378
X5.7798Y-1.7522
X5.8497Y-4.7378
X6.1497Y-4.7378
X6.1498Y-1.7522
X6.2497Y-4.7378
X6.2498Y-1.7522
X6.2528Y-2.3202
X6.2528Y-2.4202
X6.2528Y-2.5202
X6.2528Y-2.6202
X6.2528Y-2.7202
X6.2528Y-2.8202
X6.2528Y-2.9202
X6.2528Y-3.0202
X6.2528Y-3.1202
X6.2528Y-3.2202
T4
X4.8804Y-2.3776
X4.8804Y-2.4776
X4.8804Y-2.5776
X4.8804Y-2.6776
X4.8804Y-2.7776
X4.8804Y-2.8776
X4.8804Y-2.9776
X4.8804Y-3.0776
X4.8804Y-3.1776
X4.8804Y-3.2776
X4.8804Y-3.3776
X4.8804Y-3.4776
X4.8804Y-3.5776
X4.8804Y-3.6776
X4.8804Y-3.7776
X4.8804Y-3.8776
X4.8804Y-3.9776
X4.8804Y-4.0776
X4.8804Y-4.1776
X5.8804Y-2.3776
X5.8804Y-2.4776
X5.8804Y-2.5776
X5.8804Y-2.6776
X5.8804Y-2.7776
X5.8804Y-2.8776
X5.8804Y-2.9776
X5.8804Y-3.0776
X5.8804Y-3.1776
X5.8804Y-3.2776
X5.8804Y-3.3776
X5.8804Y-3.4776
X5.8804Y-3.5776
X5.8804Y-3.6776
X5.8804Y-3.7776
X5.8804Y-3.8776
X5.8804Y-3.9776
X5.8804Y-4.0776
X5.8804Y-4.1776
T5
X3.4Y-1.275
X3.4Y-5.2
X6.8Y-1.275
X6.8Y-5.175
T0
M30
