M48
; DRILL file {KiCad (6.0.6-0)} date Saturday, March 25, 2023 at 11:09:05 AM
; FORMAT={-:-/ absolute / inch / decimal}
; #@! TF.CreationDate,2023-03-25T11:09:05-07:00
; #@! TF.GenerationSoftware,Kicad,Pcbnew,(6.0.6-0)
; #@! TF.FileFunction,Plated,1,2,PTH
FMAT,2
INCH
; #@! TA.AperFunction,Plated,PTH,ViaDrill
T1C0.0157
; #@! TA.AperFunction,Plated,PTH,ViaDrill
T2C0.0197
; #@! TA.AperFunction,Plated,PTH,ComponentDrill
T3C0.0276
; #@! TA.AperFunction,Plated,PTH,ComponentDrill
T4C0.0394
; #@! TA.AperFunction,Plated,PTH,ComponentDrill
T5C0.0409
; #@! TA.AperFunction,Plated,PTH,ViaDrill
T6C0.0787
%
G90
G05
T1
X3.626Y-4.135
X3.626Y-4.36
X3.63Y-4.605
X3.63Y-4.83
X3.726Y-4.135
X3.726Y-4.36
X3.73Y-4.605
X3.73Y-4.83
X3.756Y-1.63
X3.786Y-1.395
X3.856Y-1.63
X3.886Y-1.395
X3.936Y-4.135
X3.936Y-4.36
X3.94Y-4.605
X3.94Y-4.83
X4.036Y-4.135
X4.036Y-4.36
X4.04Y-4.605
X4.04Y-4.83
X4.046Y-1.63
X4.076Y-1.395
X4.1123Y-4.2577
X4.12Y-3.27
X4.14Y-1.9
X4.146Y-1.63
X4.18Y-1.93
X4.19Y-3.71
X4.21Y-2.61
X4.22Y-2.81
X4.23Y-1.95
X4.25Y-2.87
X4.25Y-3.21
X4.25Y-3.31
X4.28Y-3.11
X4.29Y-1.99
X4.29Y-4.98
X4.32Y-2.97
X4.3207Y-2.42
X4.3225Y-3.111
X4.35Y-2.86
X4.35Y-4.94
X4.356Y-1.63
X4.37Y-2.9
X4.4Y-4.9
X4.456Y-1.63
X4.48Y-2.31
X4.5Y-2.69
X4.5Y-2.94
X4.5Y-4.65
X4.55Y-2.69
X4.57Y-2.88
X4.6Y-4.35
X4.626Y-3.195
X4.626Y-3.42
X4.626Y-3.595
X4.666Y-1.63
X4.726Y-3.195
X4.726Y-3.42
X4.726Y-3.595
X4.74Y-2.42
X4.766Y-1.63
X4.7993Y-2.38
X4.8Y-2.01
X4.805Y-4.5
X4.805Y-4.6
X4.9317Y-2.5017
X4.94Y-2.81
X4.98Y-2.46
X5.006Y-1.63
X5.03Y-4.5
X5.03Y-4.6
X5.106Y-1.63
X5.15Y-1.64
X5.19Y-1.66
X5.26Y-1.69
X5.315Y-4.51
X5.315Y-4.61
X5.35Y-1.71
X5.35Y-1.77
X5.54Y-4.51
X5.54Y-4.61
X5.62Y-1.78
X5.65Y-3.58
X5.65Y-3.695
X5.6507Y-1.81
X5.71Y-2.21
X5.72Y-3.94
X5.79Y-5.15
X5.82Y-2.91
X5.84Y-5.1
X5.88Y-4.78
X5.9Y-3.21
X5.95Y-2.31
X5.96Y-4.78
X6.02Y-4.78
X6.07Y-2.87
X6.08Y-3.96
X6.6Y-2.325
X6.6Y-2.55
X6.6Y-3.295
X6.6Y-3.52
X6.61Y-4.015
X6.61Y-4.24
X6.66Y-1.87
X6.66Y-1.96
X6.67Y-2.01
X6.7Y-2.325
X6.7Y-2.55
X6.7Y-3.295
X6.7Y-3.52
X6.71Y-4.015
X6.71Y-4.24
X6.75Y-1.6
X6.75Y-1.85
X6.78Y-1.6393
X6.82Y-1.67
X6.85Y-1.8183
X6.85Y-3.07
X6.85Y-4.65
X6.86Y-4.78
X6.87Y-1.48
X6.9Y-1.52
X6.93Y-1.56
X6.93Y-1.7
X6.9507Y-2.25
X6.9507Y-2.62
X6.9807Y-2.2
X6.9807Y-2.73
X6.9807Y-4.71
X7.0Y-2.07
X7.0Y-2.15
X7.0007Y-3.66
X7.0093Y-3.18
X7.01Y-2.44
X7.08Y-4.58
X7.0907Y-4.08
X7.1Y-3.18
X7.14Y-4.44
X7.16Y-5.15
X7.1807Y-2.07
X7.2Y-2.42
X7.2Y-3.18
X7.2Y-5.1
X7.2168Y-2.14
X7.2168Y-2.2
X7.22Y-5.06
X7.25Y-5.02
X7.27Y-4.98
X7.2736Y-1.55
X7.2767Y-2.0177
X7.29Y-3.11
X7.3Y-1.51
X7.3Y-2.14
X7.3Y-2.2
X7.3Y-3.41
X7.31Y-2.42
X7.3117Y-2.9917
X7.33Y-4.55
X7.35Y-3.41
X7.3585Y-2.982
X7.37Y-2.61
X7.37Y-4.0
X7.3806Y-2.8056
X7.3807Y-3.5
X7.39Y-4.96
X7.3907Y-4.16
X7.41Y-2.19
X7.43Y-1.52
X7.47Y-3.15
X7.4707Y-1.67
X7.4956Y-1.6144
X7.51Y-2.02
X7.52Y-3.96
X7.53Y-2.6
X7.55Y-3.04
X7.56Y-1.61
X7.57Y-1.46
X7.5999Y-3.14
X7.6414Y-3.97
X7.65Y-2.06
X7.65Y-4.0407
X7.69Y-2.47
X7.7Y-1.51
X7.7Y-1.57
X7.7Y-2.2
X7.71Y-3.37
X7.73Y-3.14
X7.73Y-4.06
X7.84Y-1.56
X7.88Y-2.56
X7.9Y-2.07
X7.9Y-2.4
X7.91Y-1.61
X7.91Y-3.09
X7.9193Y-4.01
X7.92Y-3.47
T2
X4.36Y-3.9
X4.42Y-1.44
X4.42Y-2.74
X4.42Y-3.04
X6.34Y-1.38
X7.74Y-1.44
T3
X7.0313Y-1.7408
X7.0313Y-1.8392
X7.0601Y-2.7564
X7.0601Y-2.8548
X7.0601Y-3.6664
X7.0601Y-3.7648
X7.0707Y-1.662
X7.0707Y-1.918
X7.0813Y-4.7208
X7.0813Y-4.8192
X7.0994Y-2.6776
X7.0994Y-2.9335
X7.0994Y-3.5876
X7.0994Y-3.8435
X7.1101Y-1.7408
X7.1101Y-1.8392
X7.1207Y-4.642
X7.1207Y-4.898
X7.1388Y-2.7564
X7.1388Y-2.8548
X7.1388Y-3.6664
X7.1388Y-3.7648
X7.1494Y-1.662
X7.1494Y-1.918
X7.1601Y-4.7208
X7.1601Y-4.8192
X7.1782Y-2.6776
X7.1782Y-2.9335
X7.1782Y-3.5876
X7.1782Y-3.8435
X7.1888Y-1.7408
X7.1888Y-1.8392
X7.1994Y-4.642
X7.1994Y-4.898
X7.2176Y-2.7564
X7.2176Y-2.8548
X7.2176Y-3.6664
X7.2176Y-3.7648
X7.2282Y-1.662
X7.2282Y-1.918
X7.2388Y-4.7208
X7.2388Y-4.8192
X7.2569Y-2.6776
X7.2569Y-2.9335
X7.2569Y-3.5876
X7.2569Y-3.8435
X7.2676Y-1.7408
X7.2676Y-1.8392
X7.2782Y-4.642
X7.2782Y-4.898
X7.2963Y-2.7564
X7.2963Y-2.8548
X7.2963Y-3.6664
X7.2963Y-3.7648
X7.3069Y-1.662
X7.3069Y-1.918
X7.3176Y-4.7208
X7.3176Y-4.8192
X7.3357Y-2.6776
X7.3357Y-2.9335
X7.3357Y-3.5876
X7.3357Y-3.8435
X7.3463Y-1.7408
X7.3463Y-1.8392
X7.3569Y-4.642
X7.3569Y-4.898
X7.375Y-2.7564
X7.375Y-2.8548
X7.375Y-3.6664
X7.375Y-3.7648
X7.3857Y-1.662
X7.3857Y-1.918
X7.3963Y-4.7208
X7.3963Y-4.8192
X7.4144Y-2.6776
X7.4144Y-2.9335
X7.4144Y-3.5876
X7.4144Y-3.8435
X7.425Y-1.7408
X7.425Y-1.8392
X7.4357Y-4.642
X7.4357Y-4.898
X7.4538Y-2.7564
X7.4538Y-2.8548
X7.4538Y-3.6664
X7.4538Y-3.7648
X7.475Y-4.7208
X7.475Y-4.8192
X7.5431Y-1.662
X7.5431Y-1.918
X7.5719Y-2.6776
X7.5719Y-2.9335
X7.5719Y-3.5876
X7.5719Y-3.8435
X7.5825Y-1.7408
X7.5825Y-1.8392
X7.5931Y-4.642
X7.5931Y-4.898
X7.6113Y-2.7564
X7.6113Y-2.8548
X7.6113Y-3.6664
X7.6113Y-3.7648
X7.6219Y-1.662
X7.6219Y-1.918
X7.6325Y-4.7208
X7.6325Y-4.8192
X7.6506Y-2.6776
X7.6506Y-2.9335
X7.6506Y-3.5876
X7.6506Y-3.8435
X7.6613Y-1.7408
X7.6613Y-1.8392
X7.6719Y-4.642
X7.6719Y-4.898
X7.69Y-2.7564
X7.69Y-2.8548
X7.69Y-3.6664
X7.69Y-3.7648
X7.7006Y-1.662
X7.7006Y-1.918
X7.7113Y-4.7208
X7.7113Y-4.8192
X7.7294Y-2.6776
X7.7294Y-2.9335
X7.7294Y-3.5876
X7.7294Y-3.8435
X7.74Y-1.7408
X7.74Y-1.8392
X7.7506Y-4.642
X7.7506Y-4.898
X7.7687Y-2.7564
X7.7687Y-2.8548
X7.7687Y-3.6664
X7.7687Y-3.7648
X7.7794Y-1.662
X7.7794Y-1.918
X7.79Y-4.7208
X7.79Y-4.8192
X7.8081Y-2.6776
X7.8081Y-2.9335
X7.8081Y-3.5876
X7.8081Y-3.8435
X7.8294Y-4.642
X7.8294Y-4.898
T4
X3.5683Y-2.1096
X3.5683Y-2.2096
X3.5683Y-2.3096
X3.5683Y-2.4096
X3.5683Y-2.5096
X3.5683Y-2.6096
X3.5683Y-2.7096
X3.5683Y-2.8096
X3.5683Y-2.9096
X3.5683Y-3.0096
X3.5683Y-3.1096
X3.5683Y-3.2096
X3.5683Y-3.3096
X3.5683Y-3.4096
X3.5683Y-3.5096
X3.5683Y-3.6096
X3.5683Y-3.7096
X3.5683Y-3.8096
X3.5683Y-3.9096
X3.57Y-1.7202
X3.57Y-1.8202
X5.4738Y-2.1104
X5.4738Y-2.2104
X5.4738Y-2.3104
X5.4738Y-2.4104
X5.4738Y-2.5104
X5.4738Y-2.6104
X5.4738Y-2.7104
X5.4738Y-2.8104
X5.4738Y-2.9104
X5.4738Y-3.0104
X5.4738Y-3.1104
X5.4738Y-3.2104
X5.4738Y-3.3104
X5.4738Y-3.4104
X5.4738Y-3.5104
X5.4738Y-3.6104
X5.4738Y-3.7104
X5.4738Y-3.8104
X5.4738Y-3.9104
X6.18Y-3.3194
X6.18Y-3.4194
X6.18Y-3.5194
X6.19Y-4.0002
X6.19Y-4.1002
X6.19Y-4.2002
X6.19Y-4.3002
X6.19Y-4.4002
T5
X4.046Y-2.112
X4.046Y-2.212
X4.046Y-2.312
X4.046Y-2.412
X4.046Y-2.512
X4.046Y-2.612
X4.046Y-2.712
X4.046Y-2.812
X4.046Y-2.912
X4.046Y-3.012
X4.046Y-3.112
X4.046Y-3.212
X4.046Y-3.312
X4.046Y-3.412
X4.046Y-3.512
X4.046Y-3.612
X4.046Y-3.712
X4.046Y-3.812
X4.046Y-3.912
X5.046Y-2.112
X5.046Y-2.212
X5.046Y-2.312
X5.046Y-2.412
X5.046Y-2.512
X5.046Y-2.612
X5.046Y-2.712
X5.046Y-2.812
X5.046Y-2.912
X5.046Y-3.012
X5.046Y-3.112
X5.046Y-3.212
X5.046Y-3.312
X5.046Y-3.412
X5.046Y-3.512
X5.046Y-3.612
X5.046Y-3.712
X5.046Y-3.812
X5.046Y-3.912
T6
X3.34Y-1.42
X3.34Y-5.31
X7.98Y-1.42
X7.98Y-5.3
T0
M30
